<?xml version="1.0" encoding="UTF-8"?>
<svg xmlns="http://www.w3.org/2000/svg" xmlns:xlink="http://www.w3.org/1999/xlink" width="57.49pt" height="92.92pt" viewBox="0 0 57.49 92.92" version="1.1">
<defs>
<clipPath id="clip1">
  <path d="M 0 0 L 57.488281 0 L 57.488281 92.921875 L 0 92.921875 Z M 0 0 "/>
</clipPath>
</defs>
<g id="surface1">
<g clip-path="url(#clip1)" clip-rule="nonzero">
<path style="fill:none;stroke-width:0.79701;stroke-linecap:butt;stroke-linejoin:miter;stroke:rgb(0%,0%,0%);stroke-opacity:1;stroke-miterlimit:10;" d="M 0.0004375 0.00146875 L 0.0004375 48.724125 C 0.0004375 53.126469 2.230906 59.478031 4.977 62.915531 L 23.367625 85.903813 C 26.117625 89.341313 30.574656 89.341313 33.324656 85.903813 L 51.715281 62.915531 C 54.465281 59.478031 56.691844 53.126469 56.691844 48.724125 L 56.691844 7.970219 C 56.691844 3.567875 54.172312 2.524906 51.059031 5.634281 L 5.637156 51.056156 C 2.523875 54.169438 3.566844 56.692875 7.969187 56.692875 L 48.723094 56.692875 C 53.125437 56.692875 54.172312 54.169438 51.059031 51.056156 L 5.637156 5.634281 C 2.523875 2.524906 3.566844 0.00146875 7.969187 0.00146875 L 56.691844 0.00146875 " transform="matrix(1,0,0,-1,0.398,92.521)"/>
</g>
</g>
</svg>
