<?xml version="1.0" encoding="UTF-8" standalone="no"?>
<!DOCTYPE svg PUBLIC "-//W3C//DTD SVG 1.1//EN"
 "http://www.w3.org/Graphics/SVG/1.1/DTD/svg11.dtd">
<!-- Generated by graphviz version 2.43.0 (0)
 -->
<!-- Title: combine Pages: 1 -->
<svg width="295pt" height="374pt"
 viewBox="0.00 0.00 295.49 373.60" xmlns="http://www.w3.org/2000/svg" xmlns:xlink="http://www.w3.org/1999/xlink">
<g id="graph0" class="graph" transform="scale(1 1) rotate(0) translate(4 369.6)">
<title>combine</title>
<polygon fill="white" stroke="transparent" points="-4,4 -4,-369.6 291.49,-369.6 291.49,4 -4,4"/>
<text text-anchor="middle" x="143.75" y="-16" font-family="Times,serif" font-size="20.00">Spars Dense 合并</text>
<!-- input_sparse -->
<g id="node1" class="node">
<title>input_sparse</title>
<polygon fill="#808080" fill-opacity="0.094118" stroke="black" points="141.71,-365.6 11.51,-365.6 11.51,-329.6 141.71,-329.6 141.71,-365.6"/>
<text text-anchor="middle" x="76.61" y="-343.4" font-family="Times,serif" font-size="14.00">Input[SparseTensor]</text>
</g>
<!-- SparseDropout -->
<g id="node3" class="node">
<title>SparseDropout</title>
<polygon fill="#808080" fill-opacity="0.094118" stroke="black" points="138.6,-293.6 38.62,-293.6 38.62,-257.6 138.6,-257.6 138.6,-293.6"/>
<text text-anchor="middle" x="88.61" y="-271.4" font-family="Times,serif" font-size="14.00">SparseDropout</text>
</g>
<!-- input_sparse&#45;&gt;SparseDropout -->
<g id="edge1" class="edge">
<title>input_sparse&#45;&gt;SparseDropout</title>
<path fill="none" stroke="black" d="M79.58,-329.3C80.9,-321.58 82.49,-312.31 83.96,-303.71"/>
<polygon fill="black" stroke="black" points="87.44,-304.15 85.68,-293.7 80.54,-302.97 87.44,-304.15"/>
</g>
<!-- input_dense -->
<g id="node2" class="node">
<title>input_dense</title>
<polygon fill="#808080" fill-opacity="0.094118" stroke="black" points="287.37,-365.6 159.85,-365.6 159.85,-329.6 287.37,-329.6 287.37,-365.6"/>
<text text-anchor="middle" x="223.61" y="-343.4" font-family="Times,serif" font-size="14.00">Input[DenseTensor]</text>
</g>
<!-- concat -->
<g id="node6" class="node">
<title>concat</title>
<polygon fill="#808080" fill-opacity="0.094118" stroke="black" points="186.27,-72 130.95,-72 130.95,-36 186.27,-36 186.27,-72"/>
<text text-anchor="middle" x="158.61" y="-49.8" font-family="Times,serif" font-size="14.00">Concat</text>
</g>
<!-- input_dense&#45;&gt;concat -->
<g id="edge5" class="edge">
<title>input_dense&#45;&gt;concat</title>
<path fill="none" stroke="black" d="M221.95,-329.4C218.82,-298.98 211.18,-233.83 198.61,-180 190.55,-145.48 177.52,-106.76 168.53,-81.68"/>
<polygon fill="black" stroke="black" points="171.77,-80.35 165.07,-72.14 165.19,-82.74 171.77,-80.35"/>
</g>
<!-- DenseForSparse -->
<g id="node4" class="node">
<title>DenseForSparse</title>
<polygon fill="#808080" fill-opacity="0.094118" stroke="black" points="189.33,-221.4 -0.11,-221.4 -0.11,-180.2 189.33,-180.2 189.33,-221.4"/>
<text text-anchor="middle" x="94.61" y="-206.4" font-family="Times,serif" font-size="14.00">DenseForSparse</text>
<text text-anchor="middle" x="94.61" y="-192.4" font-family="Times,serif" font-size="14.00">支持SparseTensor的全连接层</text>
</g>
<!-- SparseDropout&#45;&gt;DenseForSparse -->
<g id="edge2" class="edge">
<title>SparseDropout&#45;&gt;DenseForSparse</title>
<path fill="none" stroke="black" d="M90.03,-257.35C90.66,-249.69 91.42,-240.46 92.14,-231.74"/>
<polygon fill="black" stroke="black" points="95.65,-231.75 92.99,-221.5 88.68,-231.18 95.65,-231.75"/>
</g>
<!-- Dropout -->
<g id="node5" class="node">
<title>Dropout</title>
<polygon fill="#808080" fill-opacity="0.094118" stroke="black" points="160.77,-144 98.45,-144 98.45,-108 160.77,-108 160.77,-144"/>
<text text-anchor="middle" x="129.61" y="-121.8" font-family="Times,serif" font-size="14.00">Dropout</text>
</g>
<!-- DenseForSparse&#45;&gt;Dropout -->
<g id="edge3" class="edge">
<title>DenseForSparse&#45;&gt;Dropout</title>
<path fill="none" stroke="black" d="M104.18,-179.91C108.1,-171.74 112.7,-162.18 116.9,-153.44"/>
<polygon fill="black" stroke="black" points="120.07,-154.92 121.25,-144.39 113.76,-151.89 120.07,-154.92"/>
</g>
<!-- Dropout&#45;&gt;concat -->
<g id="edge4" class="edge">
<title>Dropout&#45;&gt;concat</title>
<path fill="none" stroke="black" d="M136.78,-107.7C140.05,-99.81 143.99,-90.3 147.61,-81.55"/>
<polygon fill="black" stroke="black" points="150.93,-82.68 151.53,-72.1 144.46,-80 150.93,-82.68"/>
</g>
</g>
</svg>
