<?xml version="1.0" encoding="UTF-8" standalone="no"?>
<!DOCTYPE svg PUBLIC "-//W3C//DTD SVG 1.1//EN"
 "http://www.w3.org/Graphics/SVG/1.1/DTD/svg11.dtd">
<!-- Generated by graphviz version 9.0.0 (20230911.1827)
 -->
<!-- Title: æ··åˆæ¨¡å‹çš„æœ‰å‘å›¾è¡¨ç¤º Pages: 1 -->
<svg width="204pt" height="186pt"
 viewBox="0.00 0.00 204.00 186.00" xmlns="http://www.w3.org/2000/svg" xmlns:xlink="http://www.w3.org/1999/xlink">
<g id="graph0" class="graph" transform="scale(1 1) rotate(0) translate(4 182)">
<title>æ··åˆæ¨¡å‹çš„æœ‰å‘å›¾è¡¨ç¤º</title>
<polygon fill="white" stroke="none" points="-4,4 -4,-182 200,-182 200,4 -4,4"/>
<g id="clust1" class="cluster">
<title>cluster_a</title>
<polygon fill="none" stroke="black" points="64,-93 64,-170 188,-170 188,-93 64,-93"/>
<text text-anchor="middle" x="126" y="-152.7" font-family="Times,serif" font-size="14.00">N</text>
</g>
<g id="clust3" class="cluster">
<title>cluster_b</title>
<polygon fill="none" stroke="black" points="64,-8 64,-85 116,-85 116,-8 64,-8"/>
<text text-anchor="middle" x="90" y="-67.7" font-family="Times,serif" font-size="14.00">K</text>
</g>
<!-- lambda -->
<g id="node1" class="node">
<title>lambda</title>
<text text-anchor="middle" x="18" y="-113.2" font-family="Times,serif" font-size="14.00">ğœ†</text>
</g>
<!-- Z -->
<g id="node2" class="node">
<title>Z</title>
<ellipse fill="none" stroke="black" cx="90" cy="-119" rx="18" ry="18"/>
<text text-anchor="start" x="84.38" y="-114.95" font-family="Times,serif" font-size="14.00">Z</text>
<text text-anchor="start" x="92.62" y="-114.95" font-family="Times,serif" baseline-shift="super" font-size="14.00">i</text>
</g>
<!-- lambda&#45;&gt;Z -->
<g id="edge2" class="edge">
<title>lambda&#45;&gt;Z</title>
<path fill="none" stroke="black" d="M35.95,-119C43.32,-119 52.16,-119 60.49,-119"/>
<polygon fill="black" stroke="black" points="60.21,-122.5 70.21,-119 60.21,-115.5 60.21,-122.5"/>
</g>
<!-- X -->
<g id="node3" class="node">
<title>X</title>
<ellipse fill="lightgrey" stroke="black" cx="162" cy="-119" rx="18" ry="18"/>
<text text-anchor="start" x="155.62" y="-114.95" font-family="Times,serif" font-size="14.00">X</text>
<text text-anchor="start" x="165.38" y="-114.95" font-family="Times,serif" baseline-shift="super" font-size="14.00">i</text>
</g>
<!-- Z&#45;&gt;X -->
<g id="edge1" class="edge">
<title>Z&#45;&gt;X</title>
<path fill="none" stroke="black" d="M108.3,-119C115.59,-119 124.27,-119 132.46,-119"/>
<polygon fill="black" stroke="black" points="132.38,-122.5 142.38,-119 132.38,-115.5 132.38,-122.5"/>
</g>
<!-- theta -->
<g id="node4" class="node">
<title>theta</title>
<text text-anchor="start" x="83.25" y="-29.2" font-family="Times,serif" font-size="14.00">ğœƒ</text>
<text text-anchor="start" x="90.75" y="-29.2" font-family="Times,serif" baseline-shift="sub" font-size="14.00">k</text>
</g>
<!-- theta&#45;&gt;X -->
<g id="edge3" class="edge">
<title>theta&#45;&gt;X</title>
<path fill="none" stroke="black" d="M105.5,-51.61C116.28,-64.7 131.06,-82.64 142.65,-96.72"/>
<polygon fill="black" stroke="black" points="139.72,-98.66 148.78,-104.16 145.12,-94.21 139.72,-98.66"/>
</g>
</g>
</svg>
