<?xml version="1.0" encoding="UTF-8" standalone="no"?>
<!DOCTYPE svg PUBLIC "-//W3C//DTD SVG 1.1//EN"
 "http://www.w3.org/Graphics/SVG/1.1/DTD/svg11.dtd">
<!-- Generated by graphviz version 2.43.0 (0)
 -->
<!-- Title: a1_3 Pages: 1 -->
<svg width="285pt" height="205pt"
 viewBox="0.00 0.00 284.67 205.49" xmlns="http://www.w3.org/2000/svg" xmlns:xlink="http://www.w3.org/1999/xlink">
<g id="graph0" class="graph" transform="scale(1 1) rotate(0) translate(4 201.49)">
<title>a1_3</title>
<polygon fill="white" stroke="transparent" points="-4,4 -4,-201.49 280.67,-201.49 280.67,4 -4,4"/>
<!-- a -->
<g id="node1" class="node">
<title>a</title>
<ellipse fill="none" stroke="black" cx="89.29" cy="-85.23" rx="27" ry="18"/>
<text text-anchor="middle" x="89.29" y="-81.03" font-family="Times,serif" font-size="14.00">a</text>
</g>
<!-- b -->
<g id="node2" class="node">
<title>b</title>
<ellipse fill="none" stroke="black" cx="171.01" cy="-98.42" rx="27" ry="18"/>
<text text-anchor="middle" x="171.01" y="-94.22" font-family="Times,serif" font-size="14.00">b</text>
</g>
<!-- a&#45;&gt;b -->
<g id="edge1" class="edge">
<title>a&#45;&gt;b</title>
<path fill="none" stroke="black" d="M115.6,-89.47C121.72,-90.46 128.35,-91.53 134.82,-92.58"/>
<polygon fill="black" stroke="black" points="134.33,-96.04 144.76,-94.18 135.44,-89.13 134.33,-96.04"/>
</g>
<!-- c -->
<g id="node3" class="node">
<title>c</title>
<ellipse fill="none" stroke="black" cx="46.68" cy="-18" rx="27" ry="18"/>
<text text-anchor="middle" x="46.68" y="-13.8" font-family="Times,serif" font-size="14.00">c</text>
</g>
<!-- a&#45;&gt;c -->
<g id="edge2" class="edge">
<title>a&#45;&gt;c</title>
<path fill="none" stroke="black" d="M78.76,-68.61C73.98,-61.07 68.22,-51.99 62.91,-43.61"/>
<polygon fill="black" stroke="black" points="65.7,-41.47 57.39,-34.89 59.79,-45.21 65.7,-41.47"/>
</g>
<!-- d -->
<g id="node4" class="node">
<title>d</title>
<ellipse fill="none" stroke="black" cx="27" cy="-134.49" rx="27" ry="18"/>
<text text-anchor="middle" x="27" y="-130.29" font-family="Times,serif" font-size="14.00">d</text>
</g>
<!-- a&#45;&gt;d -->
<g id="edge3" class="edge">
<title>a&#45;&gt;d</title>
<path fill="none" stroke="black" d="M71.61,-99.21C65.64,-103.93 58.86,-109.3 52.41,-114.4"/>
<polygon fill="black" stroke="black" points="50.19,-111.69 44.51,-120.64 54.53,-117.18 50.19,-111.69"/>
</g>
<!-- e -->
<g id="node5" class="node">
<title>e</title>
<ellipse fill="none" stroke="black" cx="249.67" cy="-110.22" rx="27" ry="18"/>
<text text-anchor="middle" x="249.67" y="-106.02" font-family="Times,serif" font-size="14.00">e</text>
</g>
<!-- b&#45;&gt;e -->
<g id="edge4" class="edge">
<title>b&#45;&gt;e</title>
<path fill="none" stroke="black" d="M197.64,-102.41C202.51,-103.14 207.67,-103.92 212.78,-104.68"/>
<polygon fill="black" stroke="black" points="212.66,-108.21 223.07,-106.23 213.7,-101.28 212.66,-108.21"/>
</g>
<!-- f -->
<g id="node6" class="node">
<title>f</title>
<ellipse fill="none" stroke="black" cx="180.38" cy="-179.49" rx="27" ry="18"/>
<text text-anchor="middle" x="180.38" y="-175.29" font-family="Times,serif" font-size="14.00">f</text>
</g>
<!-- b&#45;&gt;f -->
<g id="edge5" class="edge">
<title>b&#45;&gt;f</title>
<path fill="none" stroke="black" d="M173.09,-116.41C174.27,-126.62 175.77,-139.64 177.11,-151.19"/>
<polygon fill="black" stroke="black" points="173.65,-151.73 178.27,-161.27 180.6,-150.93 173.65,-151.73"/>
</g>
<!-- g -->
<g id="node7" class="node">
<title>g</title>
<ellipse fill="none" stroke="black" cx="204.61" cy="-24.01" rx="27" ry="18"/>
<text text-anchor="middle" x="204.61" y="-19.81" font-family="Times,serif" font-size="14.00">g</text>
</g>
<!-- b&#45;&gt;g -->
<g id="edge6" class="edge">
<title>b&#45;&gt;g</title>
<path fill="none" stroke="black" d="M178.8,-81.16C182.89,-72.11 187.98,-60.84 192.56,-50.7"/>
<polygon fill="black" stroke="black" points="195.82,-51.99 196.74,-41.43 189.44,-49.11 195.82,-51.99"/>
</g>
</g>
</svg>
