<?xml version="1.0" encoding="UTF-8" standalone="no"?>
<!DOCTYPE svg PUBLIC "-//W3C//DTD SVG 1.1//EN"
 "http://www.w3.org/Graphics/SVG/1.1/DTD/svg11.dtd">
<!-- Generated by graphviz version 7.1.0 (20230121.1956)
 -->
<!-- Title: Z和X的关系 Pages: 1 -->
<svg width="126pt" height="206pt"
 viewBox="0.00 0.00 126.00 206.00" xmlns="http://www.w3.org/2000/svg" xmlns:xlink="http://www.w3.org/1999/xlink">
<g id="graph0" class="graph" transform="scale(1 1) rotate(0) translate(4 202)">
<title>Z和X的关系</title>
<polygon fill="white" stroke="none" points="-4,4 -4,-202 122,-202 122,4 -4,4"/>
<!-- X1 -->
<g id="node1" class="node">
<title>X1</title>
<ellipse fill="lightgrey" stroke="black" cx="100" cy="-180" rx="18" ry="18"/>
<text text-anchor="start" x="91.5" y="-177.3" font-family="Times,serif" font-size="14.00">X</text>
<text text-anchor="start" x="101.5" y="-177.3" font-family="Times,serif" baseline-shift="sub" font-size="14.00">1</text>
</g>
<!-- X2 -->
<g id="node2" class="node">
<title>X2</title>
<ellipse fill="lightgrey" stroke="black" cx="100" cy="-126" rx="18" ry="18"/>
<text text-anchor="start" x="91.5" y="-123.3" font-family="Times,serif" font-size="14.00">X</text>
<text text-anchor="start" x="101.5" y="-123.3" font-family="Times,serif" baseline-shift="sub" font-size="14.00">2</text>
</g>
<!-- X3 -->
<g id="node3" class="node">
<title>X3</title>
<ellipse fill="lightgrey" stroke="black" cx="100" cy="-72" rx="18" ry="18"/>
<text text-anchor="start" x="91.5" y="-69.3" font-family="Times,serif" font-size="14.00">X</text>
<text text-anchor="start" x="101.5" y="-69.3" font-family="Times,serif" baseline-shift="sub" font-size="14.00">3</text>
</g>
<!-- XK -->
<g id="node4" class="node">
<title>XK</title>
<ellipse fill="lightgrey" stroke="black" cx="100" cy="-18" rx="18" ry="18"/>
<text text-anchor="start" x="91.5" y="-15.3" font-family="Times,serif" font-size="14.00">X</text>
<text text-anchor="start" x="101.5" y="-15.3" font-family="Times,serif" baseline-shift="sub" font-size="14.00">k</text>
</g>
<!-- Z -->
<g id="node5" class="node">
<title>Z</title>
<ellipse fill="none" stroke="black" cx="18" cy="-99" rx="18" ry="18"/>
<text text-anchor="middle" x="18" y="-95.3" font-family="Times,serif" font-size="14.00">Z</text>
</g>
<!-- Z&#45;&gt;X1 -->
<g id="edge1" class="edge">
<title>Z&#45;&gt;X1</title>
<path fill="none" stroke="black" d="M31.15,-111.3C43.84,-124.15 63.94,-144.51 78.98,-159.73"/>
<polygon fill="black" stroke="black" points="76.15,-161.85 85.67,-166.51 81.13,-156.93 76.15,-161.85"/>
<text text-anchor="middle" x="59" y="-147.8" font-family="Times,serif" font-size="14.00">1</text>
</g>
<!-- Z&#45;&gt;X2 -->
<g id="edge2" class="edge">
<title>Z&#45;&gt;X2</title>
<path fill="none" stroke="black" d="M35.58,-104.59C45.98,-108.11 59.65,-112.72 71.63,-116.76"/>
<polygon fill="black" stroke="black" points="70.42,-120.05 81.01,-119.93 72.66,-113.41 70.42,-120.05"/>
<text text-anchor="middle" x="59" y="-117.8" font-family="Times,serif" font-size="14.00">2</text>
</g>
<!-- Z&#45;&gt;X3 -->
<g id="edge3" class="edge">
<title>Z&#45;&gt;X3</title>
<path fill="none" stroke="black" d="M35.58,-93.41C45.98,-89.89 59.65,-85.28 71.63,-81.24"/>
<polygon fill="black" stroke="black" points="72.66,-84.59 81.01,-78.07 70.42,-77.95 72.66,-84.59"/>
<text text-anchor="middle" x="59" y="-90.8" font-family="Times,serif" font-size="14.00">3</text>
</g>
<!-- Z&#45;&gt;XK -->
<g id="edge4" class="edge">
<title>Z&#45;&gt;XK</title>
<path fill="none" stroke="black" d="M31.15,-86.7C43.84,-73.85 63.94,-53.49 78.98,-38.27"/>
<polygon fill="black" stroke="black" points="81.13,-41.07 85.67,-31.49 76.15,-36.15 81.13,-41.07"/>
<text text-anchor="middle" x="59" y="-66.8" font-family="Times,serif" font-size="14.00">K</text>
</g>
</g>
</svg>
