<?xml version="1.0" encoding="UTF-8" standalone="no"?>
<!DOCTYPE svg PUBLIC "-//W3C//DTD SVG 1.1//EN"
 "http://www.w3.org/Graphics/SVG/1.1/DTD/svg11.dtd">
<!-- Generated by graphviz version 7.1.0 (20230121.1956)
 -->
<!-- Title: Z和X的关系 Pages: 1 -->
<svg width="133pt" height="206pt"
 viewBox="0.00 0.00 133.00 206.00" xmlns="http://www.w3.org/2000/svg" xmlns:xlink="http://www.w3.org/1999/xlink">
<g id="graph0" class="graph" transform="scale(1 1) rotate(0) translate(4 202)">
<title>Z和X的关系</title>
<polygon fill="white" stroke="none" points="-4,4 -4,-202 129,-202 129,4 -4,4"/>
<!-- Z -->
<g id="node1" class="node">
<title>Z</title>
<ellipse fill="none" stroke="black" cx="18" cy="-99" rx="18" ry="18"/>
<text text-anchor="middle" x="18" y="-95.3" font-family="Times,serif" font-size="14.00">Z</text>
</g>
<!-- X1 -->
<g id="node2" class="node">
<title>X1</title>
<ellipse fill="none" stroke="black" cx="107" cy="-180" rx="18" ry="18"/>
<text text-anchor="middle" x="107" y="-176.3" font-family="Times,serif" font-size="14.00">X1</text>
</g>
<!-- Z&#45;&gt;X1 -->
<g id="edge1" class="edge">
<title>Z&#45;&gt;X1</title>
<path fill="none" stroke="black" d="M31.53,-111.39C38.16,-117.88 46.46,-125.93 54,-133 63.96,-142.33 75.17,-152.51 84.63,-161"/>
<polygon fill="black" stroke="black" points="82.15,-163.47 91.93,-167.53 86.81,-158.25 82.15,-163.47"/>
<text text-anchor="start" x="54" y="-151.8" font-family="Times,serif" font-size="14.00">X</text>
<text text-anchor="start" x="64" y="-151.8" font-family="Times,serif" baseline-shift="sub" font-size="14.00">1</text>
</g>
<!-- X2 -->
<g id="node3" class="node">
<title>X2</title>
<ellipse fill="none" stroke="black" cx="107" cy="-126" rx="18" ry="18"/>
<text text-anchor="middle" x="107" y="-122.3" font-family="Times,serif" font-size="14.00">X2</text>
</g>
<!-- Z&#45;&gt;X2 -->
<g id="edge2" class="edge">
<title>Z&#45;&gt;X2</title>
<path fill="none" stroke="black" d="M35.36,-104.08C47.56,-107.86 64.49,-113.12 78.72,-117.53"/>
<polygon fill="black" stroke="black" points="77.38,-120.78 87.97,-120.4 79.45,-114.1 77.38,-120.78"/>
<text text-anchor="start" x="54" y="-118.8" font-family="Times,serif" font-size="14.00">X</text>
<text text-anchor="start" x="64" y="-118.8" font-family="Times,serif" baseline-shift="sub" font-size="14.00">2</text>
</g>
<!-- X3 -->
<g id="node4" class="node">
<title>X3</title>
<ellipse fill="none" stroke="black" cx="107" cy="-72" rx="18" ry="18"/>
<text text-anchor="middle" x="107" y="-68.3" font-family="Times,serif" font-size="14.00">X3</text>
</g>
<!-- Z&#45;&gt;X3 -->
<g id="edge3" class="edge">
<title>Z&#45;&gt;X3</title>
<path fill="none" stroke="black" d="M35.36,-93.92C47.56,-90.14 64.49,-84.88 78.72,-80.47"/>
<polygon fill="black" stroke="black" points="79.45,-83.9 87.97,-77.6 77.38,-77.22 79.45,-83.9"/>
<text text-anchor="start" x="54" y="-91.8" font-family="Times,serif" font-size="14.00">X</text>
<text text-anchor="start" x="64" y="-91.8" font-family="Times,serif" baseline-shift="sub" font-size="14.00">3</text>
</g>
<!-- XK -->
<g id="node5" class="node">
<title>XK</title>
<ellipse fill="none" stroke="black" cx="107" cy="-18" rx="18" ry="18"/>
<text text-anchor="middle" x="107" y="-14.3" font-family="Times,serif" font-size="14.00">XK</text>
</g>
<!-- Z&#45;&gt;XK -->
<g id="edge4" class="edge">
<title>Z&#45;&gt;XK</title>
<path fill="none" stroke="black" d="M31.13,-86.5C37.78,-79.74 46.24,-71.3 54,-64 63.71,-54.86 74.74,-45.03 84.14,-36.81"/>
<polygon fill="black" stroke="black" points="86.16,-39.7 91.41,-30.5 81.56,-34.41 86.16,-39.7"/>
<text text-anchor="start" x="54" y="-68.8" font-family="Times,serif" font-size="14.00">X</text>
<text text-anchor="start" x="64" y="-68.8" font-family="Times,serif" baseline-shift="sub" font-size="14.00">k</text>
</g>
</g>
</svg>
