<?xml version="1.0" encoding="UTF-8" standalone="no"?>
<!DOCTYPE svg PUBLIC "-//W3C//DTD SVG 1.1//EN"
 "http://www.w3.org/Graphics/SVG/1.1/DTD/svg11.dtd">
<!-- Generated by graphviz version 7.1.0 (20230121.1956)
 -->
<!-- Title: Zå’ŒXçš„å…³ç³» Pages: 1 -->
<svg width="167pt" height="250pt"
 viewBox="0.00 0.00 167.00 249.50" xmlns="http://www.w3.org/2000/svg" xmlns:xlink="http://www.w3.org/1999/xlink">
<g id="graph0" class="graph" transform="scale(1 1) rotate(0) translate(4 245.5)">
<title>Zå’ŒXçš„å…³ç³»</title>
<polygon fill="white" stroke="none" points="-4,4 -4,-245.5 163,-245.5 163,4 -4,4"/>
<!-- X1 -->
<g id="node1" class="node">
<title>X1</title>
<ellipse fill="lightgrey" stroke="black" cx="130" cy="-212.5" rx="29" ry="29"/>
<text text-anchor="start" x="109" y="-209.8" font-family="Times,serif" font-size="14.00">X</text>
<text text-anchor="start" x="119" y="-209.8" font-family="Times,serif" baseline-shift="sub" font-size="14.00">1</text>
<text text-anchor="start" x="126" y="-209.8" font-family="Times,serif" font-size="14.00">(ğœƒ</text>
<text text-anchor="start" x="139" y="-209.8" font-family="Times,serif" baseline-shift="sub" font-size="14.00">1</text>
<text text-anchor="start" x="146" y="-209.8" font-family="Times,serif" font-size="14.00">)</text>
</g>
<!-- X2 -->
<g id="node2" class="node">
<title>X2</title>
<ellipse fill="lightgrey" stroke="black" cx="130" cy="-143.5" rx="21.5" ry="21.5"/>
<text text-anchor="start" x="109" y="-140.8" font-family="Times,serif" font-size="14.00">X</text>
<text text-anchor="start" x="119" y="-140.8" font-family="Times,serif" baseline-shift="sub" font-size="14.00">2</text>
<text text-anchor="start" x="126" y="-140.8" font-family="Times,serif" font-size="14.00">(ğœƒ</text>
<text text-anchor="start" x="139" y="-140.8" font-family="Times,serif" baseline-shift="sub" font-size="14.00">2</text>
<text text-anchor="start" x="146" y="-140.8" font-family="Times,serif" font-size="14.00">)</text>
</g>
<!-- X3 -->
<g id="node3" class="node">
<title>X3</title>
<ellipse fill="lightgrey" stroke="black" cx="130" cy="-82.5" rx="21.5" ry="21.5"/>
<text text-anchor="middle" x="130" y="-78.8" font-family="Times,serif" font-size="14.00">...</text>
</g>
<!-- XK -->
<g id="node4" class="node">
<title>XK</title>
<ellipse fill="lightgrey" stroke="black" cx="130" cy="-21.5" rx="21.5" ry="21.5"/>
<text text-anchor="start" x="109" y="-18.8" font-family="Times,serif" font-size="14.00">X</text>
<text text-anchor="start" x="119" y="-18.8" font-family="Times,serif" baseline-shift="sub" font-size="14.00">k</text>
<text text-anchor="start" x="126" y="-18.8" font-family="Times,serif" font-size="14.00">(ğœƒ</text>
<text text-anchor="start" x="139" y="-18.8" font-family="Times,serif" baseline-shift="sub" font-size="14.00">k</text>
<text text-anchor="start" x="146" y="-18.8" font-family="Times,serif" font-size="14.00">)</text>
</g>
<!-- Z -->
<g id="node5" class="node">
<title>Z</title>
<ellipse fill="none" stroke="black" cx="21.5" cy="-112.5" rx="21.5" ry="21.5"/>
<text text-anchor="middle" x="21.5" y="-108.8" font-family="Times,serif" font-size="14.00">Z</text>
</g>
<!-- Z&#45;&gt;X1 -->
<g id="edge1" class="edge">
<title>Z&#45;&gt;X1</title>
<path fill="none" stroke="black" d="M37.76,-126.83C53.96,-142.04 79.96,-166.46 100.07,-185.34"/>
<polygon fill="black" stroke="black" points="97.49,-187.72 107.18,-192.01 102.28,-182.61 97.49,-187.72"/>
<text text-anchor="middle" x="72" y="-171.3" font-family="Times,serif" font-size="14.00">z=1</text>
</g>
<!-- Z&#45;&gt;X2 -->
<g id="edge2" class="edge">
<title>Z&#45;&gt;X2</title>
<path fill="none" stroke="black" d="M42.53,-118.33C58.23,-122.9 80.33,-129.33 98.26,-134.55"/>
<polygon fill="black" stroke="black" points="97.03,-137.84 107.6,-137.27 98.98,-131.12 97.03,-137.84"/>
<text text-anchor="middle" x="72" y="-133.3" font-family="Times,serif" font-size="14.00">z=2</text>
</g>
<!-- Z&#45;&gt;X3 -->
<g id="edge3" class="edge">
<title>Z&#45;&gt;X3</title>
<path fill="none" stroke="black" d="M42.53,-106.86C58.15,-102.46 80.12,-96.27 98,-91.23"/>
<polygon fill="black" stroke="black" points="98.92,-94.61 107.6,-88.53 97.03,-87.87 98.92,-94.61"/>
<text text-anchor="middle" x="72" y="-104.3" font-family="Times,serif" font-size="14.00">...</text>
</g>
<!-- Z&#45;&gt;XK -->
<g id="edge4" class="edge">
<title>Z&#45;&gt;XK</title>
<path fill="none" stroke="black" d="M37.63,-97.88C44.63,-91.23 53.13,-83.35 61,-76.5 74.83,-64.47 90.73,-51.56 103.68,-41.27"/>
<polygon fill="black" stroke="black" points="105.65,-44.17 111.33,-35.23 101.31,-38.68 105.65,-44.17"/>
<text text-anchor="middle" x="72" y="-80.3" font-family="Times,serif" font-size="14.00">z=k</text>
</g>
</g>
</svg>
