<?xml version="1.0" encoding="UTF-8" standalone="no"?>
<!DOCTYPE svg PUBLIC "-//W3C//DTD SVG 1.1//EN"
 "http://www.w3.org/Graphics/SVG/1.1/DTD/svg11.dtd">
<!-- Generated by graphviz version 2.43.0 (0)
 -->
<!-- Title: 模型推断 Pages: 1 -->
<svg width="752pt" height="341pt"
 viewBox="0.00 0.00 751.95 341.00" xmlns="http://www.w3.org/2000/svg" xmlns:xlink="http://www.w3.org/1999/xlink">
<g id="graph0" class="graph" transform="scale(1 1) rotate(0) translate(4 337)">
<title>模型推断</title>
<polygon fill="white" stroke="transparent" points="-4,4 -4,-337 747.95,-337 747.95,4 -4,4"/>
<!-- n1 -->
<g id="node1" class="node">
<title>n1</title>
<polygon fill="none" stroke="black" points="72,-198 0,-198 0,-162 72,-162 72,-198"/>
<text text-anchor="middle" x="36" y="-178.6" font-family="Times,serif" font-size="14.00">概率推断</text>
</g>
<!-- n2 -->
<g id="node2" class="node">
<title>n2</title>
<polygon fill="none" stroke="black" points="180,-252 108,-252 108,-216 180,-216 180,-252"/>
<text text-anchor="middle" x="144" y="-232.6" font-family="Times,serif" font-size="14.00">推断问题</text>
</g>
<!-- n1&#45;&gt;n2 -->
<g id="edge1" class="edge">
<title>n1&#45;&gt;n2</title>
<path fill="none" stroke="black" d="M72,-197.83C80.51,-202.16 89.71,-206.85 98.59,-211.37"/>
<polygon fill="black" stroke="black" points="97.17,-214.58 107.67,-216 100.35,-208.34 97.17,-214.58"/>
</g>
<!-- n3 -->
<g id="node6" class="node">
<title>n3</title>
<polygon fill="none" stroke="black" points="180,-171 108,-171 108,-135 180,-135 180,-171"/>
<text text-anchor="middle" x="144" y="-151.6" font-family="Times,serif" font-size="14.00">推断算法</text>
</g>
<!-- n1&#45;&gt;n3 -->
<g id="edge2" class="edge">
<title>n1&#45;&gt;n3</title>
<path fill="none" stroke="black" d="M72,-171.08C80.24,-168.99 89.13,-166.72 97.74,-164.53"/>
<polygon fill="black" stroke="black" points="98.85,-167.86 107.67,-162 97.12,-161.08 98.85,-167.86"/>
</g>
<!-- n21 -->
<g id="node3" class="node">
<title>n21</title>
<polygon fill="none" stroke="black" points="380.72,-333 280.72,-333 280.72,-297 380.72,-297 380.72,-333"/>
<text text-anchor="middle" x="330.72" y="-313.6" font-family="Times,serif" font-size="14.00">边缘概率查询</text>
</g>
<!-- n2&#45;&gt;n21 -->
<g id="edge3" class="edge">
<title>n2&#45;&gt;n21</title>
<path fill="none" stroke="black" d="M164.03,-252.02C177.56,-263.89 196.68,-278.86 216,-288 233.03,-296.05 252.65,-301.81 270.76,-305.89"/>
<polygon fill="black" stroke="black" points="270.13,-309.33 280.63,-307.98 271.58,-302.48 270.13,-309.33"/>
</g>
<!-- n22 -->
<g id="node4" class="node">
<title>n22</title>
<polygon fill="none" stroke="black" points="380.72,-279 280.72,-279 280.72,-243 380.72,-243 380.72,-279"/>
<text text-anchor="middle" x="330.72" y="-259.6" font-family="Times,serif" font-size="14.00">条件概率查询</text>
</g>
<!-- n2&#45;&gt;n22 -->
<g id="edge4" class="edge">
<title>n2&#45;&gt;n22</title>
<path fill="none" stroke="black" d="M180.18,-239.14C205.65,-242.86 240.68,-247.99 270.44,-252.33"/>
<polygon fill="black" stroke="black" points="270.32,-255.85 280.72,-253.84 271.33,-248.93 270.32,-255.85"/>
</g>
<!-- n23 -->
<g id="node5" class="node">
<title>n23</title>
<polygon fill="none" stroke="black" points="380.72,-225 280.72,-225 280.72,-189 380.72,-189 380.72,-225"/>
<text text-anchor="middle" x="330.72" y="-205.6" font-family="Times,serif" font-size="14.00">最大后验概率</text>
</g>
<!-- n2&#45;&gt;n23 -->
<g id="edge5" class="edge">
<title>n2&#45;&gt;n23</title>
<path fill="none" stroke="black" d="M180.18,-228.86C205.65,-225.14 240.68,-220.01 270.44,-215.67"/>
<polygon fill="black" stroke="black" points="271.33,-219.07 280.72,-214.16 270.32,-212.15 271.33,-219.07"/>
</g>
<!-- n31 -->
<g id="node7" class="node">
<title>n31</title>
<polygon fill="none" stroke="black" points="424.66,-171 236.78,-171 236.78,-135 424.66,-135 424.66,-171"/>
<text text-anchor="middle" x="330.72" y="-151.6" font-family="Times,serif" font-size="14.00">精确推断（Exact inference）</text>
</g>
<!-- n3&#45;&gt;n31 -->
<g id="edge6" class="edge">
<title>n3&#45;&gt;n31</title>
<path fill="none" stroke="black" d="M180.18,-153C193.62,-153 209.71,-153 226.29,-153"/>
<polygon fill="black" stroke="black" points="226.66,-156.5 236.66,-153 226.66,-149.5 226.66,-156.5"/>
</g>
<!-- n32 -->
<g id="node11" class="node">
<title>n32</title>
<polygon fill="none" stroke="black" points="445.66,-90 215.78,-90 215.78,-54 445.66,-54 445.66,-90"/>
<text text-anchor="middle" x="330.72" y="-70.6" font-family="Times,serif" font-size="14.00">近似推断（Approximate inference）</text>
</g>
<!-- n3&#45;&gt;n32 -->
<g id="edge7" class="edge">
<title>n3&#45;&gt;n32</title>
<path fill="none" stroke="black" d="M180.18,-137.57C208.16,-125.3 247.7,-107.97 279.09,-94.2"/>
<polygon fill="black" stroke="black" points="280.79,-97.28 288.54,-90.06 277.98,-90.87 280.79,-97.28"/>
</g>
<!-- n311 -->
<g id="node8" class="node">
<title>n311</title>
<polygon fill="none" stroke="black" points="717.73,-252 507.66,-252 507.66,-216 717.73,-216 717.73,-252"/>
<text text-anchor="middle" x="612.69" y="-232.6" font-family="Times,serif" font-size="14.00">消元法（Elimination algorithm）</text>
</g>
<!-- n31&#45;&gt;n311 -->
<g id="edge8" class="edge">
<title>n31&#45;&gt;n311</title>
<path fill="none" stroke="black" d="M422.88,-171.07C430.65,-173.68 438.27,-176.64 445.44,-180 463.55,-188.49 463.21,-198.77 481.44,-207 486.77,-209.4 492.31,-211.6 497.98,-213.6"/>
<polygon fill="black" stroke="black" points="497.03,-216.97 507.63,-216.78 499.23,-210.32 497.03,-216.97"/>
</g>
<!-- n312 -->
<g id="node9" class="node">
<title>n312</title>
<polygon fill="none" stroke="black" points="743.71,-198 481.68,-198 481.68,-162 743.71,-162 743.71,-198"/>
<text text-anchor="middle" x="612.69" y="-178.6" font-family="Times,serif" font-size="14.00">置信传播（Belief propagation algorithm）</text>
</g>
<!-- n31&#45;&gt;n312 -->
<g id="edge9" class="edge">
<title>n31&#45;&gt;n312</title>
<path fill="none" stroke="black" d="M424.56,-161.95C439.57,-163.4 455.41,-164.93 471.25,-166.46"/>
<polygon fill="black" stroke="black" points="471.37,-169.98 481.66,-167.46 472.04,-163.02 471.37,-169.98"/>
</g>
<!-- n313 -->
<g id="node10" class="node">
<title>n313</title>
<polygon fill="none" stroke="black" points="736.48,-144 488.91,-144 488.91,-108 736.48,-108 736.48,-144"/>
<text text-anchor="middle" x="612.69" y="-124.6" font-family="Times,serif" font-size="14.00">联结树算法（Junction Tree algorithm）</text>
</g>
<!-- n31&#45;&gt;n313 -->
<g id="edge10" class="edge">
<title>n31&#45;&gt;n313</title>
<path fill="none" stroke="black" d="M424.56,-144.05C441.88,-142.38 460.3,-140.6 478.56,-138.84"/>
<polygon fill="black" stroke="black" points="479.06,-142.31 488.68,-137.86 478.39,-135.34 479.06,-142.31"/>
</g>
<!-- n321 -->
<g id="node12" class="node">
<title>n321</title>
<polygon fill="none" stroke="black" points="714.25,-90 511.14,-90 511.14,-54 714.25,-54 714.25,-90"/>
<text text-anchor="middle" x="612.69" y="-70.6" font-family="Times,serif" font-size="14.00">采样法（Sampling algorithms）</text>
</g>
<!-- n32&#45;&gt;n321 -->
<g id="edge11" class="edge">
<title>n32&#45;&gt;n321</title>
<path fill="none" stroke="black" d="M445.6,-72C463.86,-72 482.74,-72 500.94,-72"/>
<polygon fill="black" stroke="black" points="500.96,-75.5 510.96,-72 500.96,-68.5 500.96,-75.5"/>
</g>
<!-- n322 -->
<g id="node13" class="node">
<title>n322</title>
<polygon fill="none" stroke="black" points="712.06,-36 513.33,-36 513.33,0 712.06,0 712.06,-36"/>
<text text-anchor="middle" x="612.69" y="-16.6" font-family="Times,serif" font-size="14.00">变分法（Variational methods）</text>
</g>
<!-- n32&#45;&gt;n322 -->
<g id="edge12" class="edge">
<title>n32&#45;&gt;n322</title>
<path fill="none" stroke="black" d="M425.34,-53.94C451.95,-48.81 481.09,-43.19 508.26,-37.95"/>
<polygon fill="black" stroke="black" points="509.01,-41.37 518.17,-36.04 507.68,-34.5 509.01,-41.37"/>
</g>
</g>
</svg>
