<?xml version="1.0" encoding="UTF-8" standalone="no"?>
<!DOCTYPE svg PUBLIC "-//W3C//DTD SVG 1.1//EN"
 "http://www.w3.org/Graphics/SVG/1.1/DTD/svg11.dtd">
<!-- Generated by graphviz version 9.0.0 (20230911.1827)
 -->
<!-- Title: demo_4 Pages: 1 -->
<svg width="261pt" height="188pt"
 viewBox="0.00 0.00 260.99 188.25" xmlns="http://www.w3.org/2000/svg" xmlns:xlink="http://www.w3.org/1999/xlink">
<g id="graph0" class="graph" transform="scale(1 1) rotate(0) translate(4 184.25)">
<title>demo_4</title>
<polygon fill="white" stroke="none" points="-4,4 -4,-184.25 256.99,-184.25 256.99,4 -4,4"/>
<!-- a -->
<g id="node1" class="node">
<title>a</title>
<ellipse fill="none" stroke="black" cx="82.67" cy="-78.07" rx="27" ry="18"/>
<text text-anchor="middle" x="82.67" y="-73.02" font-family="Times,serif" font-size="14.00">a</text>
</g>
<!-- b -->
<g id="node2" class="node">
<title>b</title>
<ellipse fill="none" stroke="black" cx="155.7" cy="-89.85" rx="27" ry="18"/>
<text text-anchor="middle" x="155.7" y="-84.8" font-family="Times,serif" font-size="14.00">b</text>
</g>
<!-- a&#45;&gt;b -->
<g id="edge1" class="edge">
<title>a&#45;&gt;b</title>
<path fill="none" stroke="black" d="M109.04,-82.32C111.9,-82.78 114.85,-83.26 117.81,-83.73"/>
<polygon fill="black" stroke="black" points="117.2,-87.18 127.63,-85.32 118.32,-80.27 117.2,-87.18"/>
</g>
<!-- c -->
<g id="node3" class="node">
<title>c</title>
<ellipse fill="none" stroke="black" cx="44.59" cy="-18" rx="27" ry="18"/>
<text text-anchor="middle" x="44.59" y="-12.95" font-family="Times,serif" font-size="14.00">c</text>
</g>
<!-- a&#45;&gt;c -->
<g id="edge2" class="edge">
<title>a&#45;&gt;c</title>
<path fill="none" stroke="black" d="M72.07,-61.33C68.68,-56 64.85,-49.96 61.15,-44.12"/>
<polygon fill="black" stroke="black" points="64.26,-42.49 55.95,-35.92 58.35,-46.24 64.26,-42.49"/>
</g>
<!-- d -->
<g id="node4" class="node">
<title>d</title>
<ellipse fill="none" stroke="black" cx="27" cy="-122.07" rx="27" ry="18"/>
<text text-anchor="middle" x="27" y="-117.02" font-family="Times,serif" font-size="14.00">d</text>
</g>
<!-- a&#45;&gt;d -->
<g id="edge3" class="edge">
<title>a&#45;&gt;d</title>
<path fill="none" stroke="black" d="M65.06,-91.99C61.4,-94.88 57.47,-97.98 53.58,-101.06"/>
<polygon fill="black" stroke="black" points="51.55,-98.2 45.88,-107.15 55.9,-103.69 51.55,-98.2"/>
</g>
<!-- e -->
<g id="node5" class="node">
<title>e</title>
<ellipse fill="none" stroke="black" cx="225.99" cy="-100.4" rx="27" ry="18"/>
<text text-anchor="middle" x="225.99" y="-95.35" font-family="Times,serif" font-size="14.00">e</text>
</g>
<!-- b&#45;&gt;e -->
<g id="edge4" class="edge">
<title>b&#45;&gt;e</title>
<path fill="none" stroke="black" d="M182.27,-93.84C184.2,-94.12 186.16,-94.42 188.13,-94.72"/>
<polygon fill="black" stroke="black" points="187.47,-98.16 197.88,-96.18 188.51,-91.23 187.47,-98.16"/>
</g>
<!-- f -->
<g id="node6" class="node">
<title>f</title>
<ellipse fill="none" stroke="black" cx="164.08" cy="-162.25" rx="27" ry="18"/>
<text text-anchor="middle" x="164.08" y="-157.2" font-family="Times,serif" font-size="14.00">f</text>
</g>
<!-- b&#45;&gt;f -->
<g id="edge5" class="edge">
<title>b&#45;&gt;f</title>
<path fill="none" stroke="black" d="M157.81,-108.12C158.68,-115.58 159.7,-124.4 160.66,-132.73"/>
<polygon fill="black" stroke="black" points="157.16,-132.95 161.79,-142.48 164.12,-132.15 157.16,-132.95"/>
</g>
<!-- g -->
<g id="node7" class="node">
<title>g</title>
<ellipse fill="none" stroke="black" cx="185.71" cy="-23.33" rx="27" ry="18"/>
<text text-anchor="middle" x="185.71" y="-18.28" font-family="Times,serif" font-size="14.00">g</text>
</g>
<!-- b&#45;&gt;g -->
<g id="edge6" class="edge">
<title>b&#45;&gt;g</title>
<path fill="none" stroke="black" d="M163.58,-72.37C166.49,-65.93 169.86,-58.46 173.08,-51.32"/>
<polygon fill="black" stroke="black" points="176.23,-52.85 177.15,-42.3 169.85,-49.97 176.23,-52.85"/>
</g>
</g>
</svg>
