<?xml version="1.0" encoding="UTF-8" standalone="no"?>
<!DOCTYPE svg PUBLIC "-//W3C//DTD SVG 1.1//EN"
 "http://www.w3.org/Graphics/SVG/1.1/DTD/svg11.dtd">
<!-- Generated by graphviz version 7.1.0 (20230121.1956)
 -->
<!-- Title: Zå’ŒXçš„å…³ç³» Pages: 1 -->
<svg width="142pt" height="206pt"
 viewBox="0.00 0.00 142.00 206.00" xmlns="http://www.w3.org/2000/svg" xmlns:xlink="http://www.w3.org/1999/xlink">
<g id="graph0" class="graph" transform="scale(1 1) rotate(0) translate(4 202)">
<title>Zå’ŒXçš„å…³ç³»</title>
<polygon fill="white" stroke="none" points="-4,4 -4,-202 138,-202 138,4 -4,4"/>
<!-- X1 -->
<g id="node1" class="node">
<title>X1</title>
<ellipse fill="lightgrey" stroke="black" cx="116" cy="-180" rx="18" ry="18"/>
<text text-anchor="start" x="95" y="-177.3" font-family="Times,serif" font-size="14.00">X</text>
<text text-anchor="start" x="105" y="-177.3" font-family="Times,serif" baseline-shift="sub" font-size="14.00">1</text>
<text text-anchor="start" x="112" y="-177.3" font-family="Times,serif" font-size="14.00">(ğœƒ</text>
<text text-anchor="start" x="125" y="-177.3" font-family="Times,serif" baseline-shift="sub" font-size="14.00">1</text>
<text text-anchor="start" x="132" y="-177.3" font-family="Times,serif" font-size="14.00">)</text>
</g>
<!-- X2 -->
<g id="node2" class="node">
<title>X2</title>
<ellipse fill="lightgrey" stroke="black" cx="116" cy="-126" rx="18" ry="18"/>
<text text-anchor="start" x="95" y="-123.3" font-family="Times,serif" font-size="14.00">X</text>
<text text-anchor="start" x="105" y="-123.3" font-family="Times,serif" baseline-shift="sub" font-size="14.00">2</text>
<text text-anchor="start" x="112" y="-123.3" font-family="Times,serif" font-size="14.00">(ğœƒ</text>
<text text-anchor="start" x="125" y="-123.3" font-family="Times,serif" baseline-shift="sub" font-size="14.00">2</text>
<text text-anchor="start" x="132" y="-123.3" font-family="Times,serif" font-size="14.00">)</text>
</g>
<!-- X3 -->
<g id="node3" class="node">
<title>X3</title>
<ellipse fill="lightgrey" stroke="black" cx="116" cy="-72" rx="18" ry="18"/>
<text text-anchor="start" x="92" y="-69.3" font-family="Times,serif" font-size="14.00">X</text>
<text text-anchor="start" x="102" y="-69.3" font-family="Times,serif" baseline-shift="sub" font-size="14.00">...</text>
<text text-anchor="start" x="112" y="-69.3" font-family="Times,serif" font-size="14.00">(ğœƒ</text>
<text text-anchor="start" x="125" y="-69.3" font-family="Times,serif" baseline-shift="sub" font-size="14.00">...</text>
<text text-anchor="start" x="135" y="-69.3" font-family="Times,serif" font-size="14.00">)</text>
</g>
<!-- XK -->
<g id="node4" class="node">
<title>XK</title>
<ellipse fill="lightgrey" stroke="black" cx="116" cy="-18" rx="18" ry="18"/>
<text text-anchor="start" x="95" y="-15.3" font-family="Times,serif" font-size="14.00">X</text>
<text text-anchor="start" x="105" y="-15.3" font-family="Times,serif" baseline-shift="sub" font-size="14.00">k</text>
<text text-anchor="start" x="112" y="-15.3" font-family="Times,serif" font-size="14.00">(ğœƒ</text>
<text text-anchor="start" x="125" y="-15.3" font-family="Times,serif" baseline-shift="sub" font-size="14.00">k</text>
<text text-anchor="start" x="132" y="-15.3" font-family="Times,serif" font-size="14.00">)</text>
</g>
<!-- Z -->
<g id="node5" class="node">
<title>Z</title>
<ellipse fill="none" stroke="black" cx="18" cy="-99" rx="18" ry="18"/>
<text text-anchor="middle" x="18" y="-95.3" font-family="Times,serif" font-size="14.00">Z</text>
</g>
<!-- Z&#45;&gt;X1 -->
<g id="edge1" class="edge">
<title>Z&#45;&gt;X1</title>
<path fill="none" stroke="black" d="M30.91,-111.74C37.5,-118.58 45.96,-127.01 54,-134 65.89,-144.34 79.87,-154.98 91.45,-163.42"/>
<polygon fill="black" stroke="black" points="89.12,-166.06 99.28,-169.06 93.21,-160.38 89.12,-166.06"/>
<text text-anchor="middle" x="67" y="-156.8" font-family="Times,serif" font-size="14.00">z=1</text>
</g>
<!-- Z&#45;&gt;X2 -->
<g id="edge2" class="edge">
<title>Z&#45;&gt;X2</title>
<path fill="none" stroke="black" d="M35.72,-103.7C49.95,-107.7 70.68,-113.53 87.37,-118.23"/>
<polygon fill="black" stroke="black" points="86.12,-121.51 96.69,-120.85 88.01,-114.77 86.12,-121.51"/>
<text text-anchor="middle" x="67" y="-118.8" font-family="Times,serif" font-size="14.00">z=2</text>
</g>
<!-- Z&#45;&gt;X3 -->
<g id="edge3" class="edge">
<title>Z&#45;&gt;X3</title>
<path fill="none" stroke="black" d="M35.72,-94.3C49.95,-90.3 70.68,-84.47 87.37,-79.77"/>
<polygon fill="black" stroke="black" points="88.01,-83.23 96.69,-77.15 86.12,-76.49 88.01,-83.23"/>
<text text-anchor="middle" x="67" y="-91.8" font-family="Times,serif" font-size="14.00">z=...</text>
</g>
<!-- Z&#45;&gt;XK -->
<g id="edge4" class="edge">
<title>Z&#45;&gt;XK</title>
<path fill="none" stroke="black" d="M30.82,-85.83C37.39,-78.78 45.86,-70.11 54,-63 65.66,-52.83 79.47,-42.51 91,-34.32"/>
<polygon fill="black" stroke="black" points="93,-37.19 99.2,-28.6 89,-31.45 93,-37.19"/>
<text text-anchor="middle" x="67" y="-66.8" font-family="Times,serif" font-size="14.00">z=k</text>
</g>
</g>
</svg>
