<?xml version="1.0" encoding="UTF-8" standalone="no"?>
<!DOCTYPE svg PUBLIC "-//W3C//DTD SVG 1.1//EN"
 "http://www.w3.org/Graphics/SVG/1.1/DTD/svg11.dtd">
<!-- Generated by graphviz version 7.1.0 (20230121.1956)
 -->
<!-- Title: Zå’ŒXçš„å…³ç³» Pages: 1 -->
<svg width="138pt" height="206pt"
 viewBox="0.00 0.00 138.00 206.00" xmlns="http://www.w3.org/2000/svg" xmlns:xlink="http://www.w3.org/1999/xlink">
<g id="graph0" class="graph" transform="scale(1 1) rotate(0) translate(4 202)">
<title>Zå’ŒXçš„å…³ç³»</title>
<polygon fill="white" stroke="none" points="-4,4 -4,-202 134,-202 134,4 -4,4"/>
<!-- X1 -->
<g id="node1" class="node">
<title>X1</title>
<ellipse fill="lightgrey" stroke="black" cx="112" cy="-180" rx="18" ry="18"/>
<text text-anchor="start" x="91" y="-177.3" font-family="Times,serif" font-size="14.00">X</text>
<text text-anchor="start" x="101" y="-177.3" font-family="Times,serif" baseline-shift="sub" font-size="14.00">1</text>
<text text-anchor="start" x="108" y="-177.3" font-family="Times,serif" font-size="14.00">(ğœƒ</text>
<text text-anchor="start" x="121" y="-177.3" font-family="Times,serif" baseline-shift="sub" font-size="14.00">1</text>
<text text-anchor="start" x="128" y="-177.3" font-family="Times,serif" font-size="14.00">)</text>
</g>
<!-- X2 -->
<g id="node2" class="node">
<title>X2</title>
<ellipse fill="lightgrey" stroke="black" cx="112" cy="-126" rx="18" ry="18"/>
<text text-anchor="start" x="91" y="-123.3" font-family="Times,serif" font-size="14.00">X</text>
<text text-anchor="start" x="101" y="-123.3" font-family="Times,serif" baseline-shift="sub" font-size="14.00">2</text>
<text text-anchor="start" x="108" y="-123.3" font-family="Times,serif" font-size="14.00">(ğœƒ</text>
<text text-anchor="start" x="121" y="-123.3" font-family="Times,serif" baseline-shift="sub" font-size="14.00">2</text>
<text text-anchor="start" x="128" y="-123.3" font-family="Times,serif" font-size="14.00">)</text>
</g>
<!-- X3 -->
<g id="node3" class="node">
<title>X3</title>
<ellipse fill="lightgrey" stroke="black" cx="112" cy="-72" rx="18" ry="18"/>
<text text-anchor="middle" x="112" y="-68.3" font-family="Times,serif" font-size="14.00">...</text>
</g>
<!-- XK -->
<g id="node4" class="node">
<title>XK</title>
<ellipse fill="lightgrey" stroke="black" cx="112" cy="-18" rx="18" ry="18"/>
<text text-anchor="start" x="91" y="-15.3" font-family="Times,serif" font-size="14.00">X</text>
<text text-anchor="start" x="101" y="-15.3" font-family="Times,serif" baseline-shift="sub" font-size="14.00">k</text>
<text text-anchor="start" x="108" y="-15.3" font-family="Times,serif" font-size="14.00">(ğœƒ</text>
<text text-anchor="start" x="121" y="-15.3" font-family="Times,serif" baseline-shift="sub" font-size="14.00">k</text>
<text text-anchor="start" x="128" y="-15.3" font-family="Times,serif" font-size="14.00">)</text>
</g>
<!-- Z -->
<g id="node5" class="node">
<title>Z</title>
<ellipse fill="none" stroke="black" cx="18" cy="-99" rx="18" ry="18"/>
<text text-anchor="middle" x="18" y="-95.3" font-family="Times,serif" font-size="14.00">Z</text>
</g>
<!-- Z&#45;&gt;X1 -->
<g id="edge1" class="edge">
<title>Z&#45;&gt;X1</title>
<path fill="none" stroke="black" d="M31,-111.64C37.62,-118.44 46.08,-126.88 54,-134 64.86,-143.76 77.45,-154.02 88.03,-162.37"/>
<polygon fill="black" stroke="black" points="85.84,-165.1 95.88,-168.5 90.15,-159.59 85.84,-165.1"/>
<text text-anchor="middle" x="65" y="-155.8" font-family="Times,serif" font-size="14.00">z=1</text>
</g>
<!-- Z&#45;&gt;X2 -->
<g id="edge2" class="edge">
<title>Z&#45;&gt;X2</title>
<path fill="none" stroke="black" d="M35.45,-103.83C48.84,-107.76 68.03,-113.39 83.71,-117.99"/>
<polygon fill="black" stroke="black" points="82.35,-121.24 92.93,-120.7 84.32,-114.52 82.35,-121.24"/>
<text text-anchor="middle" x="65" y="-118.8" font-family="Times,serif" font-size="14.00">z=2</text>
</g>
<!-- Z&#45;&gt;X3 -->
<g id="edge3" class="edge">
<title>Z&#45;&gt;X3</title>
<path fill="none" stroke="black" d="M35.45,-94.17C48.84,-90.24 68.03,-84.61 83.71,-80.01"/>
<polygon fill="black" stroke="black" points="84.32,-83.48 92.93,-77.3 82.35,-76.76 84.32,-83.48"/>
<text text-anchor="middle" x="65" y="-91.8" font-family="Times,serif" font-size="14.00">...</text>
</g>
<!-- Z&#45;&gt;XK -->
<g id="edge4" class="edge">
<title>Z&#45;&gt;XK</title>
<path fill="none" stroke="black" d="M30.92,-85.93C37.51,-78.91 45.97,-70.24 54,-63 64.75,-53.3 77.33,-43.25 87.93,-35.11"/>
<polygon fill="black" stroke="black" points="89.93,-37.98 95.79,-29.16 85.71,-32.4 89.93,-37.98"/>
<text text-anchor="middle" x="65" y="-66.8" font-family="Times,serif" font-size="14.00">z=k</text>
</g>
</g>
</svg>
