<?xml version="1.0" encoding="UTF-8" standalone="no"?>
<!DOCTYPE svg PUBLIC "-//W3C//DTD SVG 1.1//EN"
 "http://www.w3.org/Graphics/SVG/1.1/DTD/svg11.dtd">
<!-- Generated by graphviz version 7.1.0 (20230121.1956)
 -->
<!-- Title: fig_bc_012 Pages: 1 -->
<svg width="293pt" height="127pt"
 viewBox="0.00 0.00 292.85 126.80" xmlns="http://www.w3.org/2000/svg" xmlns:xlink="http://www.w3.org/1999/xlink">
<g id="graph0" class="graph" transform="scale(1 1) rotate(0) translate(4 122.8)">
<title>fig_bc_012</title>
<polygon fill="white" stroke="none" points="-4,4 -4,-122.8 288.85,-122.8 288.85,4 -4,4"/>
<!-- x1 -->
<g id="node1" class="node">
<title>x1</title>
<ellipse fill="none" stroke="black" cx="21.45" cy="-23.4" rx="21.4" ry="21.4"/>
<text text-anchor="start" x="12.95" y="-20.7" font-family="Times,serif" font-size="14.00">X</text>
<text text-anchor="start" x="22.95" y="-20.7" font-family="Times,serif" baseline-shift="sub" font-size="14.00">1</text>
</g>
<!-- x2 -->
<g id="node2" class="node">
<title>x2</title>
<ellipse fill="none" stroke="black" cx="82.45" cy="-23.4" rx="21.4" ry="21.4"/>
<text text-anchor="start" x="73.95" y="-20.7" font-family="Times,serif" font-size="14.00">X</text>
<text text-anchor="start" x="83.95" y="-20.7" font-family="Times,serif" baseline-shift="sub" font-size="14.00">2</text>
</g>
<!-- x3 -->
<g id="node3" class="node">
<title>x3</title>
<ellipse fill="none" stroke="black" cx="143.45" cy="-23.4" rx="21.4" ry="21.4"/>
<text text-anchor="start" x="134.95" y="-20.7" font-family="Times,serif" font-size="14.00">X</text>
<text text-anchor="start" x="144.95" y="-20.7" font-family="Times,serif" baseline-shift="sub" font-size="14.00">3</text>
</g>
<!-- xh -->
<g id="node4" class="node">
<title>xh</title>
<ellipse fill="none" stroke="none" cx="201.45" cy="-23.4" rx="18.4" ry="18.4"/>
<text text-anchor="middle" x="201.45" y="-19.7" font-family="Times,serif" font-size="14.00">...</text>
</g>
<!-- xn -->
<g id="node5" class="node">
<title>xn</title>
<ellipse fill="none" stroke="black" cx="261.45" cy="-23.4" rx="23.3" ry="23.3"/>
<text text-anchor="start" x="251.45" y="-20.7" font-family="Times,serif" font-size="14.00">X</text>
<text text-anchor="start" x="261.45" y="-20.7" font-family="Times,serif" baseline-shift="sub" font-size="14.00">m</text>
</g>
<!-- y -->
<g id="node6" class="node">
<title>y</title>
<ellipse fill="none" stroke="black" cx="143.45" cy="-100.8" rx="18" ry="18"/>
<text text-anchor="middle" x="143.45" y="-97.1" font-family="Times,serif" font-size="14.00">Y</text>
</g>
<!-- y&#45;&gt;x1 -->
<g id="edge2" class="edge">
<title>y&#45;&gt;x1</title>
<path fill="none" stroke="black" d="M127.71,-91.25C109.34,-81.13 78.2,-63.54 52.45,-46.8 50.84,-45.75 49.2,-44.66 47.56,-43.54"/>
<polygon fill="black" stroke="black" points="49.73,-40.78 39.53,-37.9 45.7,-46.51 49.73,-40.78"/>
</g>
<!-- y&#45;&gt;x2 -->
<g id="edge3" class="edge">
<title>y&#45;&gt;x2</title>
<path fill="none" stroke="black" d="M132.54,-86.32C124.3,-76.12 112.73,-61.83 102.8,-49.55"/>
<polygon fill="black" stroke="black" points="105.56,-47.4 96.55,-41.82 100.11,-51.8 105.56,-47.4"/>
</g>
<!-- y&#45;&gt;x3 -->
<g id="edge4" class="edge">
<title>y&#45;&gt;x3</title>
<path fill="none" stroke="black" d="M143.45,-82.31C143.45,-74.63 143.45,-65.35 143.45,-56.5"/>
<polygon fill="black" stroke="black" points="146.95,-56.79 143.45,-46.79 139.95,-56.79 146.95,-56.79"/>
</g>
<!-- y&#45;&gt;xh -->
<g id="edge1" class="edge">
<title>y&#45;&gt;xh</title>
</g>
<!-- y&#45;&gt;xn -->
<g id="edge5" class="edge">
<title>y&#45;&gt;xn</title>
<path fill="none" stroke="black" d="M158.61,-90.59C175.7,-80.15 204.25,-62.54 228.45,-46.8 230,-45.78 231.6,-44.74 233.2,-43.68"/>
<polygon fill="black" stroke="black" points="234.72,-46.87 241.08,-38.39 230.82,-41.05 234.72,-46.87"/>
</g>
</g>
</svg>
