<?xml version="1.0" encoding="UTF-8" standalone="no"?>
<!DOCTYPE svg PUBLIC "-//W3C//DTD SVG 1.1//EN"
 "http://www.w3.org/Graphics/SVG/1.1/DTD/svg11.dtd">
<!-- Generated by graphviz version 2.43.0 (0)
 -->
<!-- Title: 树结构 Pages: 1 -->
<svg width="358pt" height="242pt"
 viewBox="0.00 0.00 358.00 242.00" xmlns="http://www.w3.org/2000/svg" xmlns:xlink="http://www.w3.org/1999/xlink">
<g id="graph0" class="graph" transform="scale(1 1) rotate(0) translate(4 238)">
<title>树结构</title>
<polygon fill="white" stroke="transparent" points="-4,4 -4,-238 354,-238 354,4 -4,4"/>
<g id="clust1" class="cluster">
<title>cluster_a</title>
<polygon fill="none" stroke="transparent" points="8,-8 8,-226 114,-226 114,-8 8,-8"/>
<text text-anchor="middle" x="61" y="-14.8" font-family="Times,serif" font-size="14.00">(a)</text>
</g>
<g id="clust4" class="cluster">
<title>cluster_b</title>
<polygon fill="none" stroke="transparent" points="122,-8 122,-226 228,-226 228,-8 122,-8"/>
<text text-anchor="middle" x="175" y="-14.8" font-family="Times,serif" font-size="14.00">(b)</text>
</g>
<g id="clust7" class="cluster">
<title>cluster_c</title>
<polygon fill="none" stroke="transparent" points="236,-8 236,-226 342,-226 342,-8 236,-8"/>
<text text-anchor="middle" x="289" y="-14.8" font-family="Times,serif" font-size="14.00">(c)</text>
</g>
<!-- a -->
<g id="node1" class="node">
<title>a</title>
<ellipse fill="none" stroke="black" cx="61" cy="-200" rx="18" ry="18"/>
</g>
<!-- b -->
<g id="node2" class="node">
<title>b</title>
<ellipse fill="none" stroke="black" cx="34" cy="-128" rx="18" ry="18"/>
</g>
<!-- a&#45;&gt;b -->
<g id="edge1" class="edge">
<title>a&#45;&gt;b</title>
<path fill="none" stroke="black" d="M54.74,-182.76C50.38,-171.46 44.58,-156.44 40.23,-145.15"/>
</g>
<!-- c -->
<g id="node3" class="node">
<title>c</title>
<ellipse fill="none" stroke="black" cx="88" cy="-128" rx="18" ry="18"/>
</g>
<!-- a&#45;&gt;c -->
<g id="edge2" class="edge">
<title>a&#45;&gt;c</title>
<path fill="none" stroke="black" d="M67.26,-182.76C71.62,-171.46 77.42,-156.44 81.77,-145.15"/>
</g>
<!-- d -->
<g id="node4" class="node">
<title>d</title>
<ellipse fill="none" stroke="black" cx="34" cy="-56" rx="18" ry="18"/>
</g>
<!-- c&#45;&gt;d -->
<g id="edge3" class="edge">
<title>c&#45;&gt;d</title>
<path fill="none" stroke="black" d="M77.33,-113.17C67.86,-100.9 54.11,-83.06 44.65,-70.8"/>
</g>
<!-- f -->
<g id="node5" class="node">
<title>f</title>
<ellipse fill="none" stroke="black" cx="88" cy="-56" rx="18" ry="18"/>
</g>
<!-- c&#45;&gt;f -->
<g id="edge4" class="edge">
<title>c&#45;&gt;f</title>
<path fill="none" stroke="black" d="M88,-109.7C88,-98.85 88,-84.92 88,-74.1"/>
</g>
<!-- a2 -->
<g id="node6" class="node">
<title>a2</title>
<ellipse fill="none" stroke="black" cx="175" cy="-200" rx="18" ry="18"/>
</g>
<!-- b2 -->
<g id="node7" class="node">
<title>b2</title>
<ellipse fill="none" stroke="black" cx="148" cy="-128" rx="18" ry="18"/>
</g>
<!-- a2&#45;&gt;b2 -->
<g id="edge5" class="edge">
<title>a2&#45;&gt;b2</title>
<path fill="none" stroke="black" d="M168.74,-182.76C165.5,-174.37 161.47,-163.93 157.83,-154.5"/>
<polygon fill="black" stroke="black" points="161.09,-153.22 154.23,-145.15 154.56,-155.74 161.09,-153.22"/>
</g>
<!-- c2 -->
<g id="node8" class="node">
<title>c2</title>
<ellipse fill="none" stroke="black" cx="202" cy="-128" rx="18" ry="18"/>
</g>
<!-- a2&#45;&gt;c2 -->
<g id="edge6" class="edge">
<title>a2&#45;&gt;c2</title>
<path fill="none" stroke="black" d="M181.26,-182.76C184.5,-174.37 188.53,-163.93 192.17,-154.5"/>
<polygon fill="black" stroke="black" points="195.44,-155.74 195.77,-145.15 188.91,-153.22 195.44,-155.74"/>
</g>
<!-- d2 -->
<g id="node9" class="node">
<title>d2</title>
<ellipse fill="none" stroke="black" cx="148" cy="-56" rx="18" ry="18"/>
</g>
<!-- c2&#45;&gt;d2 -->
<g id="edge7" class="edge">
<title>c2&#45;&gt;d2</title>
<path fill="none" stroke="black" d="M191.33,-113.17C183.79,-103.39 173.52,-90.08 164.87,-78.87"/>
<polygon fill="black" stroke="black" points="167.53,-76.58 158.65,-70.8 161.98,-80.86 167.53,-76.58"/>
</g>
<!-- f2 -->
<g id="node10" class="node">
<title>f2</title>
<ellipse fill="none" stroke="black" cx="202" cy="-56" rx="18" ry="18"/>
</g>
<!-- c2&#45;&gt;f2 -->
<g id="edge8" class="edge">
<title>c2&#45;&gt;f2</title>
<path fill="none" stroke="black" d="M202,-109.7C202,-101.98 202,-92.71 202,-84.11"/>
<polygon fill="black" stroke="black" points="205.5,-84.1 202,-74.1 198.5,-84.1 205.5,-84.1"/>
</g>
<!-- a3 -->
<g id="node11" class="node">
<title>a3</title>
<ellipse fill="none" stroke="black" cx="316" cy="-200" rx="18" ry="18"/>
</g>
<!-- c3 -->
<g id="node13" class="node">
<title>c3</title>
<ellipse fill="none" stroke="black" cx="316" cy="-128" rx="18" ry="18"/>
</g>
<!-- a3&#45;&gt;c3 -->
<g id="edge9" class="edge">
<title>a3&#45;&gt;c3</title>
<path fill="none" stroke="black" d="M316,-181.7C316,-173.98 316,-164.71 316,-156.11"/>
<polygon fill="black" stroke="black" points="319.5,-156.1 316,-146.1 312.5,-156.1 319.5,-156.1"/>
</g>
<!-- b3 -->
<g id="node12" class="node">
<title>b3</title>
<ellipse fill="none" stroke="black" cx="262" cy="-200" rx="18" ry="18"/>
</g>
<!-- b3&#45;&gt;c3 -->
<g id="edge10" class="edge">
<title>b3&#45;&gt;c3</title>
<path fill="none" stroke="black" d="M272.67,-185.17C280.21,-175.39 290.48,-162.08 299.13,-150.87"/>
<polygon fill="black" stroke="black" points="302.02,-152.86 305.35,-142.8 296.47,-148.58 302.02,-152.86"/>
</g>
<!-- f3 -->
<g id="node15" class="node">
<title>f3</title>
<ellipse fill="none" stroke="black" cx="289" cy="-56" rx="18" ry="18"/>
</g>
<!-- c3&#45;&gt;f3 -->
<g id="edge11" class="edge">
<title>c3&#45;&gt;f3</title>
<path fill="none" stroke="black" d="M309.74,-110.76C306.5,-102.37 302.47,-91.93 298.83,-82.5"/>
<polygon fill="black" stroke="black" points="302.09,-81.22 295.23,-73.15 295.56,-83.74 302.09,-81.22"/>
</g>
<!-- d3 -->
<g id="node14" class="node">
<title>d3</title>
<ellipse fill="none" stroke="black" cx="262" cy="-128" rx="18" ry="18"/>
</g>
<!-- d3&#45;&gt;f3 -->
<g id="edge12" class="edge">
<title>d3&#45;&gt;f3</title>
<path fill="none" stroke="black" d="M268.26,-110.76C271.5,-102.37 275.53,-91.93 279.17,-82.5"/>
<polygon fill="black" stroke="black" points="282.44,-83.74 282.77,-73.15 275.91,-81.22 282.44,-83.74"/>
</g>
</g>
</svg>
