<?xml version="1.0" encoding="UTF-8" standalone="no"?>
<!DOCTYPE svg PUBLIC "-//W3C//DTD SVG 1.1//EN"
 "http://www.w3.org/Graphics/SVG/1.1/DTD/svg11.dtd">
<!-- Generated by graphviz version 9.0.0 (20230911.1827)
 -->
<!-- Title: 一个树形概率图模型 Pages: 1 -->
<svg width="293pt" height="127pt"
 viewBox="0.00 0.00 293.38 127.43" xmlns="http://www.w3.org/2000/svg" xmlns:xlink="http://www.w3.org/1999/xlink">
<g id="graph0" class="graph" transform="scale(1 1) rotate(0) translate(4 123.43)">
<title>一个树形概率图模型</title>
<polygon fill="white" stroke="none" points="-4,4 -4,-123.43 289.38,-123.43 289.38,4 -4,4"/>
<!-- x1 -->
<g id="node1" class="node">
<title>x1</title>
<ellipse fill="none" stroke="black" cx="21.67" cy="-23.71" rx="21.67" ry="21.67"/>
<text text-anchor="start" x="13.79" y="-19.66" font-family="Times,serif" font-size="14.00">X</text>
<text text-anchor="start" x="23.54" y="-19.66" font-family="Times,serif" baseline-shift="sub" font-size="14.00">1</text>
</g>
<!-- x2 -->
<g id="node2" class="node">
<title>x2</title>
<ellipse fill="none" stroke="black" cx="82.67" cy="-23.71" rx="21.67" ry="21.67"/>
<text text-anchor="start" x="74.79" y="-19.66" font-family="Times,serif" font-size="14.00">X</text>
<text text-anchor="start" x="84.54" y="-19.66" font-family="Times,serif" baseline-shift="sub" font-size="14.00">2</text>
</g>
<!-- x3 -->
<g id="node3" class="node">
<title>x3</title>
<ellipse fill="none" stroke="black" cx="143.67" cy="-23.71" rx="21.67" ry="21.67"/>
<text text-anchor="start" x="135.79" y="-19.66" font-family="Times,serif" font-size="14.00">X</text>
<text text-anchor="start" x="145.54" y="-19.66" font-family="Times,serif" baseline-shift="sub" font-size="14.00">3</text>
</g>
<!-- xh -->
<g id="node4" class="node">
<title>xh</title>
<ellipse fill="none" stroke="none" cx="201.67" cy="-23.71" rx="18.6" ry="18.6"/>
<text text-anchor="middle" x="201.67" y="-18.66" font-family="Times,serif" font-size="14.00">...</text>
</g>
<!-- xm -->
<g id="node5" class="node">
<title>xm</title>
<ellipse fill="none" stroke="black" cx="261.67" cy="-23.71" rx="23.71" ry="23.71"/>
<text text-anchor="start" x="252.29" y="-19.66" font-family="Times,serif" font-size="14.00">X</text>
<text text-anchor="start" x="262.04" y="-19.66" font-family="Times,serif" baseline-shift="sub" font-size="14.00">m</text>
</g>
<!-- y -->
<g id="node6" class="node">
<title>y</title>
<ellipse fill="none" stroke="black" cx="143.67" cy="-101.43" rx="18" ry="18"/>
<text text-anchor="middle" x="143.67" y="-96.38" font-family="Times,serif" font-size="14.00">Y</text>
</g>
<!-- y&#45;&gt;x1 -->
<g id="edge2" class="edge">
<title>y&#45;&gt;x1</title>
<path fill="none" stroke="black" d="M128.01,-92.19C109.41,-82.22 77.63,-64.64 51.67,-47.43 50.31,-46.53 48.92,-45.58 47.54,-44.62"/>
<polygon fill="black" stroke="black" points="49.9,-42.01 39.76,-38.96 45.78,-47.67 49.9,-42.01"/>
</g>
<!-- y&#45;&gt;x2 -->
<g id="edge3" class="edge">
<title>y&#45;&gt;x2</title>
<path fill="none" stroke="black" d="M132.76,-86.89C124.57,-76.72 113.11,-62.49 103.21,-50.21"/>
<polygon fill="black" stroke="black" points="105.98,-48.07 96.98,-42.48 100.53,-52.46 105.98,-48.07"/>
</g>
<!-- y&#45;&gt;x3 -->
<g id="edge4" class="edge">
<title>y&#45;&gt;x3</title>
<path fill="none" stroke="black" d="M143.67,-83.25C143.67,-75.48 143.67,-66.04 143.67,-57.03"/>
<polygon fill="black" stroke="black" points="147.17,-57.12 143.67,-47.12 140.17,-57.12 147.17,-57.12"/>
</g>
<!-- y&#45;&gt;xh -->
<g id="edge1" class="edge">
<title>y&#45;&gt;xh</title>
</g>
<!-- y&#45;&gt;xm -->
<g id="edge5" class="edge">
<title>y&#45;&gt;xm</title>
<path fill="none" stroke="black" d="M159.08,-91.34C176.44,-81.01 205.39,-63.5 229.67,-47.43 231.02,-46.53 232.39,-45.61 233.77,-44.67"/>
<polygon fill="black" stroke="black" points="235.39,-47.81 241.61,-39.23 231.4,-42.06 235.39,-47.81"/>
</g>
</g>
</svg>
