<?xml version="1.0" encoding="UTF-8" standalone="no"?>
<!DOCTYPE svg PUBLIC "-//W3C//DTD SVG 1.1//EN"
 "http://www.w3.org/Graphics/SVG/1.1/DTD/svg11.dtd">
<!-- Generated by graphviz version 2.43.0 (0)
 -->
<!-- Title: demo_5 Pages: 1 -->
<svg width="385pt" height="278pt"
 viewBox="0.00 0.00 384.74 278.06" xmlns="http://www.w3.org/2000/svg" xmlns:xlink="http://www.w3.org/1999/xlink">
<g id="graph0" class="graph" transform="scale(1 1) rotate(0) translate(4 274.06)">
<title>demo_5</title>
<polygon fill="white" stroke="transparent" points="-4,4 -4,-274.06 380.74,-274.06 380.74,4 -4,4"/>
<!-- a -->
<g id="node1" class="node">
<title>a</title>
<ellipse fill="none" stroke="black" cx="117.29" cy="-115.44" rx="27" ry="18"/>
<text text-anchor="middle" x="117.29" y="-111.24" font-family="Times,serif" font-size="14.00">a</text>
</g>
<!-- b -->
<g id="node2" class="node">
<title>b</title>
<ellipse fill="none" stroke="black" cx="235.73" cy="-134.55" rx="27" ry="18"/>
<text text-anchor="middle" x="235.73" y="-130.35" font-family="Times,serif" font-size="14.00">b</text>
</g>
<!-- a&#45;&gt;b -->
<g id="edge1" class="edge">
<title>a&#45;&gt;b</title>
<path fill="none" stroke="black" d="M143.57,-119.68C159.94,-122.32 181.24,-125.76 199.23,-128.66"/>
<polygon fill="black" stroke="black" points="198.68,-132.12 209.11,-130.26 199.79,-125.21 198.68,-132.12"/>
</g>
<!-- c -->
<g id="node3" class="node">
<title>c</title>
<ellipse fill="none" stroke="black" cx="55.53" cy="-18" rx="27" ry="18"/>
<text text-anchor="middle" x="55.53" y="-13.8" font-family="Times,serif" font-size="14.00">c</text>
</g>
<!-- a&#45;&gt;c -->
<g id="edge2" class="edge">
<title>a&#45;&gt;c</title>
<path fill="none" stroke="black" d="M106.53,-98.47C96.88,-83.24 82.58,-60.68 71.57,-43.32"/>
<polygon fill="black" stroke="black" points="74.47,-41.35 66.16,-34.78 68.56,-45.1 74.47,-41.35"/>
</g>
<!-- d -->
<g id="node4" class="node">
<title>d</title>
<ellipse fill="none" stroke="black" cx="27" cy="-186.84" rx="27" ry="18"/>
<text text-anchor="middle" x="27" y="-182.64" font-family="Times,serif" font-size="14.00">d</text>
</g>
<!-- a&#45;&gt;d -->
<g id="edge3" class="edge">
<title>a&#45;&gt;d</title>
<path fill="none" stroke="black" d="M99.88,-129.21C86.48,-139.81 67.75,-154.62 52.63,-166.57"/>
<polygon fill="black" stroke="black" points="50.34,-163.92 44.66,-172.87 54.68,-169.41 50.34,-163.92"/>
</g>
<!-- e -->
<g id="node5" class="node">
<title>e</title>
<ellipse fill="none" stroke="black" cx="349.74" cy="-151.67" rx="27" ry="18"/>
<text text-anchor="middle" x="349.74" y="-147.47" font-family="Times,serif" font-size="14.00">e</text>
</g>
<!-- b&#45;&gt;e -->
<g id="edge4" class="edge">
<title>b&#45;&gt;e</title>
<path fill="none" stroke="black" d="M262.17,-138.52C277.31,-140.8 296.54,-143.68 313.12,-146.17"/>
<polygon fill="black" stroke="black" points="312.64,-149.64 323.04,-147.66 313.67,-142.71 312.64,-149.64"/>
</g>
<!-- f -->
<g id="node6" class="node">
<title>f</title>
<ellipse fill="none" stroke="black" cx="249.3" cy="-252.06" rx="27" ry="18"/>
<text text-anchor="middle" x="249.3" y="-247.86" font-family="Times,serif" font-size="14.00">f</text>
</g>
<!-- b&#45;&gt;f -->
<g id="edge5" class="edge">
<title>b&#45;&gt;f</title>
<path fill="none" stroke="black" d="M237.82,-152.66C240,-171.58 243.47,-201.53 246.02,-223.61"/>
<polygon fill="black" stroke="black" points="242.56,-224.21 247.19,-233.74 249.52,-223.41 242.56,-224.21"/>
</g>
<!-- g -->
<g id="node7" class="node">
<title>g</title>
<ellipse fill="none" stroke="black" cx="284.42" cy="-26.71" rx="27" ry="18"/>
<text text-anchor="middle" x="284.42" y="-22.51" font-family="Times,serif" font-size="14.00">g</text>
</g>
<!-- b&#45;&gt;g -->
<g id="edge6" class="edge">
<title>b&#45;&gt;g</title>
<path fill="none" stroke="black" d="M243.55,-117.23C251.36,-99.93 263.46,-73.13 272.48,-53.17"/>
<polygon fill="black" stroke="black" points="275.69,-54.55 276.62,-44 269.31,-51.67 275.69,-54.55"/>
</g>
</g>
</svg>
