<?xml version="1.0" encoding="UTF-8" standalone="no"?>
<!DOCTYPE svg PUBLIC "-//W3C//DTD SVG 1.1//EN"
 "http://www.w3.org/Graphics/SVG/1.1/DTD/svg11.dtd">
<!-- Generated by graphviz version 7.1.0 (20230121.1956)
 -->
<!-- Title: VAE有向图 Pages: 1 -->
<svg width="154pt" height="48pt"
 viewBox="0.00 0.00 154.00 48.12" xmlns="http://www.w3.org/2000/svg" xmlns:xlink="http://www.w3.org/1999/xlink">
<g id="graph0" class="graph" transform="scale(1 1) rotate(0) translate(4 44.12)">
<title>VAE有向图</title>
<polygon fill="white" stroke="none" points="-4,4 -4,-44.12 150,-44.12 150,4 -4,4"/>
<!-- X -->
<g id="node1" class="node">
<title>X</title>
<ellipse fill="lightgrey" stroke="black" cx="18" cy="-22.12" rx="18" ry="18"/>
<text text-anchor="middle" x="18" y="-18.42" font-family="Times,serif" font-size="14.00">X</text>
</g>
<!-- Z -->
<g id="node2" class="node">
<title>Z</title>
<ellipse fill="none" stroke="black" cx="128" cy="-22.12" rx="18" ry="18"/>
<text text-anchor="middle" x="128" y="-18.42" font-family="Times,serif" font-size="14.00">Z</text>
</g>
<!-- X&#45;&gt;Z -->
<g id="edge1" class="edge">
<title>X&#45;&gt;Z</title>
<path fill="none" stroke="black" d="M36.35,-22.12C53.04,-22.12 78.58,-22.12 98.3,-22.12"/>
<polygon fill="black" stroke="black" points="98.18,-25.62 108.18,-22.12 98.18,-18.62 98.18,-25.62"/>
<text text-anchor="middle" x="73" y="-25.92" font-family="Times,serif" font-size="14.00">P(Z|X)</text>
</g>
<!-- Z&#45;&gt;X -->
<g id="edge2" class="edge">
<title>Z&#45;&gt;X</title>
<path fill="none" stroke="black" d="M112.69,-12.25C106.6,-8.62 99.24,-4.96 92,-3.12 75.63,1.04 70.37,1.04 54,-3.12 50.38,-4.04 46.73,-5.41 43.23,-7.01"/>
<polygon fill="black" stroke="black" points="41.86,-3.78 34.65,-11.54 45.13,-9.97 41.86,-3.78"/>
<text text-anchor="middle" x="73" y="-6.92" font-family="Times,serif" font-size="14.00">P(X|Z)</text>
</g>
</g>
</svg>
