<?xml version="1.0" encoding="UTF-8" standalone="no"?>
<!DOCTYPE svg PUBLIC "-//W3C//DTD SVG 1.1//EN"
 "http://www.w3.org/Graphics/SVG/1.1/DTD/svg11.dtd">
<!-- Generated by graphviz version 7.1.0 (20230121.1956)
 -->
<!-- Title: VAEæœ‰å‘å›¾ Pages: 1 -->
<svg width="98pt" height="116pt"
 viewBox="0.00 0.00 98.00 116.00" xmlns="http://www.w3.org/2000/svg" xmlns:xlink="http://www.w3.org/1999/xlink">
<g id="graph0" class="graph" transform="scale(1 1) rotate(0) translate(4 112)">
<title>VAEæœ‰å‘å›¾</title>
<polygon fill="white" stroke="none" points="-4,4 -4,-112 94,-112 94,4 -4,4"/>
<!-- lambda -->
<g id="node1" class="node">
<title>lambda</title>
<text text-anchor="middle" x="18" y="-86.3" font-family="Times,serif" font-size="14.00">(0,I)</text>
</g>
<!-- Z -->
<g id="node2" class="node">
<title>Z</title>
<ellipse fill="none" stroke="black" cx="72" cy="-90" rx="18" ry="18"/>
<text text-anchor="middle" x="72" y="-86.3" font-family="Times,serif" font-size="14.00">Z</text>
</g>
<!-- lambda&#45;&gt;Z -->
<g id="edge2" class="edge">
<title>lambda&#45;&gt;Z</title>
<path fill="none" stroke="black" d="M35.72,-90C37.86,-90 40,-90 42.14,-90"/>
<polygon fill="black" stroke="black" points="42.06,-93.5 52.06,-90 42.06,-86.5 42.06,-93.5"/>
</g>
<!-- X -->
<g id="node3" class="node">
<title>X</title>
<ellipse fill="lightgrey" stroke="black" cx="72" cy="-18" rx="18" ry="18"/>
<text text-anchor="middle" x="72" y="-14.3" font-family="Times,serif" font-size="14.00">X</text>
</g>
<!-- Z&#45;&gt;X -->
<g id="edge1" class="edge">
<title>Z&#45;&gt;X</title>
<path fill="none" stroke="black" d="M72,-71.7C72,-64.41 72,-55.73 72,-47.54"/>
<polygon fill="black" stroke="black" points="75.5,-47.62 72,-37.62 68.5,-47.62 75.5,-47.62"/>
</g>
<!-- theta -->
<g id="node4" class="node">
<title>theta</title>
<text text-anchor="middle" x="18" y="-14.3" font-family="Times,serif" font-size="14.00">ğœƒ</text>
</g>
<!-- theta&#45;&gt;X -->
<g id="edge3" class="edge">
<title>theta&#45;&gt;X</title>
<path fill="none" stroke="black" d="M35.72,-18C37.86,-18 40,-18 42.14,-18"/>
<polygon fill="black" stroke="black" points="42.06,-21.5 52.06,-18 42.06,-14.5 42.06,-21.5"/>
</g>
</g>
</svg>
