<?xml version="1.0" encoding="UTF-8" standalone="no"?>
<!DOCTYPE svg PUBLIC "-//W3C//DTD SVG 1.1//EN"
 "http://www.w3.org/Graphics/SVG/1.1/DTD/svg11.dtd">
<!-- Generated by graphviz version 7.1.0 (20230121.1956)
 -->
<!-- Title: Z和X的关系 Pages: 1 -->
<svg width="128pt" height="206pt"
 viewBox="0.00 0.00 128.00 206.00" xmlns="http://www.w3.org/2000/svg" xmlns:xlink="http://www.w3.org/1999/xlink">
<g id="graph0" class="graph" transform="scale(1 1) rotate(0) translate(4 202)">
<title>Z和X的关系</title>
<polygon fill="white" stroke="none" points="-4,4 -4,-202 124,-202 124,4 -4,4"/>
<!-- X1 -->
<g id="node1" class="node">
<title>X1</title>
<ellipse fill="lightgrey" stroke="black" cx="102" cy="-180" rx="18" ry="18"/>
<text text-anchor="start" x="93.5" y="-177.3" font-family="Times,serif" font-size="14.00">X</text>
<text text-anchor="start" x="103.5" y="-177.3" font-family="Times,serif" baseline-shift="sub" font-size="14.00">1</text>
</g>
<!-- X2 -->
<g id="node2" class="node">
<title>X2</title>
<ellipse fill="lightgrey" stroke="black" cx="102" cy="-126" rx="18" ry="18"/>
<text text-anchor="start" x="93.5" y="-123.3" font-family="Times,serif" font-size="14.00">X</text>
<text text-anchor="start" x="103.5" y="-123.3" font-family="Times,serif" baseline-shift="sub" font-size="14.00">2</text>
</g>
<!-- X3 -->
<g id="node3" class="node">
<title>X3</title>
<ellipse fill="lightgrey" stroke="black" cx="102" cy="-72" rx="18" ry="18"/>
<text text-anchor="start" x="92" y="-69.3" font-family="Times,serif" font-size="14.00">X</text>
<text text-anchor="start" x="102" y="-69.3" font-family="Times,serif" baseline-shift="sub" font-size="14.00">...</text>
</g>
<!-- XK -->
<g id="node4" class="node">
<title>XK</title>
<ellipse fill="lightgrey" stroke="black" cx="102" cy="-18" rx="18" ry="18"/>
<text text-anchor="start" x="93.5" y="-15.3" font-family="Times,serif" font-size="14.00">X</text>
<text text-anchor="start" x="103.5" y="-15.3" font-family="Times,serif" baseline-shift="sub" font-size="14.00">k</text>
</g>
<!-- Z -->
<g id="node5" class="node">
<title>Z</title>
<ellipse fill="none" stroke="black" cx="18" cy="-99" rx="18" ry="18"/>
<text text-anchor="middle" x="18" y="-95.3" font-family="Times,serif" font-size="14.00">Z</text>
</g>
<!-- Z&#45;&gt;X1 -->
<g id="edge1" class="edge">
<title>Z&#45;&gt;X1</title>
<path fill="none" stroke="black" d="M31.45,-111.3C44.46,-124.15 65.07,-144.51 80.48,-159.73"/>
<polygon fill="black" stroke="black" points="77.78,-161.98 87.35,-166.52 82.7,-157 77.78,-161.98"/>
<text text-anchor="middle" x="60" y="-147.8" font-family="Times,serif" font-size="14.00">1</text>
</g>
<!-- Z&#45;&gt;X2 -->
<g id="edge2" class="edge">
<title>Z&#45;&gt;X2</title>
<path fill="none" stroke="black" d="M35.59,-104.46C46.49,-108.05 60.99,-112.83 73.57,-116.97"/>
<polygon fill="black" stroke="black" points="72.4,-120.27 82.99,-120.07 74.59,-113.62 72.4,-120.27"/>
<text text-anchor="middle" x="60" y="-117.8" font-family="Times,serif" font-size="14.00">2</text>
</g>
<!-- Z&#45;&gt;X3 -->
<g id="edge3" class="edge">
<title>Z&#45;&gt;X3</title>
<path fill="none" stroke="black" d="M35.59,-93.54C46.49,-89.95 60.99,-85.17 73.57,-81.03"/>
<polygon fill="black" stroke="black" points="74.59,-84.38 82.99,-77.93 72.4,-77.73 74.59,-84.38"/>
<text text-anchor="middle" x="60" y="-90.8" font-family="Times,serif" font-size="14.00">...</text>
</g>
<!-- Z&#45;&gt;XK -->
<g id="edge4" class="edge">
<title>Z&#45;&gt;XK</title>
<path fill="none" stroke="black" d="M31.28,-86.66C37.98,-79.94 46.42,-71.49 54,-64 62.67,-55.42 72.3,-45.98 80.57,-37.91"/>
<polygon fill="black" stroke="black" points="82.8,-40.62 87.51,-31.13 77.91,-35.61 82.8,-40.62"/>
<text text-anchor="middle" x="60" y="-67.8" font-family="Times,serif" font-size="14.00">K</text>
</g>
</g>
</svg>
