<?xml version="1.0" encoding="UTF-8" standalone="no"?>
<!DOCTYPE svg PUBLIC "-//W3C//DTD SVG 1.1//EN"
 "http://www.w3.org/Graphics/SVG/1.1/DTD/svg11.dtd">
<!-- Generated by graphviz version 9.0.0 (20230911.1827)
 -->
<!-- Title: 编解码 Pages: 1 -->
<svg width="432pt" height="80pt"
 viewBox="0.00 0.00 431.50 80.00" xmlns="http://www.w3.org/2000/svg" xmlns:xlink="http://www.w3.org/1999/xlink">
<g id="graph0" class="graph" transform="scale(1 1) rotate(0) translate(4 76)">
<title>编解码</title>
<polygon fill="white" stroke="none" points="-4,4 -4,-76 427.5,-76 427.5,4 -4,4"/>
<!-- input -->
<g id="node1" class="node">
<title>input</title>
<text text-anchor="middle" x="27" y="-30.95" font-family="Times,serif" font-size="14.00">input</text>
</g>
<!-- encoder -->
<g id="node4" class="node">
<title>encoder</title>
<polygon fill="#d6eaf8" stroke="black" points="148.75,-54 90,-54 90,-18 148.75,-18 148.75,-54"/>
<text text-anchor="middle" x="119.38" y="-30.95" font-family="Times,serif" font-size="14.00">encoder</text>
</g>
<!-- input&#45;&gt;encoder -->
<g id="edge1" class="edge">
<title>input&#45;&gt;encoder</title>
<path fill="none" stroke="black" d="M53.66,-36C61.41,-36 70.1,-36 78.55,-36"/>
<polygon fill="black" stroke="black" points="78.28,-39.5 88.28,-36 78.28,-32.5 78.28,-39.5"/>
</g>
<!-- output -->
<g id="node2" class="node">
<title>output</title>
<text text-anchor="middle" x="396.5" y="-30.95" font-family="Times,serif" font-size="14.00">output</text>
</g>
<!-- code -->
<g id="node3" class="node">
<title>code</title>
<polygon fill="#fef9e7" stroke="black" points="238.75,-72 184.75,-72 184.75,0 238.75,0 238.75,-72"/>
<text text-anchor="middle" x="211.75" y="-30.95" font-family="Times,serif" font-size="14.00">code</text>
</g>
<!-- decoder -->
<g id="node5" class="node">
<title>decoder</title>
<polygon fill="#d5f5e3" stroke="black" points="333.5,-54 274.75,-54 274.75,-18 333.5,-18 333.5,-54"/>
<text text-anchor="middle" x="304.12" y="-30.95" font-family="Times,serif" font-size="14.00">decoder</text>
</g>
<!-- code&#45;&gt;decoder -->
<g id="edge3" class="edge">
<title>code&#45;&gt;decoder</title>
<path fill="none" stroke="black" d="M238.89,-36C246.47,-36 254.93,-36 263.16,-36"/>
<polygon fill="black" stroke="black" points="263,-39.5 273,-36 263,-32.5 263,-39.5"/>
</g>
<!-- encoder&#45;&gt;code -->
<g id="edge2" class="edge">
<title>encoder&#45;&gt;code</title>
<path fill="none" stroke="black" d="M148.97,-36C156.61,-36 164.99,-36 173.05,-36"/>
<polygon fill="black" stroke="black" points="172.97,-39.5 182.97,-36 172.97,-32.5 172.97,-39.5"/>
</g>
<!-- decoder&#45;&gt;output -->
<g id="edge4" class="edge">
<title>decoder&#45;&gt;output</title>
<path fill="none" stroke="black" d="M333.72,-36C341.52,-36 350.09,-36 358.3,-36"/>
<polygon fill="black" stroke="black" points="358.03,-39.5 368.03,-36 358.03,-32.5 358.03,-39.5"/>
</g>
</g>
</svg>
