<?xml version="1.0" encoding="UTF-8" standalone="no"?>
<!DOCTYPE svg PUBLIC "-//W3C//DTD SVG 1.1//EN"
 "http://www.w3.org/Graphics/SVG/1.1/DTD/svg11.dtd">
<!-- Generated by graphviz version 9.0.0 (20230911.1827)
 -->
<!-- Title: demo_5 Pages: 1 -->
<svg width="385pt" height="278pt"
 viewBox="0.00 0.00 384.74 278.06" xmlns="http://www.w3.org/2000/svg" xmlns:xlink="http://www.w3.org/1999/xlink">
<g id="graph0" class="graph" transform="scale(1 1) rotate(0) translate(4 274.06)">
<title>demo_5</title>
<polygon fill="white" stroke="none" points="-4,4 -4,-274.06 380.74,-274.06 380.74,4 -4,4"/>
<!-- a -->
<g id="node1" class="node">
<title>a</title>
<ellipse fill="none" stroke="black" cx="117.29" cy="-115.44" rx="27" ry="18"/>
<text text-anchor="middle" x="117.29" y="-110.39" font-family="Times,serif" font-size="14.00">a</text>
</g>
<!-- b -->
<g id="node2" class="node">
<title>b</title>
<ellipse fill="none" stroke="black" cx="235.73" cy="-134.55" rx="27" ry="18"/>
<text text-anchor="middle" x="235.73" y="-129.5" font-family="Times,serif" font-size="14.00">b</text>
</g>
<!-- a&#45;&gt;b -->
<g id="edge1" class="edge">
<title>a&#45;&gt;b</title>
<path fill="none" stroke="black" d="M143.87,-119.73C159.79,-122.3 180.3,-125.61 197.89,-128.45"/>
<polygon fill="black" stroke="black" points="197.31,-131.9 207.74,-130.04 198.43,-124.99 197.31,-131.9"/>
</g>
<!-- c -->
<g id="node3" class="node">
<title>c</title>
<ellipse fill="none" stroke="black" cx="55.53" cy="-18" rx="27" ry="18"/>
<text text-anchor="middle" x="55.53" y="-12.95" font-family="Times,serif" font-size="14.00">c</text>
</g>
<!-- a&#45;&gt;c -->
<g id="edge2" class="edge">
<title>a&#45;&gt;c</title>
<path fill="none" stroke="black" d="M106.53,-98.47C97.05,-83.52 83.1,-61.5 72.18,-44.28"/>
<polygon fill="black" stroke="black" points="75.28,-42.63 66.97,-36.06 69.37,-46.38 75.28,-42.63"/>
</g>
<!-- d -->
<g id="node4" class="node">
<title>d</title>
<ellipse fill="none" stroke="black" cx="27" cy="-186.84" rx="27" ry="18"/>
<text text-anchor="middle" x="27" y="-181.79" font-family="Times,serif" font-size="14.00">d</text>
</g>
<!-- a&#45;&gt;d -->
<g id="edge3" class="edge">
<title>a&#45;&gt;d</title>
<path fill="none" stroke="black" d="M99.88,-129.21C86.73,-139.61 68.44,-154.07 53.48,-165.9"/>
<polygon fill="black" stroke="black" points="51.52,-162.98 45.85,-171.93 55.87,-168.48 51.52,-162.98"/>
</g>
<!-- e -->
<g id="node5" class="node">
<title>e</title>
<ellipse fill="none" stroke="black" cx="349.74" cy="-151.67" rx="27" ry="18"/>
<text text-anchor="middle" x="349.74" y="-146.62" font-family="Times,serif" font-size="14.00">e</text>
</g>
<!-- b&#45;&gt;e -->
<g id="edge4" class="edge">
<title>b&#45;&gt;e</title>
<path fill="none" stroke="black" d="M262.46,-138.57C277.18,-140.78 295.7,-143.55 311.89,-145.98"/>
<polygon fill="black" stroke="black" points="311.27,-149.43 321.68,-147.45 312.31,-142.51 311.27,-149.43"/>
</g>
<!-- f -->
<g id="node6" class="node">
<title>f</title>
<ellipse fill="none" stroke="black" cx="249.3" cy="-252.06" rx="27" ry="18"/>
<text text-anchor="middle" x="249.3" y="-247.01" font-family="Times,serif" font-size="14.00">f</text>
</g>
<!-- b&#45;&gt;f -->
<g id="edge5" class="edge">
<title>b&#45;&gt;f</title>
<path fill="none" stroke="black" d="M237.85,-152.91C240,-171.54 243.37,-200.66 245.89,-222.53"/>
<polygon fill="black" stroke="black" points="242.4,-222.79 247.02,-232.32 249.35,-221.99 242.4,-222.79"/>
</g>
<!-- g -->
<g id="node7" class="node">
<title>g</title>
<ellipse fill="none" stroke="black" cx="284.42" cy="-26.71" rx="27" ry="18"/>
<text text-anchor="middle" x="284.42" y="-21.66" font-family="Times,serif" font-size="14.00">g</text>
</g>
<!-- b&#45;&gt;g -->
<g id="edge6" class="edge">
<title>b&#45;&gt;g</title>
<path fill="none" stroke="black" d="M243.55,-117.23C251.17,-100.35 262.89,-74.41 271.82,-54.62"/>
<polygon fill="black" stroke="black" points="274.91,-56.29 275.84,-45.73 268.53,-53.41 274.91,-56.29"/>
</g>
</g>
</svg>
