<?xml version="1.0" encoding="UTF-8" standalone="no"?>
<!DOCTYPE svg PUBLIC "-//W3C//DTD SVG 1.1//EN"
 "http://www.w3.org/Graphics/SVG/1.1/DTD/svg11.dtd">
<!-- Generated by graphviz version 9.0.0 (20230911.1827)
 -->
<!-- Title: Zå’ŒXçš„å…³ç³» Pages: 1 -->
<svg width="174pt" height="304pt"
 viewBox="0.00 0.00 174.07 303.87" xmlns="http://www.w3.org/2000/svg" xmlns:xlink="http://www.w3.org/1999/xlink">
<g id="graph0" class="graph" transform="scale(1 1) rotate(0) translate(4 299.87)">
<title>Zå’ŒXçš„å…³ç³»</title>
<polygon fill="white" stroke="none" points="-4,4 -4,-299.87 170.07,-299.87 170.07,4 -4,4"/>
<!-- X1 -->
<g id="node1" class="node">
<title>X1</title>
<ellipse fill="lightgrey" stroke="black" cx="133.13" cy="-262.93" rx="32.93" ry="32.93"/>
<text text-anchor="start" x="114.01" y="-258.88" font-family="Times,serif" font-size="14.00">X</text>
<text text-anchor="start" x="123.76" y="-258.88" font-family="Times,serif" baseline-shift="sub" font-size="14.00">1</text>
<text text-anchor="start" x="129.76" y="-258.88" font-family="Times,serif" font-size="14.00">(ğœƒ</text>
<text text-anchor="start" x="141.76" y="-258.88" font-family="Times,serif" baseline-shift="sub" font-size="14.00">1</text>
<text text-anchor="start" x="147.76" y="-258.88" font-family="Times,serif" font-size="14.00">)</text>
</g>
<!-- X2 -->
<g id="node2" class="node">
<title>X2</title>
<ellipse fill="lightgrey" stroke="black" cx="133.13" cy="-178.93" rx="32.93" ry="32.93"/>
<text text-anchor="start" x="114.01" y="-174.88" font-family="Times,serif" font-size="14.00">X</text>
<text text-anchor="start" x="123.76" y="-174.88" font-family="Times,serif" baseline-shift="sub" font-size="14.00">2</text>
<text text-anchor="start" x="129.76" y="-174.88" font-family="Times,serif" font-size="14.00">(ğœƒ</text>
<text text-anchor="start" x="141.76" y="-174.88" font-family="Times,serif" baseline-shift="sub" font-size="14.00">2</text>
<text text-anchor="start" x="147.76" y="-174.88" font-family="Times,serif" font-size="14.00">)</text>
</g>
<!-- X3 -->
<g id="node3" class="node">
<title>X3</title>
<ellipse fill="lightgrey" stroke="black" cx="133.13" cy="-105.93" rx="21.6" ry="21.6"/>
<text text-anchor="middle" x="133.13" y="-100.88" font-family="Times,serif" font-size="14.00">...</text>
</g>
<!-- XK -->
<g id="node4" class="node">
<title>XK</title>
<ellipse fill="lightgrey" stroke="black" cx="133.13" cy="-32.93" rx="32.93" ry="32.93"/>
<text text-anchor="start" x="114.01" y="-28.88" font-family="Times,serif" font-size="14.00">X</text>
<text text-anchor="start" x="123.76" y="-28.88" font-family="Times,serif" baseline-shift="sub" font-size="14.00">k</text>
<text text-anchor="start" x="129.76" y="-28.88" font-family="Times,serif" font-size="14.00">(ğœƒ</text>
<text text-anchor="start" x="141.76" y="-28.88" font-family="Times,serif" baseline-shift="sub" font-size="14.00">k</text>
<text text-anchor="start" x="147.76" y="-28.88" font-family="Times,serif" font-size="14.00">)</text>
</g>
<!-- Z -->
<g id="node5" class="node">
<title>Z</title>
<ellipse fill="none" stroke="black" cx="21.6" cy="-141.93" rx="21.6" ry="21.6"/>
<text text-anchor="middle" x="21.6" y="-136.88" font-family="Times,serif" font-size="14.00">Z</text>
</g>
<!-- Z&#45;&gt;X1 -->
<g id="edge1" class="edge">
<title>Z&#45;&gt;X1</title>
<path fill="none" stroke="black" d="M36.92,-157.75C53.55,-176.12 81.42,-206.91 102.73,-230.45"/>
<polygon fill="black" stroke="black" points="99.92,-232.56 109.23,-237.63 105.11,-227.87 99.92,-232.56"/>
<text text-anchor="middle" x="71.7" y="-209.13" font-family="Times,serif" font-size="14.00">z=1</text>
</g>
<!-- Z&#45;&gt;X2 -->
<g id="edge2" class="edge">
<title>Z&#45;&gt;X2</title>
<path fill="none" stroke="black" d="M42.44,-148.63C55.99,-153.21 74.44,-159.45 91.09,-165.07"/>
<polygon fill="black" stroke="black" points="89.66,-168.28 100.26,-168.17 91.9,-161.65 89.66,-168.28"/>
<text text-anchor="middle" x="71.7" y="-164.13" font-family="Times,serif" font-size="14.00">z=2</text>
</g>
<!-- Z&#45;&gt;X3 -->
<g id="edge3" class="edge">
<title>Z&#45;&gt;X3</title>
<path fill="none" stroke="black" d="M42.69,-135.33C59.13,-129.93 82.66,-122.19 101.46,-116.01"/>
<polygon fill="black" stroke="black" points="102.33,-119.41 110.73,-112.97 100.14,-112.76 102.33,-119.41"/>
<text text-anchor="middle" x="71.7" y="-131.13" font-family="Times,serif" font-size="14.00">...</text>
</g>
<!-- Z&#45;&gt;XK -->
<g id="edge4" class="edge">
<title>Z&#45;&gt;XK</title>
<path fill="none" stroke="black" d="M37.12,-126.4C44.29,-118.8 53.12,-109.56 61.2,-101.43 73.85,-88.7 88.03,-74.92 100.37,-63.07"/>
<polygon fill="black" stroke="black" points="102.68,-65.7 107.48,-56.26 97.84,-60.65 102.68,-65.7"/>
<text text-anchor="middle" x="71.7" y="-104.13" font-family="Times,serif" font-size="14.00">z=k</text>
</g>
</g>
</svg>
