<?xml version="1.0" encoding="UTF-8" standalone="no"?>
<!DOCTYPE svg PUBLIC "-//W3C//DTD SVG 1.1//EN"
 "http://www.w3.org/Graphics/SVG/1.1/DTD/svg11.dtd">
<!-- Generated by graphviz version 2.43.0 (0)
 -->
<!-- Title: fig_bc_012 Pages: 1 -->
<svg width="288pt" height="127pt"
 viewBox="0.00 0.00 288.29 126.74" xmlns="http://www.w3.org/2000/svg" xmlns:xlink="http://www.w3.org/1999/xlink">
<g id="graph0" class="graph" transform="scale(1 1) rotate(0) translate(4 122.74)">
<title>fig_bc_012</title>
<polygon fill="white" stroke="transparent" points="-4,4 -4,-122.74 284.29,-122.74 284.29,4 -4,4"/>
<!-- x1 -->
<g id="node1" class="node">
<title>x1</title>
<ellipse fill="none" stroke="black" cx="20.92" cy="-23.37" rx="20.83" ry="20.83"/>
<text text-anchor="start" x="12.36" y="-20.17" font-family="Times,serif" font-size="14.00">X</text>
<text text-anchor="start" x="22.47" y="-20.17" font-family="Times,serif" baseline-shift="sub" font-size="14.00">1</text>
</g>
<!-- x2 -->
<g id="node2" class="node">
<title>x2</title>
<ellipse fill="none" stroke="black" cx="80.92" cy="-23.37" rx="20.83" ry="20.83"/>
<text text-anchor="start" x="72.36" y="-20.17" font-family="Times,serif" font-size="14.00">X</text>
<text text-anchor="start" x="82.47" y="-20.17" font-family="Times,serif" baseline-shift="sub" font-size="14.00">2</text>
</g>
<!-- x3 -->
<g id="node3" class="node">
<title>x3</title>
<ellipse fill="none" stroke="black" cx="140.92" cy="-23.37" rx="20.83" ry="20.83"/>
<text text-anchor="start" x="132.36" y="-20.17" font-family="Times,serif" font-size="14.00">X</text>
<text text-anchor="start" x="142.47" y="-20.17" font-family="Times,serif" baseline-shift="sub" font-size="14.00">3</text>
</g>
<!-- xh -->
<g id="node4" class="node">
<title>xh</title>
<ellipse fill="none" stroke="transparent" cx="197.92" cy="-23.37" rx="18" ry="18"/>
<text text-anchor="middle" x="197.92" y="-19.17" font-family="Times,serif" font-size="14.00">...</text>
</g>
<!-- xn -->
<g id="node5" class="node">
<title>xn</title>
<ellipse fill="none" stroke="black" cx="256.92" cy="-23.37" rx="23.24" ry="23.24"/>
<text text-anchor="start" x="246.42" y="-20.17" font-family="Times,serif" font-size="14.00">X</text>
<text text-anchor="start" x="256.53" y="-20.17" font-family="Times,serif" baseline-shift="sub" font-size="14.00">m</text>
</g>
<!-- y -->
<g id="node6" class="node">
<title>y</title>
<ellipse fill="none" stroke="black" cx="140.92" cy="-100.74" rx="18" ry="18"/>
<text text-anchor="middle" x="140.92" y="-96.54" font-family="Times,serif" font-size="14.00">Y</text>
</g>
<!-- y&#45;&gt;x1 -->
<g id="edge2" class="edge">
<title>y&#45;&gt;x1</title>
<path fill="none" stroke="black" d="M125.32,-91.24C107.12,-81.16 76.29,-63.6 50.92,-46.74 49.07,-45.52 47.18,-44.22 45.3,-42.89"/>
<polygon fill="black" stroke="black" points="47.34,-40.05 37.19,-37.01 43.23,-45.71 47.34,-40.05"/>
</g>
<!-- y&#45;&gt;x2 -->
<g id="edge3" class="edge">
<title>y&#45;&gt;x2</title>
<path fill="none" stroke="black" d="M130.19,-86.27C121.78,-75.71 109.88,-60.75 99.87,-48.19"/>
<polygon fill="black" stroke="black" points="102.6,-45.99 93.63,-40.34 97.12,-50.35 102.6,-45.99"/>
</g>
<!-- y&#45;&gt;x3 -->
<g id="edge4" class="edge">
<title>y&#45;&gt;x3</title>
<path fill="none" stroke="black" d="M140.92,-82.64C140.92,-74.28 140.92,-63.98 140.92,-54.37"/>
<polygon fill="black" stroke="black" points="144.42,-54.34 140.92,-44.34 137.42,-54.34 144.42,-54.34"/>
</g>
<!-- y&#45;&gt;xh -->
<g id="edge1" class="edge">
<title>y&#45;&gt;xh</title>
</g>
<!-- y&#45;&gt;xn -->
<g id="edge5" class="edge">
<title>y&#45;&gt;xn</title>
<path fill="none" stroke="black" d="M155.92,-90.57C172.83,-80.17 201.07,-62.59 224.92,-46.74 226.39,-45.76 227.9,-44.75 229.41,-43.72"/>
<polygon fill="black" stroke="black" points="231.81,-46.32 238.07,-37.77 227.84,-40.55 231.81,-46.32"/>
</g>
</g>
</svg>
