<?xml version="1.0" encoding="UTF-8" standalone="no"?>
<!DOCTYPE svg PUBLIC "-//W3C//DTD SVG 1.1//EN"
 "http://www.w3.org/Graphics/SVG/1.1/DTD/svg11.dtd">
<!-- Generated by graphviz version 7.1.0 (20230121.1956)
 -->
<!-- Title: é«˜æ–¯æ··åˆæ¨¡å‹çš„æœ‰å‘å›¾è¡¨ç¤º Pages: 1 -->
<svg width="204pt" height="236pt"
 viewBox="0.00 0.00 204.00 236.00" xmlns="http://www.w3.org/2000/svg" xmlns:xlink="http://www.w3.org/1999/xlink">
<g id="graph0" class="graph" transform="scale(1 1) rotate(0) translate(4 232)">
<title>é«˜æ–¯æ··åˆæ¨¡å‹çš„æœ‰å‘å›¾è¡¨ç¤º</title>
<polygon fill="white" stroke="none" points="-4,4 -4,-232 200,-232 200,4 -4,4"/>
<g id="clust1" class="cluster">
<title>cluster_a</title>
<polygon fill="none" stroke="black" points="64,-145 64,-220 188,-220 188,-145 64,-145"/>
<text text-anchor="middle" x="126" y="-204.8" font-family="Times,serif" font-size="14.00">N</text>
</g>
<g id="clust3" class="cluster">
<title>cluster_b</title>
<polygon fill="none" stroke="black" points="64,-8 64,-137 116,-137 116,-8 64,-8"/>
<text text-anchor="middle" x="90" y="-121.8" font-family="Times,serif" font-size="14.00">K</text>
</g>
<!-- lambda -->
<g id="node1" class="node">
<title>lambda</title>
<text text-anchor="middle" x="18" y="-167.3" font-family="Times,serif" font-size="14.00">ğœ†</text>
</g>
<!-- Z -->
<g id="node2" class="node">
<title>Z</title>
<ellipse fill="none" stroke="black" cx="90" cy="-171" rx="18" ry="18"/>
<text text-anchor="start" x="83.5" y="-168.3" font-family="Times,serif" font-size="14.00">Z</text>
<text text-anchor="start" x="92.5" y="-168.3" font-family="Times,serif" baseline-shift="sub" font-size="14.00">i</text>
</g>
<!-- lambda&#45;&gt;Z -->
<g id="edge2" class="edge">
<title>lambda&#45;&gt;Z</title>
<path fill="none" stroke="black" d="M35.95,-171C43.32,-171 52.16,-171 60.49,-171"/>
<polygon fill="black" stroke="black" points="60.21,-174.5 70.21,-171 60.21,-167.5 60.21,-174.5"/>
</g>
<!-- X -->
<g id="node3" class="node">
<title>X</title>
<ellipse fill="lightgrey" stroke="black" cx="162" cy="-171" rx="18" ry="18"/>
<text text-anchor="start" x="155" y="-168.3" font-family="Times,serif" font-size="14.00">ğ‘‹</text>
<text text-anchor="start" x="165" y="-168.3" font-family="Times,serif" baseline-shift="sub" font-size="14.00">i</text>
</g>
<!-- Z&#45;&gt;X -->
<g id="edge1" class="edge">
<title>Z&#45;&gt;X</title>
<path fill="none" stroke="black" d="M108.3,-171C115.59,-171 124.27,-171 132.46,-171"/>
<polygon fill="black" stroke="black" points="132.38,-174.5 142.38,-171 132.38,-167.5 132.38,-174.5"/>
</g>
<!-- mu -->
<g id="node4" class="node">
<title>mu</title>
<text text-anchor="start" x="82" y="-85.3" font-family="Times,serif" font-size="14.00">ğœ‡</text>
<text text-anchor="start" x="91" y="-85.3" font-family="Times,serif" baseline-shift="sub" font-size="14.00">k</text>
</g>
<!-- mu&#45;&gt;X -->
<g id="edge3" class="edge">
<title>mu&#45;&gt;X</title>
<path fill="none" stroke="black" d="M105.85,-105.6C116.48,-118.21 130.87,-135.27 142.29,-148.81"/>
<polygon fill="black" stroke="black" points="139.53,-150.98 148.66,-156.36 144.88,-146.46 139.53,-150.98"/>
</g>
<!-- sigma -->
<g id="node5" class="node">
<title>sigma</title>
<text text-anchor="start" x="82" y="-31.3" font-family="Times,serif" font-size="14.00">Î£</text>
<text text-anchor="start" x="91" y="-31.3" font-family="Times,serif" baseline-shift="sub" font-size="14.00">k</text>
</g>
<!-- sigma&#45;&gt;X -->
<g id="edge4" class="edge">
<title>sigma&#45;&gt;X</title>
<path fill="none" stroke="black" d="M107.87,-50.37C110.81,-53.72 113.66,-57.34 116,-61 132.51,-86.9 145.04,-119.87 152.63,-142.93"/>
<polygon fill="black" stroke="black" points="149.22,-143.78 155.59,-152.25 155.9,-141.66 149.22,-143.78"/>
</g>
</g>
</svg>
