<?xml version="1.0" encoding="UTF-8" standalone="no"?>
<!DOCTYPE svg PUBLIC "-//W3C//DTD SVG 1.1//EN"
 "http://www.w3.org/Graphics/SVG/1.1/DTD/svg11.dtd">
<!-- Generated by graphviz version 2.43.0 (0)
 -->
<!-- Title: æ··åˆæ¨¡å‹çš„æœ‰å‘å›¾è¡¨ç¤º Pages: 1 -->
<svg width="204pt" height="180pt"
 viewBox="0.00 0.00 204.00 180.00" xmlns="http://www.w3.org/2000/svg" xmlns:xlink="http://www.w3.org/1999/xlink">
<g id="graph0" class="graph" transform="scale(1 1) rotate(0) translate(4 176)">
<title>æ··åˆæ¨¡å‹çš„æœ‰å‘å›¾è¡¨ç¤º</title>
<polygon fill="white" stroke="transparent" points="-4,4 -4,-176 200,-176 200,4 -4,4"/>
<g id="clust1" class="cluster">
<title>cluster_a</title>
<polygon fill="none" stroke="black" points="64,-90 64,-164 188,-164 188,-90 64,-90"/>
<text text-anchor="middle" x="126" y="-148.8" font-family="Times,serif" font-size="14.00">N</text>
</g>
<g id="clust3" class="cluster">
<title>cluster_b</title>
<polygon fill="none" stroke="black" points="64,-8 64,-82 116,-82 116,-8 64,-8"/>
<text text-anchor="middle" x="90" y="-66.8" font-family="Times,serif" font-size="14.00">K</text>
</g>
<!-- lambda -->
<g id="node1" class="node">
<title>lambda</title>
<text text-anchor="middle" x="18" y="-115.37" font-family="Times,serif" font-size="14.00">ğœ†</text>
</g>
<!-- Z -->
<g id="node2" class="node">
<title>Z</title>
<ellipse fill="none" stroke="black" cx="90" cy="-116" rx="18" ry="18"/>
<text text-anchor="start" x="83.78" y="-112.8" font-family="Times,serif" font-size="14.00">Z</text>
<text text-anchor="start" x="92.33" y="-112.8" font-family="Times,serif" baseline-shift="sub" font-size="14.00">i</text>
</g>
<!-- lambda&#45;&gt;Z -->
<g id="edge2" class="edge">
<title>lambda&#45;&gt;Z</title>
<path fill="none" stroke="black" d="M36.3,-116C44.02,-116 53.29,-116 61.89,-116"/>
<polygon fill="black" stroke="black" points="61.9,-119.5 71.9,-116 61.9,-112.5 61.9,-119.5"/>
</g>
<!-- X -->
<g id="node3" class="node">
<title>X</title>
<ellipse fill="none" stroke="black" cx="162" cy="-116" rx="18" ry="18"/>
<text text-anchor="start" x="155" y="-112.8" font-family="Times,serif" font-size="14.00">X</text>
<text text-anchor="start" x="165.11" y="-112.8" font-family="Times,serif" baseline-shift="sub" font-size="14.00">i</text>
</g>
<!-- Z&#45;&gt;X -->
<g id="edge1" class="edge">
<title>Z&#45;&gt;X</title>
<path fill="none" stroke="black" d="M108.3,-116C116.02,-116 125.29,-116 133.89,-116"/>
<polygon fill="black" stroke="black" points="133.9,-119.5 143.9,-116 133.9,-112.5 133.9,-119.5"/>
</g>
<!-- theta -->
<g id="node4" class="node">
<title>theta</title>
<text text-anchor="start" x="83.11" y="-34.37" font-family="Times,serif" font-size="14.00">ğœƒ</text>
<text text-anchor="start" x="89.89" y="-34.37" font-family="Times,serif" baseline-shift="sub" font-size="14.00">k</text>
</g>
<!-- theta&#45;&gt;X -->
<g id="edge3" class="edge">
<title>theta&#45;&gt;X</title>
<path fill="none" stroke="black" d="M106.54,-52.2C117.34,-64.86 131.78,-81.77 143.08,-95"/>
<polygon fill="black" stroke="black" points="140.49,-97.36 149.64,-102.69 145.81,-92.82 140.49,-97.36"/>
</g>
</g>
</svg>
