<?xml version="1.0" encoding="UTF-8" standalone="no"?>
<!DOCTYPE svg PUBLIC "-//W3C//DTD SVG 1.1//EN"
 "http://www.w3.org/Graphics/SVG/1.1/DTD/svg11.dtd">
<!-- Generated by graphviz version 2.43.0 (0)
 -->
<!-- Title: 一个树形概率图模型 Pages: 1 -->
<svg width="140pt" height="205pt"
 viewBox="0.00 0.00 139.83 205.49" xmlns="http://www.w3.org/2000/svg" xmlns:xlink="http://www.w3.org/1999/xlink">
<g id="graph0" class="graph" transform="scale(1 1) rotate(0) translate(4 201.49)">
<title>一个树形概率图模型</title>
<polygon fill="white" stroke="transparent" points="-4,4 -4,-201.49 135.83,-201.49 135.83,4 -4,4"/>
<!-- 1 -->
<g id="node1" class="node">
<title>1</title>
<ellipse fill="none" stroke="black" cx="80.92" cy="-176.58" rx="20.83" ry="20.83"/>
<text text-anchor="start" x="72.36" y="-173.38" font-family="Times,serif" font-size="14.00">X</text>
<text text-anchor="start" x="82.47" y="-173.38" font-family="Times,serif" baseline-shift="sub" font-size="14.00">1</text>
</g>
<!-- 2 -->
<g id="node2" class="node">
<title>2</title>
<ellipse fill="none" stroke="black" cx="50.92" cy="-98.75" rx="20.83" ry="20.83"/>
<text text-anchor="start" x="42.36" y="-95.55" font-family="Times,serif" font-size="14.00">X</text>
<text text-anchor="start" x="52.47" y="-95.55" font-family="Times,serif" baseline-shift="sub" font-size="14.00">2</text>
</g>
<!-- 1&#45;&gt;2 -->
<g id="edge1" class="edge">
<title>1&#45;&gt;2</title>
<path fill="none" stroke="black" d="M73.5,-156.83C68.88,-145.16 62.97,-130.21 58.35,-118.54"/>
</g>
<!-- 3 -->
<g id="node3" class="node">
<title>3</title>
<ellipse fill="none" stroke="black" cx="110.92" cy="-98.75" rx="20.83" ry="20.83"/>
<text text-anchor="start" x="102.36" y="-95.55" font-family="Times,serif" font-size="14.00">X</text>
<text text-anchor="start" x="112.47" y="-95.55" font-family="Times,serif" baseline-shift="sub" font-size="14.00">3</text>
</g>
<!-- 1&#45;&gt;3 -->
<g id="edge2" class="edge">
<title>1&#45;&gt;3</title>
<path fill="none" stroke="black" d="M88.33,-156.83C92.95,-145.16 98.86,-130.21 103.48,-118.54"/>
</g>
<!-- 4 -->
<g id="node4" class="node">
<title>4</title>
<ellipse fill="none" stroke="black" cx="20.92" cy="-20.92" rx="20.83" ry="20.83"/>
<text text-anchor="start" x="12.36" y="-17.72" font-family="Times,serif" font-size="14.00">X</text>
<text text-anchor="start" x="22.47" y="-17.72" font-family="Times,serif" baseline-shift="sub" font-size="14.00">4</text>
</g>
<!-- 2&#45;&gt;4 -->
<g id="edge3" class="edge">
<title>2&#45;&gt;4</title>
<path fill="none" stroke="black" d="M43.5,-79C38.88,-67.33 32.97,-52.38 28.35,-40.71"/>
</g>
<!-- 5 -->
<g id="node5" class="node">
<title>5</title>
<ellipse fill="none" stroke="black" cx="80.92" cy="-20.92" rx="20.83" ry="20.83"/>
<text text-anchor="start" x="72.36" y="-17.72" font-family="Times,serif" font-size="14.00">X</text>
<text text-anchor="start" x="82.47" y="-17.72" font-family="Times,serif" baseline-shift="sub" font-size="14.00">5</text>
</g>
<!-- 2&#45;&gt;5 -->
<g id="edge4" class="edge">
<title>2&#45;&gt;5</title>
<path fill="none" stroke="black" d="M58.33,-79C62.95,-67.33 68.86,-52.38 73.48,-40.71"/>
</g>
</g>
</svg>
