<?xml version="1.0" encoding="UTF-8" standalone="no"?>
<!DOCTYPE svg PUBLIC "-//W3C//DTD SVG 1.1//EN"
 "http://www.w3.org/Graphics/SVG/1.1/DTD/svg11.dtd">
<!-- Generated by graphviz version 9.0.0 (20230911.1827)
 -->
<!-- Title: é«˜æ–¯æ··åˆæ¨¡å‹çš„æœ‰å‘å›¾è¡¨ç¤º Pages: 1 -->
<svg width="204pt" height="240pt"
 viewBox="0.00 0.00 204.00 240.00" xmlns="http://www.w3.org/2000/svg" xmlns:xlink="http://www.w3.org/1999/xlink">
<g id="graph0" class="graph" transform="scale(1 1) rotate(0) translate(4 236)">
<title>é«˜æ–¯æ··åˆæ¨¡å‹çš„æœ‰å‘å›¾è¡¨ç¤º</title>
<polygon fill="white" stroke="none" points="-4,4 -4,-236 200,-236 200,4 -4,4"/>
<g id="clust1" class="cluster">
<title>cluster_a</title>
<polygon fill="none" stroke="black" points="64,-147 64,-224 188,-224 188,-147 64,-147"/>
<text text-anchor="middle" x="126" y="-206.7" font-family="Times,serif" font-size="14.00">N</text>
</g>
<g id="clust3" class="cluster">
<title>cluster_b</title>
<polygon fill="none" stroke="black" points="64,-8 64,-139 116,-139 116,-8 64,-8"/>
<text text-anchor="middle" x="90" y="-121.7" font-family="Times,serif" font-size="14.00">K</text>
</g>
<!-- lambda -->
<g id="node1" class="node">
<title>lambda</title>
<text text-anchor="middle" x="18" y="-167.2" font-family="Times,serif" font-size="14.00">ğœ†</text>
</g>
<!-- Z -->
<g id="node2" class="node">
<title>Z</title>
<ellipse fill="none" stroke="black" cx="90" cy="-173" rx="18" ry="18"/>
<text text-anchor="start" x="84.38" y="-168.95" font-family="Times,serif" font-size="14.00">Z</text>
<text text-anchor="start" x="92.62" y="-168.95" font-family="Times,serif" baseline-shift="super" font-size="14.00">i</text>
</g>
<!-- lambda&#45;&gt;Z -->
<g id="edge2" class="edge">
<title>lambda&#45;&gt;Z</title>
<path fill="none" stroke="black" d="M35.95,-173C43.32,-173 52.16,-173 60.49,-173"/>
<polygon fill="black" stroke="black" points="60.21,-176.5 70.21,-173 60.21,-169.5 60.21,-176.5"/>
</g>
<!-- X -->
<g id="node3" class="node">
<title>X</title>
<ellipse fill="lightgrey" stroke="black" cx="162" cy="-173" rx="18" ry="18"/>
<text text-anchor="start" x="156" y="-168.2" font-family="Times,serif" font-size="14.00">ğ‘‹</text>
<text text-anchor="start" x="165" y="-168.2" font-family="Times,serif" baseline-shift="super" font-size="14.00">i</text>
</g>
<!-- Z&#45;&gt;X -->
<g id="edge1" class="edge">
<title>Z&#45;&gt;X</title>
<path fill="none" stroke="black" d="M108.3,-173C115.59,-173 124.27,-173 132.46,-173"/>
<polygon fill="black" stroke="black" points="132.38,-176.5 142.38,-173 132.38,-169.5 132.38,-176.5"/>
</g>
<!-- mu -->
<g id="node4" class="node">
<title>mu</title>
<text text-anchor="start" x="82.88" y="-83.2" font-family="Times,serif" font-size="14.00">ğœ‡</text>
<text text-anchor="start" x="91.12" y="-83.2" font-family="Times,serif" baseline-shift="sub" font-size="14.00">k</text>
</g>
<!-- mu&#45;&gt;X -->
<g id="edge3" class="edge">
<title>mu&#45;&gt;X</title>
<path fill="none" stroke="black" d="M105.5,-105.61C116.28,-118.7 131.06,-136.64 142.65,-150.72"/>
<polygon fill="black" stroke="black" points="139.72,-152.66 148.78,-158.16 145.12,-148.21 139.72,-152.66"/>
</g>
<!-- sigma -->
<g id="node5" class="node">
<title>sigma</title>
<text text-anchor="start" x="82.88" y="-29.95" font-family="Times,serif" font-size="14.00">Î£</text>
<text text-anchor="start" x="91.12" y="-29.95" font-family="Times,serif" baseline-shift="sub" font-size="14.00">k</text>
</g>
<!-- sigma&#45;&gt;X -->
<g id="edge4" class="edge">
<title>sigma&#45;&gt;X</title>
<path fill="none" stroke="black" d="M107.89,-50.36C110.82,-53.7 113.68,-57.33 116,-61 132.78,-87.5 145.33,-121.31 152.85,-144.82"/>
<polygon fill="black" stroke="black" points="149.49,-145.79 155.78,-154.32 156.18,-143.73 149.49,-145.79"/>
</g>
</g>
</svg>
