<?xml version="1.0" encoding="UTF-8" standalone="no"?>
<!DOCTYPE svg PUBLIC "-//W3C//DTD SVG 1.1//EN"
 "http://www.w3.org/Graphics/SVG/1.1/DTD/svg11.dtd">
<!-- Generated by graphviz version 7.1.0 (20230121.1956)
 -->
<!-- Title: 模型推断 Pages: 1 -->
<svg width="752pt" height="341pt"
 viewBox="0.00 0.00 752.00 341.00" xmlns="http://www.w3.org/2000/svg" xmlns:xlink="http://www.w3.org/1999/xlink">
<g id="graph0" class="graph" transform="scale(1 1) rotate(0) translate(4 337)">
<title>模型推断</title>
<polygon fill="white" stroke="none" points="-4,4 -4,-337 748,-337 748,4 -4,4"/>
<!-- n1 -->
<g id="node1" class="node">
<title>n1</title>
<polygon fill="none" stroke="black" points="74,-198 0,-198 0,-162 74,-162 74,-198"/>
<text text-anchor="middle" x="37" y="-176.3" font-family="Times,serif" font-size="14.00">概率推断</text>
</g>
<!-- n2 -->
<g id="node2" class="node">
<title>n2</title>
<polygon fill="none" stroke="black" points="184,-252 110,-252 110,-216 184,-216 184,-252"/>
<text text-anchor="middle" x="147" y="-230.3" font-family="Times,serif" font-size="14.00">推断问题</text>
</g>
<!-- n1&#45;&gt;n2 -->
<g id="edge1" class="edge">
<title>n1&#45;&gt;n2</title>
<path fill="none" stroke="black" d="M74.26,-198.13C82.37,-202.18 91.07,-206.53 99.52,-210.76"/>
<polygon fill="black" stroke="black" points="97.79,-213.81 108.3,-215.15 100.92,-207.54 97.79,-213.81"/>
</g>
<!-- n3 -->
<g id="node6" class="node">
<title>n3</title>
<polygon fill="none" stroke="black" points="184,-171 110,-171 110,-135 184,-135 184,-171"/>
<text text-anchor="middle" x="147" y="-149.3" font-family="Times,serif" font-size="14.00">推断算法</text>
</g>
<!-- n1&#45;&gt;n3 -->
<g id="edge2" class="edge">
<title>n1&#45;&gt;n3</title>
<path fill="none" stroke="black" d="M74.26,-170.93C82.1,-168.98 90.5,-166.88 98.68,-164.83"/>
<polygon fill="black" stroke="black" points="99.33,-168.28 108.18,-162.45 97.63,-161.48 99.33,-168.28"/>
</g>
<!-- n21 -->
<g id="node3" class="node">
<title>n21</title>
<polygon fill="none" stroke="black" points="385,-333 283,-333 283,-297 385,-297 385,-333"/>
<text text-anchor="middle" x="334" y="-311.3" font-family="Times,serif" font-size="14.00">边缘概率查询</text>
</g>
<!-- n2&#45;&gt;n21 -->
<g id="edge3" class="edge">
<title>n2&#45;&gt;n21</title>
<path fill="none" stroke="black" d="M167.65,-252.26C181.37,-264.08 200.62,-278.9 220,-288 236.03,-295.53 254.35,-301.06 271.5,-305.09"/>
<polygon fill="black" stroke="black" points="270.58,-308.47 281.1,-307.21 272.08,-301.64 270.58,-308.47"/>
</g>
<!-- n22 -->
<g id="node4" class="node">
<title>n22</title>
<polygon fill="none" stroke="black" points="385,-279 283,-279 283,-243 385,-243 385,-279"/>
<text text-anchor="middle" x="334" y="-257.3" font-family="Times,serif" font-size="14.00">条件概率查询</text>
</g>
<!-- n2&#45;&gt;n22 -->
<g id="edge4" class="edge">
<title>n2&#45;&gt;n22</title>
<path fill="none" stroke="black" d="M184.11,-239.27C208.89,-242.89 242.42,-247.78 271.38,-252.01"/>
<polygon fill="black" stroke="black" points="270.74,-255.45 281.14,-253.43 271.75,-248.52 270.74,-255.45"/>
</g>
<!-- n23 -->
<g id="node5" class="node">
<title>n23</title>
<polygon fill="none" stroke="black" points="385,-225 283,-225 283,-189 385,-189 385,-225"/>
<text text-anchor="middle" x="334" y="-203.3" font-family="Times,serif" font-size="14.00">最大后验概率</text>
</g>
<!-- n2&#45;&gt;n23 -->
<g id="edge5" class="edge">
<title>n2&#45;&gt;n23</title>
<path fill="none" stroke="black" d="M184.11,-228.73C208.89,-225.11 242.42,-220.22 271.38,-215.99"/>
<polygon fill="black" stroke="black" points="271.75,-219.48 281.14,-214.57 270.74,-212.55 271.75,-219.48"/>
</g>
<!-- n31 -->
<g id="node7" class="node">
<title>n31</title>
<polygon fill="none" stroke="black" points="427.5,-171 240.5,-171 240.5,-135 427.5,-135 427.5,-171"/>
<text text-anchor="middle" x="334" y="-149.3" font-family="Times,serif" font-size="14.00">精确推断（Exact inference）</text>
</g>
<!-- n3&#45;&gt;n31 -->
<g id="edge6" class="edge">
<title>n3&#45;&gt;n31</title>
<path fill="none" stroke="black" d="M184.11,-153C197.27,-153 212.89,-153 228.98,-153"/>
<polygon fill="black" stroke="black" points="228.65,-156.5 238.65,-153 228.65,-149.5 228.65,-156.5"/>
</g>
<!-- n32 -->
<g id="node11" class="node">
<title>n32</title>
<polygon fill="none" stroke="black" points="448,-90 220,-90 220,-54 448,-54 448,-90"/>
<text text-anchor="middle" x="334" y="-68.3" font-family="Times,serif" font-size="14.00">近似推断（Approximate inference）</text>
</g>
<!-- n3&#45;&gt;n32 -->
<g id="edge7" class="edge">
<title>n3&#45;&gt;n32</title>
<path fill="none" stroke="black" d="M184.11,-137.19C211.6,-125.15 249.84,-108.41 280.68,-94.91"/>
<polygon fill="black" stroke="black" points="281.69,-98.29 289.44,-91.07 278.88,-91.88 281.69,-98.29"/>
</g>
<!-- n311 -->
<g id="node8" class="node">
<title>n311</title>
<polygon fill="none" stroke="black" points="718.5,-252 509.5,-252 509.5,-216 718.5,-216 718.5,-252"/>
<text text-anchor="middle" x="614" y="-230.3" font-family="Times,serif" font-size="14.00">消元法（Elimination algorithm）</text>
</g>
<!-- n31&#45;&gt;n311 -->
<g id="edge8" class="edge">
<title>n31&#45;&gt;n311</title>
<path fill="none" stroke="black" d="M426.47,-171.41C433.89,-173.93 441.15,-176.78 448,-180 466.1,-188.5 465.78,-198.76 484,-207 488.64,-209.1 493.45,-211.04 498.36,-212.83"/>
<polygon fill="black" stroke="black" points="497.23,-216.14 507.82,-216.03 499.47,-209.51 497.23,-216.14"/>
</g>
<!-- n312 -->
<g id="node9" class="node">
<title>n312</title>
<polygon fill="none" stroke="black" points="744,-198 484,-198 484,-162 744,-162 744,-198"/>
<text text-anchor="middle" x="614" y="-176.3" font-family="Times,serif" font-size="14.00">置信传播（Belief propagation algorithm）</text>
</g>
<!-- n31&#45;&gt;n312 -->
<g id="edge9" class="edge">
<title>n31&#45;&gt;n312</title>
<path fill="none" stroke="black" d="M427.96,-162.03C442.17,-163.41 457.11,-164.86 472.07,-166.31"/>
<polygon fill="black" stroke="black" points="471.72,-169.79 482.01,-167.28 472.39,-162.83 471.72,-169.79"/>
</g>
<!-- n313 -->
<g id="node10" class="node">
<title>n313</title>
<polygon fill="none" stroke="black" points="737.5,-144 490.5,-144 490.5,-108 737.5,-108 737.5,-144"/>
<text text-anchor="middle" x="614" y="-122.3" font-family="Times,serif" font-size="14.00">联结树算法（Junction Tree algorithm）</text>
</g>
<!-- n31&#45;&gt;n313 -->
<g id="edge10" class="edge">
<title>n31&#45;&gt;n313</title>
<path fill="none" stroke="black" d="M427.96,-143.97C444.4,-142.37 461.81,-140.68 479.12,-139"/>
<polygon fill="black" stroke="black" points="479.35,-142.5 488.96,-138.05 478.67,-135.53 479.35,-142.5"/>
</g>
<!-- n321 -->
<g id="node12" class="node">
<title>n321</title>
<polygon fill="none" stroke="black" points="715.5,-90 512.5,-90 512.5,-54 715.5,-54 715.5,-90"/>
<text text-anchor="middle" x="614" y="-68.3" font-family="Times,serif" font-size="14.00">采样法（Sampling algorithms）</text>
</g>
<!-- n32&#45;&gt;n321 -->
<g id="edge11" class="edge">
<title>n32&#45;&gt;n321</title>
<path fill="none" stroke="black" d="M448.47,-72C465.84,-72 483.76,-72 501.09,-72"/>
<polygon fill="black" stroke="black" points="500.87,-75.5 510.87,-72 500.87,-68.5 500.87,-75.5"/>
</g>
<!-- n322 -->
<g id="node13" class="node">
<title>n322</title>
<polygon fill="none" stroke="black" points="712.5,-36 515.5,-36 515.5,0 712.5,0 712.5,-36"/>
<text text-anchor="middle" x="614" y="-14.3" font-family="Times,serif" font-size="14.00">变分法（Variational methods）</text>
</g>
<!-- n32&#45;&gt;n322 -->
<g id="edge12" class="edge">
<title>n32&#45;&gt;n322</title>
<path fill="none" stroke="black" d="M429.89,-53.57C454.69,-48.75 481.58,-43.53 506.93,-38.6"/>
<polygon fill="black" stroke="black" points="507.43,-42.07 516.58,-36.73 506.09,-35.2 507.43,-42.07"/>
</g>
</g>
</svg>
