<?xml version="1.0" encoding="UTF-8" standalone="no"?>
<!DOCTYPE svg PUBLIC "-//W3C//DTD SVG 1.1//EN"
 "http://www.w3.org/Graphics/SVG/1.1/DTD/svg11.dtd">
<!-- Generated by graphviz version 9.0.0 (20230911.1827)
 -->
<!-- Title: 一个树形概率图模型 Pages: 1 -->
<svg width="142pt" height="210pt"
 viewBox="0.00 0.00 142.33 210.00" xmlns="http://www.w3.org/2000/svg" xmlns:xlink="http://www.w3.org/1999/xlink">
<g id="graph0" class="graph" transform="scale(1 1) rotate(0) translate(4 206)">
<title>一个树形概率图模型</title>
<polygon fill="white" stroke="none" points="-4,4 -4,-206 138.33,-206 138.33,4 -4,4"/>
<!-- 1 -->
<g id="node1" class="node">
<title>1</title>
<ellipse fill="none" stroke="black" cx="81.67" cy="-180.33" rx="21.67" ry="21.67"/>
<text text-anchor="start" x="73.79" y="-176.28" font-family="Times,serif" font-size="14.00">X</text>
<text text-anchor="start" x="83.54" y="-176.28" font-family="Times,serif" baseline-shift="sub" font-size="14.00">1</text>
</g>
<!-- 2 -->
<g id="node2" class="node">
<title>2</title>
<ellipse fill="none" stroke="black" cx="51.67" cy="-101" rx="21.67" ry="21.67"/>
<text text-anchor="start" x="43.79" y="-96.95" font-family="Times,serif" font-size="14.00">X</text>
<text text-anchor="start" x="53.54" y="-96.95" font-family="Times,serif" baseline-shift="sub" font-size="14.00">2</text>
</g>
<!-- 1&#45;&gt;2 -->
<g id="edge1" class="edge">
<title>1&#45;&gt;2</title>
<path fill="none" stroke="black" d="M74.1,-159.82C69.58,-148.18 63.87,-133.46 59.34,-121.78"/>
</g>
<!-- 3 -->
<g id="node3" class="node">
<title>3</title>
<ellipse fill="none" stroke="black" cx="112.67" cy="-101" rx="21.67" ry="21.67"/>
<text text-anchor="start" x="104.79" y="-96.95" font-family="Times,serif" font-size="14.00">X</text>
<text text-anchor="start" x="114.54" y="-96.95" font-family="Times,serif" baseline-shift="sub" font-size="14.00">3</text>
</g>
<!-- 1&#45;&gt;3 -->
<g id="edge2" class="edge">
<title>1&#45;&gt;3</title>
<path fill="none" stroke="black" d="M89.49,-159.82C94.19,-148.1 100.15,-133.23 104.85,-121.51"/>
</g>
<!-- 4 -->
<g id="node4" class="node">
<title>4</title>
<ellipse fill="none" stroke="black" cx="21.67" cy="-21.67" rx="21.67" ry="21.67"/>
<text text-anchor="start" x="13.79" y="-17.62" font-family="Times,serif" font-size="14.00">X</text>
<text text-anchor="start" x="23.54" y="-17.62" font-family="Times,serif" baseline-shift="sub" font-size="14.00">4</text>
</g>
<!-- 2&#45;&gt;4 -->
<g id="edge3" class="edge">
<title>2&#45;&gt;4</title>
<path fill="none" stroke="black" d="M44.1,-80.49C39.58,-68.85 33.87,-54.12 29.34,-42.44"/>
</g>
<!-- 5 -->
<g id="node5" class="node">
<title>5</title>
<ellipse fill="none" stroke="black" cx="82.67" cy="-21.67" rx="21.67" ry="21.67"/>
<text text-anchor="start" x="74.79" y="-17.62" font-family="Times,serif" font-size="14.00">X</text>
<text text-anchor="start" x="84.54" y="-17.62" font-family="Times,serif" baseline-shift="sub" font-size="14.00">5</text>
</g>
<!-- 2&#45;&gt;5 -->
<g id="edge4" class="edge">
<title>2&#45;&gt;5</title>
<path fill="none" stroke="black" d="M59.49,-80.49C64.19,-68.76 70.15,-53.9 74.85,-42.17"/>
</g>
</g>
</svg>
