<?xml version="1.0" encoding="UTF-8" standalone="no"?>
<!DOCTYPE svg PUBLIC "-//W3C//DTD SVG 1.1//EN"
 "http://www.w3.org/Graphics/SVG/1.1/DTD/svg11.dtd">
<!-- Generated by graphviz version 7.1.0 (20230121.1956)
 -->
<!-- Title: Zå’ŒXçš„å…³ç³» Pages: 1 -->
<svg width="128pt" height="329pt"
 viewBox="0.00 0.00 128.00 329.00" xmlns="http://www.w3.org/2000/svg" xmlns:xlink="http://www.w3.org/1999/xlink">
<g id="graph0" class="graph" transform="scale(1 1) rotate(0) translate(4 325)">
<title>Zå’ŒXçš„å…³ç³»</title>
<polygon fill="white" stroke="none" points="-4,4 -4,-325 124,-325 124,4 -4,4"/>
<!-- X1 -->
<g id="node1" class="node">
<title>X1</title>
<ellipse fill="lightgrey" stroke="black" cx="102" cy="-196" rx="18" ry="18"/>
<text text-anchor="start" x="93.5" y="-193.3" font-family="Times,serif" font-size="14.00">X</text>
<text text-anchor="start" x="103.5" y="-193.3" font-family="Times,serif" baseline-shift="sub" font-size="14.00">1</text>
</g>
<!-- X2 -->
<g id="node2" class="node">
<title>X2</title>
<ellipse fill="lightgrey" stroke="black" cx="102" cy="-276" rx="18" ry="18"/>
<text text-anchor="start" x="93.5" y="-273.3" font-family="Times,serif" font-size="14.00">X</text>
<text text-anchor="start" x="103.5" y="-273.3" font-family="Times,serif" baseline-shift="sub" font-size="14.00">2</text>
</g>
<!-- X3 -->
<g id="node3" class="node">
<title>X3</title>
<ellipse fill="lightgrey" stroke="black" cx="102" cy="-47" rx="18" ry="18"/>
<text text-anchor="start" x="92" y="-44.3" font-family="Times,serif" font-size="14.00">X</text>
<text text-anchor="start" x="102" y="-44.3" font-family="Times,serif" baseline-shift="sub" font-size="14.00">...</text>
</g>
<!-- XK -->
<g id="node4" class="node">
<title>XK</title>
<ellipse fill="lightgrey" stroke="black" cx="102" cy="-128" rx="18" ry="18"/>
<text text-anchor="start" x="93.5" y="-125.3" font-family="Times,serif" font-size="14.00">X</text>
<text text-anchor="start" x="103.5" y="-125.3" font-family="Times,serif" baseline-shift="sub" font-size="14.00">k</text>
</g>
<!-- Z -->
<g id="node5" class="node">
<title>Z</title>
<ellipse fill="none" stroke="black" cx="18" cy="-162" rx="18" ry="18"/>
<text text-anchor="middle" x="18" y="-158.3" font-family="Times,serif" font-size="14.00">Z</text>
</g>
<!-- Z&#45;&gt;X1 -->
<g id="edge1" class="edge">
<title>Z&#45;&gt;X1</title>
<path fill="none" stroke="black" d="M35.2,-168.72C46.32,-173.33 61.34,-179.55 74.22,-184.89"/>
<polygon fill="black" stroke="black" points="72.86,-188.12 83.43,-188.72 75.54,-181.65 72.86,-188.12"/>
<text text-anchor="middle" x="60" y="-184.8" font-family="Times,serif" font-size="14.00">1</text>
</g>
<!-- Z&#45;&gt;X2 -->
<g id="edge2" class="edge">
<title>Z&#45;&gt;X2</title>
<path fill="none" stroke="black" d="M29.39,-176.44C43.13,-195.54 67.52,-229.46 83.98,-252.33"/>
<polygon fill="black" stroke="black" points="81.13,-254.38 89.82,-260.45 86.82,-250.29 81.13,-254.38"/>
<text text-anchor="middle" x="60" y="-228.8" font-family="Times,serif" font-size="14.00">2</text>
</g>
<!-- Z&#45;&gt;X3 -->
<g id="edge3" class="edge">
<title>Z&#45;&gt;X3</title>
<path fill="none" stroke="black" d="M29.39,-147.44C43.19,-128.08 67.74,-93.64 84.2,-70.56"/>
<polygon fill="black" stroke="black" points="86.86,-72.85 89.82,-62.68 81.16,-68.79 86.86,-72.85"/>
<text text-anchor="middle" x="60" y="-114.8" font-family="Times,serif" font-size="14.00">...</text>
</g>
<!-- Z&#45;&gt;XK -->
<g id="edge4" class="edge">
<title>Z&#45;&gt;XK</title>
<path fill="none" stroke="black" d="M35.2,-155.28C46.32,-150.67 61.34,-144.45 74.22,-139.11"/>
<polygon fill="black" stroke="black" points="75.54,-142.35 83.43,-135.28 72.86,-135.88 75.54,-142.35"/>
<text text-anchor="middle" x="60" y="-150.8" font-family="Times,serif" font-size="14.00">k</text>
</g>
<!-- theta1 -->
<g id="node6" class="node">
<title>theta1</title>
<text text-anchor="start" x="10.5" y="-246.3" font-family="Times,serif" font-size="14.00">ğœƒ</text>
<text text-anchor="start" x="18.5" y="-246.3" font-family="Times,serif" baseline-shift="sub" font-size="14.00">1</text>
</g>
<!-- theta1&#45;&gt;X1 -->
<g id="edge5" class="edge">
<title>theta1&#45;&gt;X1</title>
<path fill="none" stroke="black" d="M35.59,-246.37C45.04,-244.33 56.79,-240.83 66,-235 72.71,-230.75 78.92,-224.86 84.18,-218.94"/>
<polygon fill="black" stroke="black" points="86.56,-221.56 90.21,-211.61 81.16,-217.12 86.56,-221.56"/>
</g>
<!-- theta2 -->
<g id="node7" class="node">
<title>theta2</title>
<text text-anchor="start" x="10.5" y="-300.3" font-family="Times,serif" font-size="14.00">ğœƒ</text>
<text text-anchor="start" x="18.5" y="-300.3" font-family="Times,serif" baseline-shift="sub" font-size="14.00">2</text>
</g>
<!-- theta2&#45;&gt;X2 -->
<g id="edge6" class="edge">
<title>theta2&#45;&gt;X2</title>
<path fill="none" stroke="black" d="M35.99,-297.41C46.91,-293.81 61.33,-289.06 73.82,-284.95"/>
<polygon fill="black" stroke="black" points="74.75,-288.33 83.15,-281.88 72.56,-281.68 74.75,-288.33"/>
</g>
<!-- theta3 -->
<g id="node8" class="node">
<title>theta3</title>
<text text-anchor="start" x="10.5" y="-15.3" font-family="Times,serif" font-size="14.00">ğœƒ</text>
<text text-anchor="start" x="18.5" y="-15.3" font-family="Times,serif" baseline-shift="sub" font-size="14.00">3</text>
</g>
<!-- theta3&#45;&gt;X3 -->
<g id="edge7" class="edge">
<title>theta3&#45;&gt;X3</title>
<path fill="none" stroke="black" d="M35.99,-24.01C46.91,-27.87 61.33,-32.97 73.82,-37.39"/>
<polygon fill="black" stroke="black" points="72.57,-40.66 83.16,-40.69 74.9,-34.06 72.57,-40.66"/>
</g>
<!-- thetaK -->
<g id="node9" class="node">
<title>thetaK</title>
<text text-anchor="start" x="10.5" y="-69.3" font-family="Times,serif" font-size="14.00">ğœƒ</text>
<text text-anchor="start" x="18.5" y="-69.3" font-family="Times,serif" baseline-shift="sub" font-size="14.00">k</text>
</g>
<!-- thetaK&#45;&gt;XK -->
<g id="edge8" class="edge">
<title>thetaK&#45;&gt;XK</title>
<path fill="none" stroke="black" d="M35.68,-74.5C45.15,-76.5 56.9,-80 66,-86 73.19,-90.74 79.68,-97.4 85.07,-104.02"/>
<polygon fill="black" stroke="black" points="81.97,-105.73 90.77,-111.63 87.57,-101.53 81.97,-105.73"/>
</g>
</g>
</svg>
