<?xml version="1.0" encoding="UTF-8" standalone="no"?>
<!DOCTYPE svg PUBLIC "-//W3C//DTD SVG 1.1//EN"
 "http://www.w3.org/Graphics/SVG/1.1/DTD/svg11.dtd">
<!-- Generated by graphviz version 7.1.0 (20230121.1956)
 -->
<!-- Title: demo_9 Pages: 1 -->
<svg width="220pt" height="204pt"
 viewBox="0.00 0.00 220.00 204.00" xmlns="http://www.w3.org/2000/svg" xmlns:xlink="http://www.w3.org/1999/xlink">
<g id="graph0" class="graph" transform="scale(1 1) rotate(0) translate(4 200)">
<title>demo_9</title>
<polygon fill="white" stroke="none" points="-4,4 -4,-200 216,-200 216,4 -4,4"/>
<g id="clust1" class="cluster">
<title>cluster_cl</title>
<polygon fill="none" stroke="black" points="62,-8 62,-132 204,-132 204,-8 62,-8"/>
</g>
<!-- a -->
<g id="node1" class="node">
<title>a</title>
<ellipse fill="none" stroke="black" cx="134" cy="-106" rx="27" ry="18"/>
<text text-anchor="middle" x="134" y="-102.3" font-family="Times,serif" font-size="14.00">a</text>
</g>
<!-- b -->
<g id="node2" class="node">
<title>b</title>
<ellipse fill="none" stroke="black" cx="97" cy="-34" rx="27" ry="18"/>
<text text-anchor="middle" x="97" y="-30.3" font-family="Times,serif" font-size="14.00">b</text>
</g>
<!-- a&#45;&gt;b -->
<g id="edge1" class="edge">
<title>a&#45;&gt;b</title>
<path fill="none" stroke="black" d="M125.42,-88.76C121.08,-80.55 115.7,-70.37 110.79,-61.09"/>
<polygon fill="black" stroke="black" points="114.01,-59.69 106.24,-52.49 107.82,-62.96 114.01,-59.69"/>
</g>
<!-- c -->
<g id="node3" class="node">
<title>c</title>
<ellipse fill="none" stroke="black" cx="169" cy="-34" rx="27" ry="18"/>
<text text-anchor="middle" x="169" y="-30.3" font-family="Times,serif" font-size="14.00">c</text>
</g>
<!-- a&#45;&gt;c -->
<g id="edge2" class="edge">
<title>a&#45;&gt;c</title>
<path fill="none" stroke="black" d="M142.29,-88.41C146.3,-80.39 151.22,-70.57 155.73,-61.54"/>
<polygon fill="black" stroke="black" points="158.75,-63.33 160.09,-52.82 152.49,-60.2 158.75,-63.33"/>
</g>
<!-- d -->
<g id="node5" class="node">
<title>d</title>
<ellipse fill="none" stroke="black" cx="27" cy="-106" rx="27" ry="18"/>
<text text-anchor="middle" x="27" y="-102.3" font-family="Times,serif" font-size="14.00">d</text>
</g>
<!-- b&#45;&gt;d -->
<g id="edge4" class="edge">
<title>b&#45;&gt;d</title>
<path fill="none" stroke="black" d="M82.51,-49.49C72.95,-59.05 60.21,-71.79 49.36,-82.64"/>
<polygon fill="black" stroke="black" points="47.17,-79.88 42.57,-89.43 52.12,-84.83 47.17,-79.88"/>
</g>
<!-- r -->
<g id="node4" class="node">
<title>r</title>
<ellipse fill="none" stroke="black" cx="134" cy="-178" rx="27" ry="18"/>
<text text-anchor="middle" x="134" y="-174.3" font-family="Times,serif" font-size="14.00">r</text>
</g>
<!-- r&#45;&gt;a -->
<g id="edge3" class="edge">
<title>r&#45;&gt;a</title>
<path fill="none" stroke="black" d="M134,-159.7C134,-152.41 134,-143.73 134,-135.54"/>
<polygon fill="black" stroke="black" points="137.5,-135.62 134,-125.62 130.5,-135.62 137.5,-135.62"/>
</g>
</g>
</svg>
