<?xml version="1.0" encoding="UTF-8" standalone="no"?>
<!DOCTYPE svg PUBLIC "-//W3C//DTD SVG 1.1//EN"
 "http://www.w3.org/Graphics/SVG/1.1/DTD/svg11.dtd">
<!-- Generated by graphviz version 2.43.0 (0)
 -->
<!-- Title: example1 Pages: 1 -->
<svg width="283pt" height="148pt"
 viewBox="0.00 0.00 283.32 147.83" xmlns="http://www.w3.org/2000/svg" xmlns:xlink="http://www.w3.org/1999/xlink">
<g id="graph0" class="graph" transform="scale(1 1) rotate(0) translate(4 143.83)">
<title>example1</title>
<polygon fill="white" stroke="transparent" points="-4,4 -4,-143.83 279.32,-143.83 279.32,4 -4,4"/>
<!-- X1 -->
<g id="node1" class="node">
<title>X1</title>
<ellipse fill="none" stroke="black" cx="20.92" cy="-50.92" rx="20.83" ry="20.83"/>
<text text-anchor="start" x="12.36" y="-47.72" font-family="Times,serif" font-size="14.00">X</text>
<text text-anchor="start" x="22.47" y="-47.72" font-family="Times,serif" baseline-shift="sub" font-size="14.00">1</text>
</g>
<!-- X2 -->
<g id="node2" class="node">
<title>X2</title>
<ellipse fill="lightgrey" stroke="black" cx="98.75" cy="-80.92" rx="20.83" ry="20.83"/>
<text text-anchor="start" x="90.19" y="-77.72" font-family="Times,serif" font-size="14.00">X</text>
<text text-anchor="start" x="100.3" y="-77.72" font-family="Times,serif" baseline-shift="sub" font-size="14.00">2</text>
</g>
<!-- X1&#45;&gt;X2 -->
<g id="edge1" class="edge">
<title>X1&#45;&gt;X2</title>
<path fill="none" stroke="black" d="M40.66,-58.33C49.32,-61.76 59.79,-65.9 69.38,-69.69"/>
<polygon fill="black" stroke="black" points="68.37,-73.06 78.95,-73.48 70.94,-66.55 68.37,-73.06"/>
</g>
<!-- X3 -->
<g id="node3" class="node">
<title>X3</title>
<ellipse fill="lightgrey" stroke="black" cx="98.75" cy="-20.92" rx="20.83" ry="20.83"/>
<text text-anchor="start" x="90.19" y="-17.72" font-family="Times,serif" font-size="14.00">X</text>
<text text-anchor="start" x="100.3" y="-17.72" font-family="Times,serif" baseline-shift="sub" font-size="14.00">3</text>
</g>
<!-- X1&#45;&gt;X3 -->
<g id="edge2" class="edge">
<title>X1&#45;&gt;X3</title>
<path fill="none" stroke="black" d="M40.66,-43.5C49.32,-40.07 59.79,-35.93 69.38,-32.14"/>
<polygon fill="black" stroke="black" points="70.94,-35.28 78.95,-28.35 68.37,-28.77 70.94,-35.28"/>
</g>
<!-- X4 -->
<g id="node4" class="node">
<title>X4</title>
<ellipse fill="lightgrey" stroke="black" cx="176.58" cy="-118.92" rx="20.83" ry="20.83"/>
<text text-anchor="start" x="168.02" y="-115.72" font-family="Times,serif" font-size="14.00">X</text>
<text text-anchor="start" x="178.13" y="-115.72" font-family="Times,serif" baseline-shift="sub" font-size="14.00">4</text>
</g>
<!-- X2&#45;&gt;X4 -->
<g id="edge3" class="edge">
<title>X2&#45;&gt;X4</title>
<path fill="none" stroke="black" d="M117.72,-89.92C126.9,-94.52 138.28,-100.22 148.5,-105.35"/>
<polygon fill="black" stroke="black" points="146.96,-108.49 157.47,-109.84 150.1,-102.23 146.96,-108.49"/>
</g>
<!-- X6 -->
<g id="node6" class="node">
<title>X6</title>
<ellipse fill="dimgrey" stroke="black" cx="254.41" cy="-44.92" rx="20.83" ry="20.83"/>
<text text-anchor="start" x="245.85" y="-41.72" font-family="Times,serif" font-size="14.00">X</text>
<text text-anchor="start" x="255.96" y="-41.72" font-family="Times,serif" baseline-shift="sub" font-size="14.00">6</text>
</g>
<!-- X2&#45;&gt;X6 -->
<g id="edge4" class="edge">
<title>X2&#45;&gt;X6</title>
<path fill="none" stroke="black" d="M119.21,-76.36C145.62,-70.17 193.04,-59.06 223.86,-51.84"/>
<polygon fill="black" stroke="black" points="224.68,-55.24 233.62,-49.55 223.08,-48.42 224.68,-55.24"/>
</g>
<!-- X5 -->
<g id="node5" class="node">
<title>X5</title>
<ellipse fill="lightgrey" stroke="black" cx="176.58" cy="-20.92" rx="20.83" ry="20.83"/>
<text text-anchor="start" x="168.02" y="-17.72" font-family="Times,serif" font-size="14.00">X</text>
<text text-anchor="start" x="178.13" y="-17.72" font-family="Times,serif" baseline-shift="sub" font-size="14.00">5</text>
</g>
<!-- X3&#45;&gt;X5 -->
<g id="edge5" class="edge">
<title>X3&#45;&gt;X5</title>
<path fill="none" stroke="black" d="M119.67,-20.92C127.53,-20.92 136.74,-20.92 145.38,-20.92"/>
<polygon fill="black" stroke="black" points="145.52,-24.42 155.52,-20.92 145.52,-17.42 145.52,-24.42"/>
</g>
<!-- X5&#45;&gt;X6 -->
<g id="edge6" class="edge">
<title>X5&#45;&gt;X6</title>
<path fill="none" stroke="black" d="M196.71,-26.97C205.15,-29.64 215.26,-32.84 224.58,-35.79"/>
<polygon fill="black" stroke="black" points="223.69,-39.18 234.28,-38.86 225.8,-32.51 223.69,-39.18"/>
</g>
</g>
</svg>
