<?xml version="1.0" encoding="UTF-8" standalone="no"?>
<!DOCTYPE svg PUBLIC "-//W3C//DTD SVG 1.1//EN"
 "http://www.w3.org/Graphics/SVG/1.1/DTD/svg11.dtd">
<!-- Generated by graphviz version 9.0.0 (20230911.1827)
 -->
<!-- Title: 模型推断 Pages: 1 -->
<svg width="749pt" height="341pt"
 viewBox="0.00 0.00 749.25 341.00" xmlns="http://www.w3.org/2000/svg" xmlns:xlink="http://www.w3.org/1999/xlink">
<g id="graph0" class="graph" transform="scale(1 1) rotate(0) translate(4 337)">
<title>模型推断</title>
<polygon fill="white" stroke="none" points="-4,4 -4,-337 745.25,-337 745.25,4 -4,4"/>
<!-- n1 -->
<g id="node1" class="node">
<title>n1</title>
<polygon fill="none" stroke="black" points="73,-198 0,-198 0,-162 73,-162 73,-198"/>
<text text-anchor="middle" x="36.5" y="-176.82" font-family="Times,serif" font-size="14.00">概率推断</text>
</g>
<!-- n2 -->
<g id="node2" class="node">
<title>n2</title>
<polygon fill="none" stroke="black" points="182,-252 109,-252 109,-216 182,-216 182,-252"/>
<text text-anchor="middle" x="145.5" y="-230.82" font-family="Times,serif" font-size="14.00">推断问题</text>
</g>
<!-- n1&#45;&gt;n2 -->
<g id="edge1" class="edge">
<title>n1&#45;&gt;n2</title>
<path fill="none" stroke="black" d="M73.43,-198.13C81.54,-202.23 90.26,-206.63 98.72,-210.9"/>
<polygon fill="black" stroke="black" points="96.99,-213.95 107.5,-215.33 100.15,-207.7 96.99,-213.95"/>
</g>
<!-- n3 -->
<g id="node6" class="node">
<title>n3</title>
<polygon fill="none" stroke="black" points="182,-171 109,-171 109,-135 182,-135 182,-171"/>
<text text-anchor="middle" x="145.5" y="-149.82" font-family="Times,serif" font-size="14.00">推断算法</text>
</g>
<!-- n1&#45;&gt;n3 -->
<g id="edge2" class="edge">
<title>n1&#45;&gt;n3</title>
<path fill="none" stroke="black" d="M73.43,-170.93C81.27,-168.95 89.69,-166.83 97.88,-164.76"/>
<polygon fill="black" stroke="black" points="98.54,-168.21 107.38,-162.37 96.83,-161.42 98.54,-168.21"/>
</g>
<!-- n21 -->
<g id="node3" class="node">
<title>n21</title>
<polygon fill="none" stroke="black" points="382.5,-333 281,-333 281,-297 382.5,-297 382.5,-333"/>
<text text-anchor="middle" x="331.75" y="-311.82" font-family="Times,serif" font-size="14.00">边缘概率查询</text>
</g>
<!-- n2&#45;&gt;n21 -->
<g id="edge3" class="edge">
<title>n2&#45;&gt;n21</title>
<path fill="none" stroke="black" d="M165.99,-252.26C179.61,-264.08 198.73,-278.9 218,-288 234.05,-295.58 252.42,-301.14 269.61,-305.17"/>
<polygon fill="black" stroke="black" points="268.7,-308.55 279.22,-307.28 270.21,-301.72 268.7,-308.55"/>
</g>
<!-- n22 -->
<g id="node4" class="node">
<title>n22</title>
<polygon fill="none" stroke="black" points="382.5,-279 281,-279 281,-243 382.5,-243 382.5,-279"/>
<text text-anchor="middle" x="331.75" y="-257.82" font-family="Times,serif" font-size="14.00">条件概率查询</text>
</g>
<!-- n2&#45;&gt;n22 -->
<g id="edge4" class="edge">
<title>n2&#45;&gt;n22</title>
<path fill="none" stroke="black" d="M182.46,-239.27C207.15,-242.89 240.53,-247.78 269.38,-252.01"/>
<polygon fill="black" stroke="black" points="268.69,-255.44 279.09,-253.43 269.71,-248.52 268.69,-255.44"/>
</g>
<!-- n23 -->
<g id="node5" class="node">
<title>n23</title>
<polygon fill="none" stroke="black" points="382.5,-225 281,-225 281,-189 382.5,-189 382.5,-225"/>
<text text-anchor="middle" x="331.75" y="-203.82" font-family="Times,serif" font-size="14.00">最大后验概率</text>
</g>
<!-- n2&#45;&gt;n23 -->
<g id="edge5" class="edge">
<title>n2&#45;&gt;n23</title>
<path fill="none" stroke="black" d="M182.46,-228.73C207.15,-225.11 240.53,-220.22 269.38,-215.99"/>
<polygon fill="black" stroke="black" points="269.71,-219.48 279.09,-214.57 268.69,-212.56 269.71,-219.48"/>
</g>
<!-- n31 -->
<g id="node7" class="node">
<title>n31</title>
<polygon fill="none" stroke="black" points="424.88,-171 238.62,-171 238.62,-135 424.88,-135 424.88,-171"/>
<text text-anchor="middle" x="331.75" y="-149.82" font-family="Times,serif" font-size="14.00">精确推断（Exact inference）</text>
</g>
<!-- n3&#45;&gt;n31 -->
<g id="edge6" class="edge">
<title>n3&#45;&gt;n31</title>
<path fill="none" stroke="black" d="M182.46,-153C195.57,-153 211.12,-153 227.15,-153"/>
<polygon fill="black" stroke="black" points="226.78,-156.5 236.78,-153 226.78,-149.5 226.78,-156.5"/>
</g>
<!-- n32 -->
<g id="node11" class="node">
<title>n32</title>
<polygon fill="none" stroke="black" points="445.5,-90 218,-90 218,-54 445.5,-54 445.5,-90"/>
<text text-anchor="middle" x="331.75" y="-68.83" font-family="Times,serif" font-size="14.00">近似推断（Approximate inference）</text>
</g>
<!-- n3&#45;&gt;n32 -->
<g id="edge7" class="edge">
<title>n3&#45;&gt;n32</title>
<path fill="none" stroke="black" d="M182.46,-137.19C209.72,-125.21 247.6,-108.56 278.24,-95.08"/>
<polygon fill="black" stroke="black" points="279.62,-98.3 287.37,-91.07 276.8,-91.89 279.62,-98.3"/>
</g>
<!-- n311 -->
<g id="node8" class="node">
<title>n311</title>
<polygon fill="none" stroke="black" points="715.75,-252 507,-252 507,-216 715.75,-216 715.75,-252"/>
<text text-anchor="middle" x="611.38" y="-230.82" font-family="Times,serif" font-size="14.00">消元法（Elimination algorithm）</text>
</g>
<!-- n31&#45;&gt;n311 -->
<g id="edge8" class="edge">
<title>n31&#45;&gt;n311</title>
<path fill="none" stroke="black" d="M424.02,-171.42C431.42,-173.94 438.67,-176.79 445.5,-180 463.6,-188.51 463.28,-198.75 481.5,-207 486.14,-209.1 490.94,-211.04 495.85,-212.82"/>
<polygon fill="black" stroke="black" points="494.7,-216.13 505.3,-216.02 496.95,-209.5 494.7,-216.13"/>
</g>
<!-- n312 -->
<g id="node9" class="node">
<title>n312</title>
<polygon fill="none" stroke="black" points="741.25,-198 481.5,-198 481.5,-162 741.25,-162 741.25,-198"/>
<text text-anchor="middle" x="611.38" y="-176.82" font-family="Times,serif" font-size="14.00">置信传播（Belief propagation algorithm）</text>
</g>
<!-- n31&#45;&gt;n312 -->
<g id="edge9" class="edge">
<title>n31&#45;&gt;n312</title>
<path fill="none" stroke="black" d="M425.2,-161.99C439.66,-163.4 454.89,-164.88 470.15,-166.36"/>
<polygon fill="black" stroke="black" points="469.45,-169.81 479.74,-167.3 470.13,-162.84 469.45,-169.81"/>
</g>
<!-- n313 -->
<g id="node10" class="node">
<title>n313</title>
<polygon fill="none" stroke="black" points="734.5,-144 488.25,-144 488.25,-108 734.5,-108 734.5,-144"/>
<text text-anchor="middle" x="611.38" y="-122.83" font-family="Times,serif" font-size="14.00">联结树算法（Junction Tree algorithm）</text>
</g>
<!-- n31&#45;&gt;n313 -->
<g id="edge10" class="edge">
<title>n31&#45;&gt;n313</title>
<path fill="none" stroke="black" d="M425.2,-144.01C441.76,-142.4 459.31,-140.69 476.76,-138.99"/>
<polygon fill="black" stroke="black" points="477.08,-142.48 486.69,-138.03 476.4,-135.51 477.08,-142.48"/>
</g>
<!-- n321 -->
<g id="node12" class="node">
<title>n321</title>
<polygon fill="none" stroke="black" points="712.38,-90 510.38,-90 510.38,-54 712.38,-54 712.38,-90"/>
<text text-anchor="middle" x="611.38" y="-68.83" font-family="Times,serif" font-size="14.00">采样法（Sampling algorithms）</text>
</g>
<!-- n32&#45;&gt;n321 -->
<g id="edge11" class="edge">
<title>n32&#45;&gt;n321</title>
<path fill="none" stroke="black" d="M445.67,-72C463.16,-72 481.21,-72 498.67,-72"/>
<polygon fill="black" stroke="black" points="498.53,-75.5 508.53,-72 498.53,-68.5 498.53,-75.5"/>
</g>
<!-- n322 -->
<g id="node13" class="node">
<title>n322</title>
<polygon fill="none" stroke="black" points="709.75,-36 513,-36 513,0 709.75,0 709.75,-36"/>
<text text-anchor="middle" x="611.38" y="-14.82" font-family="Times,serif" font-size="14.00">变分法（Variational methods）</text>
</g>
<!-- n32&#45;&gt;n322 -->
<g id="edge12" class="edge">
<title>n32&#45;&gt;n322</title>
<path fill="none" stroke="black" d="M427.52,-53.57C452.28,-48.75 479.14,-43.53 504.44,-38.6"/>
<polygon fill="black" stroke="black" points="504.93,-42.08 514.08,-36.73 503.59,-35.2 504.93,-42.08"/>
</g>
</g>
</svg>
