<?xml version="1.0" encoding="UTF-8" standalone="no"?>
<!DOCTYPE svg PUBLIC "-//W3C//DTD SVG 1.1//EN"
 "http://www.w3.org/Graphics/SVG/1.1/DTD/svg11.dtd">
<!-- Generated by graphviz version 7.1.0 (20230121.1956)
 -->
<!-- Title: 树结构 Pages: 1 -->
<svg width="358pt" height="243pt"
 viewBox="0.00 0.00 358.00 243.00" xmlns="http://www.w3.org/2000/svg" xmlns:xlink="http://www.w3.org/1999/xlink">
<g id="graph0" class="graph" transform="scale(1 1) rotate(0) translate(4 239)">
<title>树结构</title>
<polygon fill="white" stroke="none" points="-4,4 -4,-239 354,-239 354,4 -4,4"/>
<g id="clust1" class="cluster">
<title>cluster_a</title>
<polygon fill="none" stroke="none" points="8,-8 8,-227 114,-227 114,-8 8,-8"/>
<text text-anchor="middle" x="61" y="-15.8" font-family="Times,serif" font-size="14.00">(a)</text>
</g>
<g id="clust4" class="cluster">
<title>cluster_b</title>
<polygon fill="none" stroke="none" points="122,-8 122,-227 228,-227 228,-8 122,-8"/>
<text text-anchor="middle" x="175" y="-15.8" font-family="Times,serif" font-size="14.00">(b)</text>
</g>
<g id="clust7" class="cluster">
<title>cluster_c</title>
<polygon fill="none" stroke="none" points="236,-8 236,-227 342,-227 342,-8 236,-8"/>
<text text-anchor="middle" x="289" y="-15.8" font-family="Times,serif" font-size="14.00">(c)</text>
</g>
<!-- a -->
<g id="node1" class="node">
<title>a</title>
<ellipse fill="none" stroke="black" cx="61" cy="-201" rx="18" ry="18"/>
</g>
<!-- b -->
<g id="node2" class="node">
<title>b</title>
<ellipse fill="none" stroke="black" cx="34" cy="-129" rx="18" ry="18"/>
</g>
<!-- a&#45;&gt;b -->
<g id="edge1" class="edge">
<title>a&#45;&gt;b</title>
<path fill="none" stroke="black" d="M54.74,-183.76C50.38,-172.46 44.58,-157.44 40.23,-146.15"/>
</g>
<!-- c -->
<g id="node3" class="node">
<title>c</title>
<ellipse fill="none" stroke="black" cx="88" cy="-129" rx="18" ry="18"/>
</g>
<!-- a&#45;&gt;c -->
<g id="edge2" class="edge">
<title>a&#45;&gt;c</title>
<path fill="none" stroke="black" d="M67.26,-183.76C71.62,-172.46 77.42,-157.44 81.77,-146.15"/>
</g>
<!-- d -->
<g id="node4" class="node">
<title>d</title>
<ellipse fill="none" stroke="black" cx="34" cy="-57" rx="18" ry="18"/>
</g>
<!-- c&#45;&gt;d -->
<g id="edge3" class="edge">
<title>c&#45;&gt;d</title>
<path fill="none" stroke="black" d="M77.33,-114.17C67.86,-101.9 54.11,-84.06 44.65,-71.8"/>
</g>
<!-- f -->
<g id="node5" class="node">
<title>f</title>
<ellipse fill="none" stroke="black" cx="88" cy="-57" rx="18" ry="18"/>
</g>
<!-- c&#45;&gt;f -->
<g id="edge4" class="edge">
<title>c&#45;&gt;f</title>
<path fill="none" stroke="black" d="M88,-110.7C88,-99.85 88,-85.92 88,-75.1"/>
</g>
<!-- a2 -->
<g id="node6" class="node">
<title>a2</title>
<ellipse fill="none" stroke="black" cx="175" cy="-201" rx="18" ry="18"/>
</g>
<!-- b2 -->
<g id="node7" class="node">
<title>b2</title>
<ellipse fill="none" stroke="black" cx="148" cy="-129" rx="18" ry="18"/>
</g>
<!-- a2&#45;&gt;b2 -->
<g id="edge5" class="edge">
<title>a2&#45;&gt;b2</title>
<path fill="none" stroke="black" d="M168.74,-183.76C165.64,-175.72 161.81,-165.81 158.3,-156.69"/>
<polygon fill="black" stroke="black" points="161.64,-155.63 154.77,-147.56 155.11,-158.15 161.64,-155.63"/>
</g>
<!-- c2 -->
<g id="node8" class="node">
<title>c2</title>
<ellipse fill="none" stroke="black" cx="202" cy="-129" rx="18" ry="18"/>
</g>
<!-- a2&#45;&gt;c2 -->
<g id="edge6" class="edge">
<title>a2&#45;&gt;c2</title>
<path fill="none" stroke="black" d="M181.26,-183.76C184.36,-175.72 188.19,-165.81 191.7,-156.69"/>
<polygon fill="black" stroke="black" points="194.89,-158.15 195.23,-147.56 188.36,-155.63 194.89,-158.15"/>
</g>
<!-- d2 -->
<g id="node9" class="node">
<title>d2</title>
<ellipse fill="none" stroke="black" cx="148" cy="-57" rx="18" ry="18"/>
</g>
<!-- c2&#45;&gt;d2 -->
<g id="edge7" class="edge">
<title>c2&#45;&gt;d2</title>
<path fill="none" stroke="black" d="M191.33,-114.17C184.01,-104.68 174.12,-91.86 165.64,-80.86"/>
<polygon fill="black" stroke="black" points="168.45,-78.78 159.57,-73 162.91,-83.06 168.45,-78.78"/>
</g>
<!-- f2 -->
<g id="node10" class="node">
<title>f2</title>
<ellipse fill="none" stroke="black" cx="202" cy="-57" rx="18" ry="18"/>
</g>
<!-- c2&#45;&gt;f2 -->
<g id="edge8" class="edge">
<title>c2&#45;&gt;f2</title>
<path fill="none" stroke="black" d="M202,-110.7C202,-103.41 202,-94.73 202,-86.54"/>
<polygon fill="black" stroke="black" points="205.5,-86.62 202,-76.62 198.5,-86.62 205.5,-86.62"/>
</g>
<!-- a3 -->
<g id="node11" class="node">
<title>a3</title>
<ellipse fill="none" stroke="black" cx="316" cy="-201" rx="18" ry="18"/>
</g>
<!-- c3 -->
<g id="node13" class="node">
<title>c3</title>
<ellipse fill="none" stroke="black" cx="316" cy="-129" rx="18" ry="18"/>
</g>
<!-- a3&#45;&gt;c3 -->
<g id="edge9" class="edge">
<title>a3&#45;&gt;c3</title>
<path fill="none" stroke="black" d="M316,-182.7C316,-175.41 316,-166.73 316,-158.54"/>
<polygon fill="black" stroke="black" points="319.5,-158.62 316,-148.62 312.5,-158.62 319.5,-158.62"/>
</g>
<!-- b3 -->
<g id="node12" class="node">
<title>b3</title>
<ellipse fill="none" stroke="black" cx="262" cy="-201" rx="18" ry="18"/>
</g>
<!-- b3&#45;&gt;c3 -->
<g id="edge10" class="edge">
<title>b3&#45;&gt;c3</title>
<path fill="none" stroke="black" d="M272.67,-186.17C279.99,-176.68 289.88,-163.86 298.36,-152.86"/>
<polygon fill="black" stroke="black" points="301.09,-155.06 304.43,-145 295.55,-150.78 301.09,-155.06"/>
</g>
<!-- f3 -->
<g id="node15" class="node">
<title>f3</title>
<ellipse fill="none" stroke="black" cx="289" cy="-57" rx="18" ry="18"/>
</g>
<!-- c3&#45;&gt;f3 -->
<g id="edge11" class="edge">
<title>c3&#45;&gt;f3</title>
<path fill="none" stroke="black" d="M309.74,-111.76C306.64,-103.72 302.81,-93.81 299.3,-84.69"/>
<polygon fill="black" stroke="black" points="302.64,-83.63 295.77,-75.56 296.11,-86.15 302.64,-83.63"/>
</g>
<!-- d3 -->
<g id="node14" class="node">
<title>d3</title>
<ellipse fill="none" stroke="black" cx="262" cy="-129" rx="18" ry="18"/>
</g>
<!-- d3&#45;&gt;f3 -->
<g id="edge12" class="edge">
<title>d3&#45;&gt;f3</title>
<path fill="none" stroke="black" d="M268.26,-111.76C271.36,-103.72 275.19,-93.81 278.7,-84.69"/>
<polygon fill="black" stroke="black" points="281.89,-86.15 282.23,-75.56 275.36,-83.63 281.89,-86.15"/>
</g>
</g>
</svg>
