<?xml version="1.0" encoding="UTF-8" standalone="no"?>
<!DOCTYPE svg PUBLIC "-//W3C//DTD SVG 1.1//EN"
 "http://www.w3.org/Graphics/SVG/1.1/DTD/svg11.dtd">
<!-- Generated by graphviz version 2.43.0 (0)
 -->
<!-- Title: 一个树形概率图模型 Pages: 1 -->
<svg width="684pt" height="181pt"
 viewBox="0.00 0.00 684.00 180.74" xmlns="http://www.w3.org/2000/svg" xmlns:xlink="http://www.w3.org/1999/xlink">
<g id="graph0" class="graph" transform="scale(1 1) rotate(0) translate(4 176.74)">
<title>一个树形概率图模型</title>
<polygon fill="white" stroke="transparent" points="-4,4 -4,-176.74 680,-176.74 680,4 -4,4"/>
<g id="clust1" class="cluster">
<title>cluster_1</title>
<polygon fill="none" stroke="transparent" points="8,-8 8,-164.74 304,-164.74 304,-8 8,-8"/>
<text text-anchor="middle" x="156" y="-14.8" font-family="Times,serif" font-size="14.00">(a)</text>
</g>
<g id="clust3" class="cluster">
<title>cluster_2</title>
<polygon fill="none" stroke="transparent" points="312,-8 312,-164.74 608,-164.74 608,-8 312,-8"/>
<text text-anchor="middle" x="460" y="-14.8" font-family="Times,serif" font-size="14.00">(b)</text>
</g>
<g id="clust6" class="cluster">
<title>cluster_3</title>
<polygon fill="none" stroke="transparent" points="616,-13.37 616,-164.74 668,-164.74 668,-13.37 616,-13.37"/>
<text text-anchor="middle" x="642" y="-20.17" font-family="Times,serif" font-size="14.00">(c)</text>
</g>
<!-- a_x1 -->
<g id="node1" class="node">
<title>a_x1</title>
<ellipse fill="none" stroke="black" cx="37" cy="-61.37" rx="20.83" ry="20.83"/>
<text text-anchor="start" x="28.44" y="-58.17" font-family="Times,serif" font-size="14.00">X</text>
<text text-anchor="start" x="38.56" y="-58.17" font-family="Times,serif" baseline-shift="sub" font-size="14.00">1</text>
</g>
<!-- a_x2 -->
<g id="node2" class="node">
<title>a_x2</title>
<ellipse fill="none" stroke="black" cx="97" cy="-61.37" rx="20.83" ry="20.83"/>
<text text-anchor="start" x="88.44" y="-58.17" font-family="Times,serif" font-size="14.00">X</text>
<text text-anchor="start" x="98.56" y="-58.17" font-family="Times,serif" baseline-shift="sub" font-size="14.00">2</text>
</g>
<!-- a_x3 -->
<g id="node3" class="node">
<title>a_x3</title>
<ellipse fill="none" stroke="black" cx="157" cy="-61.37" rx="20.83" ry="20.83"/>
<text text-anchor="start" x="148.44" y="-58.17" font-family="Times,serif" font-size="14.00">X</text>
<text text-anchor="start" x="158.56" y="-58.17" font-family="Times,serif" baseline-shift="sub" font-size="14.00">3</text>
</g>
<!-- a_xh -->
<g id="node4" class="node">
<title>a_xh</title>
<ellipse fill="none" stroke="transparent" cx="214" cy="-61.37" rx="18" ry="18"/>
<text text-anchor="middle" x="214" y="-57.17" font-family="Times,serif" font-size="14.00">...</text>
</g>
<!-- a_xn -->
<g id="node5" class="node">
<title>a_xn</title>
<ellipse fill="none" stroke="black" cx="273" cy="-61.37" rx="23.24" ry="23.24"/>
<text text-anchor="start" x="262.5" y="-58.17" font-family="Times,serif" font-size="14.00">X</text>
<text text-anchor="start" x="272.61" y="-58.17" font-family="Times,serif" baseline-shift="sub" font-size="14.00">m</text>
</g>
<!-- a_y -->
<g id="node6" class="node">
<title>a_y</title>
<ellipse fill="none" stroke="black" cx="157" cy="-138.74" rx="18" ry="18"/>
<text text-anchor="middle" x="157" y="-134.54" font-family="Times,serif" font-size="14.00">Y</text>
</g>
<!-- a_y&#45;&gt;a_x1 -->
<g id="edge2" class="edge">
<title>a_y&#45;&gt;a_x1</title>
<path fill="none" stroke="black" d="M141.4,-129.24C123.2,-119.16 92.37,-101.6 67,-84.74 65.15,-83.52 63.27,-82.22 61.38,-80.89"/>
<polygon fill="black" stroke="black" points="63.42,-78.05 53.27,-75.01 59.31,-83.71 63.42,-78.05"/>
</g>
<!-- a_y&#45;&gt;a_x2 -->
<g id="edge3" class="edge">
<title>a_y&#45;&gt;a_x2</title>
<path fill="none" stroke="black" d="M146.27,-124.27C137.87,-113.71 125.96,-98.75 115.96,-86.19"/>
<polygon fill="black" stroke="black" points="118.68,-83.99 109.72,-78.34 113.21,-88.35 118.68,-83.99"/>
</g>
<!-- a_y&#45;&gt;a_x3 -->
<g id="edge4" class="edge">
<title>a_y&#45;&gt;a_x3</title>
<path fill="none" stroke="black" d="M157,-120.64C157,-112.28 157,-101.98 157,-92.37"/>
<polygon fill="black" stroke="black" points="160.5,-92.34 157,-82.34 153.5,-92.34 160.5,-92.34"/>
</g>
<!-- a_y&#45;&gt;a_xh -->
<g id="edge1" class="edge">
<title>a_y&#45;&gt;a_xh</title>
</g>
<!-- a_y&#45;&gt;a_xn -->
<g id="edge5" class="edge">
<title>a_y&#45;&gt;a_xn</title>
<path fill="none" stroke="black" d="M172.01,-128.57C188.92,-118.17 217.16,-100.59 241,-84.74 242.47,-83.76 243.98,-82.75 245.5,-81.72"/>
<polygon fill="black" stroke="black" points="247.9,-84.32 254.15,-75.77 243.93,-78.55 247.9,-84.32"/>
</g>
<!-- b_x1 -->
<g id="node7" class="node">
<title>b_x1</title>
<ellipse fill="none" stroke="black" cx="341" cy="-61.37" rx="20.83" ry="20.83"/>
<text text-anchor="start" x="332.44" y="-58.17" font-family="Times,serif" font-size="14.00">X</text>
<text text-anchor="start" x="342.56" y="-58.17" font-family="Times,serif" baseline-shift="sub" font-size="14.00">1</text>
</g>
<!-- b_x2 -->
<g id="node8" class="node">
<title>b_x2</title>
<ellipse fill="none" stroke="black" cx="401" cy="-61.37" rx="20.83" ry="20.83"/>
<text text-anchor="start" x="392.44" y="-58.17" font-family="Times,serif" font-size="14.00">X</text>
<text text-anchor="start" x="402.56" y="-58.17" font-family="Times,serif" baseline-shift="sub" font-size="14.00">2</text>
</g>
<!-- b_x1&#45;&gt;b_x2 -->
<g id="edge11" class="edge">
<title>b_x1&#45;&gt;b_x2</title>
<path fill="none" stroke="black" d="M362.09,-61.37C364.71,-61.37 367.32,-61.37 369.94,-61.37"/>
<polygon fill="black" stroke="black" points="370.03,-64.87 380.03,-61.37 370.03,-57.87 370.03,-64.87"/>
</g>
<!-- b_x3 -->
<g id="node9" class="node">
<title>b_x3</title>
<ellipse fill="none" stroke="black" cx="461" cy="-61.37" rx="20.83" ry="20.83"/>
<text text-anchor="start" x="452.44" y="-58.17" font-family="Times,serif" font-size="14.00">X</text>
<text text-anchor="start" x="462.56" y="-58.17" font-family="Times,serif" baseline-shift="sub" font-size="14.00">3</text>
</g>
<!-- b_xh -->
<g id="node10" class="node">
<title>b_xh</title>
<ellipse fill="none" stroke="transparent" cx="518" cy="-61.37" rx="18" ry="18"/>
<text text-anchor="middle" x="518" y="-57.17" font-family="Times,serif" font-size="14.00">...</text>
</g>
<!-- b_xn -->
<g id="node11" class="node">
<title>b_xn</title>
<ellipse fill="none" stroke="black" cx="577" cy="-61.37" rx="23.24" ry="23.24"/>
<text text-anchor="start" x="566.5" y="-58.17" font-family="Times,serif" font-size="14.00">X</text>
<text text-anchor="start" x="576.61" y="-58.17" font-family="Times,serif" baseline-shift="sub" font-size="14.00">m</text>
</g>
<!-- b_y -->
<g id="node12" class="node">
<title>b_y</title>
<ellipse fill="none" stroke="black" cx="461" cy="-138.74" rx="18" ry="18"/>
<text text-anchor="middle" x="461" y="-134.54" font-family="Times,serif" font-size="14.00">Y</text>
</g>
<!-- b_y&#45;&gt;b_x1 -->
<g id="edge7" class="edge">
<title>b_y&#45;&gt;b_x1</title>
<path fill="none" stroke="black" d="M445.4,-129.24C427.2,-119.16 396.37,-101.6 371,-84.74 369.15,-83.52 367.27,-82.22 365.38,-80.89"/>
<polygon fill="black" stroke="black" points="367.42,-78.05 357.27,-75.01 363.31,-83.71 367.42,-78.05"/>
</g>
<!-- b_y&#45;&gt;b_x2 -->
<g id="edge8" class="edge">
<title>b_y&#45;&gt;b_x2</title>
<path fill="none" stroke="black" d="M450.27,-124.27C441.87,-113.71 429.96,-98.75 419.96,-86.19"/>
<polygon fill="black" stroke="black" points="422.68,-83.99 413.72,-78.34 417.21,-88.35 422.68,-83.99"/>
</g>
<!-- b_y&#45;&gt;b_x3 -->
<g id="edge9" class="edge">
<title>b_y&#45;&gt;b_x3</title>
<path fill="none" stroke="black" d="M461,-120.64C461,-112.28 461,-101.98 461,-92.37"/>
<polygon fill="black" stroke="black" points="464.5,-92.34 461,-82.34 457.5,-92.34 464.5,-92.34"/>
</g>
<!-- b_y&#45;&gt;b_xh -->
<g id="edge6" class="edge">
<title>b_y&#45;&gt;b_xh</title>
</g>
<!-- b_y&#45;&gt;b_xn -->
<g id="edge10" class="edge">
<title>b_y&#45;&gt;b_xn</title>
<path fill="none" stroke="black" d="M476.01,-128.57C492.92,-118.17 521.16,-100.59 545,-84.74 546.47,-83.76 547.98,-82.75 549.5,-81.72"/>
<polygon fill="black" stroke="black" points="551.9,-84.32 558.15,-75.77 547.93,-78.55 551.9,-84.32"/>
</g>
<!-- c_x -->
<g id="node13" class="node">
<title>c_x</title>
<ellipse fill="none" stroke="black" cx="642" cy="-61.37" rx="18" ry="18"/>
<text text-anchor="middle" x="642" y="-57.17" font-family="Times,serif" font-size="14.00">X</text>
</g>
<!-- c_y -->
<g id="node14" class="node">
<title>c_y</title>
<ellipse fill="none" stroke="black" cx="642" cy="-138.74" rx="18" ry="18"/>
<text text-anchor="middle" x="642" y="-134.54" font-family="Times,serif" font-size="14.00">Y</text>
</g>
<!-- c_y&#45;&gt;c_x -->
<g id="edge12" class="edge">
<title>c_y&#45;&gt;c_x</title>
<path fill="none" stroke="black" d="M642,-120.64C642,-111.49 642,-99.99 642,-89.64"/>
<polygon fill="black" stroke="black" points="645.5,-89.41 642,-79.41 638.5,-89.41 645.5,-89.41"/>
</g>
</g>
</svg>
