<?xml version="1.0" encoding="UTF-8" standalone="no"?>
<!DOCTYPE svg PUBLIC "-//W3C//DTD SVG 1.1//EN"
 "http://www.w3.org/Graphics/SVG/1.1/DTD/svg11.dtd">
<!-- Generated by graphviz version 7.1.0 (20230121.1956)
 -->
<!-- Title: 编解码 Pages: 1 -->
<svg width="432pt" height="80pt"
 viewBox="0.00 0.00 432.00 80.00" xmlns="http://www.w3.org/2000/svg" xmlns:xlink="http://www.w3.org/1999/xlink">
<g id="graph0" class="graph" transform="scale(1 1) rotate(0) translate(4 76)">
<title>编解码</title>
<polygon fill="white" stroke="none" points="-4,4 -4,-76 428,-76 428,4 -4,4"/>
<!-- input -->
<g id="node1" class="node">
<title>input</title>
<text text-anchor="middle" x="27" y="-32.3" font-family="Times,serif" font-size="14.00">input</text>
</g>
<!-- encoder -->
<g id="node4" class="node">
<title>encoder</title>
<polygon fill="#d6eaf8" stroke="black" points="149,-54 90,-54 90,-18 149,-18 149,-54"/>
<text text-anchor="middle" x="119.5" y="-32.3" font-family="Times,serif" font-size="14.00">encoder</text>
</g>
<!-- input&#45;&gt;encoder -->
<g id="edge1" class="edge">
<title>input&#45;&gt;encoder</title>
<path fill="none" stroke="black" d="M53.69,-36C61.29,-36 69.81,-36 78.1,-36"/>
<polygon fill="black" stroke="black" points="78.04,-39.5 88.04,-36 78.04,-32.5 78.04,-39.5"/>
</g>
<!-- output -->
<g id="node2" class="node">
<title>output</title>
<text text-anchor="middle" x="397" y="-32.3" font-family="Times,serif" font-size="14.00">output</text>
</g>
<!-- code -->
<g id="node3" class="node">
<title>code</title>
<polygon fill="#fef9e7" stroke="black" points="239,-72 185,-72 185,0 239,0 239,-72"/>
<text text-anchor="middle" x="212" y="-32.3" font-family="Times,serif" font-size="14.00">code</text>
</g>
<!-- decoder -->
<g id="node5" class="node">
<title>decoder</title>
<polygon fill="#d5f5e3" stroke="black" points="334,-54 275,-54 275,-18 334,-18 334,-54"/>
<text text-anchor="middle" x="304.5" y="-32.3" font-family="Times,serif" font-size="14.00">decoder</text>
</g>
<!-- code&#45;&gt;decoder -->
<g id="edge3" class="edge">
<title>code&#45;&gt;decoder</title>
<path fill="none" stroke="black" d="M239.18,-36C246.7,-36 255.08,-36 263.24,-36"/>
<polygon fill="black" stroke="black" points="263.01,-39.5 273.01,-36 263.01,-32.5 263.01,-39.5"/>
</g>
<!-- encoder&#45;&gt;code -->
<g id="edge2" class="edge">
<title>encoder&#45;&gt;code</title>
<path fill="none" stroke="black" d="M149.38,-36C156.96,-36 165.24,-36 173.21,-36"/>
<polygon fill="black" stroke="black" points="173.02,-39.5 183.02,-36 173.02,-32.5 173.02,-39.5"/>
</g>
<!-- decoder&#45;&gt;output -->
<g id="edge4" class="edge">
<title>decoder&#45;&gt;output</title>
<path fill="none" stroke="black" d="M334.38,-36C342.1,-36 350.55,-36 358.65,-36"/>
<polygon fill="black" stroke="black" points="358.63,-39.5 368.63,-36 358.63,-32.5 358.63,-39.5"/>
</g>
</g>
</svg>
