<?xml version="1.0" encoding="UTF-8" standalone="no"?>
<!DOCTYPE svg PUBLIC "-//W3C//DTD SVG 1.1//EN"
 "http://www.w3.org/Graphics/SVG/1.1/DTD/svg11.dtd">
<!-- Generated by graphviz version 2.43.0 (0)
 -->
<!-- Title: FFNN Pages: 1 -->
<svg width="218pt" height="327pt"
 viewBox="0.00 0.00 218.43 327.20" xmlns="http://www.w3.org/2000/svg" xmlns:xlink="http://www.w3.org/1999/xlink">
<g id="graph0" class="graph" transform="scale(1 1) rotate(0) translate(4 323.2)">
<title>FFNN</title>
<polygon fill="white" stroke="transparent" points="-4,4 -4,-323.2 214.43,-323.2 214.43,4 -4,4"/>
<text text-anchor="middle" x="105.21" y="-36" font-family="Times,serif" font-size="20.00">FFNN</text>
<text text-anchor="middle" x="105.21" y="-16" font-family="Times,serif" font-size="20.00">前馈网络</text>
<!-- inputs -->
<g id="node1" class="node">
<title>inputs</title>
<polygon fill="#808080" fill-opacity="0.094118" stroke="black" points="132.21,-319.2 78.21,-319.2 78.21,-283.2 132.21,-283.2 132.21,-319.2"/>
<text text-anchor="middle" x="105.21" y="-297" font-family="Times,serif" font-size="14.00">Inputs</text>
</g>
<!-- layer1 -->
<g id="node2" class="node">
<title>layer1</title>
<polygon fill="#808080" fill-opacity="0.094118" stroke="black" points="210.64,-247 -0.21,-247 -0.21,-205.8 210.64,-205.8 210.64,-247"/>
<text text-anchor="middle" x="105.21" y="-232" font-family="Times,serif" font-size="14.00">DenseWithSparseWeights</text>
<text text-anchor="middle" x="105.21" y="-218" font-family="Times,serif" font-size="14.00">(所有token的特征共享本层权重)</text>
</g>
<!-- inputs&#45;&gt;layer1 -->
<g id="edge1" class="edge">
<title>inputs&#45;&gt;layer1</title>
<path fill="none" stroke="black" d="M105.21,-282.95C105.21,-275.29 105.21,-266.06 105.21,-257.34"/>
<polygon fill="black" stroke="black" points="108.71,-257.1 105.21,-247.1 101.71,-257.1 108.71,-257.1"/>
</g>
<!-- layer2 -->
<g id="node3" class="node">
<title>layer2</title>
<polygon fill="#808080" fill-opacity="0.094118" stroke="black" points="210.64,-169.4 -0.21,-169.4 -0.21,-128.2 210.64,-128.2 210.64,-169.4"/>
<text text-anchor="middle" x="105.21" y="-154.4" font-family="Times,serif" font-size="14.00">DenseWithSparseWeights</text>
<text text-anchor="middle" x="105.21" y="-140.4" font-family="Times,serif" font-size="14.00">(所有token的特征共享本层权重)</text>
</g>
<!-- layer1&#45;&gt;layer2 -->
<g id="edge2" class="edge">
<title>layer1&#45;&gt;layer2</title>
<path fill="none" stroke="black" d="M105.21,-205.54C105.21,-197.64 105.21,-188.38 105.21,-179.7"/>
<polygon fill="black" stroke="black" points="108.71,-179.53 105.21,-169.53 101.71,-179.53 108.71,-179.53"/>
</g>
<!-- layer3 -->
<g id="node4" class="node">
<title>layer3</title>
<polygon fill="#808080" fill-opacity="0.094118" stroke="black" points="136.38,-92 74.05,-92 74.05,-56 136.38,-56 136.38,-92"/>
<text text-anchor="middle" x="105.21" y="-69.8" font-family="Times,serif" font-size="14.00">Dropout</text>
</g>
<!-- layer2&#45;&gt;layer3 -->
<g id="edge3" class="edge">
<title>layer2&#45;&gt;layer3</title>
<path fill="none" stroke="black" d="M105.21,-127.91C105.21,-120.09 105.21,-110.99 105.21,-102.56"/>
<polygon fill="black" stroke="black" points="108.71,-102.39 105.21,-92.39 101.71,-102.39 108.71,-102.39"/>
</g>
</g>
</svg>
