<?xml version="1.0" encoding="UTF-8" standalone="no"?>
<!DOCTYPE svg PUBLIC "-//W3C//DTD SVG 1.1//EN"
 "http://www.w3.org/Graphics/SVG/1.1/DTD/svg11.dtd">
<!-- Generated by graphviz version 9.0.0 (20230911.1827)
 -->
<!-- Title: 树结构 Pages: 1 -->
<svg width="358pt" height="245pt"
 viewBox="0.00 0.00 358.00 244.50" xmlns="http://www.w3.org/2000/svg" xmlns:xlink="http://www.w3.org/1999/xlink">
<g id="graph0" class="graph" transform="scale(1 1) rotate(0) translate(4 240.5)">
<title>树结构</title>
<polygon fill="white" stroke="none" points="-4,4 -4,-240.5 354,-240.5 354,4 -4,4"/>
<g id="clust1" class="cluster">
<title>cluster_a</title>
<polygon fill="none" stroke="none" points="8,-8 8,-228.5 114,-228.5 114,-8 8,-8"/>
<text text-anchor="middle" x="61" y="-15.2" font-family="Times,serif" font-size="14.00">(a)</text>
</g>
<g id="clust4" class="cluster">
<title>cluster_b</title>
<polygon fill="none" stroke="none" points="122,-8 122,-228.5 228,-228.5 228,-8 122,-8"/>
<text text-anchor="middle" x="175" y="-15.2" font-family="Times,serif" font-size="14.00">(b)</text>
</g>
<g id="clust7" class="cluster">
<title>cluster_c</title>
<polygon fill="none" stroke="none" points="236,-8 236,-228.5 342,-228.5 342,-8 236,-8"/>
<text text-anchor="middle" x="289" y="-15.2" font-family="Times,serif" font-size="14.00">(c)</text>
</g>
<!-- a -->
<g id="node1" class="node">
<title>a</title>
<ellipse fill="none" stroke="black" cx="61" cy="-202.5" rx="18" ry="18"/>
</g>
<!-- b -->
<g id="node2" class="node">
<title>b</title>
<ellipse fill="none" stroke="black" cx="34" cy="-130.5" rx="18" ry="18"/>
</g>
<!-- a&#45;&gt;b -->
<g id="edge1" class="edge">
<title>a&#45;&gt;b</title>
<path fill="none" stroke="black" d="M54.74,-185.26C50.38,-173.96 44.58,-158.94 40.23,-147.65"/>
</g>
<!-- c -->
<g id="node3" class="node">
<title>c</title>
<ellipse fill="none" stroke="black" cx="88" cy="-130.5" rx="18" ry="18"/>
</g>
<!-- a&#45;&gt;c -->
<g id="edge2" class="edge">
<title>a&#45;&gt;c</title>
<path fill="none" stroke="black" d="M67.26,-185.26C71.62,-173.96 77.42,-158.94 81.77,-147.65"/>
</g>
<!-- d -->
<g id="node4" class="node">
<title>d</title>
<ellipse fill="none" stroke="black" cx="34" cy="-58.5" rx="18" ry="18"/>
</g>
<!-- c&#45;&gt;d -->
<g id="edge3" class="edge">
<title>c&#45;&gt;d</title>
<path fill="none" stroke="black" d="M77.33,-115.67C67.86,-103.4 54.11,-85.56 44.65,-73.3"/>
</g>
<!-- f -->
<g id="node5" class="node">
<title>f</title>
<ellipse fill="none" stroke="black" cx="88" cy="-58.5" rx="18" ry="18"/>
</g>
<!-- c&#45;&gt;f -->
<g id="edge4" class="edge">
<title>c&#45;&gt;f</title>
<path fill="none" stroke="black" d="M88,-112.2C88,-101.35 88,-87.42 88,-76.6"/>
</g>
<!-- a2 -->
<g id="node6" class="node">
<title>a2</title>
<ellipse fill="none" stroke="black" cx="175" cy="-202.5" rx="18" ry="18"/>
</g>
<!-- b2 -->
<g id="node7" class="node">
<title>b2</title>
<ellipse fill="none" stroke="black" cx="148" cy="-130.5" rx="18" ry="18"/>
</g>
<!-- a2&#45;&gt;b2 -->
<g id="edge5" class="edge">
<title>a2&#45;&gt;b2</title>
<path fill="none" stroke="black" d="M168.74,-185.26C165.64,-177.22 161.81,-167.31 158.3,-158.19"/>
<polygon fill="black" stroke="black" points="161.64,-157.13 154.77,-149.06 155.11,-159.65 161.64,-157.13"/>
</g>
<!-- c2 -->
<g id="node8" class="node">
<title>c2</title>
<ellipse fill="none" stroke="black" cx="202" cy="-130.5" rx="18" ry="18"/>
</g>
<!-- a2&#45;&gt;c2 -->
<g id="edge6" class="edge">
<title>a2&#45;&gt;c2</title>
<path fill="none" stroke="black" d="M181.26,-185.26C184.36,-177.22 188.19,-167.31 191.7,-158.19"/>
<polygon fill="black" stroke="black" points="194.89,-159.65 195.23,-149.06 188.36,-157.13 194.89,-159.65"/>
</g>
<!-- d2 -->
<g id="node9" class="node">
<title>d2</title>
<ellipse fill="none" stroke="black" cx="148" cy="-58.5" rx="18" ry="18"/>
</g>
<!-- c2&#45;&gt;d2 -->
<g id="edge7" class="edge">
<title>c2&#45;&gt;d2</title>
<path fill="none" stroke="black" d="M191.33,-115.67C184.01,-106.18 174.12,-93.36 165.64,-82.36"/>
<polygon fill="black" stroke="black" points="168.45,-80.28 159.57,-74.5 162.91,-84.56 168.45,-80.28"/>
</g>
<!-- f2 -->
<g id="node10" class="node">
<title>f2</title>
<ellipse fill="none" stroke="black" cx="202" cy="-58.5" rx="18" ry="18"/>
</g>
<!-- c2&#45;&gt;f2 -->
<g id="edge8" class="edge">
<title>c2&#45;&gt;f2</title>
<path fill="none" stroke="black" d="M202,-112.2C202,-104.91 202,-96.23 202,-88.04"/>
<polygon fill="black" stroke="black" points="205.5,-88.12 202,-78.12 198.5,-88.12 205.5,-88.12"/>
</g>
<!-- a3 -->
<g id="node11" class="node">
<title>a3</title>
<ellipse fill="none" stroke="black" cx="316" cy="-202.5" rx="18" ry="18"/>
</g>
<!-- c3 -->
<g id="node13" class="node">
<title>c3</title>
<ellipse fill="none" stroke="black" cx="316" cy="-130.5" rx="18" ry="18"/>
</g>
<!-- a3&#45;&gt;c3 -->
<g id="edge9" class="edge">
<title>a3&#45;&gt;c3</title>
<path fill="none" stroke="black" d="M316,-184.2C316,-176.91 316,-168.23 316,-160.04"/>
<polygon fill="black" stroke="black" points="319.5,-160.12 316,-150.12 312.5,-160.12 319.5,-160.12"/>
</g>
<!-- b3 -->
<g id="node12" class="node">
<title>b3</title>
<ellipse fill="none" stroke="black" cx="262" cy="-202.5" rx="18" ry="18"/>
</g>
<!-- b3&#45;&gt;c3 -->
<g id="edge10" class="edge">
<title>b3&#45;&gt;c3</title>
<path fill="none" stroke="black" d="M272.67,-187.67C279.99,-178.18 289.88,-165.36 298.36,-154.36"/>
<polygon fill="black" stroke="black" points="301.09,-156.56 304.43,-146.5 295.55,-152.28 301.09,-156.56"/>
</g>
<!-- f3 -->
<g id="node15" class="node">
<title>f3</title>
<ellipse fill="none" stroke="black" cx="289" cy="-58.5" rx="18" ry="18"/>
</g>
<!-- c3&#45;&gt;f3 -->
<g id="edge11" class="edge">
<title>c3&#45;&gt;f3</title>
<path fill="none" stroke="black" d="M309.74,-113.26C306.64,-105.22 302.81,-95.31 299.3,-86.19"/>
<polygon fill="black" stroke="black" points="302.64,-85.13 295.77,-77.06 296.11,-87.65 302.64,-85.13"/>
</g>
<!-- d3 -->
<g id="node14" class="node">
<title>d3</title>
<ellipse fill="none" stroke="black" cx="262" cy="-130.5" rx="18" ry="18"/>
</g>
<!-- d3&#45;&gt;f3 -->
<g id="edge12" class="edge">
<title>d3&#45;&gt;f3</title>
<path fill="none" stroke="black" d="M268.26,-113.26C271.36,-105.22 275.19,-95.31 278.7,-86.19"/>
<polygon fill="black" stroke="black" points="281.89,-87.65 282.23,-77.06 275.36,-85.13 281.89,-87.65"/>
</g>
</g>
</svg>
