<?xml version="1.0" encoding="UTF-8" standalone="no"?>
<!DOCTYPE svg PUBLIC "-//W3C//DTD SVG 1.1//EN"
 "http://www.w3.org/Graphics/SVG/1.1/DTD/svg11.dtd">
<!-- Generated by graphviz version 9.0.0 (20230911.1827)
 -->
<!-- Title: VAE有向图 Pages: 1 -->
<svg width="154pt" height="50pt"
 viewBox="0.00 0.00 153.50 49.77" xmlns="http://www.w3.org/2000/svg" xmlns:xlink="http://www.w3.org/1999/xlink">
<g id="graph0" class="graph" transform="scale(1 1) rotate(0) translate(4 45.77)">
<title>VAE有向图</title>
<polygon fill="white" stroke="none" points="-4,4 -4,-45.77 149.5,-45.77 149.5,4 -4,4"/>
<!-- X -->
<g id="node1" class="node">
<title>X</title>
<ellipse fill="lightgrey" stroke="black" cx="18" cy="-23.77" rx="18" ry="18"/>
<text text-anchor="middle" x="18" y="-18.72" font-family="Times,serif" font-size="14.00">X</text>
</g>
<!-- Z -->
<g id="node2" class="node">
<title>Z</title>
<ellipse fill="none" stroke="black" cx="127.5" cy="-23.77" rx="18" ry="18"/>
<text text-anchor="middle" x="127.5" y="-18.72" font-family="Times,serif" font-size="14.00">Z</text>
</g>
<!-- X&#45;&gt;Z -->
<g id="edge1" class="edge">
<title>X&#45;&gt;Z</title>
<path fill="none" stroke="black" d="M36.27,-23.77C52.88,-23.77 78.3,-23.77 97.93,-23.77"/>
<polygon fill="black" stroke="black" points="97.76,-27.27 107.76,-23.77 97.76,-20.27 97.76,-27.27"/>
<text text-anchor="middle" x="72.75" y="-26.97" font-family="Times,serif" font-size="14.00">P(Z|X)</text>
</g>
<!-- Z&#45;&gt;X -->
<g id="edge2" class="edge">
<title>Z&#45;&gt;X</title>
<path fill="none" stroke="black" d="M112.63,-13.35C106.49,-9.37 98.98,-5.3 91.5,-3.27 75.41,1.09 70.09,1.09 54,-3.27 50.15,-4.32 46.28,-5.91 42.6,-7.75"/>
<polygon fill="black" stroke="black" points="41.1,-4.57 34.18,-12.6 44.6,-10.64 41.1,-4.57"/>
<text text-anchor="middle" x="72.75" y="-5.97" font-family="Times,serif" font-size="14.00">P(X|Z)</text>
</g>
</g>
</svg>
