<?xml version="1.0" encoding="UTF-8" standalone="no"?>
<!DOCTYPE svg PUBLIC "-//W3C//DTD SVG 1.1//EN"
 "http://www.w3.org/Graphics/SVG/1.1/DTD/svg11.dtd">
<!-- Generated by graphviz version 7.1.0 (20230121.1956)
 -->
<!-- Title: fg_elimination_010 Pages: 1 -->
<svg width="288pt" height="149pt"
 viewBox="0.00 0.00 287.58 148.90" xmlns="http://www.w3.org/2000/svg" xmlns:xlink="http://www.w3.org/1999/xlink">
<g id="graph0" class="graph" transform="scale(1 1) rotate(0) translate(4 144.9)">
<title>fg_elimination_010</title>
<polygon fill="white" stroke="none" points="-4,4 -4,-144.9 283.58,-144.9 283.58,4 -4,4"/>
<!-- X1 -->
<g id="node1" class="node">
<title>X1</title>
<ellipse fill="none" stroke="black" cx="21.45" cy="-51.45" rx="21.4" ry="21.4"/>
<text text-anchor="start" x="12.95" y="-48.75" font-family="Times,serif" font-size="14.00">X</text>
<text text-anchor="start" x="22.95" y="-48.75" font-family="Times,serif" baseline-shift="sub" font-size="14.00">1</text>
</g>
<!-- X2 -->
<g id="node2" class="node">
<title>X2</title>
<ellipse fill="dimgrey" stroke="black" cx="100.34" cy="-82.45" rx="21.4" ry="21.4"/>
<text text-anchor="start" x="91.84" y="-79.75" font-family="Times,serif" font-size="14.00">X</text>
<text text-anchor="start" x="101.84" y="-79.75" font-family="Times,serif" baseline-shift="sub" font-size="14.00">2</text>
</g>
<!-- X1&#45;&gt;X2 -->
<g id="edge1" class="edge">
<title>X1&#45;&gt;X2</title>
<path fill="none" stroke="black" d="M41.85,-59.27C50.23,-62.65 60.22,-66.68 69.51,-70.42"/>
<polygon fill="black" stroke="black" points="67.96,-73.57 78.54,-74.06 70.58,-67.08 67.96,-73.57"/>
</g>
<!-- X3 -->
<g id="node3" class="node">
<title>X3</title>
<ellipse fill="dimgrey" stroke="black" cx="100.34" cy="-21.45" rx="21.4" ry="21.4"/>
<text text-anchor="start" x="91.84" y="-18.75" font-family="Times,serif" font-size="14.00">X</text>
<text text-anchor="start" x="101.84" y="-18.75" font-family="Times,serif" baseline-shift="sub" font-size="14.00">3</text>
</g>
<!-- X1&#45;&gt;X3 -->
<g id="edge2" class="edge">
<title>X1&#45;&gt;X3</title>
<path fill="none" stroke="black" d="M41.85,-43.88C50.23,-40.61 60.22,-36.71 69.51,-33.09"/>
<polygon fill="black" stroke="black" points="70.49,-36.46 78.54,-29.57 67.95,-29.94 70.49,-36.46"/>
</g>
<!-- X4 -->
<g id="node4" class="node">
<title>X4</title>
<ellipse fill="dimgrey" stroke="black" cx="179.24" cy="-119.45" rx="21.4" ry="21.4"/>
<text text-anchor="start" x="170.74" y="-116.75" font-family="Times,serif" font-size="14.00">X</text>
<text text-anchor="start" x="180.74" y="-116.75" font-family="Times,serif" baseline-shift="sub" font-size="14.00">4</text>
</g>
<!-- X2&#45;&gt;X4 -->
<g id="edge3" class="edge">
<title>X2&#45;&gt;X4</title>
<path fill="none" stroke="black" d="M119.96,-91.4C128.77,-95.65 139.5,-100.81 149.34,-105.54"/>
<polygon fill="black" stroke="black" points="147.64,-108.61 158.17,-109.79 150.67,-102.3 147.64,-108.61"/>
</g>
<!-- X6 -->
<g id="node6" class="node">
<title>X6</title>
<ellipse fill="lightgrey" stroke="black" cx="258.14" cy="-45.45" rx="21.4" ry="21.4"/>
<text text-anchor="start" x="249.64" y="-42.75" font-family="Times,serif" font-size="14.00">X</text>
<text text-anchor="start" x="259.64" y="-42.75" font-family="Times,serif" baseline-shift="sub" font-size="14.00">6</text>
</g>
<!-- X2&#45;&gt;X6 -->
<g id="edge4" class="edge">
<title>X2&#45;&gt;X6</title>
<path fill="none" stroke="black" d="M121.39,-77.69C147.92,-71.39 194.95,-60.22 226.08,-52.82"/>
<polygon fill="black" stroke="black" points="226.77,-56.26 235.69,-50.54 225.15,-49.45 226.77,-56.26"/>
</g>
<!-- X5 -->
<g id="node5" class="node">
<title>X5</title>
<ellipse fill="dimgrey" stroke="black" cx="179.24" cy="-21.45" rx="21.4" ry="21.4"/>
<text text-anchor="start" x="170.74" y="-18.75" font-family="Times,serif" font-size="14.00">X</text>
<text text-anchor="start" x="180.74" y="-18.75" font-family="Times,serif" baseline-shift="sub" font-size="14.00">5</text>
</g>
<!-- X3&#45;&gt;X5 -->
<g id="edge5" class="edge">
<title>X3&#45;&gt;X5</title>
<path fill="none" stroke="black" d="M121.95,-21.45C129.36,-21.45 137.91,-21.45 146.07,-21.45"/>
<polygon fill="black" stroke="black" points="146.06,-24.95 156.06,-21.45 146.06,-17.95 146.06,-24.95"/>
</g>
<!-- X5&#45;&gt;X6 -->
<g id="edge6" class="edge">
<title>X5&#45;&gt;X6</title>
<path fill="none" stroke="black" d="M200.04,-27.63C208.12,-30.15 217.64,-33.12 226.56,-35.91"/>
<polygon fill="black" stroke="black" points="225.37,-39.2 235.96,-38.84 227.45,-32.52 225.37,-39.2"/>
</g>
</g>
</svg>
