<?xml version="1.0" encoding="UTF-8" standalone="no"?>
<!DOCTYPE svg PUBLIC "-//W3C//DTD SVG 1.1//EN"
 "http://www.w3.org/Graphics/SVG/1.1/DTD/svg11.dtd">
<!-- Generated by graphviz version 2.43.0 (0)
 -->
<!-- Title: a1_2 Pages: 1 -->
<svg width="242pt" height="206pt"
 viewBox="0.00 0.00 242.00 206.00" xmlns="http://www.w3.org/2000/svg" xmlns:xlink="http://www.w3.org/1999/xlink">
<g id="graph0" class="graph" transform="scale(1 1) rotate(0) translate(4 202)">
<title>a1_2</title>
<polygon fill="white" stroke="transparent" points="-4,4 -4,-202 238,-202 238,4 -4,4"/>
<!-- a -->
<g id="node1" class="node">
<title>a</title>
<ellipse fill="none" stroke="black" cx="27" cy="-72" rx="27" ry="18"/>
<text text-anchor="middle" x="27" y="-67.8" font-family="Times,serif" font-size="14.00">a</text>
</g>
<!-- b -->
<g id="node2" class="node">
<title>b</title>
<ellipse fill="none" stroke="black" cx="117" cy="-126" rx="27" ry="18"/>
<text text-anchor="middle" x="117" y="-121.8" font-family="Times,serif" font-size="14.00">b</text>
</g>
<!-- a&#45;&gt;b -->
<g id="edge1" class="edge">
<title>a&#45;&gt;b</title>
<path fill="none" stroke="black" d="M47.53,-83.98C59.38,-91.26 74.7,-100.66 87.84,-108.72"/>
<polygon fill="black" stroke="black" points="86.17,-111.8 96.52,-114.05 89.83,-105.84 86.17,-111.8"/>
</g>
<!-- c -->
<g id="node3" class="node">
<title>c</title>
<ellipse fill="none" stroke="black" cx="117" cy="-72" rx="27" ry="18"/>
<text text-anchor="middle" x="117" y="-67.8" font-family="Times,serif" font-size="14.00">c</text>
</g>
<!-- a&#45;&gt;c -->
<g id="edge2" class="edge">
<title>a&#45;&gt;c</title>
<path fill="none" stroke="black" d="M54.4,-72C62.39,-72 71.31,-72 79.82,-72"/>
<polygon fill="black" stroke="black" points="79.92,-75.5 89.92,-72 79.92,-68.5 79.92,-75.5"/>
</g>
<!-- d -->
<g id="node4" class="node">
<title>d</title>
<ellipse fill="none" stroke="black" cx="117" cy="-18" rx="27" ry="18"/>
<text text-anchor="middle" x="117" y="-13.8" font-family="Times,serif" font-size="14.00">d</text>
</g>
<!-- a&#45;&gt;d -->
<g id="edge3" class="edge">
<title>a&#45;&gt;d</title>
<path fill="none" stroke="black" d="M47.53,-60.02C59.38,-52.74 74.7,-43.34 87.84,-35.28"/>
<polygon fill="black" stroke="black" points="89.83,-38.16 96.52,-29.95 86.17,-32.2 89.83,-38.16"/>
</g>
<!-- e -->
<g id="node5" class="node">
<title>e</title>
<ellipse fill="none" stroke="black" cx="207" cy="-180" rx="27" ry="18"/>
<text text-anchor="middle" x="207" y="-175.8" font-family="Times,serif" font-size="14.00">e</text>
</g>
<!-- b&#45;&gt;e -->
<g id="edge4" class="edge">
<title>b&#45;&gt;e</title>
<path fill="none" stroke="black" d="M137.53,-137.98C149.38,-145.26 164.7,-154.66 177.84,-162.72"/>
<polygon fill="black" stroke="black" points="176.17,-165.8 186.52,-168.05 179.83,-159.84 176.17,-165.8"/>
</g>
<!-- f -->
<g id="node6" class="node">
<title>f</title>
<ellipse fill="none" stroke="black" cx="207" cy="-126" rx="27" ry="18"/>
<text text-anchor="middle" x="207" y="-121.8" font-family="Times,serif" font-size="14.00">f</text>
</g>
<!-- b&#45;&gt;f -->
<g id="edge5" class="edge">
<title>b&#45;&gt;f</title>
<path fill="none" stroke="black" d="M144.4,-126C152.39,-126 161.31,-126 169.82,-126"/>
<polygon fill="black" stroke="black" points="169.92,-129.5 179.92,-126 169.92,-122.5 169.92,-129.5"/>
</g>
<!-- g -->
<g id="node7" class="node">
<title>g</title>
<ellipse fill="none" stroke="black" cx="207" cy="-72" rx="27" ry="18"/>
<text text-anchor="middle" x="207" y="-67.8" font-family="Times,serif" font-size="14.00">g</text>
</g>
<!-- b&#45;&gt;g -->
<g id="edge6" class="edge">
<title>b&#45;&gt;g</title>
<path fill="none" stroke="black" d="M137.53,-114.02C149.38,-106.74 164.7,-97.34 177.84,-89.28"/>
<polygon fill="black" stroke="black" points="179.83,-92.16 186.52,-83.95 176.17,-86.2 179.83,-92.16"/>
</g>
</g>
</svg>
