<?xml version="1.0" encoding="UTF-8" standalone="no"?>
<!DOCTYPE svg PUBLIC "-//W3C//DTD SVG 1.1//EN"
 "http://www.w3.org/Graphics/SVG/1.1/DTD/svg11.dtd">
<!-- Generated by graphviz version 2.43.0 (0)
 -->
<!-- Title: DIET Pages: 1 -->
<svg width="1067pt" height="956pt"
 viewBox="0.00 0.00 1067.00 955.71" xmlns="http://www.w3.org/2000/svg" xmlns:xlink="http://www.w3.org/1999/xlink">
<g id="graph0" class="graph" transform="scale(1 1) rotate(0) translate(4 951.71)">
<title>DIET</title>
<polygon fill="white" stroke="transparent" points="-4,4 -4,-951.71 1063,-951.71 1063,4 -4,4"/>
<g id="clust1" class="cluster">
<title>cluster_play</title>
<path fill="#808080" fill-opacity="0.094118" stroke="black" d="M20,-859.71C20,-859.71 150,-859.71 150,-859.71 156,-859.71 162,-865.71 162,-871.71 162,-871.71 162,-927.71 162,-927.71 162,-933.71 156,-939.71 150,-939.71 150,-939.71 20,-939.71 20,-939.71 14,-939.71 8,-933.71 8,-927.71 8,-927.71 8,-871.71 8,-871.71 8,-865.71 14,-859.71 20,-859.71"/>
<text text-anchor="middle" x="85" y="-919.71" font-family="Times,serif" font-size="20.00">play</text>
</g>
<g id="clust2" class="cluster">
<title>cluster_ping</title>
<path fill="#808080" fill-opacity="0.094118" stroke="black" d="M182,-859.71C182,-859.71 312,-859.71 312,-859.71 318,-859.71 324,-865.71 324,-871.71 324,-871.71 324,-927.71 324,-927.71 324,-933.71 318,-939.71 312,-939.71 312,-939.71 182,-939.71 182,-939.71 176,-939.71 170,-933.71 170,-927.71 170,-927.71 170,-871.71 170,-871.71 170,-865.71 176,-859.71 182,-859.71"/>
<text text-anchor="middle" x="247" y="-919.71" font-family="Times,serif" font-size="20.00">ping</text>
</g>
<g id="clust3" class="cluster">
<title>cluster_pong</title>
<path fill="#808080" fill-opacity="0.094118" stroke="black" d="M344,-859.71C344,-859.71 474,-859.71 474,-859.71 480,-859.71 486,-865.71 486,-871.71 486,-871.71 486,-927.71 486,-927.71 486,-933.71 480,-939.71 474,-939.71 474,-939.71 344,-939.71 344,-939.71 338,-939.71 332,-933.71 332,-927.71 332,-927.71 332,-871.71 332,-871.71 332,-865.71 338,-859.71 344,-859.71"/>
<text text-anchor="middle" x="409" y="-919.71" font-family="Times,serif" font-size="20.00">pong</text>
</g>
<g id="clust4" class="cluster">
<title>cluster_cls</title>
<path fill="pink" stroke="black" d="M506,-859.71C506,-859.71 636,-859.71 636,-859.71 642,-859.71 648,-865.71 648,-871.71 648,-871.71 648,-927.71 648,-927.71 648,-933.71 642,-939.71 636,-939.71 636,-939.71 506,-939.71 506,-939.71 500,-939.71 494,-933.71 494,-927.71 494,-927.71 494,-871.71 494,-871.71 494,-865.71 500,-859.71 506,-859.71"/>
<text text-anchor="middle" x="571" y="-919.71" font-family="Times,serif" font-size="20.00">_CLS_[sentence]</text>
</g>
<g id="clust15" class="cluster">
<title>cluster_label</title>
<polygon fill="none" stroke="black" points="557,-364.51 557,-488.51 1051,-488.51 1051,-364.51 557,-364.51"/>
<text text-anchor="middle" x="804" y="-468.51" font-family="Times,serif" font-size="20.00">Label[Intent]</text>
</g>
<g id="clust16" class="cluster">
<title>cluster_label_token_1</title>
<path fill="pink" stroke="black" d="M901,-372.51C901,-372.51 1031,-372.51 1031,-372.51 1037,-372.51 1043,-378.51 1043,-384.51 1043,-384.51 1043,-440.51 1043,-440.51 1043,-446.51 1037,-452.51 1031,-452.51 1031,-452.51 901,-452.51 901,-452.51 895,-452.51 889,-446.51 889,-440.51 889,-440.51 889,-384.51 889,-384.51 889,-378.51 895,-372.51 901,-372.51"/>
<text text-anchor="middle" x="966" y="-432.51" font-family="Times,serif" font-size="20.00">_CLS_[sentence]</text>
</g>
<g id="clust17" class="cluster">
<title>cluster_label_token_2</title>
<path fill="pink" stroke="black" d="M739,-372.51C739,-372.51 869,-372.51 869,-372.51 875,-372.51 881,-378.51 881,-384.51 881,-384.51 881,-440.51 881,-440.51 881,-446.51 875,-452.51 869,-452.51 869,-452.51 739,-452.51 739,-452.51 733,-452.51 727,-446.51 727,-440.51 727,-440.51 727,-384.51 727,-384.51 727,-378.51 733,-372.51 739,-372.51"/>
<text text-anchor="middle" x="804" y="-432.51" font-family="Times,serif" font-size="20.00">token2</text>
</g>
<g id="clust18" class="cluster">
<title>cluster_label_token_3</title>
<path fill="pink" stroke="black" d="M577,-372.51C577,-372.51 707,-372.51 707,-372.51 713,-372.51 719,-378.51 719,-384.51 719,-384.51 719,-440.51 719,-440.51 719,-446.51 713,-452.51 707,-452.51 707,-452.51 577,-452.51 577,-452.51 571,-452.51 565,-446.51 565,-440.51 565,-440.51 565,-384.51 565,-384.51 565,-378.51 571,-372.51 577,-372.51"/>
<text text-anchor="middle" x="642" y="-432.51" font-family="Times,serif" font-size="20.00">token1</text>
</g>
<!-- play_sparse -->
<g id="node1" class="node">
<title>play_sparse</title>
<polygon fill="#ffffff" fill-opacity="0.698039" stroke="black" points="154.3,-903.71 93.7,-903.71 93.7,-867.71 154.3,-867.71 154.3,-903.71"/>
<text text-anchor="middle" x="124" y="-888.51" font-family="Times,serif" font-size="14.00" fill="#000000">Sparse</text>
<text text-anchor="middle" x="124" y="-874.51" font-family="Times,serif" font-size="14.00" fill="#000000">features</text>
</g>
<!-- combine_sparse_dense_text -->
<g id="node9" class="node">
<title>combine_sparse_dense_text</title>
<polygon fill="lightcyan" stroke="black" points="547,-831.51 187,-831.51 187,-790.31 547,-790.31 547,-831.51"/>
<text text-anchor="middle" x="367" y="-816.51" font-family="Times,serif" font-size="14.00" fill="#000000">Sparse Dense</text>
<text text-anchor="middle" x="367" y="-802.51" font-family="Times,serif" font-size="14.00" fill="#000000">拼接单元</text>
</g>
<!-- play_sparse&#45;&gt;combine_sparse_dense_text -->
<g id="edge1" class="edge">
<title>play_sparse&#45;&gt;combine_sparse_dense_text</title>
<path fill="none" stroke="black" d="M162,-861.43C163.33,-860.83 164.67,-860.25 166,-859.71 191.76,-849.27 220.34,-840.77 247.67,-833.99"/>
<polygon fill="black" stroke="black" points="248.78,-837.32 257.67,-831.57 247.13,-830.52 248.78,-837.32"/>
</g>
<!-- play_dense -->
<g id="node2" class="node">
<title>play_dense</title>
<polygon fill="#ffffff" fill-opacity="0.698039" stroke="black" points="76.3,-903.71 15.7,-903.71 15.7,-867.71 76.3,-867.71 76.3,-903.71"/>
<text text-anchor="middle" x="46" y="-888.51" font-family="Times,serif" font-size="14.00" fill="#000000">Dense</text>
<text text-anchor="middle" x="46" y="-874.51" font-family="Times,serif" font-size="14.00" fill="#000000">features</text>
</g>
<!-- ping_sparse -->
<g id="node3" class="node">
<title>ping_sparse</title>
<polygon fill="#ffffff" fill-opacity="0.698039" stroke="black" points="316.3,-903.71 255.7,-903.71 255.7,-867.71 316.3,-867.71 316.3,-903.71"/>
<text text-anchor="middle" x="286" y="-888.51" font-family="Times,serif" font-size="14.00" fill="#000000">Sparse</text>
<text text-anchor="middle" x="286" y="-874.51" font-family="Times,serif" font-size="14.00" fill="#000000">features</text>
</g>
<!-- ping_sparse&#45;&gt;combine_sparse_dense_text -->
<g id="edge2" class="edge">
<title>ping_sparse&#45;&gt;combine_sparse_dense_text</title>
<path fill="none" stroke="black" d="M313.81,-859.71C321.45,-852.85 329.76,-845.38 337.49,-838.44"/>
<polygon fill="black" stroke="black" points="339.98,-840.9 345.08,-831.61 335.3,-835.69 339.98,-840.9"/>
</g>
<!-- ping_dense -->
<g id="node4" class="node">
<title>ping_dense</title>
<polygon fill="#ffffff" fill-opacity="0.698039" stroke="black" points="238.3,-903.71 177.7,-903.71 177.7,-867.71 238.3,-867.71 238.3,-903.71"/>
<text text-anchor="middle" x="208" y="-888.51" font-family="Times,serif" font-size="14.00" fill="#000000">Dense</text>
<text text-anchor="middle" x="208" y="-874.51" font-family="Times,serif" font-size="14.00" fill="#000000">features</text>
</g>
<!-- pong_sparse -->
<g id="node5" class="node">
<title>pong_sparse</title>
<polygon fill="#ffffff" fill-opacity="0.698039" stroke="black" points="478.3,-903.71 417.7,-903.71 417.7,-867.71 478.3,-867.71 478.3,-903.71"/>
<text text-anchor="middle" x="448" y="-888.51" font-family="Times,serif" font-size="14.00" fill="#000000">Sparse</text>
<text text-anchor="middle" x="448" y="-874.51" font-family="Times,serif" font-size="14.00" fill="#000000">features</text>
</g>
<!-- pong_sparse&#45;&gt;combine_sparse_dense_text -->
<g id="edge3" class="edge">
<title>pong_sparse&#45;&gt;combine_sparse_dense_text</title>
<path fill="none" stroke="black" d="M420.19,-859.71C412.55,-852.85 404.24,-845.38 396.51,-838.44"/>
<polygon fill="black" stroke="black" points="398.7,-835.69 388.92,-831.61 394.02,-840.9 398.7,-835.69"/>
</g>
<!-- pong_dense -->
<g id="node6" class="node">
<title>pong_dense</title>
<polygon fill="#ffffff" fill-opacity="0.698039" stroke="black" points="400.3,-903.71 339.7,-903.71 339.7,-867.71 400.3,-867.71 400.3,-903.71"/>
<text text-anchor="middle" x="370" y="-888.51" font-family="Times,serif" font-size="14.00" fill="#000000">Dense</text>
<text text-anchor="middle" x="370" y="-874.51" font-family="Times,serif" font-size="14.00" fill="#000000">features</text>
</g>
<!-- cls_sparse -->
<g id="node7" class="node">
<title>cls_sparse</title>
<polygon fill="#ffffff" fill-opacity="0.698039" stroke="black" points="640.3,-903.71 579.7,-903.71 579.7,-867.71 640.3,-867.71 640.3,-903.71"/>
<text text-anchor="middle" x="610" y="-888.51" font-family="Times,serif" font-size="14.00" fill="#000000">Sparse</text>
<text text-anchor="middle" x="610" y="-874.51" font-family="Times,serif" font-size="14.00" fill="#000000">features</text>
</g>
<!-- cls_sparse&#45;&gt;combine_sparse_dense_text -->
<g id="edge4" class="edge">
<title>cls_sparse&#45;&gt;combine_sparse_dense_text</title>
<path fill="none" stroke="black" d="M571,-859.71C545.94,-849.11 518.1,-840.62 491.25,-833.92"/>
<polygon fill="black" stroke="black" points="491.95,-830.49 481.41,-831.53 490.3,-837.29 491.95,-830.49"/>
</g>
<!-- cls_dense -->
<g id="node8" class="node">
<title>cls_dense</title>
<polygon fill="#ffffff" fill-opacity="0.698039" stroke="black" points="562.3,-903.71 501.7,-903.71 501.7,-867.71 562.3,-867.71 562.3,-903.71"/>
<text text-anchor="middle" x="532" y="-888.51" font-family="Times,serif" font-size="14.00" fill="#000000">Dense</text>
<text text-anchor="middle" x="532" y="-874.51" font-family="Times,serif" font-size="14.00" fill="#000000">features</text>
</g>
<!-- tmp0_play -->
<g id="node10" class="node">
<title>tmp0_play</title>
<path fill="#808080" fill-opacity="0.094118" stroke="black" stroke-dasharray="5,2" d="M274,-754.11C274,-754.11 244,-754.11 244,-754.11 238,-754.11 232,-748.11 232,-742.11 232,-742.11 232,-730.11 232,-730.11 232,-724.11 238,-718.11 244,-718.11 244,-718.11 274,-718.11 274,-718.11 280,-718.11 286,-724.11 286,-730.11 286,-730.11 286,-742.11 286,-742.11 286,-748.11 280,-754.11 274,-754.11"/>
<text text-anchor="middle" x="259" y="-731.91" font-family="Times,serif" font-size="14.00">play</text>
</g>
<!-- combine_sparse_dense_text&#45;&gt;tmp0_play -->
<g id="edge5" class="edge">
<title>combine_sparse_dense_text&#45;&gt;tmp0_play</title>
<path fill="none" stroke="black" d="M337.77,-790.21C324.01,-780.93 307.51,-769.81 293.17,-760.15"/>
<polygon fill="black" stroke="black" points="294.82,-757.04 284.57,-754.35 290.91,-762.84 294.82,-757.04"/>
</g>
<!-- tmp0_ping -->
<g id="node11" class="node">
<title>tmp0_ping</title>
<path fill="#808080" fill-opacity="0.094118" stroke="black" stroke-dasharray="5,2" d="M346,-754.11C346,-754.11 316,-754.11 316,-754.11 310,-754.11 304,-748.11 304,-742.11 304,-742.11 304,-730.11 304,-730.11 304,-724.11 310,-718.11 316,-718.11 316,-718.11 346,-718.11 346,-718.11 352,-718.11 358,-724.11 358,-730.11 358,-730.11 358,-742.11 358,-742.11 358,-748.11 352,-754.11 346,-754.11"/>
<text text-anchor="middle" x="331" y="-731.91" font-family="Times,serif" font-size="14.00">ping</text>
</g>
<!-- combine_sparse_dense_text&#45;&gt;tmp0_ping -->
<g id="edge6" class="edge">
<title>combine_sparse_dense_text&#45;&gt;tmp0_ping</title>
<path fill="none" stroke="black" d="M357.16,-790.02C353.13,-781.86 348.4,-772.29 344.08,-763.55"/>
<polygon fill="black" stroke="black" points="347.17,-761.92 339.6,-754.5 340.9,-765.02 347.17,-761.92"/>
</g>
<!-- tmp0_pong -->
<g id="node12" class="node">
<title>tmp0_pong</title>
<path fill="#808080" fill-opacity="0.094118" stroke="black" stroke-dasharray="5,2" d="M418,-754.11C418,-754.11 388,-754.11 388,-754.11 382,-754.11 376,-748.11 376,-742.11 376,-742.11 376,-730.11 376,-730.11 376,-724.11 382,-718.11 388,-718.11 388,-718.11 418,-718.11 418,-718.11 424,-718.11 430,-724.11 430,-730.11 430,-730.11 430,-742.11 430,-742.11 430,-748.11 424,-754.11 418,-754.11"/>
<text text-anchor="middle" x="403" y="-731.91" font-family="Times,serif" font-size="14.00">pong</text>
</g>
<!-- combine_sparse_dense_text&#45;&gt;tmp0_pong -->
<g id="edge7" class="edge">
<title>combine_sparse_dense_text&#45;&gt;tmp0_pong</title>
<path fill="none" stroke="black" d="M376.84,-790.02C380.87,-781.86 385.6,-772.29 389.92,-763.55"/>
<polygon fill="black" stroke="black" points="393.1,-765.02 394.4,-754.5 386.83,-761.92 393.1,-765.02"/>
</g>
<!-- tmp0_cls -->
<g id="node13" class="node">
<title>tmp0_cls</title>
<path fill="lightpink" stroke="black" stroke-dasharray="5,2" d="M491.68,-754.11C491.68,-754.11 460.32,-754.11 460.32,-754.11 454.32,-754.11 448.32,-748.11 448.32,-742.11 448.32,-742.11 448.32,-730.11 448.32,-730.11 448.32,-724.11 454.32,-718.11 460.32,-718.11 460.32,-718.11 491.68,-718.11 491.68,-718.11 497.68,-718.11 503.68,-724.11 503.68,-730.11 503.68,-730.11 503.68,-742.11 503.68,-742.11 503.68,-748.11 497.68,-754.11 491.68,-754.11"/>
<text text-anchor="middle" x="476" y="-731.91" font-family="Times,serif" font-size="14.00">_CLS_</text>
</g>
<!-- combine_sparse_dense_text&#45;&gt;tmp0_cls -->
<g id="edge8" class="edge">
<title>combine_sparse_dense_text&#45;&gt;tmp0_cls</title>
<path fill="none" stroke="black" d="M396.5,-790.21C410.39,-780.93 427.04,-769.81 441.51,-760.15"/>
<polygon fill="black" stroke="black" points="443.82,-762.81 450.19,-754.35 439.93,-756.99 443.82,-762.81"/>
</g>
<!-- FFNN_text -->
<g id="node14" class="node">
<title>FFNN_text</title>
<polygon fill="thistle" stroke="black" points="547,-682.11 187,-682.11 187,-646.11 547,-646.11 547,-682.11"/>
<text text-anchor="middle" x="367" y="-659.91" font-family="Times,serif" font-size="14.00" fill="#000000">FFNN_Text</text>
</g>
<!-- tmp0_play&#45;&gt;FFNN_text -->
<g id="edge9" class="edge">
<title>tmp0_play&#45;&gt;FFNN_text</title>
<path fill="none" stroke="black" d="M285.42,-717.99C299.41,-708.92 316.78,-697.66 331.89,-687.87"/>
<polygon fill="black" stroke="black" points="333.99,-690.68 340.48,-682.3 330.18,-684.8 333.99,-690.68"/>
</g>
<!-- tmp0_ping&#45;&gt;FFNN_text -->
<g id="edge10" class="edge">
<title>tmp0_ping&#45;&gt;FFNN_text</title>
<path fill="none" stroke="black" d="M339.9,-717.81C344,-709.84 348.95,-700.21 353.49,-691.38"/>
<polygon fill="black" stroke="black" points="356.74,-692.71 358.2,-682.22 350.52,-689.51 356.74,-692.71"/>
</g>
<!-- tmp0_pong&#45;&gt;FFNN_text -->
<g id="edge11" class="edge">
<title>tmp0_pong&#45;&gt;FFNN_text</title>
<path fill="none" stroke="black" d="M394.1,-717.81C390,-709.84 385.05,-700.21 380.51,-691.38"/>
<polygon fill="black" stroke="black" points="383.48,-689.51 375.8,-682.22 377.26,-692.71 383.48,-689.51"/>
</g>
<!-- tmp0_cls&#45;&gt;FFNN_text -->
<g id="edge12" class="edge">
<title>tmp0_cls&#45;&gt;FFNN_text</title>
<path fill="none" stroke="black" d="M449.34,-717.99C435.22,-708.92 417.69,-697.66 402.44,-687.87"/>
<polygon fill="black" stroke="black" points="404.07,-684.76 393.77,-682.3 400.29,-690.65 404.07,-684.76"/>
</g>
<!-- tmp1_play -->
<g id="node15" class="node">
<title>tmp1_play</title>
<path fill="#808080" fill-opacity="0.094118" stroke="black" stroke-dasharray="5,2" d="M274,-610.11C274,-610.11 244,-610.11 244,-610.11 238,-610.11 232,-604.11 232,-598.11 232,-598.11 232,-586.11 232,-586.11 232,-580.11 238,-574.11 244,-574.11 244,-574.11 274,-574.11 274,-574.11 280,-574.11 286,-580.11 286,-586.11 286,-586.11 286,-598.11 286,-598.11 286,-604.11 280,-610.11 274,-610.11"/>
<text text-anchor="middle" x="259" y="-587.91" font-family="Times,serif" font-size="14.00">play</text>
</g>
<!-- FFNN_text&#45;&gt;tmp1_play -->
<g id="edge13" class="edge">
<title>FFNN_text&#45;&gt;tmp1_play</title>
<path fill="none" stroke="black" d="M340.58,-645.99C326.59,-636.92 309.22,-625.66 294.11,-615.87"/>
<polygon fill="black" stroke="black" points="295.82,-612.8 285.52,-610.3 292.01,-618.68 295.82,-612.8"/>
</g>
<!-- tmp1_ping -->
<g id="node16" class="node">
<title>tmp1_ping</title>
<path fill="#808080" fill-opacity="0.094118" stroke="black" stroke-dasharray="5,2" d="M346,-610.11C346,-610.11 316,-610.11 316,-610.11 310,-610.11 304,-604.11 304,-598.11 304,-598.11 304,-586.11 304,-586.11 304,-580.11 310,-574.11 316,-574.11 316,-574.11 346,-574.11 346,-574.11 352,-574.11 358,-580.11 358,-586.11 358,-586.11 358,-598.11 358,-598.11 358,-604.11 352,-610.11 346,-610.11"/>
<text text-anchor="middle" x="331" y="-587.91" font-family="Times,serif" font-size="14.00">ping</text>
</g>
<!-- FFNN_text&#45;&gt;tmp1_ping -->
<g id="edge14" class="edge">
<title>FFNN_text&#45;&gt;tmp1_ping</title>
<path fill="none" stroke="black" d="M358.1,-645.81C354,-637.84 349.05,-628.21 344.51,-619.38"/>
<polygon fill="black" stroke="black" points="347.48,-617.51 339.8,-610.22 341.26,-620.71 347.48,-617.51"/>
</g>
<!-- tmp1_pong -->
<g id="node17" class="node">
<title>tmp1_pong</title>
<path fill="#808080" fill-opacity="0.094118" stroke="black" stroke-dasharray="5,2" d="M418,-610.11C418,-610.11 388,-610.11 388,-610.11 382,-610.11 376,-604.11 376,-598.11 376,-598.11 376,-586.11 376,-586.11 376,-580.11 382,-574.11 388,-574.11 388,-574.11 418,-574.11 418,-574.11 424,-574.11 430,-580.11 430,-586.11 430,-586.11 430,-598.11 430,-598.11 430,-604.11 424,-610.11 418,-610.11"/>
<text text-anchor="middle" x="403" y="-587.91" font-family="Times,serif" font-size="14.00">pong</text>
</g>
<!-- FFNN_text&#45;&gt;tmp1_pong -->
<g id="edge15" class="edge">
<title>FFNN_text&#45;&gt;tmp1_pong</title>
<path fill="none" stroke="black" d="M375.9,-645.81C380,-637.84 384.95,-628.21 389.49,-619.38"/>
<polygon fill="black" stroke="black" points="392.74,-620.71 394.2,-610.22 386.52,-617.51 392.74,-620.71"/>
</g>
<!-- tmp1_cls -->
<g id="node18" class="node">
<title>tmp1_cls</title>
<path fill="lightpink" stroke="black" stroke-dasharray="5,2" d="M491.68,-610.11C491.68,-610.11 460.32,-610.11 460.32,-610.11 454.32,-610.11 448.32,-604.11 448.32,-598.11 448.32,-598.11 448.32,-586.11 448.32,-586.11 448.32,-580.11 454.32,-574.11 460.32,-574.11 460.32,-574.11 491.68,-574.11 491.68,-574.11 497.68,-574.11 503.68,-580.11 503.68,-586.11 503.68,-586.11 503.68,-598.11 503.68,-598.11 503.68,-604.11 497.68,-610.11 491.68,-610.11"/>
<text text-anchor="middle" x="476" y="-587.91" font-family="Times,serif" font-size="14.00">_CLS_</text>
</g>
<!-- FFNN_text&#45;&gt;tmp1_cls -->
<g id="edge16" class="edge">
<title>FFNN_text&#45;&gt;tmp1_cls</title>
<path fill="none" stroke="black" d="M393.66,-645.99C407.78,-636.92 425.31,-625.66 440.56,-615.87"/>
<polygon fill="black" stroke="black" points="442.71,-618.65 449.23,-610.3 438.93,-612.76 442.71,-618.65"/>
</g>
<!-- tmp1_play&#45;&gt;tmp1_ping -->
<!-- mask -->
<g id="node19" class="node">
<title>mask</title>
<polygon fill="lightskyblue" stroke="black" points="511,-537.91 151,-537.91 151,-496.71 511,-496.71 511,-537.91"/>
<text text-anchor="middle" x="331" y="-522.91" font-family="Times,serif" font-size="14.00">Sequence Mask</text>
<text text-anchor="middle" x="331" y="-508.91" font-family="Times,serif" font-size="14.00">随机遮挡15%的token</text>
</g>
<!-- tmp1_play&#45;&gt;mask -->
<g id="edge17" class="edge">
<title>tmp1_play&#45;&gt;mask</title>
<path fill="none" stroke="black" d="M276.06,-573.86C284.46,-565.37 294.79,-554.93 304.21,-545.4"/>
<polygon fill="black" stroke="black" points="306.97,-547.58 311.52,-538.01 302,-542.66 306.97,-547.58"/>
</g>
<!-- tmp1_ping&#45;&gt;tmp1_pong -->
<!-- tmp1_ping&#45;&gt;mask -->
<g id="edge18" class="edge">
<title>tmp1_ping&#45;&gt;mask</title>
<path fill="none" stroke="black" d="M331,-573.86C331,-566.21 331,-556.98 331,-548.26"/>
<polygon fill="black" stroke="black" points="334.5,-548.01 331,-538.01 327.5,-548.01 334.5,-548.01"/>
</g>
<!-- tmp1_pong&#45;&gt;tmp1_cls -->
<!-- tmp1_pong&#45;&gt;mask -->
<g id="edge19" class="edge">
<title>tmp1_pong&#45;&gt;mask</title>
<path fill="none" stroke="black" d="M385.94,-573.86C377.54,-565.37 367.21,-554.93 357.79,-545.4"/>
<polygon fill="black" stroke="black" points="360,-542.66 350.48,-538.01 355.03,-547.58 360,-542.66"/>
</g>
<!-- Loss_lm_mask -->
<g id="node29" class="node">
<title>Loss_lm_mask</title>
<polygon fill="tomato" stroke="black" points="592.56,-115.46 487.44,-115.46 487.44,-79.46 592.56,-79.46 592.56,-115.46"/>
<text text-anchor="middle" x="540" y="-100.26" font-family="Times,serif" font-size="14.00">LM Mask Loss </text>
<text text-anchor="middle" x="540" y="-86.26" font-family="Times,serif" font-size="14.00">Similarity</text>
</g>
<!-- tmp1_pong&#45;&gt;Loss_lm_mask -->
<g id="edge42" class="edge">
<title>tmp1_pong&#45;&gt;Loss_lm_mask</title>
<path fill="none" stroke="black" d="M430.1,-578.23C433.1,-576.83 436.11,-575.44 439,-574.11 474.81,-557.7 496.33,-569.61 520,-538.11 557.35,-488.4 539,-461.69 539,-399.51 539,-399.51 539,-399.51 539,-247.91 539,-205.16 539.41,-155.53 539.71,-125.58"/>
<polygon fill="black" stroke="black" points="543.21,-125.53 539.81,-115.49 536.21,-125.45 543.21,-125.53"/>
</g>
<!-- tmp1_cls&#45;&gt;mask -->
<g id="edge20" class="edge">
<title>tmp1_cls&#45;&gt;mask</title>
<path fill="none" stroke="black" d="M448.04,-577.07C428.59,-567.31 402.14,-554.03 379.31,-542.57"/>
<polygon fill="black" stroke="black" points="380.62,-539.31 370.11,-537.95 377.47,-545.56 380.62,-539.31"/>
</g>
<!-- tmp2_mask -->
<g id="node20" class="node">
<title>tmp2_mask</title>
<path fill="yellow" stroke="black" stroke-dasharray="5,2" d="M392.46,-416.51C392.46,-416.51 345.54,-416.51 345.54,-416.51 339.54,-416.51 333.54,-410.51 333.54,-404.51 333.54,-404.51 333.54,-392.51 333.54,-392.51 333.54,-386.51 339.54,-380.51 345.54,-380.51 345.54,-380.51 392.46,-380.51 392.46,-380.51 398.46,-380.51 404.46,-386.51 404.46,-392.51 404.46,-392.51 404.46,-404.51 404.46,-404.51 404.46,-410.51 398.46,-416.51 392.46,-416.51"/>
<text text-anchor="middle" x="369" y="-401.31" font-family="Times,serif" font-size="14.00">_MASK_</text>
<text text-anchor="middle" x="369" y="-387.31" font-family="Times,serif" font-size="14.00"> pong</text>
</g>
<!-- mask&#45;&gt;tmp2_mask -->
<g id="edge29" class="edge">
<title>mask&#45;&gt;tmp2_mask</title>
<path fill="none" stroke="black" d="M337.45,-496.5C343.71,-477.26 353.26,-447.9 360.21,-426.53"/>
<polygon fill="black" stroke="black" points="363.62,-427.35 363.39,-416.75 356.97,-425.18 363.62,-427.35"/>
</g>
<!-- tmp2_cls -->
<g id="node21" class="node">
<title>tmp2_cls</title>
<path fill="pink" stroke="black" stroke-dasharray="5,2" d="M465.68,-416.51C465.68,-416.51 434.32,-416.51 434.32,-416.51 428.32,-416.51 422.32,-410.51 422.32,-404.51 422.32,-404.51 422.32,-392.51 422.32,-392.51 422.32,-386.51 428.32,-380.51 434.32,-380.51 434.32,-380.51 465.68,-380.51 465.68,-380.51 471.68,-380.51 477.68,-386.51 477.68,-392.51 477.68,-392.51 477.68,-404.51 477.68,-404.51 477.68,-410.51 471.68,-416.51 465.68,-416.51"/>
<text text-anchor="middle" x="450" y="-394.31" font-family="Times,serif" font-size="14.00">_CLS_</text>
</g>
<!-- mask&#45;&gt;tmp2_cls -->
<g id="edge30" class="edge">
<title>mask&#45;&gt;tmp2_cls</title>
<path fill="none" stroke="black" d="M402.57,-496.52C406.3,-494.15 409.82,-491.49 413,-488.51 430.51,-472.14 440.01,-446.22 444.98,-426.57"/>
<polygon fill="black" stroke="black" points="448.43,-427.2 447.24,-416.67 441.6,-425.64 448.43,-427.2"/>
</g>
<!-- tmp2_play -->
<g id="node22" class="node">
<title>tmp2_play</title>
<path fill="#808080" fill-opacity="0.094118" stroke="black" stroke-dasharray="5,2" d="M232,-416.51C232,-416.51 202,-416.51 202,-416.51 196,-416.51 190,-410.51 190,-404.51 190,-404.51 190,-392.51 190,-392.51 190,-386.51 196,-380.51 202,-380.51 202,-380.51 232,-380.51 232,-380.51 238,-380.51 244,-386.51 244,-392.51 244,-392.51 244,-404.51 244,-404.51 244,-410.51 238,-416.51 232,-416.51"/>
<text text-anchor="middle" x="217" y="-394.31" font-family="Times,serif" font-size="14.00">play</text>
</g>
<!-- mask&#45;&gt;tmp2_play -->
<g id="edge27" class="edge">
<title>mask&#45;&gt;tmp2_play</title>
<path fill="none" stroke="black" d="M263.24,-496.55C259.57,-494.16 256.11,-491.5 253,-488.51 235.77,-471.99 226.55,-446.09 221.77,-426.48"/>
<polygon fill="black" stroke="black" points="225.16,-425.62 219.6,-416.61 218.33,-427.13 225.16,-425.62"/>
</g>
<!-- tmp2_ping -->
<g id="node23" class="node">
<title>tmp2_ping</title>
<path fill="#808080" fill-opacity="0.094118" stroke="black" stroke-dasharray="5,2" d="M304,-416.51C304,-416.51 274,-416.51 274,-416.51 268,-416.51 262,-410.51 262,-404.51 262,-404.51 262,-392.51 262,-392.51 262,-386.51 268,-380.51 274,-380.51 274,-380.51 304,-380.51 304,-380.51 310,-380.51 316,-386.51 316,-392.51 316,-392.51 316,-404.51 316,-404.51 316,-410.51 310,-416.51 304,-416.51"/>
<text text-anchor="middle" x="289" y="-394.31" font-family="Times,serif" font-size="14.00">ping</text>
</g>
<!-- mask&#45;&gt;tmp2_ping -->
<g id="edge28" class="edge">
<title>mask&#45;&gt;tmp2_ping</title>
<path fill="none" stroke="black" d="M323.88,-496.5C316.93,-477.17 306.3,-447.63 298.61,-426.24"/>
<polygon fill="black" stroke="black" points="301.88,-424.98 295.2,-416.75 295.29,-427.35 301.88,-424.98"/>
</g>
<!-- tmp2_mask&#45;&gt;tmp2_cls -->
<!-- transformer -->
<g id="node24" class="node">
<title>transformer</title>
<polygon fill="lightgreen" stroke="black" points="490,-341.71 130,-341.71 130,-305.71 490,-305.71 490,-341.71"/>
<text text-anchor="middle" x="310" y="-319.51" font-family="Times,serif" font-size="14.00">Transformer(2 layers)</text>
</g>
<!-- tmp2_mask&#45;&gt;transformer -->
<g id="edge31" class="edge">
<title>tmp2_mask&#45;&gt;transformer</title>
<path fill="none" stroke="black" d="M355.02,-380.26C347.67,-371.19 338.53,-359.91 330.4,-349.89"/>
<polygon fill="black" stroke="black" points="332.9,-347.41 323.88,-341.84 327.46,-351.81 332.9,-347.41"/>
</g>
<!-- tmp2_cls&#45;&gt;transformer -->
<g id="edge32" class="edge">
<title>tmp2_cls&#45;&gt;transformer</title>
<path fill="none" stroke="black" d="M433.34,-380.34C427.31,-374.78 420.2,-368.91 413,-364.51 401.09,-357.23 387.62,-350.87 374.44,-345.5"/>
<polygon fill="black" stroke="black" points="375.51,-342.16 364.92,-341.76 372.95,-348.68 375.51,-342.16"/>
</g>
<!-- tmp2_play&#45;&gt;tmp2_ping -->
<!-- tmp2_play&#45;&gt;transformer -->
<g id="edge33" class="edge">
<title>tmp2_play&#45;&gt;transformer</title>
<path fill="none" stroke="black" d="M234.9,-380.24C240.55,-375.02 246.91,-369.39 253,-364.51 260.04,-358.87 267.83,-353.13 275.33,-347.83"/>
<polygon fill="black" stroke="black" points="277.73,-350.42 283.94,-341.84 273.73,-344.68 277.73,-350.42"/>
</g>
<!-- tmp2_ping&#45;&gt;tmp2_mask -->
<!-- tmp2_ping&#45;&gt;transformer -->
<g id="edge34" class="edge">
<title>tmp2_ping&#45;&gt;transformer</title>
<path fill="none" stroke="black" d="M293.98,-380.26C296.44,-371.74 299.46,-361.26 302.21,-351.7"/>
<polygon fill="black" stroke="black" points="305.65,-352.42 305.06,-341.84 298.92,-350.48 305.65,-352.42"/>
</g>
<!-- tmp3_mask -->
<g id="node25" class="node">
<title>tmp3_mask</title>
<path fill="yellow" stroke="black" stroke-dasharray="5,2" d="M394.46,-266.91C394.46,-266.91 347.54,-266.91 347.54,-266.91 341.54,-266.91 335.54,-260.91 335.54,-254.91 335.54,-254.91 335.54,-242.91 335.54,-242.91 335.54,-236.91 341.54,-230.91 347.54,-230.91 347.54,-230.91 394.46,-230.91 394.46,-230.91 400.46,-230.91 406.46,-236.91 406.46,-242.91 406.46,-242.91 406.46,-254.91 406.46,-254.91 406.46,-260.91 400.46,-266.91 394.46,-266.91"/>
<text text-anchor="middle" x="371" y="-251.71" font-family="Times,serif" font-size="14.00">_MASK_</text>
<text text-anchor="middle" x="371" y="-237.71" font-family="Times,serif" font-size="14.00"> pong</text>
</g>
<!-- transformer&#45;&gt;tmp3_mask -->
<g id="edge38" class="edge">
<title>transformer&#45;&gt;tmp3_mask</title>
<path fill="none" stroke="black" d="M324.46,-305.46C332.13,-296.3 341.7,-284.89 350.16,-274.79"/>
<polygon fill="black" stroke="black" points="352.91,-276.95 356.65,-267.04 347.54,-272.46 352.91,-276.95"/>
</g>
<!-- tmp3_cls -->
<g id="node26" class="node">
<title>tmp3_cls</title>
<path fill="pink" stroke="black" stroke-dasharray="5,2" d="M467.68,-266.91C467.68,-266.91 436.32,-266.91 436.32,-266.91 430.32,-266.91 424.32,-260.91 424.32,-254.91 424.32,-254.91 424.32,-242.91 424.32,-242.91 424.32,-236.91 430.32,-230.91 436.32,-230.91 436.32,-230.91 467.68,-230.91 467.68,-230.91 473.68,-230.91 479.68,-236.91 479.68,-242.91 479.68,-242.91 479.68,-254.91 479.68,-254.91 479.68,-260.91 473.68,-266.91 467.68,-266.91"/>
<text text-anchor="middle" x="452" y="-244.71" font-family="Times,serif" font-size="14.00">_CLS_</text>
</g>
<!-- transformer&#45;&gt;tmp3_cls -->
<g id="edge39" class="edge">
<title>transformer&#45;&gt;tmp3_cls</title>
<path fill="none" stroke="black" d="M343.29,-305.64C364.81,-294.61 392.84,-280.24 415.05,-268.86"/>
<polygon fill="black" stroke="black" points="416.87,-271.86 424.17,-264.18 413.67,-265.63 416.87,-271.86"/>
</g>
<!-- tmp3_play -->
<g id="node27" class="node">
<title>tmp3_play</title>
<path fill="#808080" fill-opacity="0.094118" stroke="black" stroke-dasharray="5,2" d="M234,-266.91C234,-266.91 204,-266.91 204,-266.91 198,-266.91 192,-260.91 192,-254.91 192,-254.91 192,-242.91 192,-242.91 192,-236.91 198,-230.91 204,-230.91 204,-230.91 234,-230.91 234,-230.91 240,-230.91 246,-236.91 246,-242.91 246,-242.91 246,-254.91 246,-254.91 246,-260.91 240,-266.91 234,-266.91"/>
<text text-anchor="middle" x="219" y="-244.71" font-family="Times,serif" font-size="14.00">play</text>
</g>
<!-- transformer&#45;&gt;tmp3_play -->
<g id="edge40" class="edge">
<title>transformer&#45;&gt;tmp3_play</title>
<path fill="none" stroke="black" d="M288.43,-305.46C276.42,-295.85 261.3,-283.75 248.23,-273.3"/>
<polygon fill="black" stroke="black" points="250.41,-270.55 240.41,-267.04 246.03,-276.02 250.41,-270.55"/>
</g>
<!-- tmp3_ping -->
<g id="node28" class="node">
<title>tmp3_ping</title>
<path fill="#808080" fill-opacity="0.094118" stroke="black" stroke-dasharray="5,2" d="M306,-266.91C306,-266.91 276,-266.91 276,-266.91 270,-266.91 264,-260.91 264,-254.91 264,-254.91 264,-242.91 264,-242.91 264,-236.91 270,-230.91 276,-230.91 276,-230.91 306,-230.91 306,-230.91 312,-230.91 318,-236.91 318,-242.91 318,-242.91 318,-254.91 318,-254.91 318,-260.91 312,-266.91 306,-266.91"/>
<text text-anchor="middle" x="291" y="-244.71" font-family="Times,serif" font-size="14.00">ping</text>
</g>
<!-- transformer&#45;&gt;tmp3_ping -->
<g id="edge41" class="edge">
<title>transformer&#45;&gt;tmp3_ping</title>
<path fill="none" stroke="black" d="M305.5,-305.46C303.27,-296.94 300.54,-286.46 298.04,-276.9"/>
<polygon fill="black" stroke="black" points="301.38,-275.83 295.47,-267.04 294.61,-277.6 301.38,-275.83"/>
</g>
<!-- tmp3_mask&#45;&gt;tmp3_cls -->
<!-- tmp3_mask&#45;&gt;Loss_lm_mask -->
<g id="edge43" class="edge">
<title>tmp3_mask&#45;&gt;Loss_lm_mask</title>
<path fill="none" stroke="black" d="M394.51,-230.88C408.1,-220.78 425.35,-207.53 440,-194.91 467.06,-171.6 496.27,-142.98 516.1,-123"/>
<polygon fill="black" stroke="black" points="518.68,-125.37 523.21,-115.79 513.69,-120.45 518.68,-125.37"/>
</g>
<!-- crf -->
<g id="node40" class="node">
<title>crf</title>
<polygon fill="moccasin" stroke="black" points="431,-194.91 71,-194.91 71,-158.91 431,-158.91 431,-194.91"/>
<text text-anchor="middle" x="251" y="-172.71" font-family="Times,serif" font-size="14.00" fill="#000000">CRF</text>
</g>
<!-- tmp3_mask&#45;&gt;crf -->
<g id="edge62" class="edge">
<title>tmp3_mask&#45;&gt;crf</title>
<path fill="none" stroke="black" d="M341.64,-230.79C325.95,-221.64 306.44,-210.25 289.55,-200.4"/>
<polygon fill="black" stroke="black" points="290.87,-197.12 280.47,-195.1 287.34,-203.16 290.87,-197.12"/>
</g>
<!-- Loss_intent -->
<g id="node39" class="node">
<title>Loss_intent</title>
<polygon fill="tomato" stroke="black" points="689.1,-115.46 610.9,-115.46 610.9,-79.46 689.1,-79.46 689.1,-115.46"/>
<text text-anchor="middle" x="650" y="-100.26" font-family="Times,serif" font-size="14.00">Intent Loss</text>
<text text-anchor="middle" x="650" y="-86.26" font-family="Times,serif" font-size="14.00"> Similarity</text>
</g>
<!-- tmp3_cls&#45;&gt;Loss_intent -->
<g id="edge56" class="edge">
<title>tmp3_cls&#45;&gt;Loss_intent</title>
<path fill="none" stroke="black" d="M474.71,-230.77C510.28,-203.92 579.16,-151.93 619.17,-121.73"/>
<polygon fill="black" stroke="black" points="621.37,-124.45 627.25,-115.63 617.16,-118.86 621.37,-124.45"/>
</g>
<!-- tmp3_cls&#45;&gt;crf -->
<g id="edge63" class="edge">
<title>tmp3_cls&#45;&gt;crf</title>
<path fill="none" stroke="black" d="M424.27,-234.74C421.17,-233.4 418.03,-232.09 415,-230.91 384.07,-218.86 349.14,-207.29 319.49,-198.06"/>
<polygon fill="black" stroke="black" points="320.24,-194.63 309.65,-195.02 318.17,-201.32 320.24,-194.63"/>
</g>
<!-- tmp3_play&#45;&gt;tmp3_ping -->
<!-- tmp3_play&#45;&gt;crf -->
<g id="edge64" class="edge">
<title>tmp3_play&#45;&gt;crf</title>
<path fill="none" stroke="black" d="M226.91,-230.61C230.55,-222.64 234.95,-213.01 238.99,-204.18"/>
<polygon fill="black" stroke="black" points="242.21,-205.57 243.18,-195.02 235.84,-202.66 242.21,-205.57"/>
</g>
<!-- tmp3_ping&#45;&gt;tmp3_mask -->
<!-- tmp3_ping&#45;&gt;crf -->
<g id="edge65" class="edge">
<title>tmp3_ping&#45;&gt;crf</title>
<path fill="none" stroke="black" d="M281.11,-230.61C276.51,-222.56 270.94,-212.81 265.85,-203.89"/>
<polygon fill="black" stroke="black" points="268.77,-201.96 260.77,-195.02 262.7,-205.43 268.77,-201.96"/>
</g>
<!-- Loss_total -->
<g id="node45" class="node">
<title>Loss_total</title>
<polygon fill="tomato" stroke="black" points="577.02,-36 502.98,-36 502.98,0 577.02,0 577.02,-36"/>
<text text-anchor="middle" x="540" y="-13.8" font-family="Times,serif" font-size="14.00">Total Loss</text>
</g>
<!-- Loss_lm_mask&#45;&gt;Loss_total -->
<g id="edge67" class="edge">
<title>Loss_lm_mask&#45;&gt;Loss_total</title>
<path fill="none" stroke="black" d="M540,-79.27C540,-69.54 540,-57.15 540,-46.14"/>
<polygon fill="black" stroke="black" points="543.5,-46.14 540,-36.14 536.5,-46.14 543.5,-46.14"/>
</g>
<!-- label_token1_sparse -->
<g id="node30" class="node">
<title>label_token1_sparse</title>
<polygon fill="#ffffff" fill-opacity="0.698039" stroke="black" points="1035.3,-416.51 974.7,-416.51 974.7,-380.51 1035.3,-380.51 1035.3,-416.51"/>
<text text-anchor="middle" x="1005" y="-401.31" font-family="Times,serif" font-size="14.00" fill="#000000">Sparse</text>
<text text-anchor="middle" x="1005" y="-387.31" font-family="Times,serif" font-size="14.00" fill="#000000">features</text>
</g>
<!-- combine_sparse_dense_label -->
<g id="node36" class="node">
<title>combine_sparse_dense_label</title>
<polygon fill="lightcyan" stroke="black" points="921,-344.31 633,-344.31 633,-303.11 921,-303.11 921,-344.31"/>
<text text-anchor="middle" x="777" y="-329.31" font-family="Times,serif" font-size="14.00" fill="#000000">Sparse Dense</text>
<text text-anchor="middle" x="777" y="-315.31" font-family="Times,serif" font-size="14.00" fill="#000000">拼接单元</text>
</g>
<!-- label_token1_sparse&#45;&gt;combine_sparse_dense_label -->
<g id="edge44" class="edge">
<title>label_token1_sparse&#45;&gt;combine_sparse_dense_label</title>
<path fill="none" stroke="black" d="M978.9,-372.51C974.8,-369.48 970.44,-366.68 966,-364.51 951.91,-357.62 936.65,-351.91 921.13,-347.2"/>
<polygon fill="black" stroke="black" points="922.02,-343.81 911.44,-344.39 920.07,-350.53 922.02,-343.81"/>
</g>
<!-- label_token1_dense -->
<g id="node31" class="node">
<title>label_token1_dense</title>
<polygon fill="#ffffff" fill-opacity="0.698039" stroke="black" points="957.3,-416.51 896.7,-416.51 896.7,-380.51 957.3,-380.51 957.3,-416.51"/>
<text text-anchor="middle" x="927" y="-401.31" font-family="Times,serif" font-size="14.00" fill="#000000">Dense</text>
<text text-anchor="middle" x="927" y="-387.31" font-family="Times,serif" font-size="14.00" fill="#000000">features</text>
</g>
<!-- label_token2_sparse -->
<g id="node32" class="node">
<title>label_token2_sparse</title>
<polygon fill="#ffffff" fill-opacity="0.698039" stroke="black" points="873.3,-416.51 812.7,-416.51 812.7,-380.51 873.3,-380.51 873.3,-416.51"/>
<text text-anchor="middle" x="843" y="-401.31" font-family="Times,serif" font-size="14.00" fill="#000000">Sparse</text>
<text text-anchor="middle" x="843" y="-387.31" font-family="Times,serif" font-size="14.00" fill="#000000">features</text>
</g>
<!-- label_token2_sparse&#45;&gt;combine_sparse_dense_label -->
<g id="edge45" class="edge">
<title>label_token2_sparse&#45;&gt;combine_sparse_dense_label</title>
<path fill="none" stroke="black" d="M820.34,-372.51C814.37,-365.93 807.89,-358.79 801.82,-352.09"/>
<polygon fill="black" stroke="black" points="804.17,-349.47 794.86,-344.41 798.98,-354.17 804.17,-349.47"/>
</g>
<!-- label_token2_dense -->
<g id="node33" class="node">
<title>label_token2_dense</title>
<polygon fill="#ffffff" fill-opacity="0.698039" stroke="black" points="795.3,-416.51 734.7,-416.51 734.7,-380.51 795.3,-380.51 795.3,-416.51"/>
<text text-anchor="middle" x="765" y="-401.31" font-family="Times,serif" font-size="14.00" fill="#000000">Dense</text>
<text text-anchor="middle" x="765" y="-387.31" font-family="Times,serif" font-size="14.00" fill="#000000">features</text>
</g>
<!-- label_token3_sparse -->
<g id="node34" class="node">
<title>label_token3_sparse</title>
<polygon fill="#ffffff" fill-opacity="0.698039" stroke="black" points="711.3,-416.51 650.7,-416.51 650.7,-380.51 711.3,-380.51 711.3,-416.51"/>
<text text-anchor="middle" x="681" y="-401.31" font-family="Times,serif" font-size="14.00" fill="#000000">Sparse</text>
<text text-anchor="middle" x="681" y="-387.31" font-family="Times,serif" font-size="14.00" fill="#000000">features</text>
</g>
<!-- label_token3_sparse&#45;&gt;combine_sparse_dense_label -->
<g id="edge46" class="edge">
<title>label_token3_sparse&#45;&gt;combine_sparse_dense_label</title>
<path fill="none" stroke="black" d="M712.6,-372.51C716.1,-369.8 719.62,-367.09 723,-364.51 728.99,-359.95 735.4,-355.16 741.63,-350.54"/>
<polygon fill="black" stroke="black" points="743.99,-353.14 749.96,-344.39 739.84,-347.51 743.99,-353.14"/>
</g>
<!-- label_token3_dense -->
<g id="node35" class="node">
<title>label_token3_dense</title>
<polygon fill="#ffffff" fill-opacity="0.698039" stroke="black" points="633.3,-416.51 572.7,-416.51 572.7,-380.51 633.3,-380.51 633.3,-416.51"/>
<text text-anchor="middle" x="603" y="-401.31" font-family="Times,serif" font-size="14.00" fill="#000000">Dense</text>
<text text-anchor="middle" x="603" y="-387.31" font-family="Times,serif" font-size="14.00" fill="#000000">features</text>
</g>
<!-- FFNN_label -->
<g id="node37" class="node">
<title>FFNN_label</title>
<polygon fill="thistle" stroke="black" points="921,-266.91 633,-266.91 633,-230.91 921,-230.91 921,-266.91"/>
<text text-anchor="middle" x="777" y="-244.71" font-family="Times,serif" font-size="14.00" fill="#000000">FFNN_Label</text>
</g>
<!-- combine_sparse_dense_label&#45;&gt;FFNN_label -->
<g id="edge47" class="edge">
<title>combine_sparse_dense_label&#45;&gt;FFNN_label</title>
<path fill="none" stroke="black" d="M758.73,-302.82C756.7,-294.92 756.23,-285.7 757.33,-277.19"/>
<polygon fill="black" stroke="black" points="760.77,-277.81 759.44,-267.3 753.93,-276.35 760.77,-277.81"/>
</g>
<!-- combine_sparse_dense_label&#45;&gt;FFNN_label -->
<g id="edge48" class="edge">
<title>combine_sparse_dense_label&#45;&gt;FFNN_label</title>
<path fill="none" stroke="black" d="M770.91,-302.82C770.24,-295 770.08,-285.9 770.43,-277.47"/>
<polygon fill="black" stroke="black" points="773.94,-277.52 771.15,-267.3 766.95,-277.03 773.94,-277.52"/>
</g>
<!-- combine_sparse_dense_label&#45;&gt;FFNN_label -->
<g id="edge49" class="edge">
<title>combine_sparse_dense_label&#45;&gt;FFNN_label</title>
<path fill="none" stroke="black" d="M783.09,-302.82C783.76,-295 783.92,-285.9 783.57,-277.47"/>
<polygon fill="black" stroke="black" points="787.05,-277.03 782.85,-267.3 780.06,-277.52 787.05,-277.03"/>
</g>
<!-- combine_sparse_dense_label&#45;&gt;FFNN_label -->
<g id="edge50" class="edge">
<title>combine_sparse_dense_label&#45;&gt;FFNN_label</title>
<path fill="none" stroke="black" d="M795.27,-302.82C797.3,-294.92 797.77,-285.7 796.67,-277.19"/>
<polygon fill="black" stroke="black" points="800.07,-276.35 794.56,-267.3 793.23,-277.81 800.07,-276.35"/>
</g>
<!-- label_token_sum -->
<g id="node38" class="node">
<title>label_token_sum</title>
<polygon fill="peru" stroke="black" points="872.72,-194.91 681.28,-194.91 681.28,-158.91 872.72,-158.91 872.72,-194.91"/>
<text text-anchor="middle" x="777" y="-172.71" font-family="Times,serif" font-size="14.00" fill="#000000">Reduce sum by token sequence</text>
</g>
<!-- FFNN_label&#45;&gt;label_token_sum -->
<g id="edge51" class="edge">
<title>FFNN_label&#45;&gt;label_token_sum</title>
<path fill="none" stroke="black" d="M759.25,-230.61C756.87,-222.89 756.19,-213.62 757.21,-205.02"/>
<polygon fill="black" stroke="black" points="760.69,-205.52 759.31,-195.02 753.84,-204.08 760.69,-205.52"/>
</g>
<!-- FFNN_label&#45;&gt;label_token_sum -->
<g id="edge52" class="edge">
<title>FFNN_label&#45;&gt;label_token_sum</title>
<path fill="none" stroke="black" d="M771.08,-230.61C770.29,-222.89 770.06,-213.62 770.4,-205.02"/>
<polygon fill="black" stroke="black" points="773.9,-205.24 771.1,-195.02 766.92,-204.75 773.9,-205.24"/>
</g>
<!-- FFNN_label&#45;&gt;label_token_sum -->
<g id="edge53" class="edge">
<title>FFNN_label&#45;&gt;label_token_sum</title>
<path fill="none" stroke="black" d="M782.92,-230.61C783.71,-222.89 783.94,-213.62 783.6,-205.02"/>
<polygon fill="black" stroke="black" points="787.08,-204.75 782.9,-195.02 780.1,-205.24 787.08,-204.75"/>
</g>
<!-- FFNN_label&#45;&gt;label_token_sum -->
<g id="edge54" class="edge">
<title>FFNN_label&#45;&gt;label_token_sum</title>
<path fill="none" stroke="black" d="M794.75,-230.61C797.13,-222.89 797.81,-213.62 796.79,-205.02"/>
<polygon fill="black" stroke="black" points="800.16,-204.08 794.69,-195.02 793.31,-205.52 800.16,-204.08"/>
</g>
<!-- label_token_sum&#45;&gt;Loss_intent -->
<g id="edge55" class="edge">
<title>label_token_sum&#45;&gt;Loss_intent</title>
<path fill="none" stroke="black" d="M748.81,-158.72C730.56,-147.59 706.61,-132.98 686.85,-120.93"/>
<polygon fill="black" stroke="black" points="688.47,-117.82 678.11,-115.6 684.82,-123.79 688.47,-117.82"/>
</g>
<!-- Loss_intent&#45;&gt;Loss_total -->
<g id="edge68" class="edge">
<title>Loss_intent&#45;&gt;Loss_total</title>
<path fill="none" stroke="black" d="M625.59,-79.27C610.06,-68.34 589.77,-54.05 572.85,-42.13"/>
<polygon fill="black" stroke="black" points="574.54,-39.04 564.34,-36.14 570.51,-44.76 574.54,-39.04"/>
</g>
<!-- entity_o -->
<g id="node41" class="node">
<title>entity_o</title>
<ellipse fill="antiquewhite" stroke="black" cx="61" cy="-97.46" rx="38.03" ry="25.41"/>
<text text-anchor="middle" x="61" y="-100.26" font-family="Times,serif" font-size="14.00">Entity:</text>
<text text-anchor="middle" x="61" y="-86.26" font-family="Times,serif" font-size="14.00"> O</text>
</g>
<!-- crf&#45;&gt;entity_o -->
<g id="edge57" class="edge">
<title>crf&#45;&gt;entity_o</title>
<path fill="none" stroke="black" d="M190.77,-155.48C164.99,-146.25 134.72,-134.76 108,-122.91 102.11,-120.3 95.93,-117.29 90.06,-114.29"/>
<polygon fill="black" stroke="black" points="189.83,-158.86 200.42,-158.9 192.17,-152.26 189.83,-158.86"/>
</g>
<!-- entity_game1 -->
<g id="node42" class="node">
<title>entity_game1</title>
<ellipse fill="antiquewhite" stroke="black" cx="176" cy="-97.46" rx="59.28" ry="25.41"/>
<text text-anchor="middle" x="176" y="-100.26" font-family="Times,serif" font-size="14.00">Entity:</text>
<text text-anchor="middle" x="176" y="-86.26" font-family="Times,serif" font-size="14.00"> game name</text>
</g>
<!-- crf&#45;&gt;entity_game1 -->
<g id="edge58" class="edge">
<title>crf&#45;&gt;entity_game1</title>
<path fill="none" stroke="black" d="M227.19,-151.32C217.84,-141.67 207.18,-130.65 198.01,-121.18"/>
<polygon fill="black" stroke="black" points="224.88,-153.97 234.36,-158.72 229.91,-149.1 224.88,-153.97"/>
</g>
<!-- entity_game2 -->
<g id="node43" class="node">
<title>entity_game2</title>
<ellipse fill="antiquewhite" stroke="black" cx="312" cy="-97.46" rx="59.28" ry="25.41"/>
<text text-anchor="middle" x="312" y="-100.26" font-family="Times,serif" font-size="14.00">Entity:</text>
<text text-anchor="middle" x="312" y="-86.26" font-family="Times,serif" font-size="14.00"> game name</text>
</g>
<!-- crf&#45;&gt;entity_game2 -->
<g id="edge59" class="edge">
<title>crf&#45;&gt;entity_game2</title>
<path fill="none" stroke="black" d="M270.93,-150.6C278.24,-141.32 286.48,-130.87 293.64,-121.77"/>
<polygon fill="black" stroke="black" points="267.98,-148.7 264.54,-158.72 273.47,-153.03 267.98,-148.7"/>
</g>
<!-- Loss_entity -->
<g id="node44" class="node">
<title>Loss_entity</title>
<polygon fill="tomato" stroke="black" points="469.17,-115.46 388.83,-115.46 388.83,-79.46 469.17,-79.46 469.17,-115.46"/>
<text text-anchor="middle" x="429" y="-93.26" font-family="Times,serif" font-size="14.00">Entity Loss</text>
</g>
<!-- crf&#45;&gt;Loss_entity -->
<g id="edge66" class="edge">
<title>crf:e&#45;&gt;Loss_entity</title>
<path fill="none" stroke="black" d="M432,-176.91C453.25,-176.91 447.5,-147.81 439.76,-125.05"/>
<polygon fill="black" stroke="black" points="442.99,-123.68 436.27,-115.48 436.41,-126.07 442.99,-123.68"/>
</g>
<!-- entity_o&#45;&gt;entity_game1 -->
<!-- entity_game1&#45;&gt;entity_game2 -->
<!-- Loss_entity&#45;&gt;Loss_total -->
<g id="edge69" class="edge">
<title>Loss_entity&#45;&gt;Loss_total</title>
<path fill="none" stroke="black" d="M453.63,-79.27C469.3,-68.34 489.77,-54.05 506.85,-42.13"/>
<polygon fill="black" stroke="black" points="509.24,-44.73 515.43,-36.14 505.23,-38.99 509.24,-44.73"/>
</g>
</g>
</svg>
