<?xml version="1.0" encoding="UTF-8" standalone="no"?>
<!DOCTYPE svg PUBLIC "-//W3C//DTD SVG 1.1//EN"
 "http://www.w3.org/Graphics/SVG/1.1/DTD/svg11.dtd">
<!-- Generated by graphviz version 7.1.0 (20230121.1956)
 -->
<!-- Title: 一个树形概率图模型 Pages: 1 -->
<svg width="692pt" height="182pt"
 viewBox="0.00 0.00 692.00 181.80" xmlns="http://www.w3.org/2000/svg" xmlns:xlink="http://www.w3.org/1999/xlink">
<g id="graph0" class="graph" transform="scale(1 1) rotate(0) translate(4 177.8)">
<title>一个树形概率图模型</title>
<polygon fill="white" stroke="none" points="-4,4 -4,-177.8 688,-177.8 688,4 -4,4"/>
<g id="clust1" class="cluster">
<title>cluster_1</title>
<polygon fill="none" stroke="none" points="8,-8 8,-165.8 308,-165.8 308,-8 8,-8"/>
<text text-anchor="middle" x="158" y="-15.8" font-family="Times,serif" font-size="14.00">(a)</text>
</g>
<g id="clust3" class="cluster">
<title>cluster_2</title>
<polygon fill="none" stroke="none" points="316,-8 316,-165.8 616,-165.8 616,-8 316,-8"/>
<text text-anchor="middle" x="466" y="-15.8" font-family="Times,serif" font-size="14.00">(b)</text>
</g>
<g id="clust6" class="cluster">
<title>cluster_3</title>
<polygon fill="none" stroke="none" points="624,-13.4 624,-165.8 676,-165.8 676,-13.4 624,-13.4"/>
<text text-anchor="middle" x="650" y="-21.2" font-family="Times,serif" font-size="14.00">(c)</text>
</g>
<!-- a_x1 -->
<g id="node1" class="node">
<title>a_x1</title>
<ellipse fill="none" stroke="black" cx="37" cy="-62.4" rx="21.4" ry="21.4"/>
<text text-anchor="start" x="28.5" y="-59.7" font-family="Times,serif" font-size="14.00">X</text>
<text text-anchor="start" x="38.5" y="-59.7" font-family="Times,serif" baseline-shift="sub" font-size="14.00">1</text>
</g>
<!-- a_x2 -->
<g id="node2" class="node">
<title>a_x2</title>
<ellipse fill="none" stroke="black" cx="98" cy="-62.4" rx="21.4" ry="21.4"/>
<text text-anchor="start" x="89.5" y="-59.7" font-family="Times,serif" font-size="14.00">X</text>
<text text-anchor="start" x="99.5" y="-59.7" font-family="Times,serif" baseline-shift="sub" font-size="14.00">2</text>
</g>
<!-- a_x3 -->
<g id="node3" class="node">
<title>a_x3</title>
<ellipse fill="none" stroke="black" cx="159" cy="-62.4" rx="21.4" ry="21.4"/>
<text text-anchor="start" x="150.5" y="-59.7" font-family="Times,serif" font-size="14.00">X</text>
<text text-anchor="start" x="160.5" y="-59.7" font-family="Times,serif" baseline-shift="sub" font-size="14.00">3</text>
</g>
<!-- a_xh -->
<g id="node4" class="node">
<title>a_xh</title>
<ellipse fill="none" stroke="none" cx="217" cy="-62.4" rx="18.4" ry="18.4"/>
<text text-anchor="middle" x="217" y="-58.7" font-family="Times,serif" font-size="14.00">...</text>
</g>
<!-- a_xn -->
<g id="node5" class="node">
<title>a_xn</title>
<ellipse fill="none" stroke="black" cx="277" cy="-62.4" rx="23.3" ry="23.3"/>
<text text-anchor="start" x="267" y="-59.7" font-family="Times,serif" font-size="14.00">X</text>
<text text-anchor="start" x="277" y="-59.7" font-family="Times,serif" baseline-shift="sub" font-size="14.00">m</text>
</g>
<!-- a_y -->
<g id="node6" class="node">
<title>a_y</title>
<ellipse fill="none" stroke="black" cx="159" cy="-139.8" rx="18" ry="18"/>
<text text-anchor="middle" x="159" y="-136.1" font-family="Times,serif" font-size="14.00">Y</text>
</g>
<!-- a_y&#45;&gt;a_x1 -->
<g id="edge2" class="edge">
<title>a_y&#45;&gt;a_x1</title>
<path fill="none" stroke="black" d="M143.26,-130.25C124.89,-120.13 93.75,-102.54 68,-85.8 66.39,-84.75 64.75,-83.66 63.11,-82.54"/>
<polygon fill="black" stroke="black" points="65.28,-79.78 55.08,-76.9 61.25,-85.51 65.28,-79.78"/>
</g>
<!-- a_y&#45;&gt;a_x2 -->
<g id="edge3" class="edge">
<title>a_y&#45;&gt;a_x2</title>
<path fill="none" stroke="black" d="M148.09,-125.32C139.85,-115.12 128.29,-100.83 118.35,-88.55"/>
<polygon fill="black" stroke="black" points="121.11,-86.4 112.1,-80.82 115.67,-90.8 121.11,-86.4"/>
</g>
<!-- a_y&#45;&gt;a_x3 -->
<g id="edge4" class="edge">
<title>a_y&#45;&gt;a_x3</title>
<path fill="none" stroke="black" d="M159,-121.31C159,-113.63 159,-104.35 159,-95.5"/>
<polygon fill="black" stroke="black" points="162.5,-95.79 159,-85.79 155.5,-95.79 162.5,-95.79"/>
</g>
<!-- a_y&#45;&gt;a_xh -->
<g id="edge1" class="edge">
<title>a_y&#45;&gt;a_xh</title>
</g>
<!-- a_y&#45;&gt;a_xn -->
<g id="edge5" class="edge">
<title>a_y&#45;&gt;a_xn</title>
<path fill="none" stroke="black" d="M174.16,-129.59C191.25,-119.15 219.8,-101.54 244,-85.8 245.56,-84.78 247.15,-83.74 248.75,-82.68"/>
<polygon fill="black" stroke="black" points="250.27,-85.87 256.63,-77.39 246.38,-80.05 250.27,-85.87"/>
</g>
<!-- b_x1 -->
<g id="node7" class="node">
<title>b_x1</title>
<ellipse fill="none" stroke="black" cx="345" cy="-62.4" rx="21.4" ry="21.4"/>
<text text-anchor="start" x="336.5" y="-59.7" font-family="Times,serif" font-size="14.00">X</text>
<text text-anchor="start" x="346.5" y="-59.7" font-family="Times,serif" baseline-shift="sub" font-size="14.00">1</text>
</g>
<!-- b_x2 -->
<g id="node8" class="node">
<title>b_x2</title>
<ellipse fill="none" stroke="black" cx="406" cy="-62.4" rx="21.4" ry="21.4"/>
<text text-anchor="start" x="397.5" y="-59.7" font-family="Times,serif" font-size="14.00">X</text>
<text text-anchor="start" x="407.5" y="-59.7" font-family="Times,serif" baseline-shift="sub" font-size="14.00">2</text>
</g>
<!-- b_x1&#45;&gt;b_x2 -->
<g id="edge11" class="edge">
<title>b_x1&#45;&gt;b_x2</title>
<path fill="none" stroke="black" d="M366.45,-62.4C368.59,-62.4 370.74,-62.4 372.89,-62.4"/>
<polygon fill="black" stroke="black" points="372.86,-65.9 382.85,-62.4 372.85,-58.9 372.86,-65.9"/>
</g>
<!-- b_x3 -->
<g id="node9" class="node">
<title>b_x3</title>
<ellipse fill="none" stroke="black" cx="467" cy="-62.4" rx="21.4" ry="21.4"/>
<text text-anchor="start" x="458.5" y="-59.7" font-family="Times,serif" font-size="14.00">X</text>
<text text-anchor="start" x="468.5" y="-59.7" font-family="Times,serif" baseline-shift="sub" font-size="14.00">3</text>
</g>
<!-- b_xh -->
<g id="node10" class="node">
<title>b_xh</title>
<ellipse fill="none" stroke="none" cx="525" cy="-62.4" rx="18.4" ry="18.4"/>
<text text-anchor="middle" x="525" y="-58.7" font-family="Times,serif" font-size="14.00">...</text>
</g>
<!-- b_xn -->
<g id="node11" class="node">
<title>b_xn</title>
<ellipse fill="none" stroke="black" cx="585" cy="-62.4" rx="23.3" ry="23.3"/>
<text text-anchor="start" x="575" y="-59.7" font-family="Times,serif" font-size="14.00">X</text>
<text text-anchor="start" x="585" y="-59.7" font-family="Times,serif" baseline-shift="sub" font-size="14.00">m</text>
</g>
<!-- b_y -->
<g id="node12" class="node">
<title>b_y</title>
<ellipse fill="none" stroke="black" cx="467" cy="-139.8" rx="18" ry="18"/>
<text text-anchor="middle" x="467" y="-136.1" font-family="Times,serif" font-size="14.00">Y</text>
</g>
<!-- b_y&#45;&gt;b_x1 -->
<g id="edge7" class="edge">
<title>b_y&#45;&gt;b_x1</title>
<path fill="none" stroke="black" d="M451.26,-130.25C432.89,-120.13 401.75,-102.54 376,-85.8 374.39,-84.75 372.75,-83.66 371.11,-82.54"/>
<polygon fill="black" stroke="black" points="373.28,-79.78 363.08,-76.9 369.25,-85.51 373.28,-79.78"/>
</g>
<!-- b_y&#45;&gt;b_x2 -->
<g id="edge8" class="edge">
<title>b_y&#45;&gt;b_x2</title>
<path fill="none" stroke="black" d="M456.09,-125.32C447.85,-115.12 436.29,-100.83 426.35,-88.55"/>
<polygon fill="black" stroke="black" points="429.11,-86.4 420.1,-80.82 423.67,-90.8 429.11,-86.4"/>
</g>
<!-- b_y&#45;&gt;b_x3 -->
<g id="edge9" class="edge">
<title>b_y&#45;&gt;b_x3</title>
<path fill="none" stroke="black" d="M467,-121.31C467,-113.63 467,-104.35 467,-95.5"/>
<polygon fill="black" stroke="black" points="470.5,-95.79 467,-85.79 463.5,-95.79 470.5,-95.79"/>
</g>
<!-- b_y&#45;&gt;b_xh -->
<g id="edge6" class="edge">
<title>b_y&#45;&gt;b_xh</title>
</g>
<!-- b_y&#45;&gt;b_xn -->
<g id="edge10" class="edge">
<title>b_y&#45;&gt;b_xn</title>
<path fill="none" stroke="black" d="M482.16,-129.59C499.25,-119.15 527.8,-101.54 552,-85.8 553.56,-84.78 555.15,-83.74 556.75,-82.68"/>
<polygon fill="black" stroke="black" points="558.27,-85.87 564.63,-77.39 554.38,-80.05 558.27,-85.87"/>
</g>
<!-- c_x -->
<g id="node13" class="node">
<title>c_x</title>
<ellipse fill="none" stroke="black" cx="650" cy="-62.4" rx="18" ry="18"/>
<text text-anchor="middle" x="650" y="-58.7" font-family="Times,serif" font-size="14.00">X</text>
</g>
<!-- c_y -->
<g id="node14" class="node">
<title>c_y</title>
<ellipse fill="none" stroke="black" cx="650" cy="-139.8" rx="18" ry="18"/>
<text text-anchor="middle" x="650" y="-136.1" font-family="Times,serif" font-size="14.00">Y</text>
</g>
<!-- c_y&#45;&gt;c_x -->
<g id="edge12" class="edge">
<title>c_y&#45;&gt;c_x</title>
<path fill="none" stroke="black" d="M650,-121.31C650,-112.65 650,-101.97 650,-92.15"/>
<polygon fill="black" stroke="black" points="653.5,-92.3 650,-82.3 646.5,-92.3 653.5,-92.3"/>
</g>
</g>
</svg>
