<?xml version="1.0" encoding="UTF-8" standalone="no"?>
<!DOCTYPE svg PUBLIC "-//W3C//DTD SVG 1.1//EN"
 "http://www.w3.org/Graphics/SVG/1.1/DTD/svg11.dtd">
<!-- Generated by graphviz version 9.0.0 (20230911.1827)
 -->
<!-- Title: 一个树形概率图模型 Pages: 1 -->
<svg width="696pt" height="184pt"
 viewBox="0.00 0.00 696.00 183.93" xmlns="http://www.w3.org/2000/svg" xmlns:xlink="http://www.w3.org/1999/xlink">
<g id="graph0" class="graph" transform="scale(1 1) rotate(0) translate(4 179.93)">
<title>一个树形概率图模型</title>
<polygon fill="white" stroke="none" points="-4,4 -4,-179.93 692,-179.93 692,4 -4,4"/>
<g id="clust1" class="cluster">
<title>cluster_1</title>
<polygon fill="none" stroke="none" points="8,-8 8,-167.93 310,-167.93 310,-8 8,-8"/>
<text text-anchor="middle" x="159" y="-15.2" font-family="Times,serif" font-size="14.00">(a)</text>
</g>
<g id="clust3" class="cluster">
<title>cluster_2</title>
<polygon fill="none" stroke="none" points="318,-8 318,-167.93 620,-167.93 620,-8 318,-8"/>
<text text-anchor="middle" x="469" y="-15.2" font-family="Times,serif" font-size="14.00">(b)</text>
</g>
<g id="clust6" class="cluster">
<title>cluster_3</title>
<polygon fill="none" stroke="none" points="628,-13.71 628,-167.93 680,-167.93 680,-13.71 628,-13.71"/>
<text text-anchor="middle" x="654" y="-20.91" font-family="Times,serif" font-size="14.00">(c)</text>
</g>
<!-- a_x1 -->
<g id="node1" class="node">
<title>a_x1</title>
<ellipse fill="none" stroke="black" cx="38" cy="-64.21" rx="21.67" ry="21.67"/>
<text text-anchor="start" x="30.12" y="-60.16" font-family="Times,serif" font-size="14.00">X</text>
<text text-anchor="start" x="39.88" y="-60.16" font-family="Times,serif" baseline-shift="sub" font-size="14.00">1</text>
</g>
<!-- a_x2 -->
<g id="node2" class="node">
<title>a_x2</title>
<ellipse fill="none" stroke="black" cx="99" cy="-64.21" rx="21.67" ry="21.67"/>
<text text-anchor="start" x="91.12" y="-60.16" font-family="Times,serif" font-size="14.00">X</text>
<text text-anchor="start" x="100.88" y="-60.16" font-family="Times,serif" baseline-shift="sub" font-size="14.00">2</text>
</g>
<!-- a_x3 -->
<g id="node3" class="node">
<title>a_x3</title>
<ellipse fill="none" stroke="black" cx="160" cy="-64.21" rx="21.67" ry="21.67"/>
<text text-anchor="start" x="152.12" y="-60.16" font-family="Times,serif" font-size="14.00">X</text>
<text text-anchor="start" x="161.88" y="-60.16" font-family="Times,serif" baseline-shift="sub" font-size="14.00">3</text>
</g>
<!-- a_xh -->
<g id="node4" class="node">
<title>a_xh</title>
<ellipse fill="none" stroke="none" cx="218" cy="-64.21" rx="18.6" ry="18.6"/>
<text text-anchor="middle" x="218" y="-59.16" font-family="Times,serif" font-size="14.00">...</text>
</g>
<!-- a_xn -->
<g id="node5" class="node">
<title>a_xn</title>
<ellipse fill="none" stroke="black" cx="278" cy="-64.21" rx="23.71" ry="23.71"/>
<text text-anchor="start" x="268.62" y="-60.16" font-family="Times,serif" font-size="14.00">X</text>
<text text-anchor="start" x="278.38" y="-60.16" font-family="Times,serif" baseline-shift="sub" font-size="14.00">m</text>
</g>
<!-- a_y -->
<g id="node6" class="node">
<title>a_y</title>
<ellipse fill="none" stroke="black" cx="160" cy="-141.93" rx="18" ry="18"/>
<text text-anchor="middle" x="160" y="-136.88" font-family="Times,serif" font-size="14.00">Y</text>
</g>
<!-- a_y&#45;&gt;a_x1 -->
<g id="edge2" class="edge">
<title>a_y&#45;&gt;a_x1</title>
<path fill="none" stroke="black" d="M144.34,-132.69C125.74,-122.72 93.97,-105.14 68,-87.93 66.64,-87.03 65.26,-86.08 63.87,-85.12"/>
<polygon fill="black" stroke="black" points="66.24,-82.51 56.09,-79.46 62.12,-88.17 66.24,-82.51"/>
</g>
<!-- a_y&#45;&gt;a_x2 -->
<g id="edge3" class="edge">
<title>a_y&#45;&gt;a_x2</title>
<path fill="none" stroke="black" d="M149.09,-127.39C140.9,-117.22 129.44,-102.99 119.55,-90.71"/>
<polygon fill="black" stroke="black" points="122.31,-88.57 113.32,-82.98 116.86,-92.96 122.31,-88.57"/>
</g>
<!-- a_y&#45;&gt;a_x3 -->
<g id="edge4" class="edge">
<title>a_y&#45;&gt;a_x3</title>
<path fill="none" stroke="black" d="M160,-123.75C160,-115.98 160,-106.54 160,-97.53"/>
<polygon fill="black" stroke="black" points="163.5,-97.62 160,-87.62 156.5,-97.62 163.5,-97.62"/>
</g>
<!-- a_y&#45;&gt;a_xh -->
<g id="edge1" class="edge">
<title>a_y&#45;&gt;a_xh</title>
</g>
<!-- a_y&#45;&gt;a_xn -->
<g id="edge5" class="edge">
<title>a_y&#45;&gt;a_xn</title>
<path fill="none" stroke="black" d="M175.41,-131.84C192.77,-121.51 221.72,-104 246,-87.93 247.35,-87.03 248.72,-86.11 250.11,-85.17"/>
<polygon fill="black" stroke="black" points="251.72,-88.31 257.95,-79.73 247.73,-82.56 251.72,-88.31"/>
</g>
<!-- b_x1 -->
<g id="node7" class="node">
<title>b_x1</title>
<ellipse fill="none" stroke="black" cx="348" cy="-64.21" rx="21.67" ry="21.67"/>
<text text-anchor="start" x="340.12" y="-60.16" font-family="Times,serif" font-size="14.00">X</text>
<text text-anchor="start" x="349.88" y="-60.16" font-family="Times,serif" baseline-shift="sub" font-size="14.00">1</text>
</g>
<!-- b_x2 -->
<g id="node8" class="node">
<title>b_x2</title>
<ellipse fill="none" stroke="black" cx="409" cy="-64.21" rx="21.67" ry="21.67"/>
<text text-anchor="start" x="401.12" y="-60.16" font-family="Times,serif" font-size="14.00">X</text>
<text text-anchor="start" x="410.88" y="-60.16" font-family="Times,serif" baseline-shift="sub" font-size="14.00">2</text>
</g>
<!-- b_x1&#45;&gt;b_x2 -->
<g id="edge11" class="edge">
<title>b_x1&#45;&gt;b_x2</title>
<path fill="none" stroke="black" d="M369.92,-64.21C371.79,-64.21 373.66,-64.21 375.53,-64.21"/>
<polygon fill="black" stroke="black" points="375.51,-67.71 385.51,-64.21 375.5,-60.71 375.51,-67.71"/>
</g>
<!-- b_x3 -->
<g id="node9" class="node">
<title>b_x3</title>
<ellipse fill="none" stroke="black" cx="470" cy="-64.21" rx="21.67" ry="21.67"/>
<text text-anchor="start" x="462.12" y="-60.16" font-family="Times,serif" font-size="14.00">X</text>
<text text-anchor="start" x="471.88" y="-60.16" font-family="Times,serif" baseline-shift="sub" font-size="14.00">3</text>
</g>
<!-- b_xh -->
<g id="node10" class="node">
<title>b_xh</title>
<ellipse fill="none" stroke="none" cx="528" cy="-64.21" rx="18.6" ry="18.6"/>
<text text-anchor="middle" x="528" y="-59.16" font-family="Times,serif" font-size="14.00">...</text>
</g>
<!-- b_xn -->
<g id="node11" class="node">
<title>b_xn</title>
<ellipse fill="none" stroke="black" cx="588" cy="-64.21" rx="23.71" ry="23.71"/>
<text text-anchor="start" x="578.62" y="-60.16" font-family="Times,serif" font-size="14.00">X</text>
<text text-anchor="start" x="588.38" y="-60.16" font-family="Times,serif" baseline-shift="sub" font-size="14.00">m</text>
</g>
<!-- b_y -->
<g id="node12" class="node">
<title>b_y</title>
<ellipse fill="none" stroke="black" cx="470" cy="-141.93" rx="18" ry="18"/>
<text text-anchor="middle" x="470" y="-136.88" font-family="Times,serif" font-size="14.00">Y</text>
</g>
<!-- b_y&#45;&gt;b_x1 -->
<g id="edge7" class="edge">
<title>b_y&#45;&gt;b_x1</title>
<path fill="none" stroke="black" d="M454.34,-132.69C435.74,-122.72 403.97,-105.14 378,-87.93 376.64,-87.03 375.26,-86.08 373.87,-85.12"/>
<polygon fill="black" stroke="black" points="376.24,-82.51 366.09,-79.46 372.12,-88.17 376.24,-82.51"/>
</g>
<!-- b_y&#45;&gt;b_x2 -->
<g id="edge8" class="edge">
<title>b_y&#45;&gt;b_x2</title>
<path fill="none" stroke="black" d="M459.09,-127.39C450.9,-117.22 439.44,-102.99 429.55,-90.71"/>
<polygon fill="black" stroke="black" points="432.31,-88.57 423.32,-82.98 426.86,-92.96 432.31,-88.57"/>
</g>
<!-- b_y&#45;&gt;b_x3 -->
<g id="edge9" class="edge">
<title>b_y&#45;&gt;b_x3</title>
<path fill="none" stroke="black" d="M470,-123.75C470,-115.98 470,-106.54 470,-97.53"/>
<polygon fill="black" stroke="black" points="473.5,-97.62 470,-87.62 466.5,-97.62 473.5,-97.62"/>
</g>
<!-- b_y&#45;&gt;b_xh -->
<g id="edge6" class="edge">
<title>b_y&#45;&gt;b_xh</title>
</g>
<!-- b_y&#45;&gt;b_xn -->
<g id="edge10" class="edge">
<title>b_y&#45;&gt;b_xn</title>
<path fill="none" stroke="black" d="M485.41,-131.84C502.77,-121.51 531.72,-104 556,-87.93 557.35,-87.03 558.72,-86.11 560.11,-85.17"/>
<polygon fill="black" stroke="black" points="561.72,-88.31 567.95,-79.73 557.73,-82.56 561.72,-88.31"/>
</g>
<!-- c_x -->
<g id="node13" class="node">
<title>c_x</title>
<ellipse fill="none" stroke="black" cx="654" cy="-64.21" rx="18" ry="18"/>
<text text-anchor="middle" x="654" y="-59.16" font-family="Times,serif" font-size="14.00">X</text>
</g>
<!-- c_y -->
<g id="node14" class="node">
<title>c_y</title>
<ellipse fill="none" stroke="black" cx="654" cy="-141.93" rx="18" ry="18"/>
<text text-anchor="middle" x="654" y="-136.88" font-family="Times,serif" font-size="14.00">Y</text>
</g>
<!-- c_y&#45;&gt;c_x -->
<g id="edge12" class="edge">
<title>c_y&#45;&gt;c_x</title>
<path fill="none" stroke="black" d="M654,-123.75C654,-114.9 654,-103.89 654,-93.81"/>
<polygon fill="black" stroke="black" points="657.5,-94.1 654,-84.1 650.5,-94.1 657.5,-94.1"/>
</g>
</g>
</svg>
