<?xml version="1.0" encoding="UTF-8" standalone="no"?>
<!DOCTYPE svg PUBLIC "-//W3C//DTD SVG 1.1//EN"
 "http://www.w3.org/Graphics/SVG/1.1/DTD/svg11.dtd">
<!-- Generated by graphviz version 7.1.0 (20230121.1956)
 -->
<!-- Title: æ··åˆæ¨¡å‹çš„æœ‰å‘å›¾è¡¨ç¤º Pages: 1 -->
<svg width="204pt" height="182pt"
 viewBox="0.00 0.00 204.00 182.00" xmlns="http://www.w3.org/2000/svg" xmlns:xlink="http://www.w3.org/1999/xlink">
<g id="graph0" class="graph" transform="scale(1 1) rotate(0) translate(4 178)">
<title>æ··åˆæ¨¡å‹çš„æœ‰å‘å›¾è¡¨ç¤º</title>
<polygon fill="white" stroke="none" points="-4,4 -4,-178 200,-178 200,4 -4,4"/>
<g id="clust1" class="cluster">
<title>cluster_a</title>
<polygon fill="none" stroke="black" points="64,-91 64,-166 188,-166 188,-91 64,-91"/>
<text text-anchor="middle" x="126" y="-150.8" font-family="Times,serif" font-size="14.00">N</text>
</g>
<g id="clust3" class="cluster">
<title>cluster_b</title>
<polygon fill="none" stroke="black" points="64,-8 64,-83 116,-83 116,-8 64,-8"/>
<text text-anchor="middle" x="90" y="-67.8" font-family="Times,serif" font-size="14.00">K</text>
</g>
<!-- lambda -->
<g id="node1" class="node">
<title>lambda</title>
<text text-anchor="middle" x="18" y="-113.3" font-family="Times,serif" font-size="14.00">ğœ†</text>
</g>
<!-- Z -->
<g id="node2" class="node">
<title>Z</title>
<ellipse fill="none" stroke="black" cx="90" cy="-117" rx="18" ry="18"/>
<text text-anchor="start" x="83.5" y="-114.3" font-family="Times,serif" font-size="14.00">Z</text>
<text text-anchor="start" x="92.5" y="-114.3" font-family="Times,serif" baseline-shift="sub" font-size="14.00">i</text>
</g>
<!-- lambda&#45;&gt;Z -->
<g id="edge2" class="edge">
<title>lambda&#45;&gt;Z</title>
<path fill="none" stroke="black" d="M35.95,-117C43.32,-117 52.16,-117 60.49,-117"/>
<polygon fill="black" stroke="black" points="60.21,-120.5 70.21,-117 60.21,-113.5 60.21,-120.5"/>
</g>
<!-- X -->
<g id="node3" class="node">
<title>X</title>
<ellipse fill="lightgrey" stroke="black" cx="162" cy="-117" rx="18" ry="18"/>
<text text-anchor="start" x="155" y="-114.3" font-family="Times,serif" font-size="14.00">X</text>
<text text-anchor="start" x="165" y="-114.3" font-family="Times,serif" baseline-shift="sub" font-size="14.00">i</text>
</g>
<!-- Z&#45;&gt;X -->
<g id="edge1" class="edge">
<title>Z&#45;&gt;X</title>
<path fill="none" stroke="black" d="M108.3,-117C115.59,-117 124.27,-117 132.46,-117"/>
<polygon fill="black" stroke="black" points="132.38,-120.5 142.38,-117 132.38,-113.5 132.38,-120.5"/>
</g>
<!-- theta -->
<g id="node4" class="node">
<title>theta</title>
<text text-anchor="start" x="82.5" y="-31.3" font-family="Times,serif" font-size="14.00">ğœƒ</text>
<text text-anchor="start" x="90.5" y="-31.3" font-family="Times,serif" baseline-shift="sub" font-size="14.00">k</text>
</g>
<!-- theta&#45;&gt;X -->
<g id="edge3" class="edge">
<title>theta&#45;&gt;X</title>
<path fill="none" stroke="black" d="M105.85,-51.6C116.48,-64.21 130.87,-81.27 142.29,-94.81"/>
<polygon fill="black" stroke="black" points="139.53,-96.98 148.66,-102.36 144.88,-92.46 139.53,-96.98"/>
</g>
</g>
</svg>
