<?xml version="1.0" encoding="UTF-8" standalone="no"?>
<!DOCTYPE svg PUBLIC "-//W3C//DTD SVG 1.1//EN"
 "http://www.w3.org/Graphics/SVG/1.1/DTD/svg11.dtd">
<!-- Generated by graphviz version 2.43.0 (0)
 -->
<!-- Title: 生成模型与判别模型 Pages: 1 -->
<svg width="616pt" height="256pt"
 viewBox="0.00 0.00 616.00 255.66" xmlns="http://www.w3.org/2000/svg" xmlns:xlink="http://www.w3.org/1999/xlink">
<g id="graph0" class="graph" transform="scale(1 1) rotate(0) translate(4 251.66)">
<title>生成模型与判别模型</title>
<polygon fill="white" stroke="transparent" points="-4,4 -4,-251.66 612,-251.66 612,4 -4,4"/>
<g id="clust1" class="cluster">
<title>cluster_1</title>
<polygon fill="none" stroke="transparent" points="8,-87.83 8,-239.66 300,-239.66 300,-87.83 8,-87.83"/>
<text text-anchor="middle" x="154" y="-94.63" font-family="Times,serif" font-size="14.00">(a)</text>
</g>
<g id="clust3" class="cluster">
<title>cluster_2</title>
<polygon fill="none" stroke="transparent" points="308,-8 308,-239.66 600,-239.66 600,-8 308,-8"/>
<text text-anchor="middle" x="454" y="-14.8" font-family="Times,serif" font-size="14.00">(b)</text>
</g>
<!-- a_x1 -->
<g id="node1" class="node">
<title>a_x1</title>
<ellipse fill="none" stroke="black" cx="37" cy="-138.75" rx="20.83" ry="20.83"/>
<text text-anchor="start" x="28.44" y="-135.55" font-family="Times,serif" font-size="14.00">X</text>
<text text-anchor="start" x="38.56" y="-135.55" font-family="Times,serif" baseline-shift="sub" font-size="14.00">1</text>
</g>
<!-- a_x2 -->
<g id="node2" class="node">
<title>a_x2</title>
<ellipse fill="none" stroke="black" cx="97" cy="-138.75" rx="20.83" ry="20.83"/>
<text text-anchor="start" x="88.44" y="-135.55" font-family="Times,serif" font-size="14.00">X</text>
<text text-anchor="start" x="98.56" y="-135.55" font-family="Times,serif" baseline-shift="sub" font-size="14.00">2</text>
</g>
<!-- a_x3 -->
<g id="node3" class="node">
<title>a_x3</title>
<ellipse fill="none" stroke="black" cx="157" cy="-138.75" rx="20.83" ry="20.83"/>
<text text-anchor="start" x="148.44" y="-135.55" font-family="Times,serif" font-size="14.00">X</text>
<text text-anchor="start" x="158.56" y="-135.55" font-family="Times,serif" baseline-shift="sub" font-size="14.00">3</text>
</g>
<!-- a_xh -->
<g id="node4" class="node">
<title>a_xh</title>
<ellipse fill="none" stroke="transparent" cx="214" cy="-138.75" rx="18" ry="18"/>
<text text-anchor="middle" x="214" y="-134.55" font-family="Times,serif" font-size="14.00">...</text>
</g>
<!-- a_xn -->
<g id="node5" class="node">
<title>a_xn</title>
<ellipse fill="none" stroke="black" cx="271" cy="-138.75" rx="20.83" ry="20.83"/>
<text text-anchor="start" x="262.44" y="-135.55" font-family="Times,serif" font-size="14.00">X</text>
<text text-anchor="start" x="272.56" y="-135.55" font-family="Times,serif" baseline-shift="sub" font-size="14.00">n</text>
</g>
<!-- a_y -->
<g id="node6" class="node">
<title>a_y</title>
<ellipse fill="none" stroke="black" cx="157" cy="-213.66" rx="18" ry="18"/>
<text text-anchor="middle" x="157" y="-209.46" font-family="Times,serif" font-size="14.00">Y</text>
</g>
<!-- a_y&#45;&gt;a_x1 -->
<g id="edge2" class="edge">
<title>a_y&#45;&gt;a_x1</title>
<path fill="none" stroke="black" d="M141.56,-203.91C123.51,-193.59 92.82,-175.82 67,-159.66 65.54,-158.75 64.05,-157.8 62.55,-156.84"/>
<polygon fill="black" stroke="black" points="64.32,-153.81 54.03,-151.28 60.49,-159.68 64.32,-153.81"/>
</g>
<!-- a_y&#45;&gt;a_x2 -->
<g id="edge3" class="edge">
<title>a_y&#45;&gt;a_x2</title>
<path fill="none" stroke="black" d="M146,-199.29C137.69,-189.2 126.1,-175.1 116.27,-163.16"/>
<polygon fill="black" stroke="black" points="118.87,-160.81 109.81,-155.31 113.46,-165.26 118.87,-160.81"/>
</g>
<!-- a_y&#45;&gt;a_x3 -->
<g id="edge4" class="edge">
<title>a_y&#45;&gt;a_x3</title>
<path fill="none" stroke="black" d="M157,-195.38C157,-187.78 157,-178.61 157,-169.94"/>
<polygon fill="black" stroke="black" points="160.5,-169.74 157,-159.74 153.5,-169.74 160.5,-169.74"/>
</g>
<!-- a_y&#45;&gt;a_xh -->
<g id="edge1" class="edge">
<title>a_y&#45;&gt;a_xh</title>
</g>
<!-- a_y&#45;&gt;a_xn -->
<g id="edge5" class="edge">
<title>a_y&#45;&gt;a_xn</title>
<path fill="none" stroke="black" d="M171.94,-203.38C188.78,-192.88 216.97,-175.21 241,-159.66 242.44,-158.73 243.92,-157.76 245.41,-156.79"/>
<polygon fill="black" stroke="black" points="247.49,-159.61 253.91,-151.19 243.64,-153.77 247.49,-159.61"/>
</g>
<!-- b_x1 -->
<g id="node7" class="node">
<title>b_x1</title>
<ellipse fill="none" stroke="black" cx="337" cy="-58.92" rx="20.83" ry="20.83"/>
<text text-anchor="start" x="328.44" y="-55.72" font-family="Times,serif" font-size="14.00">X</text>
<text text-anchor="start" x="338.56" y="-55.72" font-family="Times,serif" baseline-shift="sub" font-size="14.00">1</text>
</g>
<!-- b_x2 -->
<g id="node8" class="node">
<title>b_x2</title>
<ellipse fill="none" stroke="black" cx="397" cy="-58.92" rx="20.83" ry="20.83"/>
<text text-anchor="start" x="388.44" y="-55.72" font-family="Times,serif" font-size="14.00">X</text>
<text text-anchor="start" x="398.56" y="-55.72" font-family="Times,serif" baseline-shift="sub" font-size="14.00">2</text>
</g>
<!-- b_x3 -->
<g id="node9" class="node">
<title>b_x3</title>
<ellipse fill="none" stroke="black" cx="457" cy="-58.92" rx="20.83" ry="20.83"/>
<text text-anchor="start" x="448.44" y="-55.72" font-family="Times,serif" font-size="14.00">X</text>
<text text-anchor="start" x="458.56" y="-55.72" font-family="Times,serif" baseline-shift="sub" font-size="14.00">3</text>
</g>
<!-- b_xh -->
<g id="node10" class="node">
<title>b_xh</title>
<ellipse fill="none" stroke="transparent" cx="514" cy="-58.92" rx="18" ry="18"/>
<text text-anchor="middle" x="514" y="-54.72" font-family="Times,serif" font-size="14.00">...</text>
</g>
<!-- b_xn -->
<g id="node11" class="node">
<title>b_xn</title>
<ellipse fill="none" stroke="black" cx="571" cy="-58.92" rx="20.83" ry="20.83"/>
<text text-anchor="start" x="562.44" y="-55.72" font-family="Times,serif" font-size="14.00">X</text>
<text text-anchor="start" x="572.56" y="-55.72" font-family="Times,serif" baseline-shift="sub" font-size="14.00">n</text>
</g>
<!-- b_y -->
<g id="node12" class="node">
<title>b_y</title>
<ellipse fill="none" stroke="black" cx="457" cy="-213.66" rx="18" ry="18"/>
<text text-anchor="middle" x="457" y="-209.46" font-family="Times,serif" font-size="14.00">Y</text>
</g>
<!-- b_s1 -->
<g id="node13" class="node">
<title>b_s1</title>
<polygon fill="none" stroke="black" points="366.5,-142.25 359.5,-142.25 359.5,-135.25 366.5,-135.25 366.5,-142.25"/>
</g>
<!-- b_y&#45;&gt;b_s1 -->
<g id="edge7" class="edge">
<title>b_y&#45;&gt;b_s1</title>
<path fill="none" stroke="black" d="M443.13,-201.9C420.86,-184.63 378.41,-151.7 366.3,-142.31"/>
</g>
<!-- b_s2 -->
<g id="node14" class="node">
<title>b_s2</title>
<polygon fill="none" stroke="black" points="418.5,-142.25 411.5,-142.25 411.5,-135.25 418.5,-135.25 418.5,-142.25"/>
</g>
<!-- b_y&#45;&gt;b_s2 -->
<g id="edge8" class="edge">
<title>b_y&#45;&gt;b_s2</title>
<path fill="none" stroke="black" d="M448.3,-197.55C438.11,-179.87 421.96,-151.83 416.71,-142.71"/>
</g>
<!-- b_s3 -->
<g id="node15" class="node">
<title>b_s3</title>
<polygon fill="none" stroke="black" points="460.5,-142.25 453.5,-142.25 453.5,-135.25 460.5,-135.25 460.5,-142.25"/>
</g>
<!-- b_y&#45;&gt;b_s3 -->
<g id="edge9" class="edge">
<title>b_y&#45;&gt;b_s3</title>
<path fill="none" stroke="black" d="M457,-195.38C457,-177.52 457,-151.09 457,-142.53"/>
</g>
<!-- b_sh -->
<g id="node16" class="node">
<title>b_sh</title>
<polygon fill="none" stroke="transparent" points="501.5,-142.25 494.5,-142.25 494.5,-135.25 501.5,-135.25 501.5,-142.25"/>
</g>
<!-- b_y&#45;&gt;b_sh -->
<g id="edge6" class="edge">
<title>b_y&#45;&gt;b_sh</title>
</g>
<!-- b_sn -->
<g id="node17" class="node">
<title>b_sn</title>
<polygon fill="none" stroke="black" points="550.5,-142.25 543.5,-142.25 543.5,-135.25 550.5,-135.25 550.5,-142.25"/>
</g>
<!-- b_y&#45;&gt;b_sn -->
<g id="edge10" class="edge">
<title>b_y&#45;&gt;b_sn</title>
<path fill="none" stroke="black" d="M470.67,-201.59C492.11,-184.22 532.39,-151.58 543.87,-142.28"/>
</g>
<!-- b_s1&#45;&gt;b_x1 -->
<g id="edge11" class="edge">
<title>b_s1&#45;&gt;b_x1</title>
<path fill="none" stroke="black" d="M362.13,-135.16C359.26,-126.56 349.86,-98.4 343.4,-79.09"/>
</g>
<!-- b_s2&#45;&gt;b_x2 -->
<g id="edge12" class="edge">
<title>b_s2&#45;&gt;b_x2</title>
<path fill="none" stroke="black" d="M414.4,-135.16C412.42,-126.61 405.98,-98.75 401.52,-79.44"/>
</g>
<!-- b_s3&#45;&gt;b_x3 -->
<g id="edge13" class="edge">
<title>b_s3&#45;&gt;b_x3</title>
<path fill="none" stroke="black" d="M457,-135.16C457,-126.72 457,-99.43 457,-80.16"/>
</g>
<!-- b_sh&#45;&gt;b_xh -->
<g id="edge15" class="edge">
<title>b_sh&#45;&gt;b_xh</title>
</g>
<!-- b_sn&#45;&gt;b_xn -->
<g id="edge14" class="edge">
<title>b_sn&#45;&gt;b_xn</title>
<path fill="none" stroke="black" d="M547.8,-135.16C550.45,-126.56 559.13,-98.4 565.09,-79.09"/>
</g>
</g>
</svg>
