<?xml version="1.0" encoding="UTF-8" standalone="no"?>
<!DOCTYPE svg PUBLIC "-//W3C//DTD SVG 1.1//EN"
 "http://www.w3.org/Graphics/SVG/1.1/DTD/svg11.dtd">
<!-- Generated by graphviz version 9.0.0 (20230911.1827)
 -->
<!-- Title: a1_3 Pages: 1 -->
<svg width="285pt" height="205pt"
 viewBox="0.00 0.00 284.67 205.49" xmlns="http://www.w3.org/2000/svg" xmlns:xlink="http://www.w3.org/1999/xlink">
<g id="graph0" class="graph" transform="scale(1 1) rotate(0) translate(4 201.49)">
<title>a1_3</title>
<polygon fill="white" stroke="none" points="-4,4 -4,-201.49 280.67,-201.49 280.67,4 -4,4"/>
<!-- a -->
<g id="node1" class="node">
<title>a</title>
<ellipse fill="none" stroke="black" cx="89.29" cy="-85.23" rx="27" ry="18"/>
<text text-anchor="middle" x="89.29" y="-80.18" font-family="Times,serif" font-size="14.00">a</text>
</g>
<!-- b -->
<g id="node2" class="node">
<title>b</title>
<ellipse fill="none" stroke="black" cx="171.01" cy="-98.42" rx="27" ry="18"/>
<text text-anchor="middle" x="171.01" y="-93.37" font-family="Times,serif" font-size="14.00">b</text>
</g>
<!-- a&#45;&gt;b -->
<g id="edge1" class="edge">
<title>a&#45;&gt;b</title>
<path fill="none" stroke="black" d="M115.6,-89.47C121.23,-90.38 127.28,-91.36 133.25,-92.32"/>
<polygon fill="black" stroke="black" points="132.55,-95.76 142.98,-93.89 133.67,-88.84 132.55,-95.76"/>
</g>
<!-- c -->
<g id="node3" class="node">
<title>c</title>
<ellipse fill="none" stroke="black" cx="46.68" cy="-18" rx="27" ry="18"/>
<text text-anchor="middle" x="46.68" y="-12.95" font-family="Times,serif" font-size="14.00">c</text>
</g>
<!-- a&#45;&gt;c -->
<g id="edge2" class="edge">
<title>a&#45;&gt;c</title>
<path fill="none" stroke="black" d="M78.54,-68.26C73.97,-61.04 68.52,-52.45 63.44,-44.43"/>
<polygon fill="black" stroke="black" points="66.4,-42.58 58.09,-36 60.49,-46.32 66.4,-42.58"/>
</g>
<!-- d -->
<g id="node4" class="node">
<title>d</title>
<ellipse fill="none" stroke="black" cx="27" cy="-134.49" rx="27" ry="18"/>
<text text-anchor="middle" x="27" y="-129.44" font-family="Times,serif" font-size="14.00">d</text>
</g>
<!-- a&#45;&gt;d -->
<g id="edge3" class="edge">
<title>a&#45;&gt;d</title>
<path fill="none" stroke="black" d="M71.61,-99.21C65.91,-103.72 59.46,-108.82 53.27,-113.72"/>
<polygon fill="black" stroke="black" points="51.37,-110.75 45.7,-119.7 55.72,-116.25 51.37,-110.75"/>
</g>
<!-- e -->
<g id="node5" class="node">
<title>e</title>
<ellipse fill="none" stroke="black" cx="249.67" cy="-110.22" rx="27" ry="18"/>
<text text-anchor="middle" x="249.67" y="-105.17" font-family="Times,serif" font-size="14.00">e</text>
</g>
<!-- b&#45;&gt;e -->
<g id="edge4" class="edge">
<title>b&#45;&gt;e</title>
<path fill="none" stroke="black" d="M197.64,-102.41C202.26,-103.11 207.13,-103.84 211.97,-104.56"/>
<polygon fill="black" stroke="black" points="211.16,-107.98 221.57,-106 212.2,-101.06 211.16,-107.98"/>
</g>
<!-- f -->
<g id="node6" class="node">
<title>f</title>
<ellipse fill="none" stroke="black" cx="180.38" cy="-179.49" rx="27" ry="18"/>
<text text-anchor="middle" x="180.38" y="-174.44" font-family="Times,serif" font-size="14.00">f</text>
</g>
<!-- b&#45;&gt;f -->
<g id="edge5" class="edge">
<title>b&#45;&gt;f</title>
<path fill="none" stroke="black" d="M173.14,-116.81C174.26,-126.56 175.67,-138.76 176.95,-149.81"/>
<polygon fill="black" stroke="black" points="173.46,-150.13 178.09,-159.66 180.42,-149.33 173.46,-150.13"/>
</g>
<!-- g -->
<g id="node7" class="node">
<title>g</title>
<ellipse fill="none" stroke="black" cx="204.61" cy="-24.01" rx="27" ry="18"/>
<text text-anchor="middle" x="204.61" y="-18.96" font-family="Times,serif" font-size="14.00">g</text>
</g>
<!-- b&#45;&gt;g -->
<g id="edge6" class="edge">
<title>b&#45;&gt;g</title>
<path fill="none" stroke="black" d="M178.97,-80.78C182.87,-72.17 187.64,-61.59 192.01,-51.91"/>
<polygon fill="black" stroke="black" points="195.16,-53.45 196.08,-42.9 188.78,-50.57 195.16,-53.45"/>
</g>
</g>
</svg>
