<?xml version="1.0" encoding="UTF-8" standalone="no"?>
<!DOCTYPE svg PUBLIC "-//W3C//DTD SVG 1.1//EN"
 "http://www.w3.org/Graphics/SVG/1.1/DTD/svg11.dtd">
<!-- Generated by graphviz version 2.43.0 (0)
 -->
<!-- Title: load_agent Pages: 1 -->
<svg width="4720pt" height="650pt"
 viewBox="0.00 0.00 4720.18 650.38" xmlns="http://www.w3.org/2000/svg" xmlns:xlink="http://www.w3.org/1999/xlink">
<g id="graph0" class="graph" transform="scale(1 1) rotate(0) translate(4 646.38)">
<title>load_agent</title>
<polygon fill="white" stroke="transparent" points="-4,4 -4,-646.38 4716.18,-646.38 4716.18,4 -4,4"/>
<g id="clust1" class="cluster">
<title>cluster_G</title>
<path fill="#808080" fill-opacity="0.094118" stroke="black" d="M4008.18,-8C4008.18,-8 4692.18,-8 4692.18,-8 4698.18,-8 4704.18,-14 4704.18,-20 4704.18,-20 4704.18,-622.38 4704.18,-622.38 4704.18,-628.38 4698.18,-634.38 4692.18,-634.38 4692.18,-634.38 4008.18,-634.38 4008.18,-634.38 4002.18,-634.38 3996.18,-628.38 3996.18,-622.38 3996.18,-622.38 3996.18,-20 3996.18,-20 3996.18,-14 4002.18,-8 4008.18,-8"/>
</g>
<g id="clust2" class="cluster">
<title>cluster_rasa__core__agent</title>
<path fill="#808080" fill-opacity="0.094118" stroke="black" d="M4150.18,-16C4150.18,-16 4684.18,-16 4684.18,-16 4690.18,-16 4696.18,-22 4696.18,-28 4696.18,-28 4696.18,-614.38 4696.18,-614.38 4696.18,-620.38 4690.18,-626.38 4684.18,-626.38 4684.18,-626.38 4150.18,-626.38 4150.18,-626.38 4144.18,-626.38 4138.18,-620.38 4138.18,-614.38 4138.18,-614.38 4138.18,-28 4138.18,-28 4138.18,-22 4144.18,-16 4150.18,-16"/>
<text text-anchor="middle" x="4417.18" y="-611.18" font-family="Times,serif" font-size="14.00">rasa.core.agent</text>
</g>
<!-- rasa__core__agent -->
<g id="node1" class="node">
<title>rasa__core__agent</title>
<ellipse fill="#ffffff" fill-opacity="0.698039" stroke="black" cx="4067.18" cy="-570.93" rx="63.27" ry="18"/>
<text text-anchor="middle" x="4067.18" y="-566.73" font-family="Times,serif" font-size="14.00" fill="#000000">rasa.core.agent</text>
</g>
<!-- rasa__core__agent__Agent -->
<g id="node2" class="node">
<title>rasa__core__agent__Agent</title>
<ellipse fill="#ff6565" fill-opacity="0.698039" stroke="black" cx="4255.18" cy="-484.01" rx="107.58" ry="25.41"/>
<text text-anchor="middle" x="4255.18" y="-486.81" font-family="Times,serif" font-size="14.00" fill="#000000">Agent</text>
<text text-anchor="middle" x="4255.18" y="-472.81" font-family="Times,serif" font-size="14.00" fill="#000000">(rasa/core/agent.py:332)</text>
</g>
<!-- rasa__core__agent___load_and_set_updated_model -->
<g id="node3" class="node">
<title>rasa__core__agent___load_and_set_updated_model</title>
<ellipse fill="#ff6565" fill-opacity="0.698039" stroke="black" cx="4281.18" cy="-136.37" rx="134.45" ry="25.41"/>
<text text-anchor="middle" x="4281.18" y="-139.17" font-family="Times,serif" font-size="14.00" fill="#000000">_load_and_set_updated_model</text>
<text text-anchor="middle" x="4281.18" y="-125.17" font-family="Times,serif" font-size="14.00" fill="#000000">(rasa/core/agent.py:119)</text>
</g>
<!-- rasa__core__agent___load_domain_and_policy_ensemble -->
<g id="node4" class="node">
<title>rasa__core__agent___load_domain_and_policy_ensemble</title>
<ellipse fill="#ff6565" fill-opacity="0.698039" stroke="black" cx="4305.18" cy="-49.46" rx="159.44" ry="25.41"/>
<text text-anchor="middle" x="4305.18" y="-52.26" font-family="Times,serif" font-size="14.00" fill="#000000">_load_domain_and_policy_ensemble</text>
<text text-anchor="middle" x="4305.18" y="-38.26" font-family="Times,serif" font-size="14.00" fill="#000000">(rasa/core/agent.py:97)</text>
</g>
<!-- rasa__core__agent___load_and_set_updated_model&#45;&gt;rasa__core__agent___load_domain_and_policy_ensemble -->
<g id="edge3" class="edge">
<title>rasa__core__agent___load_and_set_updated_model&#45;&gt;rasa__core__agent___load_domain_and_policy_ensemble</title>
<path fill="none" stroke="#000000" d="M4288.12,-110.81C4290.41,-102.71 4293,-93.55 4295.46,-84.86"/>
<polygon fill="#000000" stroke="#000000" points="4298.9,-85.54 4298.25,-74.96 4292.17,-83.63 4298.9,-85.54"/>
</g>
<!-- rasa__core__agent___load_interpreter -->
<g id="node5" class="node">
<title>rasa__core__agent___load_interpreter</title>
<ellipse fill="#ff6565" fill-opacity="0.698039" stroke="black" cx="4585.18" cy="-49.46" rx="102.68" ry="25.41"/>
<text text-anchor="middle" x="4585.18" y="-52.26" font-family="Times,serif" font-size="14.00" fill="#000000">_load_interpreter</text>
<text text-anchor="middle" x="4585.18" y="-38.26" font-family="Times,serif" font-size="14.00" fill="#000000">(rasa/core/agent.py:78)</text>
</g>
<!-- rasa__core__agent___load_and_set_updated_model&#45;&gt;rasa__core__agent___load_interpreter -->
<g id="edge4" class="edge">
<title>rasa__core__agent___load_and_set_updated_model&#45;&gt;rasa__core__agent___load_interpreter</title>
<path fill="none" stroke="#000000" d="M4354.38,-114.92C4401.13,-101.86 4461.62,-84.97 4508.95,-71.75"/>
<polygon fill="#000000" stroke="#000000" points="4510.14,-75.05 4518.83,-68.99 4508.26,-68.31 4510.14,-75.05"/>
</g>
<!-- rasa__core__agent___pull_model_and_fingerprint -->
<g id="node6" class="node">
<title>rasa__core__agent___pull_model_and_fingerprint</title>
<ellipse fill="#ff6565" fill-opacity="0.698039" stroke="black" cx="4561.18" cy="-136.37" rx="127.19" ry="25.41"/>
<text text-anchor="middle" x="4561.18" y="-139.17" font-family="Times,serif" font-size="14.00" fill="#000000">_pull_model_and_fingerprint</text>
<text text-anchor="middle" x="4561.18" y="-125.17" font-family="Times,serif" font-size="14.00" fill="#000000">(rasa/core/agent.py:175)</text>
</g>
<!-- rasa__core__agent___run_model_pulling_worker -->
<g id="node7" class="node">
<title>rasa__core__agent___run_model_pulling_worker</title>
<ellipse fill="#ff6565" fill-opacity="0.698039" stroke="black" cx="4527.18" cy="-310.19" rx="125.28" ry="25.41"/>
<text text-anchor="middle" x="4527.18" y="-312.99" font-family="Times,serif" font-size="14.00" fill="#000000">_run_model_pulling_worker</text>
<text text-anchor="middle" x="4527.18" y="-298.99" font-family="Times,serif" font-size="14.00" fill="#000000">(rasa/core/agent.py:245)</text>
</g>
<!-- rasa__core__agent___update_model_from_server -->
<g id="node8" class="node">
<title>rasa__core__agent___update_model_from_server</title>
<ellipse fill="#ff6565" fill-opacity="0.698039" stroke="black" cx="4455.18" cy="-223.28" rx="125.84" ry="25.41"/>
<text text-anchor="middle" x="4455.18" y="-226.08" font-family="Times,serif" font-size="14.00" fill="#000000">_update_model_from_server</text>
<text text-anchor="middle" x="4455.18" y="-212.08" font-family="Times,serif" font-size="14.00" fill="#000000">(rasa/core/agent.py:143)</text>
</g>
<!-- rasa__core__agent___run_model_pulling_worker&#45;&gt;rasa__core__agent___update_model_from_server -->
<g id="edge7" class="edge">
<title>rasa__core__agent___run_model_pulling_worker&#45;&gt;rasa__core__agent___update_model_from_server</title>
<path fill="none" stroke="#000000" d="M4506.36,-284.63C4498.83,-275.75 4490.22,-265.6 4482.23,-256.18"/>
<polygon fill="#000000" stroke="#000000" points="4484.85,-253.85 4475.71,-248.49 4479.51,-258.38 4484.85,-253.85"/>
</g>
<!-- rasa__core__agent___update_model_from_server&#45;&gt;rasa__core__agent___load_and_set_updated_model -->
<g id="edge5" class="edge">
<title>rasa__core__agent___update_model_from_server&#45;&gt;rasa__core__agent___load_and_set_updated_model</title>
<path fill="none" stroke="#000000" d="M4408.55,-199.52C4386.7,-188.86 4360.48,-176.06 4337.52,-164.86"/>
<polygon fill="#000000" stroke="#000000" points="4338.76,-161.57 4328.24,-160.33 4335.69,-167.86 4338.76,-161.57"/>
</g>
<!-- rasa__core__agent___update_model_from_server&#45;&gt;rasa__core__agent___pull_model_and_fingerprint -->
<g id="edge6" class="edge">
<title>rasa__core__agent___update_model_from_server&#45;&gt;rasa__core__agent___pull_model_and_fingerprint</title>
<path fill="none" stroke="#000000" d="M4484.99,-198.4C4496.84,-188.9 4510.63,-177.86 4523.19,-167.8"/>
<polygon fill="#000000" stroke="#000000" points="4525.61,-170.34 4531.23,-161.36 4521.24,-164.88 4525.61,-170.34"/>
</g>
<!-- rasa__core__agent__load_agent -->
<g id="node9" class="node">
<title>rasa__core__agent__load_agent</title>
<ellipse fill="#ff6565" fill-opacity="0.698039" stroke="black" cx="4256.18" cy="-570.93" rx="107.58" ry="25.41"/>
<text text-anchor="middle" x="4256.18" y="-573.73" font-family="Times,serif" font-size="14.00" fill="#000000">load_agent</text>
<text text-anchor="middle" x="4256.18" y="-559.73" font-family="Times,serif" font-size="14.00" fill="#000000">(rasa/core/agent.py:272)</text>
</g>
<!-- rasa__core__agent__load_agent&#45;&gt;rasa__core__agent__Agent -->
<g id="edge13" class="edge">
<title>rasa__core__agent__load_agent&#45;&gt;rasa__core__agent__Agent</title>
<path fill="none" stroke="#000000" d="M4255.89,-545.37C4255.8,-537.36 4255.69,-528.31 4255.59,-519.7"/>
<polygon fill="#000000" stroke="#000000" points="4259.09,-519.48 4255.47,-509.52 4252.09,-519.56 4259.09,-519.48"/>
</g>
<!-- rasa__core__agent__load_from_server -->
<g id="node10" class="node">
<title>rasa__core__agent__load_from_server</title>
<ellipse fill="#ff6565" fill-opacity="0.698039" stroke="black" cx="4484.18" cy="-484.01" rx="102.68" ry="25.41"/>
<text text-anchor="middle" x="4484.18" y="-486.81" font-family="Times,serif" font-size="14.00" fill="#000000">load_from_server</text>
<text text-anchor="middle" x="4484.18" y="-472.81" font-family="Times,serif" font-size="14.00" fill="#000000">(rasa/core/agent.py:58)</text>
</g>
<!-- rasa__core__agent__load_agent&#45;&gt;rasa__core__agent__load_from_server -->
<g id="edge9" class="edge">
<title>rasa__core__agent__load_agent&#45;&gt;rasa__core__agent__load_from_server</title>
<path fill="none" stroke="#000000" d="M4312.25,-549.05C4344.65,-536.98 4385.56,-521.74 4419.34,-509.16"/>
<polygon fill="#000000" stroke="#000000" points="4420.97,-512.29 4429.12,-505.52 4418.53,-505.73 4420.97,-512.29"/>
</g>
<!-- rasa__core__agent__Agent__load_local_model -->
<g id="node12" class="node">
<title>rasa__core__agent__Agent__load_local_model</title>
<ellipse fill="none" stroke="black" cx="2026.18" cy="-484.01" rx="179.11" ry="18"/>
<text text-anchor="middle" x="2026.18" y="-479.81" font-family="Times,serif" font-size="14.00">rasa__core__agent__Agent__load_local_model</text>
</g>
<!-- rasa__core__agent__load_agent&#45;&gt;rasa__core__agent__Agent__load_local_model -->
<g id="edge10" class="edge">
<title>rasa__core__agent__load_agent&#45;&gt;rasa__core__agent__Agent__load_local_model</title>
<path fill="none" stroke="#000000" d="M4183.93,-551.98C4170.78,-549.33 4157.13,-546.99 4144.18,-545.47 3718.36,-495.5 2642.76,-541.03 2215.18,-509.47 2187.7,-507.44 2158.1,-504.15 2130.67,-500.62"/>
<polygon fill="#000000" stroke="#000000" points="2131.04,-497.14 2120.67,-499.31 2130.13,-504.08 2131.04,-497.14"/>
</g>
<!-- rasa__core__agent__Agent____init__ -->
<g id="node13" class="node">
<title>rasa__core__agent__Agent____init__</title>
<ellipse fill="none" stroke="black" cx="1925.18" cy="-310.19" rx="145.35" ry="18"/>
<text text-anchor="middle" x="1925.18" y="-305.99" font-family="Times,serif" font-size="14.00">rasa__core__agent__Agent____init__</text>
</g>
<!-- rasa__core__agent__load_agent&#45;&gt;rasa__core__agent__Agent____init__ -->
<g id="edge11" class="edge">
<title>rasa__core__agent__load_agent&#45;&gt;rasa__core__agent__Agent____init__</title>
<path fill="none" stroke="#000000" d="M4182.33,-552.37C4169.66,-549.77 4156.58,-547.34 4144.18,-545.47 3499.38,-448.4 3302.82,-622.57 2682.18,-422.56 2640.27,-409.05 2639.19,-384.85 2597.18,-371.65 2377.02,-302.45 2308.48,-361.77 2079.18,-335.65 2058.49,-333.29 2036.34,-330.14 2015.46,-326.89"/>
<polygon fill="#000000" stroke="#000000" points="2015.75,-323.39 2005.32,-325.29 2014.66,-330.31 2015.75,-323.39"/>
</g>
<!-- rasa__core__agent__Agent__load_from_remote_storage -->
<g id="node14" class="node">
<title>rasa__core__agent__Agent__load_from_remote_storage</title>
<ellipse fill="none" stroke="black" cx="2435.18" cy="-484.01" rx="211.44" ry="18"/>
<text text-anchor="middle" x="2435.18" y="-479.81" font-family="Times,serif" font-size="14.00">rasa__core__agent__Agent__load_from_remote_storage</text>
</g>
<!-- rasa__core__agent__load_agent&#45;&gt;rasa__core__agent__Agent__load_from_remote_storage -->
<g id="edge12" class="edge">
<title>rasa__core__agent__load_agent&#45;&gt;rasa__core__agent__Agent__load_from_remote_storage</title>
<path fill="none" stroke="#000000" d="M4183.63,-551.98C4170.57,-549.35 4157.03,-547.01 4144.18,-545.47 3489.15,-466.74 3318.48,-553.15 2660.18,-509.47 2627.23,-507.28 2591.66,-503.9 2558.74,-500.33"/>
<polygon fill="#000000" stroke="#000000" points="2558.94,-496.83 2548.62,-499.22 2558.17,-503.79 2558.94,-496.83"/>
</g>
<!-- rasa__core__agent__load_from_server&#45;&gt;rasa__core__agent___update_model_from_server -->
<g id="edge1" class="edge">
<title>rasa__core__agent__load_from_server&#45;&gt;rasa__core__agent___update_model_from_server</title>
<path fill="none" stroke="#000000" d="M4439.96,-460.87C4425.16,-451.18 4410.16,-438.37 4401.18,-422.56 4370.88,-369.21 4369.34,-341.27 4393.18,-284.74 4397.88,-273.59 4405.75,-263.47 4414.34,-254.85"/>
<polygon fill="#000000" stroke="#000000" points="4416.77,-257.36 4421.66,-247.96 4411.98,-252.26 4416.77,-257.36"/>
</g>
<!-- rasa__core__agent__schedule_model_pulling -->
<g id="node11" class="node">
<title>rasa__core__agent__schedule_model_pulling</title>
<ellipse fill="#ff6565" fill-opacity="0.698039" stroke="black" cx="4519.18" cy="-397.1" rx="108.78" ry="25.41"/>
<text text-anchor="middle" x="4519.18" y="-399.9" font-family="Times,serif" font-size="14.00" fill="#000000">schedule_model_pulling</text>
<text text-anchor="middle" x="4519.18" y="-385.9" font-family="Times,serif" font-size="14.00" fill="#000000">(rasa/core/agent.py:259)</text>
</g>
<!-- rasa__core__agent__load_from_server&#45;&gt;rasa__core__agent__schedule_model_pulling -->
<g id="edge2" class="edge">
<title>rasa__core__agent__load_from_server&#45;&gt;rasa__core__agent__schedule_model_pulling</title>
<path fill="none" stroke="#000000" d="M4494.3,-458.45C4497.71,-450.18 4501.58,-440.8 4505.23,-431.94"/>
<polygon fill="#000000" stroke="#000000" points="4508.51,-433.19 4509.08,-422.61 4502.03,-430.52 4508.51,-433.19"/>
</g>
<!-- rasa__core__agent__schedule_model_pulling&#45;&gt;rasa__core__agent___run_model_pulling_worker -->
<g id="edge8" class="edge">
<title>rasa__core__agent__schedule_model_pulling&#45;&gt;rasa__core__agent___run_model_pulling_worker</title>
<path fill="none" stroke="#000000" d="M4521.49,-371.54C4522.25,-363.53 4523.1,-354.48 4523.91,-345.88"/>
<polygon fill="#000000" stroke="#000000" points="4527.42,-345.98 4524.87,-335.7 4520.45,-345.32 4527.42,-345.98"/>
</g>
<!-- rasa__core__agent__Agent__load_local_model&#45;&gt;rasa__core__agent__Agent____init__ -->
<g id="edge50" class="edge">
<title>rasa__core__agent__Agent__load_local_model&#45;&gt;rasa__core__agent__Agent____init__</title>
<path fill="none" stroke="#000000" d="M2002.58,-466.03C1988.79,-455.02 1972.03,-439.59 1961.18,-422.56 1944.62,-396.55 1935.04,-362.24 1929.99,-338.61"/>
<polygon fill="#000000" stroke="#000000" points="1933.37,-337.69 1927.98,-328.58 1926.51,-339.07 1933.37,-337.69"/>
</g>
<!-- rasa__core__agent__Agent__load -->
<g id="node21" class="node">
<title>rasa__core__agent__Agent__load</title>
<ellipse fill="none" stroke="black" cx="2457.18" cy="-397.1" rx="130.85" ry="18"/>
<text text-anchor="middle" x="2457.18" y="-392.9" font-family="Times,serif" font-size="14.00">rasa__core__agent__Agent__load</text>
</g>
<!-- rasa__core__agent__Agent__load_local_model&#45;&gt;rasa__core__agent__Agent__load -->
<g id="edge49" class="edge">
<title>rasa__core__agent__Agent__load_local_model&#45;&gt;rasa__core__agent__Agent__load</title>
<path fill="none" stroke="#000000" d="M2103.73,-467.74C2180.39,-452.63 2297.22,-429.62 2375.34,-414.23"/>
<polygon fill="#000000" stroke="#000000" points="2376.49,-417.57 2385.62,-412.2 2375.13,-410.7 2376.49,-417.57"/>
</g>
<!-- rasa__core__agent__Agent___create_lock_store -->
<g id="node15" class="node">
<title>rasa__core__agent__Agent___create_lock_store</title>
<ellipse fill="none" stroke="black" cx="1673.18" cy="-223.28" rx="182.46" ry="18"/>
<text text-anchor="middle" x="1673.18" y="-219.08" font-family="Times,serif" font-size="14.00">rasa__core__agent__Agent___create_lock_store</text>
</g>
<!-- rasa__core__agent__Agent____init__&#45;&gt;rasa__core__agent__Agent___create_lock_store -->
<g id="edge14" class="edge">
<title>rasa__core__agent__Agent____init__&#45;&gt;rasa__core__agent__Agent___create_lock_store</title>
<path fill="none" stroke="#000000" d="M1877.49,-293.12C1836.01,-279.14 1775.78,-258.85 1731.46,-243.91"/>
<polygon fill="#000000" stroke="#000000" points="1732.56,-240.6 1721.97,-240.72 1730.33,-247.23 1732.56,-240.6"/>
</g>
<!-- rasa__core__agent__Agent__create_tracker_store -->
<g id="node16" class="node">
<title>rasa__core__agent__Agent__create_tracker_store</title>
<ellipse fill="none" stroke="black" cx="1327.18" cy="-136.37" rx="187.26" ry="18"/>
<text text-anchor="middle" x="1327.18" y="-132.17" font-family="Times,serif" font-size="14.00">rasa__core__agent__Agent__create_tracker_store</text>
</g>
<!-- rasa__core__agent__Agent____init__&#45;&gt;rasa__core__agent__Agent__create_tracker_store -->
<g id="edge15" class="edge">
<title>rasa__core__agent__Agent____init__&#45;&gt;rasa__core__agent__Agent__create_tracker_store</title>
<path fill="none" stroke="#000000" d="M1918.01,-291.78C1905.96,-263.44 1881.3,-209.31 1864.18,-197.82 1809.08,-160.86 1650.95,-146.29 1520.45,-140.65"/>
<polygon fill="#000000" stroke="#000000" points="1520.44,-137.14 1510.31,-140.22 1520.15,-144.14 1520.44,-137.14"/>
</g>
<!-- rasa__core__agent__Agent___create_domain -->
<g id="node17" class="node">
<title>rasa__core__agent__Agent___create_domain</title>
<ellipse fill="none" stroke="black" cx="2834.18" cy="-223.28" rx="172.34" ry="18"/>
<text text-anchor="middle" x="2834.18" y="-219.08" font-family="Times,serif" font-size="14.00">rasa__core__agent__Agent___create_domain</text>
</g>
<!-- rasa__core__agent__Agent____init__&#45;&gt;rasa__core__agent__Agent___create_domain -->
<g id="edge16" class="edge">
<title>rasa__core__agent__Agent____init__&#45;&gt;rasa__core__agent__Agent___create_domain</title>
<path fill="none" stroke="#000000" d="M2004.92,-295.08C2028.74,-291.25 2054.97,-287.43 2079.18,-284.74 2327.5,-257.11 2391.46,-272.37 2640.18,-248.74 2667.57,-246.13 2697.06,-242.73 2724.58,-239.29"/>
<polygon fill="#000000" stroke="#000000" points="2725.14,-242.74 2734.62,-238.02 2724.26,-235.8 2725.14,-242.74"/>
</g>
<!-- rasa__core__agent__Agent___create_ensemble -->
<g id="node18" class="node">
<title>rasa__core__agent__Agent___create_ensemble</title>
<ellipse fill="none" stroke="black" cx="2090.18" cy="-223.28" rx="179.08" ry="18"/>
<text text-anchor="middle" x="2090.18" y="-219.08" font-family="Times,serif" font-size="14.00">rasa__core__agent__Agent___create_ensemble</text>
</g>
<!-- rasa__core__agent__Agent____init__&#45;&gt;rasa__core__agent__Agent___create_ensemble -->
<g id="edge17" class="edge">
<title>rasa__core__agent__Agent____init__&#45;&gt;rasa__core__agent__Agent___create_ensemble</title>
<path fill="none" stroke="#000000" d="M1957.39,-292.62C1983.34,-279.26 2020.03,-260.38 2048.27,-245.85"/>
<polygon fill="#000000" stroke="#000000" points="2050.2,-248.79 2057.49,-241.1 2047,-242.56 2050.2,-248.79"/>
</g>
<!-- rasa__core__agent__Agent___set_fingerprint -->
<g id="node19" class="node">
<title>rasa__core__agent__Agent___set_fingerprint</title>
<ellipse fill="none" stroke="black" cx="2459.18" cy="-223.28" rx="171.9" ry="18"/>
<text text-anchor="middle" x="2459.18" y="-219.08" font-family="Times,serif" font-size="14.00">rasa__core__agent__Agent___set_fingerprint</text>
</g>
<!-- rasa__core__agent__Agent____init__&#45;&gt;rasa__core__agent__Agent___set_fingerprint -->
<g id="edge18" class="edge">
<title>rasa__core__agent__Agent____init__&#45;&gt;rasa__core__agent__Agent___set_fingerprint</title>
<path fill="none" stroke="#000000" d="M2010.68,-295.6C2105.54,-280.51 2258.43,-256.2 2358.87,-240.23"/>
<polygon fill="#000000" stroke="#000000" points="2359.71,-243.64 2369.03,-238.61 2358.61,-236.73 2359.71,-243.64"/>
</g>
<!-- rasa__core__agent__Agent__load_from_remote_storage&#45;&gt;rasa__core__agent__Agent__load -->
<g id="edge51" class="edge">
<title>rasa__core__agent__Agent__load_from_remote_storage&#45;&gt;rasa__core__agent__Agent__load</title>
<path fill="none" stroke="#000000" d="M2439.63,-465.83C2442.64,-454.21 2446.69,-438.61 2450.13,-425.31"/>
<polygon fill="#000000" stroke="#000000" points="2453.62,-425.82 2452.74,-415.26 2446.84,-424.06 2453.62,-425.82"/>
</g>
<!-- rasa__core__agent__Agent__update_model -->
<g id="node20" class="node">
<title>rasa__core__agent__Agent__update_model</title>
<ellipse fill="none" stroke="black" cx="2640.18" cy="-310.19" rx="165.59" ry="18"/>
<text text-anchor="middle" x="2640.18" y="-305.99" font-family="Times,serif" font-size="14.00">rasa__core__agent__Agent__update_model</text>
</g>
<!-- rasa__core__agent__Agent__update_model&#45;&gt;rasa__core__agent__Agent___create_domain -->
<g id="edge19" class="edge">
<title>rasa__core__agent__Agent__update_model&#45;&gt;rasa__core__agent__Agent___create_domain</title>
<path fill="none" stroke="#000000" d="M2678.05,-292.62C2709.06,-279.04 2753.11,-259.76 2786.52,-245.14"/>
<polygon fill="#000000" stroke="#000000" points="2788.32,-248.17 2796.08,-240.96 2785.52,-241.76 2788.32,-248.17"/>
</g>
<!-- rasa__core__agent__Agent__update_model&#45;&gt;rasa__core__agent__Agent___set_fingerprint -->
<g id="edge20" class="edge">
<title>rasa__core__agent__Agent__update_model&#45;&gt;rasa__core__agent__Agent___set_fingerprint</title>
<path fill="none" stroke="#000000" d="M2604.42,-292.42C2575.66,-278.92 2535.1,-259.89 2504.14,-245.37"/>
<polygon fill="#000000" stroke="#000000" points="2505.41,-242.1 2494.87,-241.02 2502.43,-248.44 2505.41,-242.1"/>
</g>
<!-- rasa__core__agent__Agent__load&#45;&gt;rasa__core__agent__Agent____init__ -->
<g id="edge21" class="edge">
<title>rasa__core__agent__Agent__load&#45;&gt;rasa__core__agent__Agent____init__</title>
<path fill="none" stroke="#000000" d="M2380.94,-382.46C2360.27,-378.85 2337.88,-375.02 2317.18,-371.65 2211.59,-354.44 2184.9,-352.04 2079.18,-335.65 2060.16,-332.7 2039.82,-329.5 2020.37,-326.42"/>
<polygon fill="#000000" stroke="#000000" points="2020.72,-322.93 2010.29,-324.82 2019.62,-329.84 2020.72,-322.93"/>
</g>
<!-- rasa__core__agent__Agent__is_core_ready -->
<g id="node22" class="node">
<title>rasa__core__agent__Agent__is_core_ready</title>
<ellipse fill="none" stroke="black" cx="2253.18" cy="-310.19" rx="165.09" ry="18"/>
<text text-anchor="middle" x="2253.18" y="-305.99" font-family="Times,serif" font-size="14.00">rasa__core__agent__Agent__is_core_ready</text>
</g>
<!-- rasa__core__agent__Agent__is_ready -->
<g id="node23" class="node">
<title>rasa__core__agent__Agent__is_ready</title>
<ellipse fill="none" stroke="black" cx="1327.18" cy="-223.28" rx="145.81" ry="18"/>
<text text-anchor="middle" x="1327.18" y="-219.08" font-family="Times,serif" font-size="14.00">rasa__core__agent__Agent__is_ready</text>
</g>
<!-- rasa__core__agent__Agent__is_core_ready&#45;&gt;rasa__core__agent__Agent__is_ready -->
<g id="edge22" class="edge">
<title>rasa__core__agent__Agent__is_core_ready&#45;&gt;rasa__core__agent__Agent__is_ready</title>
<path fill="none" stroke="#000000" d="M2162.59,-295.07C2135.79,-291.27 2106.35,-287.46 2079.18,-284.74 1814.69,-258.22 1746.44,-277.48 1482.18,-248.74 1461.02,-246.43 1438.34,-243.26 1417.04,-239.96"/>
<polygon fill="#000000" stroke="#000000" points="1417.46,-236.48 1407.03,-238.38 1416.37,-243.4 1417.46,-236.48"/>
</g>
<!-- rasa__core__agent__Agent__is_ready&#45;&gt;rasa__core__agent__Agent__create_tracker_store -->
<g id="edge23" class="edge">
<title>rasa__core__agent__Agent__is_ready&#45;&gt;rasa__core__agent__Agent__create_tracker_store</title>
<path fill="none" stroke="#000000" d="M1327.18,-205.1C1327.18,-193.47 1327.18,-177.87 1327.18,-164.58"/>
<polygon fill="#000000" stroke="#000000" points="1330.68,-164.53 1327.18,-154.53 1323.68,-164.53 1330.68,-164.53"/>
</g>
<!-- rasa__core__agent__Agent__parse_message_using_nlu_interpreter -->
<g id="node24" class="node">
<title>rasa__core__agent__Agent__parse_message_using_nlu_interpreter</title>
<ellipse fill="none" stroke="black" cx="1327.18" cy="-397.1" rx="249.08" ry="18"/>
<text text-anchor="middle" x="1327.18" y="-392.9" font-family="Times,serif" font-size="14.00">rasa__core__agent__Agent__parse_message_using_nlu_interpreter</text>
</g>
<!-- rasa__core__agent__Agent__create_processor -->
<g id="node25" class="node">
<title>rasa__core__agent__Agent__create_processor</title>
<ellipse fill="none" stroke="black" cx="1327.18" cy="-310.19" rx="175.22" ry="18"/>
<text text-anchor="middle" x="1327.18" y="-305.99" font-family="Times,serif" font-size="14.00">rasa__core__agent__Agent__create_processor</text>
</g>
<!-- rasa__core__agent__Agent__parse_message_using_nlu_interpreter&#45;&gt;rasa__core__agent__Agent__create_processor -->
<g id="edge24" class="edge">
<title>rasa__core__agent__Agent__parse_message_using_nlu_interpreter&#45;&gt;rasa__core__agent__Agent__create_processor</title>
<path fill="none" stroke="#000000" d="M1327.18,-378.92C1327.18,-367.3 1327.18,-351.7 1327.18,-338.4"/>
<polygon fill="#000000" stroke="#000000" points="1330.68,-338.35 1327.18,-328.35 1323.68,-338.35 1330.68,-338.35"/>
</g>
<!-- rasa__core__agent__Agent__create_processor&#45;&gt;rasa__core__agent__Agent___create_lock_store -->
<g id="edge45" class="edge">
<title>rasa__core__agent__Agent__create_processor&#45;&gt;rasa__core__agent__Agent___create_lock_store</title>
<path fill="none" stroke="#000000" d="M1391.45,-293.42C1450.04,-279.04 1536.62,-257.79 1598.31,-242.65"/>
<polygon fill="#000000" stroke="#000000" points="1599.5,-245.97 1608.38,-240.18 1597.83,-239.17 1599.5,-245.97"/>
</g>
<!-- rasa__core__agent__Agent__create_processor&#45;&gt;rasa__core__agent__Agent__create_tracker_store -->
<g id="edge46" class="edge">
<title>rasa__core__agent__Agent__create_processor&#45;&gt;rasa__core__agent__Agent__create_tracker_store</title>
<path fill="none" stroke="#000000" d="M1239.15,-294.55C1213.27,-285.71 1187.74,-271.51 1172.18,-248.74 1159.41,-230.05 1159.41,-216.51 1172.18,-197.82 1185.66,-178.1 1206.6,-164.82 1228.77,-155.86"/>
<polygon fill="#000000" stroke="#000000" points="1230.2,-159.07 1238.34,-152.28 1227.75,-152.51 1230.2,-159.07"/>
</g>
<!-- rasa__core__agent__Agent__create_processor&#45;&gt;rasa__core__agent__Agent___create_domain -->
<g id="edge48" class="edge">
<title>rasa__core__agent__Agent__create_processor&#45;&gt;rasa__core__agent__Agent___create_domain</title>
<path fill="none" stroke="#000000" d="M1475.15,-300.53C1561.48,-295.61 1672.48,-289.5 1771.18,-284.74 2157.29,-266.1 2254.97,-280.94 2640.18,-248.74 2668.2,-246.39 2698.4,-243.01 2726.43,-239.5"/>
<polygon fill="#000000" stroke="#000000" points="2727.17,-242.93 2736.65,-238.2 2726.29,-235.99 2727.17,-242.93"/>
</g>
<!-- rasa__core__agent__Agent__create_processor&#45;&gt;rasa__core__agent__Agent__is_ready -->
<g id="edge47" class="edge">
<title>rasa__core__agent__Agent__create_processor&#45;&gt;rasa__core__agent__Agent__is_ready</title>
<path fill="none" stroke="#000000" d="M1327.18,-292.01C1327.18,-280.38 1327.18,-264.78 1327.18,-251.49"/>
<polygon fill="#000000" stroke="#000000" points="1330.68,-251.44 1327.18,-241.44 1323.68,-251.44 1330.68,-251.44"/>
</g>
<!-- rasa__core__agent__Agent__handle_message -->
<g id="node26" class="node">
<title>rasa__core__agent__Agent__handle_message</title>
<ellipse fill="none" stroke="black" cx="200.18" cy="-397.1" rx="173.8" ry="18"/>
<text text-anchor="middle" x="200.18" y="-392.9" font-family="Times,serif" font-size="14.00">rasa__core__agent__Agent__handle_message</text>
</g>
<!-- rasa__core__agent__Agent__handle_message&#45;&gt;rasa__core__agent__Agent__is_ready -->
<g id="edge26" class="edge">
<title>rasa__core__agent__Agent__handle_message&#45;&gt;rasa__core__agent__Agent__is_ready</title>
<path fill="none" stroke="#000000" d="M293.37,-381.9C503.88,-349.8 1014.51,-271.95 1229.35,-239.19"/>
<polygon fill="#000000" stroke="#000000" points="1230,-242.64 1239.36,-237.67 1228.94,-235.72 1230,-242.64"/>
</g>
<!-- rasa__core__agent__Agent__handle_message&#45;&gt;rasa__core__agent__Agent__create_processor -->
<g id="edge25" class="edge">
<title>rasa__core__agent__Agent__handle_message&#45;&gt;rasa__core__agent__Agent__create_processor</title>
<path fill="none" stroke="#000000" d="M295.96,-382.04C324.02,-378.26 354.79,-374.45 383.18,-371.65 654.12,-344.9 970.03,-327.44 1159.05,-318.46"/>
<polygon fill="#000000" stroke="#000000" points="1159.25,-321.95 1169.07,-317.98 1158.92,-314.96 1159.25,-321.95"/>
</g>
<!-- rasa__core__agent__Agent__handle_message__noop -->
<g id="node27" class="node">
<title>rasa__core__agent__Agent__handle_message__noop</title>
<ellipse fill="none" stroke="black" cx="200.18" cy="-310.19" rx="200.36" ry="18"/>
<text text-anchor="middle" x="200.18" y="-305.99" font-family="Times,serif" font-size="14.00">rasa__core__agent__Agent__handle_message__noop</text>
</g>
<!-- rasa__core__agent__Agent__handle_message&#45;&gt;rasa__core__agent__Agent__handle_message__noop -->
<g id="edge27" class="edge">
<title>rasa__core__agent__Agent__handle_message&#45;&gt;rasa__core__agent__Agent__handle_message__noop</title>
<path fill="none" stroke="#000000" d="M200.18,-378.92C200.18,-367.3 200.18,-351.7 200.18,-338.4"/>
<polygon fill="#000000" stroke="#000000" points="203.68,-338.35 200.18,-328.35 196.68,-338.35 203.68,-338.35"/>
</g>
<!-- rasa__core__agent__Agent__predict_next -->
<g id="node28" class="node">
<title>rasa__core__agent__Agent__predict_next</title>
<ellipse fill="none" stroke="black" cx="1754.18" cy="-397.1" rx="159.79" ry="18"/>
<text text-anchor="middle" x="1754.18" y="-392.9" font-family="Times,serif" font-size="14.00">rasa__core__agent__Agent__predict_next</text>
</g>
<!-- rasa__core__agent__Agent__predict_next&#45;&gt;rasa__core__agent__Agent__create_processor -->
<g id="edge28" class="edge">
<title>rasa__core__agent__Agent__predict_next&#45;&gt;rasa__core__agent__Agent__create_processor</title>
<path fill="none" stroke="#000000" d="M1678.82,-381.12C1604.81,-366.4 1491.99,-343.96 1414.2,-328.5"/>
<polygon fill="#000000" stroke="#000000" points="1414.43,-324.97 1403.94,-326.46 1413.07,-331.84 1414.43,-324.97"/>
</g>
<!-- rasa__core__agent__Agent__log_message -->
<g id="node29" class="node">
<title>rasa__core__agent__Agent__log_message</title>
<ellipse fill="none" stroke="black" cx="553.18" cy="-397.1" rx="161.26" ry="18"/>
<text text-anchor="middle" x="553.18" y="-392.9" font-family="Times,serif" font-size="14.00">rasa__core__agent__Agent__log_message</text>
</g>
<!-- rasa__core__agent__Agent__log_message&#45;&gt;rasa__core__agent__Agent__create_processor -->
<g id="edge29" class="edge">
<title>rasa__core__agent__Agent__log_message&#45;&gt;rasa__core__agent__Agent__create_processor</title>
<path fill="none" stroke="#000000" d="M644.4,-382.24C669.87,-378.57 697.58,-374.77 723.18,-371.65 882.42,-352.23 1065.84,-334.53 1188.38,-323.37"/>
<polygon fill="#000000" stroke="#000000" points="1188.93,-326.83 1198.57,-322.44 1188.3,-319.86 1188.93,-326.83"/>
</g>
<!-- rasa__core__agent__Agent__execute_action -->
<g id="node30" class="node">
<title>rasa__core__agent__Agent__execute_action</title>
<ellipse fill="none" stroke="black" cx="2139.18" cy="-397.1" rx="168.96" ry="18"/>
<text text-anchor="middle" x="2139.18" y="-392.9" font-family="Times,serif" font-size="14.00">rasa__core__agent__Agent__execute_action</text>
</g>
<!-- rasa__core__agent__Agent__execute_action&#45;&gt;rasa__core__agent__Agent___create_domain -->
<g id="edge31" class="edge">
<title>rasa__core__agent__Agent__execute_action&#45;&gt;rasa__core__agent__Agent___create_domain</title>
<path fill="none" stroke="#000000" d="M2232.81,-382.09C2259.98,-378.33 2289.73,-374.52 2317.18,-371.65 2372.36,-365.87 2774.1,-372.93 2815.18,-335.65 2838.06,-314.89 2839.98,-277.52 2838.07,-251.83"/>
<polygon fill="#000000" stroke="#000000" points="2841.52,-251.23 2837.06,-241.62 2834.56,-251.92 2841.52,-251.23"/>
</g>
<!-- rasa__core__agent__Agent__execute_action&#45;&gt;rasa__core__agent__Agent__create_processor -->
<g id="edge30" class="edge">
<title>rasa__core__agent__Agent__execute_action&#45;&gt;rasa__core__agent__Agent__create_processor</title>
<path fill="none" stroke="#000000" d="M2029.32,-383.41C1995.31,-379.55 1957.7,-375.35 1923.18,-371.65 1763.63,-354.52 1579.91,-336.08 1459.11,-324.13"/>
<polygon fill="#000000" stroke="#000000" points="1459.37,-320.64 1449.08,-323.14 1458.68,-327.6 1459.37,-320.64"/>
</g>
<!-- rasa__core__agent__Agent__trigger_intent -->
<g id="node31" class="node">
<title>rasa__core__agent__Agent__trigger_intent</title>
<ellipse fill="none" stroke="black" cx="896.18" cy="-397.1" rx="163.66" ry="18"/>
<text text-anchor="middle" x="896.18" y="-392.9" font-family="Times,serif" font-size="14.00">rasa__core__agent__Agent__trigger_intent</text>
</g>
<!-- rasa__core__agent__Agent__trigger_intent&#45;&gt;rasa__core__agent__Agent__create_processor -->
<g id="edge32" class="edge">
<title>rasa__core__agent__Agent__trigger_intent&#45;&gt;rasa__core__agent__Agent__create_processor</title>
<path fill="none" stroke="#000000" d="M972.24,-381.12C1047.21,-366.35 1161.64,-343.8 1240.19,-328.33"/>
<polygon fill="#000000" stroke="#000000" points="1240.93,-331.75 1250.07,-326.38 1239.58,-324.88 1240.93,-331.75"/>
</g>
<!-- rasa__core__agent__Agent__handle_text -->
<g id="node32" class="node">
<title>rasa__core__agent__Agent__handle_text</title>
<ellipse fill="none" stroke="black" cx="200.18" cy="-484.01" rx="156.9" ry="18"/>
<text text-anchor="middle" x="200.18" y="-479.81" font-family="Times,serif" font-size="14.00">rasa__core__agent__Agent__handle_text</text>
</g>
<!-- rasa__core__agent__Agent__handle_text&#45;&gt;rasa__core__agent__Agent__handle_message -->
<g id="edge33" class="edge">
<title>rasa__core__agent__Agent__handle_text&#45;&gt;rasa__core__agent__Agent__handle_message</title>
<path fill="none" stroke="#000000" d="M200.18,-465.83C200.18,-454.21 200.18,-438.61 200.18,-425.31"/>
<polygon fill="#000000" stroke="#000000" points="203.68,-425.26 200.18,-415.26 196.68,-425.26 203.68,-425.26"/>
</g>
<!-- rasa__core__agent__Agent___are_all_featurizers_using_a_max_history -->
<g id="node33" class="node">
<title>rasa__core__agent__Agent___are_all_featurizers_using_a_max_history</title>
<ellipse fill="none" stroke="black" cx="3722.18" cy="-223.28" rx="266.45" ry="18"/>
<text text-anchor="middle" x="3722.18" y="-219.08" font-family="Times,serif" font-size="14.00">rasa__core__agent__Agent___are_all_featurizers_using_a_max_history</text>
</g>
<!-- rasa__core__agent__Agent___are_all_featurizers_using_a_max_history__has_max_history_featurizer -->
<g id="node34" class="node">
<title>rasa__core__agent__Agent___are_all_featurizers_using_a_max_history__has_max_history_featurizer</title>
<ellipse fill="none" stroke="black" cx="3614.18" cy="-136.37" rx="374.07" ry="18"/>
<text text-anchor="middle" x="3614.18" y="-132.17" font-family="Times,serif" font-size="14.00">rasa__core__agent__Agent___are_all_featurizers_using_a_max_history__has_max_history_featurizer</text>
</g>
<!-- rasa__core__agent__Agent___are_all_featurizers_using_a_max_history&#45;&gt;rasa__core__agent__Agent___are_all_featurizers_using_a_max_history__has_max_history_featurizer -->
<g id="edge34" class="edge">
<title>rasa__core__agent__Agent___are_all_featurizers_using_a_max_history&#45;&gt;rasa__core__agent__Agent___are_all_featurizers_using_a_max_history__has_max_history_featurizer</title>
<path fill="none" stroke="#000000" d="M3700.59,-205.3C3684.36,-192.54 3661.93,-174.91 3644,-160.81"/>
<polygon fill="#000000" stroke="#000000" points="3646.13,-158.04 3636.11,-154.61 3641.81,-163.54 3646.13,-158.04"/>
</g>
<!-- rasa__core__agent__Agent__load_data -->
<g id="node35" class="node">
<title>rasa__core__agent__Agent__load_data</title>
<ellipse fill="none" stroke="black" cx="3780.18" cy="-310.19" rx="150.15" ry="18"/>
<text text-anchor="middle" x="3780.18" y="-305.99" font-family="Times,serif" font-size="14.00">rasa__core__agent__Agent__load_data</text>
</g>
<!-- rasa__core__agent__Agent__load_data&#45;&gt;rasa__core__agent__Agent___create_domain -->
<g id="edge35" class="edge">
<title>rasa__core__agent__Agent__load_data&#45;&gt;rasa__core__agent__Agent___create_domain</title>
<path fill="none" stroke="#000000" d="M3697.42,-295.12C3672.93,-291.32 3646.02,-287.5 3621.18,-284.74 3390.5,-259.07 3331.54,-267.36 3100.18,-248.74 3056.53,-245.22 3008.89,-240.97 2966.14,-237.01"/>
<polygon fill="#000000" stroke="#000000" points="2966.24,-233.5 2955.96,-236.06 2965.59,-240.47 2966.24,-233.5"/>
</g>
<!-- rasa__core__agent__Agent__load_data&#45;&gt;rasa__core__agent__Agent___are_all_featurizers_using_a_max_history -->
<g id="edge36" class="edge">
<title>rasa__core__agent__Agent__load_data&#45;&gt;rasa__core__agent__Agent___are_all_featurizers_using_a_max_history</title>
<path fill="none" stroke="#000000" d="M3768.44,-292.01C3760.19,-279.92 3749,-263.54 3739.69,-249.92"/>
<polygon fill="#000000" stroke="#000000" points="3742.43,-247.72 3733.9,-241.44 3736.65,-251.67 3742.43,-247.72"/>
</g>
<!-- rasa__core__agent__Agent___max_history -->
<g id="node36" class="node">
<title>rasa__core__agent__Agent___max_history</title>
<ellipse fill="none" stroke="black" cx="3273.18" cy="-223.28" rx="164.16" ry="18"/>
<text text-anchor="middle" x="3273.18" y="-219.08" font-family="Times,serif" font-size="14.00">rasa__core__agent__Agent___max_history</text>
</g>
<!-- rasa__core__agent__Agent__load_data&#45;&gt;rasa__core__agent__Agent___max_history -->
<g id="edge37" class="edge">
<title>rasa__core__agent__Agent__load_data&#45;&gt;rasa__core__agent__Agent___max_history</title>
<path fill="none" stroke="#000000" d="M3696.74,-295.22C3606.84,-280.16 3463.97,-256.23 3369.39,-240.39"/>
<polygon fill="#000000" stroke="#000000" points="3369.69,-236.89 3359.25,-238.69 3368.53,-243.8 3369.69,-236.89"/>
</g>
<!-- rasa__core__agent__Agent__train -->
<g id="node37" class="node">
<title>rasa__core__agent__Agent__train</title>
<ellipse fill="none" stroke="black" cx="2823.18" cy="-397.1" rx="131.81" ry="18"/>
<text text-anchor="middle" x="2823.18" y="-392.9" font-family="Times,serif" font-size="14.00">rasa__core__agent__Agent__train</text>
</g>
<!-- rasa__core__agent__Agent__train&#45;&gt;rasa__core__agent__Agent___create_domain -->
<g id="edge40" class="edge">
<title>rasa__core__agent__Agent__train&#45;&gt;rasa__core__agent__Agent___create_domain</title>
<path fill="none" stroke="#000000" d="M2832.4,-378.95C2838.2,-367.15 2845.15,-350.91 2848.18,-335.65 2853.85,-307.1 2848.14,-273.96 2842.4,-251.3"/>
<polygon fill="#000000" stroke="#000000" points="2845.7,-250.12 2839.71,-241.38 2838.95,-251.95 2845.7,-250.12"/>
</g>
<!-- rasa__core__agent__Agent__train&#45;&gt;rasa__core__agent__Agent___set_fingerprint -->
<g id="edge39" class="edge">
<title>rasa__core__agent__Agent__train&#45;&gt;rasa__core__agent__Agent___set_fingerprint</title>
<path fill="none" stroke="#000000" d="M2743.37,-382.7C2637.95,-364.99 2465.47,-335.97 2465.18,-335.65 2444.99,-313.02 2447.26,-276.39 2452.06,-251.37"/>
<polygon fill="#000000" stroke="#000000" points="2455.52,-251.94 2454.22,-241.43 2448.68,-250.46 2455.52,-251.94"/>
</g>
<!-- rasa__core__agent__Agent__train&#45;&gt;rasa__core__agent__Agent__is_core_ready -->
<g id="edge38" class="edge">
<title>rasa__core__agent__Agent__train&#45;&gt;rasa__core__agent__Agent__is_core_ready</title>
<path fill="none" stroke="#000000" d="M2744.82,-382.62C2722.94,-378.95 2699.15,-375.05 2677.18,-371.65 2570.28,-355.07 2447.94,-337.81 2362.24,-326"/>
<polygon fill="#000000" stroke="#000000" points="2362.62,-322.52 2352.23,-324.62 2361.66,-329.45 2362.62,-322.52"/>
</g>
<!-- rasa__core__agent__Agent__persist -->
<g id="node38" class="node">
<title>rasa__core__agent__Agent__persist</title>
<ellipse fill="none" stroke="black" cx="3112.18" cy="-397.1" rx="138.57" ry="18"/>
<text text-anchor="middle" x="3112.18" y="-392.9" font-family="Times,serif" font-size="14.00">rasa__core__agent__Agent__persist</text>
</g>
<!-- rasa__core__agent__Agent__persist&#45;&gt;rasa__core__agent__Agent__is_core_ready -->
<g id="edge41" class="edge">
<title>rasa__core__agent__Agent__persist&#45;&gt;rasa__core__agent__Agent__is_core_ready</title>
<path fill="none" stroke="#000000" d="M3035.56,-382.07C3012.66,-378.24 2987.46,-374.4 2964.18,-371.65 2743.37,-345.49 2686.57,-356.39 2465.18,-335.65 2433.56,-332.68 2399.34,-328.96 2367.82,-325.32"/>
<polygon fill="#000000" stroke="#000000" points="2368.02,-321.82 2357.68,-324.15 2367.21,-328.78 2368.02,-321.82"/>
</g>
<!-- rasa__core__agent__Agent___clear_model_directory -->
<g id="node39" class="node">
<title>rasa__core__agent__Agent___clear_model_directory</title>
<ellipse fill="none" stroke="black" cx="3100.18" cy="-310.19" rx="200.33" ry="18"/>
<text text-anchor="middle" x="3100.18" y="-305.99" font-family="Times,serif" font-size="14.00">rasa__core__agent__Agent___clear_model_directory</text>
</g>
<!-- rasa__core__agent__Agent__persist&#45;&gt;rasa__core__agent__Agent___clear_model_directory -->
<g id="edge42" class="edge">
<title>rasa__core__agent__Agent__persist&#45;&gt;rasa__core__agent__Agent___clear_model_directory</title>
<path fill="none" stroke="#000000" d="M3109.75,-378.92C3108.11,-367.3 3105.91,-351.7 3104.03,-338.4"/>
<polygon fill="#000000" stroke="#000000" points="3107.47,-337.76 3102.61,-328.35 3100.54,-338.74 3107.47,-337.76"/>
</g>
<!-- rasa__core__agent__Agent__visualize -->
<g id="node40" class="node">
<title>rasa__core__agent__Agent__visualize</title>
<ellipse fill="none" stroke="black" cx="3465.18" cy="-310.19" rx="147.26" ry="18"/>
<text text-anchor="middle" x="3465.18" y="-305.99" font-family="Times,serif" font-size="14.00">rasa__core__agent__Agent__visualize</text>
</g>
<!-- rasa__core__agent__Agent__visualize&#45;&gt;rasa__core__agent__Agent___create_domain -->
<g id="edge43" class="edge">
<title>rasa__core__agent__Agent__visualize&#45;&gt;rasa__core__agent__Agent___create_domain</title>
<path fill="none" stroke="#000000" d="M3380.24,-295.42C3357.2,-291.81 3332.25,-288.01 3309.18,-284.74 3188.15,-267.55 3049.44,-250.16 2953.3,-238.47"/>
<polygon fill="#000000" stroke="#000000" points="2953.6,-234.98 2943.25,-237.25 2952.76,-241.93 2953.6,-234.98"/>
</g>
<!-- rasa__core__agent__Agent__visualize&#45;&gt;rasa__core__agent__Agent___max_history -->
<g id="edge44" class="edge">
<title>rasa__core__agent__Agent__visualize&#45;&gt;rasa__core__agent__Agent___max_history</title>
<path fill="none" stroke="#000000" d="M3427.71,-292.62C3396.91,-279 3353.13,-259.64 3320.03,-245"/>
<polygon fill="#000000" stroke="#000000" points="3321.12,-241.65 3310.56,-240.81 3318.29,-248.06 3321.12,-241.65"/>
</g>
</g>
</svg>
