<?xml version="1.0" encoding="UTF-8" standalone="no"?>
<!DOCTYPE svg PUBLIC "-//W3C//DTD SVG 1.1//EN"
 "http://www.w3.org/Graphics/SVG/1.1/DTD/svg11.dtd">
<!-- Generated by graphviz version 7.1.0 (20230121.1956)
 -->
<!-- Title: 一个树形概率图模型 Pages: 1 -->
<svg width="142pt" height="209pt"
 viewBox="0.00 0.00 141.90 208.69" xmlns="http://www.w3.org/2000/svg" xmlns:xlink="http://www.w3.org/1999/xlink">
<g id="graph0" class="graph" transform="scale(1 1) rotate(0) translate(4 204.69)">
<title>一个树形概率图模型</title>
<polygon fill="white" stroke="none" points="-4,4 -4,-204.69 137.9,-204.69 137.9,4 -4,4"/>
<!-- 1 -->
<g id="node1" class="node">
<title>1</title>
<ellipse fill="none" stroke="black" cx="81.45" cy="-179.24" rx="21.4" ry="21.4"/>
<text text-anchor="start" x="72.95" y="-176.54" font-family="Times,serif" font-size="14.00">X</text>
<text text-anchor="start" x="82.95" y="-176.54" font-family="Times,serif" baseline-shift="sub" font-size="14.00">1</text>
</g>
<!-- 2 -->
<g id="node2" class="node">
<title>2</title>
<ellipse fill="none" stroke="black" cx="51.45" cy="-100.34" rx="21.4" ry="21.4"/>
<text text-anchor="start" x="42.95" y="-97.64" font-family="Times,serif" font-size="14.00">X</text>
<text text-anchor="start" x="52.95" y="-97.64" font-family="Times,serif" baseline-shift="sub" font-size="14.00">2</text>
</g>
<!-- 1&#45;&gt;2 -->
<g id="edge1" class="edge">
<title>1&#45;&gt;2</title>
<path fill="none" stroke="black" d="M73.88,-158.84C69.33,-147.18 63.56,-132.4 59.02,-120.74"/>
</g>
<!-- 3 -->
<g id="node3" class="node">
<title>3</title>
<ellipse fill="none" stroke="black" cx="112.45" cy="-100.34" rx="21.4" ry="21.4"/>
<text text-anchor="start" x="103.95" y="-97.64" font-family="Times,serif" font-size="14.00">X</text>
<text text-anchor="start" x="113.95" y="-97.64" font-family="Times,serif" baseline-shift="sub" font-size="14.00">3</text>
</g>
<!-- 1&#45;&gt;3 -->
<g id="edge2" class="edge">
<title>1&#45;&gt;3</title>
<path fill="none" stroke="black" d="M89.27,-158.84C93.97,-147.18 99.93,-132.4 104.63,-120.74"/>
</g>
<!-- 4 -->
<g id="node4" class="node">
<title>4</title>
<ellipse fill="none" stroke="black" cx="21.45" cy="-21.45" rx="21.4" ry="21.4"/>
<text text-anchor="start" x="12.95" y="-18.75" font-family="Times,serif" font-size="14.00">X</text>
<text text-anchor="start" x="22.95" y="-18.75" font-family="Times,serif" baseline-shift="sub" font-size="14.00">4</text>
</g>
<!-- 2&#45;&gt;4 -->
<g id="edge3" class="edge">
<title>2&#45;&gt;4</title>
<path fill="none" stroke="black" d="M43.88,-79.94C39.33,-68.28 33.56,-53.5 29.02,-41.85"/>
</g>
<!-- 5 -->
<g id="node5" class="node">
<title>5</title>
<ellipse fill="none" stroke="black" cx="82.45" cy="-21.45" rx="21.4" ry="21.4"/>
<text text-anchor="start" x="73.95" y="-18.75" font-family="Times,serif" font-size="14.00">X</text>
<text text-anchor="start" x="83.95" y="-18.75" font-family="Times,serif" baseline-shift="sub" font-size="14.00">5</text>
</g>
<!-- 2&#45;&gt;5 -->
<g id="edge4" class="edge">
<title>2&#45;&gt;5</title>
<path fill="none" stroke="black" d="M59.27,-79.94C63.97,-68.28 69.93,-53.5 74.63,-41.85"/>
</g>
</g>
</svg>
