<?xml version="1.0" encoding="UTF-8" standalone="no"?>
<!DOCTYPE svg PUBLIC "-//W3C//DTD SVG 1.1//EN"
 "http://www.w3.org/Graphics/SVG/1.1/DTD/svg11.dtd">
<!-- Generated by graphviz version 7.1.0 (20230121.1956)
 -->
<!-- Title: Zå’ŒXçš„å…³ç³» Pages: 1 -->
<svg width="178pt" height="312pt"
 viewBox="0.00 0.00 177.65 311.65" xmlns="http://www.w3.org/2000/svg" xmlns:xlink="http://www.w3.org/1999/xlink">
<g id="graph0" class="graph" transform="scale(1 1) rotate(0) translate(4 307.65)">
<title>Zå’ŒXçš„å…³ç³»</title>
<polygon fill="white" stroke="none" points="-4,4 -4,-307.65 173.65,-307.65 173.65,4 -4,4"/>
<!-- X1 -->
<g id="node1" class="node">
<title>X1</title>
<ellipse fill="lightgrey" stroke="black" cx="135.32" cy="-269.32" rx="34.15" ry="34.15"/>
<text text-anchor="start" x="114.32" y="-266.62" font-family="Times,serif" font-size="14.00">X</text>
<text text-anchor="start" x="124.32" y="-266.62" font-family="Times,serif" baseline-shift="sub" font-size="14.00">1</text>
<text text-anchor="start" x="131.32" y="-266.62" font-family="Times,serif" font-size="14.00">(ğœƒ</text>
<text text-anchor="start" x="144.32" y="-266.62" font-family="Times,serif" baseline-shift="sub" font-size="14.00">1</text>
<text text-anchor="start" x="151.32" y="-266.62" font-family="Times,serif" font-size="14.00">)</text>
</g>
<!-- X2 -->
<g id="node2" class="node">
<title>X2</title>
<ellipse fill="lightgrey" stroke="black" cx="135.32" cy="-182.32" rx="34.15" ry="34.15"/>
<text text-anchor="start" x="114.32" y="-179.62" font-family="Times,serif" font-size="14.00">X</text>
<text text-anchor="start" x="124.32" y="-179.62" font-family="Times,serif" baseline-shift="sub" font-size="14.00">2</text>
<text text-anchor="start" x="131.32" y="-179.62" font-family="Times,serif" font-size="14.00">(ğœƒ</text>
<text text-anchor="start" x="144.32" y="-179.62" font-family="Times,serif" baseline-shift="sub" font-size="14.00">2</text>
<text text-anchor="start" x="151.32" y="-179.62" font-family="Times,serif" font-size="14.00">)</text>
</g>
<!-- X3 -->
<g id="node3" class="node">
<title>X3</title>
<ellipse fill="lightgrey" stroke="black" cx="135.32" cy="-108.32" rx="21.5" ry="21.5"/>
<text text-anchor="middle" x="135.32" y="-104.62" font-family="Times,serif" font-size="14.00">...</text>
</g>
<!-- XK -->
<g id="node4" class="node">
<title>XK</title>
<ellipse fill="lightgrey" stroke="black" cx="135.32" cy="-34.32" rx="34.15" ry="34.15"/>
<text text-anchor="start" x="114.32" y="-31.62" font-family="Times,serif" font-size="14.00">X</text>
<text text-anchor="start" x="124.32" y="-31.62" font-family="Times,serif" baseline-shift="sub" font-size="14.00">k</text>
<text text-anchor="start" x="131.32" y="-31.62" font-family="Times,serif" font-size="14.00">(ğœƒ</text>
<text text-anchor="start" x="144.32" y="-31.62" font-family="Times,serif" baseline-shift="sub" font-size="14.00">k</text>
<text text-anchor="start" x="151.32" y="-31.62" font-family="Times,serif" font-size="14.00">)</text>
</g>
<!-- Z -->
<g id="node5" class="node">
<title>Z</title>
<ellipse fill="none" stroke="black" cx="21.5" cy="-145.32" rx="21.5" ry="21.5"/>
<text text-anchor="middle" x="21.5" y="-141.62" font-family="Times,serif" font-size="14.00">Z</text>
</g>
<!-- Z&#45;&gt;X1 -->
<g id="edge1" class="edge">
<title>Z&#45;&gt;X1</title>
<path fill="none" stroke="black" d="M36.66,-161.03C53.59,-179.8 82.38,-211.72 104.33,-236.06"/>
<polygon fill="black" stroke="black" points="101.47,-238.11 110.76,-243.2 106.66,-233.43 101.47,-238.11"/>
<text text-anchor="middle" x="72" y="-214.12" font-family="Times,serif" font-size="14.00">z=1</text>
</g>
<!-- Z&#45;&gt;X2 -->
<g id="edge2" class="edge">
<title>Z&#45;&gt;X2</title>
<path fill="none" stroke="black" d="M42.23,-151.85C55.92,-156.38 74.66,-162.58 91.67,-168.21"/>
<polygon fill="black" stroke="black" points="90.5,-171.51 101.09,-171.33 92.69,-164.86 90.5,-171.51"/>
<text text-anchor="middle" x="72" y="-168.12" font-family="Times,serif" font-size="14.00">z=2</text>
</g>
<!-- Z&#45;&gt;X3 -->
<g id="edge3" class="edge">
<title>Z&#45;&gt;X3</title>
<path fill="none" stroke="black" d="M42.23,-138.79C59.22,-133.17 84,-124.97 103.58,-118.49"/>
<polygon fill="black" stroke="black" points="104.58,-121.85 112.97,-115.39 102.38,-115.21 104.58,-121.85"/>
<text text-anchor="middle" x="72" y="-135.12" font-family="Times,serif" font-size="14.00">...</text>
</g>
<!-- Z&#45;&gt;XK -->
<g id="edge4" class="edge">
<title>Z&#45;&gt;XK</title>
<path fill="none" stroke="black" d="M37.07,-130.45C44.25,-123.16 53.05,-114.25 61,-106.32 74.37,-92.99 89.21,-78.38 102.03,-65.82"/>
<polygon fill="black" stroke="black" points="104.34,-68.46 109.04,-58.96 99.45,-63.45 104.34,-68.46"/>
<text text-anchor="middle" x="72" y="-110.12" font-family="Times,serif" font-size="14.00">z=k</text>
</g>
</g>
</svg>
