<?xml version="1.0" encoding="UTF-8" standalone="no"?>
<!DOCTYPE svg PUBLIC "-//W3C//DTD SVG 1.1//EN"
 "http://www.w3.org/Graphics/SVG/1.1/DTD/svg11.dtd">
<!-- Generated by graphviz version 2.43.0 (0)
 -->
<!-- Title: é«˜æ–¯æ··åˆæ¨¡å‹çš„æœ‰å‘å›¾è¡¨ç¤º Pages: 1 -->
<svg width="204pt" height="234pt"
 viewBox="0.00 0.00 204.00 234.00" xmlns="http://www.w3.org/2000/svg" xmlns:xlink="http://www.w3.org/1999/xlink">
<g id="graph0" class="graph" transform="scale(1 1) rotate(0) translate(4 230)">
<title>é«˜æ–¯æ··åˆæ¨¡å‹çš„æœ‰å‘å›¾è¡¨ç¤º</title>
<polygon fill="white" stroke="transparent" points="-4,4 -4,-230 200,-230 200,4 -4,4"/>
<g id="clust1" class="cluster">
<title>cluster_a</title>
<polygon fill="none" stroke="black" points="64,-144 64,-218 188,-218 188,-144 64,-144"/>
<text text-anchor="middle" x="126" y="-202.8" font-family="Times,serif" font-size="14.00">N</text>
</g>
<g id="clust3" class="cluster">
<title>cluster_b</title>
<polygon fill="none" stroke="black" points="64,-8 64,-136 116,-136 116,-8 64,-8"/>
<text text-anchor="middle" x="90" y="-120.8" font-family="Times,serif" font-size="14.00">K</text>
</g>
<!-- lambda -->
<g id="node1" class="node">
<title>lambda</title>
<text text-anchor="middle" x="18" y="-169.37" font-family="Times,serif" font-size="14.00">ğœ†</text>
</g>
<!-- Z -->
<g id="node2" class="node">
<title>Z</title>
<ellipse fill="none" stroke="black" cx="90" cy="-170" rx="18" ry="18"/>
<text text-anchor="start" x="83.78" y="-166.8" font-family="Times,serif" font-size="14.00">Z</text>
<text text-anchor="start" x="92.33" y="-166.8" font-family="Times,serif" baseline-shift="sub" font-size="14.00">i</text>
</g>
<!-- lambda&#45;&gt;Z -->
<g id="edge2" class="edge">
<title>lambda&#45;&gt;Z</title>
<path fill="none" stroke="black" d="M36.3,-170C44.02,-170 53.29,-170 61.89,-170"/>
<polygon fill="black" stroke="black" points="61.9,-173.5 71.9,-170 61.9,-166.5 61.9,-173.5"/>
</g>
<!-- X -->
<g id="node3" class="node">
<title>X</title>
<ellipse fill="none" stroke="black" cx="162" cy="-170" rx="18" ry="18"/>
<text text-anchor="start" x="155" y="-166.8" font-family="Times,serif" font-size="14.00">X</text>
<text text-anchor="start" x="165.11" y="-166.8" font-family="Times,serif" baseline-shift="sub" font-size="14.00">i</text>
</g>
<!-- Z&#45;&gt;X -->
<g id="edge1" class="edge">
<title>Z&#45;&gt;X</title>
<path fill="none" stroke="black" d="M108.3,-170C116.02,-170 125.29,-170 133.89,-170"/>
<polygon fill="black" stroke="black" points="133.9,-173.5 143.9,-170 133.9,-166.5 133.9,-173.5"/>
</g>
<!-- mu -->
<g id="node4" class="node">
<title>mu</title>
<text text-anchor="start" x="82.45" y="-88.37" font-family="Times,serif" font-size="14.00">ğœ‡</text>
<text text-anchor="start" x="90.55" y="-88.37" font-family="Times,serif" baseline-shift="sub" font-size="14.00">k</text>
</g>
<!-- mu&#45;&gt;X -->
<g id="edge3" class="edge">
<title>mu&#45;&gt;X</title>
<path fill="none" stroke="black" d="M106.54,-106.2C117.34,-118.86 131.78,-135.77 143.08,-149"/>
<polygon fill="black" stroke="black" points="140.49,-151.36 149.64,-156.69 145.81,-146.82 140.49,-151.36"/>
</g>
<!-- sigma -->
<g id="node5" class="node">
<title>sigma</title>
<text text-anchor="start" x="79.24" y="-34.37" font-family="Times,serif" font-size="14.00">ğœ</text>
<text text-anchor="start" x="86.76" y="-34.37" font-family="Times,serif" baseline-shift="super" font-size="14.00">2</text>
<text text-anchor="start" x="93.76" y="-34.37" font-family="Times,serif" baseline-shift="sub" font-size="14.00">k</text>
</g>
<!-- sigma&#45;&gt;X -->
<g id="edge4" class="edge">
<title>sigma&#45;&gt;X</title>
<path fill="none" stroke="black" d="M108.12,-50.67C110.96,-53.93 113.73,-57.45 116,-61 132.65,-87.02 145.31,-120.23 152.89,-143.12"/>
<polygon fill="black" stroke="black" points="149.63,-144.4 156.02,-152.85 156.29,-142.26 149.63,-144.4"/>
</g>
</g>
</svg>
