<?xml version="1.0" encoding="UTF-8" standalone="no"?>
<!DOCTYPE svg PUBLIC "-//W3C//DTD SVG 1.1//EN"
 "http://www.w3.org/Graphics/SVG/1.1/DTD/svg11.dtd">
<!-- Generated by graphviz version 7.1.0 (20230121.1956)
 -->
<!-- Title: 生成模型与判别模型 Pages: 1 -->
<svg width="624pt" height="260pt"
 viewBox="0.00 0.00 624.00 259.79" xmlns="http://www.w3.org/2000/svg" xmlns:xlink="http://www.w3.org/1999/xlink">
<g id="graph0" class="graph" transform="scale(1 1) rotate(0) translate(4 255.79)">
<title>生成模型与判别模型</title>
<polygon fill="white" stroke="none" points="-4,4 -4,-255.79 620,-255.79 620,4 -4,4"/>
<g id="clust1" class="cluster">
<title>cluster_1</title>
<polygon fill="none" stroke="none" points="8,-89.9 8,-243.79 304,-243.79 304,-89.9 8,-89.9"/>
<text text-anchor="middle" x="156" y="-97.7" font-family="Times,serif" font-size="14.00">(a)</text>
</g>
<g id="clust3" class="cluster">
<title>cluster_2</title>
<polygon fill="none" stroke="none" points="312,-8 312,-243.79 608,-243.79 608,-8 312,-8"/>
<text text-anchor="middle" x="460" y="-15.8" font-family="Times,serif" font-size="14.00">(b)</text>
</g>
<!-- a_x1 -->
<g id="node1" class="node">
<title>a_x1</title>
<ellipse fill="none" stroke="black" cx="37" cy="-142.34" rx="21.4" ry="21.4"/>
<text text-anchor="start" x="28.5" y="-139.64" font-family="Times,serif" font-size="14.00">X</text>
<text text-anchor="start" x="38.5" y="-139.64" font-family="Times,serif" baseline-shift="sub" font-size="14.00">1</text>
</g>
<!-- a_x2 -->
<g id="node2" class="node">
<title>a_x2</title>
<ellipse fill="none" stroke="black" cx="98" cy="-142.34" rx="21.4" ry="21.4"/>
<text text-anchor="start" x="89.5" y="-139.64" font-family="Times,serif" font-size="14.00">X</text>
<text text-anchor="start" x="99.5" y="-139.64" font-family="Times,serif" baseline-shift="sub" font-size="14.00">2</text>
</g>
<!-- a_x3 -->
<g id="node3" class="node">
<title>a_x3</title>
<ellipse fill="none" stroke="black" cx="159" cy="-142.34" rx="21.4" ry="21.4"/>
<text text-anchor="start" x="150.5" y="-139.64" font-family="Times,serif" font-size="14.00">X</text>
<text text-anchor="start" x="160.5" y="-139.64" font-family="Times,serif" baseline-shift="sub" font-size="14.00">3</text>
</g>
<!-- a_xh -->
<g id="node4" class="node">
<title>a_xh</title>
<ellipse fill="none" stroke="none" cx="217" cy="-142.34" rx="18.4" ry="18.4"/>
<text text-anchor="middle" x="217" y="-138.64" font-family="Times,serif" font-size="14.00">...</text>
</g>
<!-- a_xn -->
<g id="node5" class="node">
<title>a_xn</title>
<ellipse fill="none" stroke="black" cx="275" cy="-142.34" rx="21.4" ry="21.4"/>
<text text-anchor="start" x="266.5" y="-139.64" font-family="Times,serif" font-size="14.00">X</text>
<text text-anchor="start" x="276.5" y="-139.64" font-family="Times,serif" baseline-shift="sub" font-size="14.00">n</text>
</g>
<!-- a_y -->
<g id="node6" class="node">
<title>a_y</title>
<ellipse fill="none" stroke="black" cx="159" cy="-217.79" rx="18" ry="18"/>
<text text-anchor="middle" x="159" y="-214.09" font-family="Times,serif" font-size="14.00">Y</text>
</g>
<!-- a_y&#45;&gt;a_x1 -->
<g id="edge2" class="edge">
<title>a_y&#45;&gt;a_x1</title>
<path fill="none" stroke="black" d="M143.39,-208.05C125.13,-197.75 94.1,-179.98 68,-163.79 66.77,-163.03 65.51,-162.24 64.25,-161.44"/>
<polygon fill="black" stroke="black" points="66.16,-158.51 55.87,-156.02 62.36,-164.39 66.16,-158.51"/>
</g>
<!-- a_y&#45;&gt;a_x2 -->
<g id="edge3" class="edge">
<title>a_y&#45;&gt;a_x2</title>
<path fill="none" stroke="black" d="M147.81,-203.32C139.64,-193.49 128.34,-179.87 118.56,-168.1"/>
<polygon fill="black" stroke="black" points="121.51,-166.17 112.43,-160.72 116.12,-170.64 121.51,-166.17"/>
</g>
<!-- a_y&#45;&gt;a_x3 -->
<g id="edge4" class="edge">
<title>a_y&#45;&gt;a_x3</title>
<path fill="none" stroke="black" d="M159,-199.39C159,-192.18 159,-183.58 159,-175.31"/>
<polygon fill="black" stroke="black" points="162.5,-175.53 159,-165.53 155.5,-175.53 162.5,-175.53"/>
</g>
<!-- a_y&#45;&gt;a_xh -->
<g id="edge1" class="edge">
<title>a_y&#45;&gt;a_xh</title>
</g>
<!-- a_y&#45;&gt;a_xn -->
<g id="edge5" class="edge">
<title>a_y&#45;&gt;a_xn</title>
<path fill="none" stroke="black" d="M174.12,-207.53C191.17,-197.04 219.7,-179.38 244,-163.79 245.22,-163.01 246.47,-162.21 247.72,-161.39"/>
<polygon fill="black" stroke="black" points="249.62,-164.33 256.08,-155.93 245.79,-158.47 249.62,-164.33"/>
</g>
<!-- b_x1 -->
<g id="node7" class="node">
<title>b_x1</title>
<ellipse fill="none" stroke="black" cx="341" cy="-60.45" rx="21.4" ry="21.4"/>
<text text-anchor="start" x="332.5" y="-57.75" font-family="Times,serif" font-size="14.00">X</text>
<text text-anchor="start" x="342.5" y="-57.75" font-family="Times,serif" baseline-shift="sub" font-size="14.00">1</text>
</g>
<!-- b_x2 -->
<g id="node8" class="node">
<title>b_x2</title>
<ellipse fill="none" stroke="black" cx="402" cy="-60.45" rx="21.4" ry="21.4"/>
<text text-anchor="start" x="393.5" y="-57.75" font-family="Times,serif" font-size="14.00">X</text>
<text text-anchor="start" x="403.5" y="-57.75" font-family="Times,serif" baseline-shift="sub" font-size="14.00">2</text>
</g>
<!-- b_x3 -->
<g id="node9" class="node">
<title>b_x3</title>
<ellipse fill="none" stroke="black" cx="463" cy="-60.45" rx="21.4" ry="21.4"/>
<text text-anchor="start" x="454.5" y="-57.75" font-family="Times,serif" font-size="14.00">X</text>
<text text-anchor="start" x="464.5" y="-57.75" font-family="Times,serif" baseline-shift="sub" font-size="14.00">3</text>
</g>
<!-- b_xh -->
<g id="node10" class="node">
<title>b_xh</title>
<ellipse fill="none" stroke="none" cx="521" cy="-60.45" rx="18.4" ry="18.4"/>
<text text-anchor="middle" x="521" y="-56.75" font-family="Times,serif" font-size="14.00">...</text>
</g>
<!-- b_xn -->
<g id="node11" class="node">
<title>b_xn</title>
<ellipse fill="none" stroke="black" cx="579" cy="-60.45" rx="21.4" ry="21.4"/>
<text text-anchor="start" x="570.5" y="-57.75" font-family="Times,serif" font-size="14.00">X</text>
<text text-anchor="start" x="580.5" y="-57.75" font-family="Times,serif" baseline-shift="sub" font-size="14.00">n</text>
</g>
<!-- b_y -->
<g id="node12" class="node">
<title>b_y</title>
<ellipse fill="none" stroke="black" cx="463" cy="-217.79" rx="18" ry="18"/>
<text text-anchor="middle" x="463" y="-214.09" font-family="Times,serif" font-size="14.00">Y</text>
</g>
<!-- b_s1 -->
<g id="node13" class="node">
<title>b_s1</title>
<polygon fill="none" stroke="black" points="371.5,-145.84 364.5,-145.84 364.5,-138.84 371.5,-138.84 371.5,-145.84"/>
</g>
<!-- b_y&#45;&gt;b_s1 -->
<g id="edge7" class="edge">
<title>b_y&#45;&gt;b_s1</title>
<path fill="none" stroke="black" d="M448.98,-205.95C426.69,-188.72 384.36,-155.99 371.68,-146.19"/>
</g>
<!-- b_s2 -->
<g id="node14" class="node">
<title>b_s2</title>
<polygon fill="none" stroke="black" points="423.5,-145.84 416.5,-145.84 416.5,-138.84 423.5,-138.84 423.5,-145.84"/>
</g>
<!-- b_y&#45;&gt;b_s2 -->
<g id="edge8" class="edge">
<title>b_y&#45;&gt;b_s2</title>
<path fill="none" stroke="black" d="M454.3,-201.93C443.79,-183.99 426.88,-155.1 421.62,-146.11"/>
</g>
<!-- b_s3 -->
<g id="node15" class="node">
<title>b_s3</title>
<polygon fill="none" stroke="black" points="466.5,-145.84 459.5,-145.84 459.5,-138.84 466.5,-138.84 466.5,-145.84"/>
</g>
<!-- b_y&#45;&gt;b_s3 -->
<g id="edge9" class="edge">
<title>b_y&#45;&gt;b_s3</title>
<path fill="none" stroke="black" d="M463,-199.39C463,-181.4 463,-154.77 463,-146.15"/>
</g>
<!-- b_sh -->
<g id="node16" class="node">
<title>b_sh</title>
<polygon fill="none" stroke="none" points="507.5,-145.84 500.5,-145.84 500.5,-138.84 507.5,-138.84 507.5,-145.84"/>
</g>
<!-- b_y&#45;&gt;b_sh -->
<g id="edge6" class="edge">
<title>b_y&#45;&gt;b_sh</title>
</g>
<!-- b_sn -->
<g id="node17" class="node">
<title>b_sn</title>
<polygon fill="none" stroke="black" points="557.5,-145.84 550.5,-145.84 550.5,-138.84 557.5,-138.84 557.5,-145.84"/>
</g>
<!-- b_y&#45;&gt;b_sn -->
<g id="edge10" class="edge">
<title>b_y&#45;&gt;b_sn</title>
<path fill="none" stroke="black" d="M476.82,-205.64C498.3,-188.3 538.48,-155.87 550.51,-146.16"/>
</g>
<!-- b_s1&#45;&gt;b_x1 -->
<g id="edge11" class="edge">
<title>b_s1&#45;&gt;b_x1</title>
<path fill="none" stroke="black" d="M367.1,-138.69C364.12,-129.86 354.35,-100.96 347.65,-81.13"/>
</g>
<!-- b_s2&#45;&gt;b_x2 -->
<g id="edge12" class="edge">
<title>b_s2&#45;&gt;b_x2</title>
<path fill="none" stroke="black" d="M419.4,-138.69C417.42,-129.91 410.98,-101.31 406.52,-81.49"/>
</g>
<!-- b_s3&#45;&gt;b_x3 -->
<g id="edge13" class="edge">
<title>b_s3&#45;&gt;b_x3</title>
<path fill="none" stroke="black" d="M463,-138.69C463,-130.02 463,-102.02 463,-82.23"/>
</g>
<!-- b_sh&#45;&gt;b_xh -->
<g id="edge15" class="edge">
<title>b_sh&#45;&gt;b_xh</title>
</g>
<!-- b_sn&#45;&gt;b_xn -->
<g id="edge14" class="edge">
<title>b_sn&#45;&gt;b_xn</title>
<path fill="none" stroke="black" d="M554.83,-138.69C557.59,-129.86 566.64,-100.96 572.84,-81.13"/>
</g>
</g>
</svg>
