<?xml version="1.0" encoding="UTF-8" standalone="no"?>
<!DOCTYPE svg PUBLIC "-//W3C//DTD SVG 1.1//EN"
 "http://www.w3.org/Graphics/SVG/1.1/DTD/svg11.dtd">
<!-- Generated by graphviz version 2.43.0 (0)
 -->
<!-- Title: demo_4 Pages: 1 -->
<svg width="261pt" height="188pt"
 viewBox="0.00 0.00 260.99 188.25" xmlns="http://www.w3.org/2000/svg" xmlns:xlink="http://www.w3.org/1999/xlink">
<g id="graph0" class="graph" transform="scale(1 1) rotate(0) translate(4 184.25)">
<title>demo_4</title>
<polygon fill="white" stroke="transparent" points="-4,4 -4,-184.25 256.99,-184.25 256.99,4 -4,4"/>
<!-- a -->
<g id="node1" class="node">
<title>a</title>
<ellipse fill="none" stroke="black" cx="82.67" cy="-78.07" rx="27" ry="18"/>
<text text-anchor="middle" x="82.67" y="-73.87" font-family="Times,serif" font-size="14.00">a</text>
</g>
<!-- b -->
<g id="node2" class="node">
<title>b</title>
<ellipse fill="none" stroke="black" cx="155.7" cy="-89.85" rx="27" ry="18"/>
<text text-anchor="middle" x="155.7" y="-85.65" font-family="Times,serif" font-size="14.00">b</text>
</g>
<!-- a&#45;&gt;b -->
<g id="edge1" class="edge">
<title>a&#45;&gt;b</title>
<path fill="none" stroke="black" d="M109.04,-82.32C112.31,-82.85 115.69,-83.39 119.08,-83.94"/>
<polygon fill="black" stroke="black" points="118.7,-87.42 129.13,-85.56 119.81,-80.51 118.7,-87.42"/>
</g>
<!-- c -->
<g id="node3" class="node">
<title>c</title>
<ellipse fill="none" stroke="black" cx="44.59" cy="-18" rx="27" ry="18"/>
<text text-anchor="middle" x="44.59" y="-13.8" font-family="Times,serif" font-size="14.00">c</text>
</g>
<!-- a&#45;&gt;c -->
<g id="edge2" class="edge">
<title>a&#45;&gt;c</title>
<path fill="none" stroke="black" d="M72.07,-61.33C68.52,-55.74 64.48,-49.37 60.61,-43.27"/>
<polygon fill="black" stroke="black" points="63.45,-41.21 55.14,-34.64 57.54,-44.96 63.45,-41.21"/>
</g>
<!-- d -->
<g id="node4" class="node">
<title>d</title>
<ellipse fill="none" stroke="black" cx="27" cy="-122.07" rx="27" ry="18"/>
<text text-anchor="middle" x="27" y="-117.87" font-family="Times,serif" font-size="14.00">d</text>
</g>
<!-- a&#45;&gt;d -->
<g id="edge3" class="edge">
<title>a&#45;&gt;d</title>
<path fill="none" stroke="black" d="M65.06,-91.99C61.1,-95.12 56.82,-98.5 52.61,-101.83"/>
<polygon fill="black" stroke="black" points="50.37,-99.14 44.69,-108.09 54.71,-104.63 50.37,-99.14"/>
</g>
<!-- e -->
<g id="node5" class="node">
<title>e</title>
<ellipse fill="none" stroke="black" cx="225.99" cy="-100.4" rx="27" ry="18"/>
<text text-anchor="middle" x="225.99" y="-96.2" font-family="Times,serif" font-size="14.00">e</text>
</g>
<!-- b&#45;&gt;e -->
<g id="edge4" class="edge">
<title>b&#45;&gt;e</title>
<path fill="none" stroke="black" d="M182.27,-93.84C184.64,-94.19 187.05,-94.55 189.48,-94.92"/>
<polygon fill="black" stroke="black" points="188.97,-98.38 199.38,-96.4 190.01,-91.46 188.97,-98.38"/>
</g>
<!-- f -->
<g id="node6" class="node">
<title>f</title>
<ellipse fill="none" stroke="black" cx="164.08" cy="-162.25" rx="27" ry="18"/>
<text text-anchor="middle" x="164.08" y="-158.05" font-family="Times,serif" font-size="14.00">f</text>
</g>
<!-- b&#45;&gt;f -->
<g id="edge5" class="edge">
<title>b&#45;&gt;f</title>
<path fill="none" stroke="black" d="M157.81,-108.12C158.72,-115.98 159.81,-125.35 160.82,-134.07"/>
<polygon fill="black" stroke="black" points="157.37,-134.71 161.99,-144.24 164.32,-133.9 157.37,-134.71"/>
</g>
<!-- g -->
<g id="node7" class="node">
<title>g</title>
<ellipse fill="none" stroke="black" cx="185.71" cy="-23.33" rx="27" ry="18"/>
<text text-anchor="middle" x="185.71" y="-19.13" font-family="Times,serif" font-size="14.00">g</text>
</g>
<!-- b&#45;&gt;g -->
<g id="edge6" class="edge">
<title>b&#45;&gt;g</title>
<path fill="none" stroke="black" d="M163.58,-72.37C166.66,-65.55 170.26,-57.58 173.65,-50.07"/>
<polygon fill="black" stroke="black" points="176.85,-51.47 177.78,-40.92 170.47,-48.6 176.85,-51.47"/>
</g>
</g>
</svg>
