<?xml version="1.0" encoding="UTF-8" standalone="no"?>
<!DOCTYPE svg PUBLIC "-//W3C//DTD SVG 1.1//EN"
 "http://www.w3.org/Graphics/SVG/1.1/DTD/svg11.dtd">
<!-- Generated by graphviz version 2.43.0 (0)
 -->
<!-- Title: Similarity_Loss Pages: 1 -->
<svg width="182pt" height="288pt"
 viewBox="0.00 0.00 182.21 288.00" xmlns="http://www.w3.org/2000/svg" xmlns:xlink="http://www.w3.org/1999/xlink">
<g id="graph0" class="graph" transform="scale(1 1) rotate(0) translate(4 284)">
<title>Similarity_Loss</title>
<polygon fill="white" stroke="transparent" points="-4,4 -4,-284 178.21,-284 178.21,4 -4,4"/>
<text text-anchor="middle" x="87.1" y="-8" font-family="Times,serif" font-size="20.00">Similarity Loss</text>
<!-- input_1 -->
<g id="node1" class="node">
<title>input_1</title>
<polygon fill="lightgrey" stroke="black" points="66.1,-280 12.1,-280 12.1,-244 66.1,-244 66.1,-280"/>
<text text-anchor="middle" x="39.1" y="-257.8" font-family="Times,serif" font-size="14.00">input1</text>
</g>
<!-- embeding_1 -->
<g id="node3" class="node">
<title>embeding_1</title>
<polygon fill="lightgrey" stroke="black" points="78.31,-208 -0.1,-208 -0.1,-172 78.31,-172 78.31,-208"/>
<text text-anchor="middle" x="39.1" y="-185.8" font-family="Times,serif" font-size="14.00">embedding</text>
</g>
<!-- input_1&#45;&gt;embeding_1 -->
<g id="edge1" class="edge">
<title>input_1&#45;&gt;embeding_1</title>
<path fill="none" stroke="black" d="M39.1,-243.7C39.1,-235.98 39.1,-226.71 39.1,-218.11"/>
<polygon fill="black" stroke="black" points="42.6,-218.1 39.1,-208.1 35.6,-218.1 42.6,-218.1"/>
</g>
<!-- input_2 -->
<g id="node2" class="node">
<title>input_2</title>
<polygon fill="lightgrey" stroke="black" points="162.1,-280 108.1,-280 108.1,-244 162.1,-244 162.1,-280"/>
<text text-anchor="middle" x="135.1" y="-257.8" font-family="Times,serif" font-size="14.00">input2</text>
</g>
<!-- embeding_2 -->
<g id="node4" class="node">
<title>embeding_2</title>
<polygon fill="lightgrey" stroke="black" points="174.31,-208 95.9,-208 95.9,-172 174.31,-172 174.31,-208"/>
<text text-anchor="middle" x="135.1" y="-185.8" font-family="Times,serif" font-size="14.00">embedding</text>
</g>
<!-- input_2&#45;&gt;embeding_2 -->
<g id="edge2" class="edge">
<title>input_2&#45;&gt;embeding_2</title>
<path fill="none" stroke="black" d="M135.1,-243.7C135.1,-235.98 135.1,-226.71 135.1,-218.11"/>
<polygon fill="black" stroke="black" points="138.6,-218.1 135.1,-208.1 131.6,-218.1 138.6,-218.1"/>
</g>
<!-- similarity -->
<g id="node5" class="node">
<title>similarity</title>
<polygon fill="lightgrey" stroke="black" points="121.77,-136 52.44,-136 52.44,-100 121.77,-100 121.77,-136"/>
<text text-anchor="middle" x="87.1" y="-113.8" font-family="Times,serif" font-size="14.00">similarity</text>
</g>
<!-- embeding_1&#45;&gt;similarity -->
<g id="edge3" class="edge">
<title>embeding_1&#45;&gt;similarity</title>
<path fill="none" stroke="black" d="M50.97,-171.7C56.61,-163.47 63.46,-153.48 69.67,-144.42"/>
<polygon fill="black" stroke="black" points="72.61,-146.33 75.37,-136.1 66.83,-142.37 72.61,-146.33"/>
</g>
<!-- embeding_2&#45;&gt;similarity -->
<g id="edge4" class="edge">
<title>embeding_2&#45;&gt;similarity</title>
<path fill="none" stroke="black" d="M123.24,-171.7C117.6,-163.47 110.75,-153.48 104.53,-144.42"/>
<polygon fill="black" stroke="black" points="107.37,-142.37 98.83,-136.1 101.6,-146.33 107.37,-142.37"/>
</g>
<!-- loss -->
<g id="node6" class="node">
<title>loss</title>
<polygon fill="lightgrey" stroke="black" points="126.21,-64 48,-64 48,-28 126.21,-28 126.21,-64"/>
<text text-anchor="middle" x="87.1" y="-41.8" font-family="Times,serif" font-size="14.00">Intent Loss</text>
</g>
<!-- similarity&#45;&gt;loss -->
<g id="edge5" class="edge">
<title>similarity&#45;&gt;loss</title>
<path fill="none" stroke="black" d="M87.1,-99.7C87.1,-91.98 87.1,-82.71 87.1,-74.11"/>
<polygon fill="black" stroke="black" points="90.6,-74.1 87.1,-64.1 83.6,-74.1 90.6,-74.1"/>
</g>
</g>
</svg>
